<?xml version="1.0" encoding="utf-8" standalone="no"?>
<!DOCTYPE svg PUBLIC "-//W3C//DTD SVG 1.1//EN"
  "http://www.w3.org/Graphics/SVG/1.1/DTD/svg11.dtd">
<!-- Created with matplotlib (https://matplotlib.org/) -->
<svg height="432pt" version="1.1" viewBox="0 0 777.6 432" width="777.6pt" xmlns="http://www.w3.org/2000/svg" xmlns:xlink="http://www.w3.org/1999/xlink">
 <metadata>
  <rdf:RDF xmlns:cc="http://creativecommons.org/ns#" xmlns:dc="http://purl.org/dc/elements/1.1/" xmlns:rdf="http://www.w3.org/1999/02/22-rdf-syntax-ns#">
   <cc:Work>
    <dc:type rdf:resource="http://purl.org/dc/dcmitype/StillImage"/>
    <dc:date>2020-10-09T22:33:52.089823</dc:date>
    <dc:format>image/svg+xml</dc:format>
    <dc:creator>
     <cc:Agent>
      <dc:title>Matplotlib v3.3.2, https://matplotlib.org/</dc:title>
     </cc:Agent>
    </dc:creator>
   </cc:Work>
  </rdf:RDF>
 </metadata>
 <defs>
  <style type="text/css">*{stroke-linecap:butt;stroke-linejoin:round;}</style>
 </defs>
 <g id="figure_1">
  <g id="patch_1">
   <path d="M 0 432 
L 777.6 432 
L 777.6 0 
L 0 0 
z
" style="fill:#ffffff;"/>
  </g>
  <g id="axes_1">
   <g id="patch_2">
    <path d="M 49.078125 391.84375 
L 766.8 391.84375 
L 766.8 39.3555 
L 49.078125 39.3555 
z
" style="fill:#ffffff;"/>
   </g>
   <g id="PolyCollection_1">
    <defs>
     <path d="M 447.158837 -158.015523 
L 447.158837 -158.015523 
L 451.080815 -155.138979 
L 455.002792 -156.310691 
L 458.924769 -155.904117 
L 462.846747 -155.044456 
L 466.768724 -152.513655 
L 470.690702 -153.467619 
L 474.612679 -152.757197 
L 478.534657 -151.5588 
L 482.456634 -151.097362 
L 486.378612 -147.544336 
L 490.300589 -148.232461 
L 494.222567 -146.630703 
L 498.144544 -144.435485 
L 502.066522 -140.561628 
L 505.988499 -139.367242 
L 509.910476 -138.161816 
L 513.832454 -136.948107 
L 517.754431 -135.728007 
L 521.676409 -134.502864 
L 525.598386 -133.273664 
L 529.520364 -132.041147 
L 533.442341 -130.80588 
L 537.364319 -129.568306 
L 541.286296 -128.328774 
L 545.208274 -127.087568 
L 549.130251 -125.844916 
L 553.052228 -124.601007 
L 556.974206 -123.355998 
L 560.896183 -122.11002 
L 564.818161 -120.863184 
L 568.740138 -119.615584 
L 572.662116 -118.367303 
L 576.584093 -117.118408 
L 580.506071 -115.868961 
L 584.428048 -114.619014 
L 588.350026 -113.368614 
L 592.272003 -112.117801 
L 596.193981 -110.86661 
L 600.115958 -109.615075 
L 604.037935 -108.363222 
L 607.959913 -107.111077 
L 611.88189 -105.858662 
L 615.803868 -104.605999 
L 619.725845 -103.353105 
L 623.647823 -102.099996 
L 627.5698 -100.846689 
L 631.491778 -99.593196 
L 635.413755 -98.33953 
L 639.335733 -97.085702 
L 643.25771 -95.831722 
L 647.179687 -94.5776 
L 651.101665 -93.323345 
L 655.023642 -92.068965 
L 658.94562 -90.814467 
L 662.867597 -89.559857 
L 666.789575 -88.305142 
L 670.711552 -87.050329 
L 674.63353 -85.795421 
L 678.555507 -84.540425 
L 682.477485 -83.285345 
L 686.399462 -82.030185 
L 690.32144 -80.77495 
L 694.243417 -79.519642 
L 698.165394 -78.264267 
L 702.087372 -77.008826 
L 706.009349 -75.753323 
L 709.931327 -74.497761 
L 713.853304 -73.242142 
L 717.775282 -71.98647 
L 721.697259 -70.730746 
L 725.619237 -69.474973 
L 729.541214 -68.219154 
L 733.463192 -66.963289 
L 737.385169 -65.70738 
L 741.307147 -64.451431 
L 745.229124 -63.195442 
L 749.151101 -61.939414 
L 753.073079 -60.683351 
L 756.995056 -59.427252 
L 760.917034 -58.171119 
L 764.839011 -56.914954 
L 768.760989 -55.658757 
L 768.760989 -451.861367 
L 768.760989 -451.861367 
L 764.839011 -448.227048 
L 760.917034 -444.592759 
L 756.995056 -440.9585 
L 753.073079 -437.324273 
L 749.151101 -433.690079 
L 745.229124 -430.05592 
L 741.307147 -426.421796 
L 737.385169 -422.78771 
L 733.463192 -419.153662 
L 729.541214 -415.519655 
L 725.619237 -411.88569 
L 721.697259 -408.251769 
L 717.775282 -404.617894 
L 713.853304 -400.984067 
L 709.931327 -397.35029 
L 706.009349 -393.716566 
L 702.087372 -390.082897 
L 698.165394 -386.449285 
L 694.243417 -382.815734 
L 690.32144 -379.182246 
L 686.399462 -375.548825 
L 682.477485 -371.915474 
L 678.555507 -368.282197 
L 674.63353 -364.648997 
L 670.711552 -361.015878 
L 666.789575 -357.382846 
L 662.867597 -353.749905 
L 658.94562 -350.117061 
L 655.023642 -346.484318 
L 651.101665 -342.851682 
L 647.179687 -339.219162 
L 643.25771 -335.586762 
L 639.335733 -331.954492 
L 635.413755 -328.322359 
L 631.491778 -324.690373 
L 627.5698 -321.058543 
L 623.647823 -317.42688 
L 619.725845 -313.795397 
L 615.803868 -310.164105 
L 611.88189 -306.53302 
L 607.959913 -302.902157 
L 604.037935 -299.271533 
L 600.115958 -295.641168 
L 596.193981 -292.011084 
L 592.272003 -288.381303 
L 588.350026 -284.751854 
L 584.428048 -281.122766 
L 580.506071 -277.494073 
L 576.584093 -273.865813 
L 572.662116 -270.23803 
L 568.740138 -266.610773 
L 564.818161 -262.9841 
L 560.896183 -259.358076 
L 556.974206 -255.732777 
L 553.052228 -252.108292 
L 549.130251 -248.484725 
L 545.208274 -244.862199 
L 541.286296 -241.240862 
L 537.364319 -237.620889 
L 533.442341 -234.002497 
L 529.520364 -230.385951 
L 525.598386 -226.771579 
L 521.676409 -223.1598 
L 517.754431 -219.55115 
L 513.832454 -215.946334 
L 509.910476 -212.346301 
L 505.988499 -208.75236 
L 502.066522 -205.166385 
L 498.144544 -201.513351 
L 494.222567 -197.51762 
L 490.300589 -193.445539 
L 486.378612 -188.481869 
L 482.456634 -185.604621 
L 478.534657 -181.419372 
L 474.612679 -177.811875 
L 470.690702 -174.118333 
L 466.768724 -169.444865 
L 462.846747 -167.547748 
L 458.924769 -164.751789 
L 455.002792 -161.886573 
L 451.080815 -157.837846 
L 447.158837 -158.015523 
z
" id="m336670ea35"/>
    </defs>
    <g clip-path="url(#pd7d8c7c702)">
     <use style="fill:#808080;fill-opacity:0.5;" x="0" xlink:href="#m336670ea35" y="432"/>
    </g>
   </g>
   <g id="PolyCollection_2">
    <path clip-path="url(#pd7d8c7c702)" d="M 398.134119 117887.927083 
L 343.226434 117887.927083 
L 343.226434 39.3555 
L 398.134119 39.3555 
L 398.134119 39.3555 
L 398.134119 117887.927083 
z
" style="fill:#ff0000;fill-opacity:0.5;"/>
   </g>
   <g id="PolyCollection_3">
    <path clip-path="url(#pd7d8c7c702)" d="M 480.495645 117887.927083 
L 398.134119 117887.927083 
L 398.134119 39.3555 
L 480.495645 39.3555 
L 480.495645 39.3555 
L 480.495645 117887.927083 
z
" style="fill:#ffa500;fill-opacity:0.5;"/>
   </g>
   <g id="PolyCollection_4">
    <path clip-path="url(#pd7d8c7c702)" d="M 562.857172 117887.927083 
L 480.495645 117887.927083 
L 480.495645 39.3555 
L 562.857172 39.3555 
L 562.857172 39.3555 
L 562.857172 117887.927083 
z
" style="fill:#ffff00;fill-opacity:0.5;"/>
   </g>
   <g id="PolyCollection_5">
    <path clip-path="url(#pd7d8c7c702)" d="M 645.218699 117887.927083 
L 562.857172 117887.927083 
L 562.857172 39.3555 
L 645.218699 39.3555 
L 645.218699 39.3555 
L 645.218699 117887.927083 
z
" style="fill:#008000;fill-opacity:0.5;"/>
   </g>
   <g id="PolyCollection_6">
    <path clip-path="url(#pd7d8c7c702)" d="M 766.8 117887.927083 
L 645.218699 117887.927083 
L 645.218699 39.3555 
L 766.8 39.3555 
L 766.8 39.3555 
L 766.8 117887.927083 
z
" style="fill:#008000;fill-opacity:0.25;"/>
   </g>
   <g id="matplotlib.axis_1">
    <g id="xtick_1">
     <g id="line2d_1">
      <path clip-path="url(#pd7d8c7c702)" d="M 49.078125 391.84375 
L 49.078125 39.3555 
" style="fill:none;stroke:#000000;stroke-dasharray:0.8,1.32;stroke-dashoffset:0;stroke-opacity:0.5;stroke-width:0.8;"/>
     </g>
     <g id="line2d_2">
      <defs>
       <path d="M 0 0 
L 0 3.5 
" id="m4d9c8460ce" style="stroke:#000000;stroke-width:0.8;"/>
      </defs>
      <g>
       <use style="stroke:#000000;stroke-width:0.8;" x="49.078125" xlink:href="#m4d9c8460ce" y="391.84375"/>
      </g>
     </g>
     <g id="text_1">
      <!-- Jul -->
      <g transform="translate(43.045313 406.442187)scale(0.1 -0.1)">
       <defs>
        <path d="M 9.8125 72.90625 
L 19.671875 72.90625 
L 19.671875 5.078125 
Q 19.671875 -8.109375 14.671875 -14.0625 
Q 9.671875 -20.015625 -1.421875 -20.015625 
L -5.171875 -20.015625 
L -5.171875 -11.71875 
L -2.09375 -11.71875 
Q 4.4375 -11.71875 7.125 -8.046875 
Q 9.8125 -4.390625 9.8125 5.078125 
z
" id="DejaVuSans-74"/>
        <path d="M 8.5 21.578125 
L 8.5 54.6875 
L 17.484375 54.6875 
L 17.484375 21.921875 
Q 17.484375 14.15625 20.5 10.265625 
Q 23.53125 6.390625 29.59375 6.390625 
Q 36.859375 6.390625 41.078125 11.03125 
Q 45.3125 15.671875 45.3125 23.6875 
L 45.3125 54.6875 
L 54.296875 54.6875 
L 54.296875 0 
L 45.3125 0 
L 45.3125 8.40625 
Q 42.046875 3.421875 37.71875 1 
Q 33.40625 -1.421875 27.6875 -1.421875 
Q 18.265625 -1.421875 13.375 4.4375 
Q 8.5 10.296875 8.5 21.578125 
z
M 31.109375 56 
z
" id="DejaVuSans-117"/>
        <path d="M 9.421875 75.984375 
L 18.40625 75.984375 
L 18.40625 0 
L 9.421875 0 
z
" id="DejaVuSans-108"/>
       </defs>
       <use xlink:href="#DejaVuSans-74"/>
       <use x="29.492188" xlink:href="#DejaVuSans-117"/>
       <use x="92.871094" xlink:href="#DejaVuSans-108"/>
      </g>
     </g>
    </g>
    <g id="xtick_2">
     <g id="line2d_3">
      <path clip-path="url(#pd7d8c7c702)" d="M 103.985809 391.84375 
L 103.985809 39.3555 
" style="fill:none;stroke:#000000;stroke-dasharray:0.8,1.32;stroke-dashoffset:0;stroke-opacity:0.5;stroke-width:0.8;"/>
     </g>
     <g id="line2d_4">
      <g>
       <use style="stroke:#000000;stroke-width:0.8;" x="103.985809" xlink:href="#m4d9c8460ce" y="391.84375"/>
      </g>
     </g>
     <g id="text_2">
      <!-- 15 -->
      <g transform="translate(97.623309 406.442187)scale(0.1 -0.1)">
       <defs>
        <path d="M 12.40625 8.296875 
L 28.515625 8.296875 
L 28.515625 63.921875 
L 10.984375 60.40625 
L 10.984375 69.390625 
L 28.421875 72.90625 
L 38.28125 72.90625 
L 38.28125 8.296875 
L 54.390625 8.296875 
L 54.390625 0 
L 12.40625 0 
z
" id="DejaVuSans-49"/>
        <path d="M 10.796875 72.90625 
L 49.515625 72.90625 
L 49.515625 64.59375 
L 19.828125 64.59375 
L 19.828125 46.734375 
Q 21.96875 47.46875 24.109375 47.828125 
Q 26.265625 48.1875 28.421875 48.1875 
Q 40.625 48.1875 47.75 41.5 
Q 54.890625 34.8125 54.890625 23.390625 
Q 54.890625 11.625 47.5625 5.09375 
Q 40.234375 -1.421875 26.90625 -1.421875 
Q 22.3125 -1.421875 17.546875 -0.640625 
Q 12.796875 0.140625 7.71875 1.703125 
L 7.71875 11.625 
Q 12.109375 9.234375 16.796875 8.0625 
Q 21.484375 6.890625 26.703125 6.890625 
Q 35.15625 6.890625 40.078125 11.328125 
Q 45.015625 15.765625 45.015625 23.390625 
Q 45.015625 31 40.078125 35.4375 
Q 35.15625 39.890625 26.703125 39.890625 
Q 22.75 39.890625 18.8125 39.015625 
Q 14.890625 38.140625 10.796875 36.28125 
z
" id="DejaVuSans-53"/>
       </defs>
       <use xlink:href="#DejaVuSans-49"/>
       <use x="63.623047" xlink:href="#DejaVuSans-53"/>
      </g>
     </g>
    </g>
    <g id="xtick_3">
     <g id="line2d_5">
      <path clip-path="url(#pd7d8c7c702)" d="M 170.659426 391.84375 
L 170.659426 39.3555 
" style="fill:none;stroke:#000000;stroke-dasharray:0.8,1.32;stroke-dashoffset:0;stroke-opacity:0.5;stroke-width:0.8;"/>
     </g>
     <g id="line2d_6">
      <g>
       <use style="stroke:#000000;stroke-width:0.8;" x="170.659426" xlink:href="#m4d9c8460ce" y="391.84375"/>
      </g>
     </g>
     <g id="text_3">
      <!-- Aug -->
      <g transform="translate(160.896145 406.442187)scale(0.1 -0.1)">
       <defs>
        <path d="M 34.1875 63.1875 
L 20.796875 26.90625 
L 47.609375 26.90625 
z
M 28.609375 72.90625 
L 39.796875 72.90625 
L 67.578125 0 
L 57.328125 0 
L 50.6875 18.703125 
L 17.828125 18.703125 
L 11.1875 0 
L 0.78125 0 
z
" id="DejaVuSans-65"/>
        <path d="M 45.40625 27.984375 
Q 45.40625 37.75 41.375 43.109375 
Q 37.359375 48.484375 30.078125 48.484375 
Q 22.859375 48.484375 18.828125 43.109375 
Q 14.796875 37.75 14.796875 27.984375 
Q 14.796875 18.265625 18.828125 12.890625 
Q 22.859375 7.515625 30.078125 7.515625 
Q 37.359375 7.515625 41.375 12.890625 
Q 45.40625 18.265625 45.40625 27.984375 
z
M 54.390625 6.78125 
Q 54.390625 -7.171875 48.1875 -13.984375 
Q 42 -20.796875 29.203125 -20.796875 
Q 24.46875 -20.796875 20.265625 -20.09375 
Q 16.0625 -19.390625 12.109375 -17.921875 
L 12.109375 -9.1875 
Q 16.0625 -11.328125 19.921875 -12.34375 
Q 23.78125 -13.375 27.78125 -13.375 
Q 36.625 -13.375 41.015625 -8.765625 
Q 45.40625 -4.15625 45.40625 5.171875 
L 45.40625 9.625 
Q 42.625 4.78125 38.28125 2.390625 
Q 33.9375 0 27.875 0 
Q 17.828125 0 11.671875 7.65625 
Q 5.515625 15.328125 5.515625 27.984375 
Q 5.515625 40.671875 11.671875 48.328125 
Q 17.828125 56 27.875 56 
Q 33.9375 56 38.28125 53.609375 
Q 42.625 51.21875 45.40625 46.390625 
L 45.40625 54.6875 
L 54.390625 54.6875 
z
" id="DejaVuSans-103"/>
       </defs>
       <use xlink:href="#DejaVuSans-65"/>
       <use x="68.408203" xlink:href="#DejaVuSans-117"/>
       <use x="131.787109" xlink:href="#DejaVuSans-103"/>
      </g>
     </g>
    </g>
    <g id="xtick_4">
     <g id="line2d_7">
      <path clip-path="url(#pd7d8c7c702)" d="M 225.567111 391.84375 
L 225.567111 39.3555 
" style="fill:none;stroke:#000000;stroke-dasharray:0.8,1.32;stroke-dashoffset:0;stroke-opacity:0.5;stroke-width:0.8;"/>
     </g>
     <g id="line2d_8">
      <g>
       <use style="stroke:#000000;stroke-width:0.8;" x="225.567111" xlink:href="#m4d9c8460ce" y="391.84375"/>
      </g>
     </g>
     <g id="text_4">
      <!-- 15 -->
      <g transform="translate(219.204611 406.442187)scale(0.1 -0.1)">
       <use xlink:href="#DejaVuSans-49"/>
       <use x="63.623047" xlink:href="#DejaVuSans-53"/>
      </g>
     </g>
    </g>
    <g id="xtick_5">
     <g id="line2d_9">
      <path clip-path="url(#pd7d8c7c702)" d="M 292.240727 391.84375 
L 292.240727 39.3555 
" style="fill:none;stroke:#000000;stroke-dasharray:0.8,1.32;stroke-dashoffset:0;stroke-opacity:0.5;stroke-width:0.8;"/>
     </g>
     <g id="line2d_10">
      <g>
       <use style="stroke:#000000;stroke-width:0.8;" x="292.240727" xlink:href="#m4d9c8460ce" y="391.84375"/>
      </g>
     </g>
     <g id="text_5">
      <!-- Sep -->
      <g transform="translate(282.815727 406.442187)scale(0.1 -0.1)">
       <defs>
        <path d="M 53.515625 70.515625 
L 53.515625 60.890625 
Q 47.90625 63.578125 42.921875 64.890625 
Q 37.9375 66.21875 33.296875 66.21875 
Q 25.25 66.21875 20.875 63.09375 
Q 16.5 59.96875 16.5 54.203125 
Q 16.5 49.359375 19.40625 46.890625 
Q 22.3125 44.4375 30.421875 42.921875 
L 36.375 41.703125 
Q 47.40625 39.59375 52.65625 34.296875 
Q 57.90625 29 57.90625 20.125 
Q 57.90625 9.515625 50.796875 4.046875 
Q 43.703125 -1.421875 29.984375 -1.421875 
Q 24.8125 -1.421875 18.96875 -0.25 
Q 13.140625 0.921875 6.890625 3.21875 
L 6.890625 13.375 
Q 12.890625 10.015625 18.65625 8.296875 
Q 24.421875 6.59375 29.984375 6.59375 
Q 38.421875 6.59375 43.015625 9.90625 
Q 47.609375 13.234375 47.609375 19.390625 
Q 47.609375 24.75 44.3125 27.78125 
Q 41.015625 30.8125 33.5 32.328125 
L 27.484375 33.5 
Q 16.453125 35.6875 11.515625 40.375 
Q 6.59375 45.0625 6.59375 53.421875 
Q 6.59375 63.09375 13.40625 68.65625 
Q 20.21875 74.21875 32.171875 74.21875 
Q 37.3125 74.21875 42.625 73.28125 
Q 47.953125 72.359375 53.515625 70.515625 
z
" id="DejaVuSans-83"/>
        <path d="M 56.203125 29.59375 
L 56.203125 25.203125 
L 14.890625 25.203125 
Q 15.484375 15.921875 20.484375 11.0625 
Q 25.484375 6.203125 34.421875 6.203125 
Q 39.59375 6.203125 44.453125 7.46875 
Q 49.3125 8.734375 54.109375 11.28125 
L 54.109375 2.78125 
Q 49.265625 0.734375 44.1875 -0.34375 
Q 39.109375 -1.421875 33.890625 -1.421875 
Q 20.796875 -1.421875 13.15625 6.1875 
Q 5.515625 13.8125 5.515625 26.8125 
Q 5.515625 40.234375 12.765625 48.109375 
Q 20.015625 56 32.328125 56 
Q 43.359375 56 49.78125 48.890625 
Q 56.203125 41.796875 56.203125 29.59375 
z
M 47.21875 32.234375 
Q 47.125 39.59375 43.09375 43.984375 
Q 39.0625 48.390625 32.421875 48.390625 
Q 24.90625 48.390625 20.390625 44.140625 
Q 15.875 39.890625 15.1875 32.171875 
z
" id="DejaVuSans-101"/>
        <path d="M 18.109375 8.203125 
L 18.109375 -20.796875 
L 9.078125 -20.796875 
L 9.078125 54.6875 
L 18.109375 54.6875 
L 18.109375 46.390625 
Q 20.953125 51.265625 25.265625 53.625 
Q 29.59375 56 35.59375 56 
Q 45.5625 56 51.78125 48.09375 
Q 58.015625 40.1875 58.015625 27.296875 
Q 58.015625 14.40625 51.78125 6.484375 
Q 45.5625 -1.421875 35.59375 -1.421875 
Q 29.59375 -1.421875 25.265625 0.953125 
Q 20.953125 3.328125 18.109375 8.203125 
z
M 48.6875 27.296875 
Q 48.6875 37.203125 44.609375 42.84375 
Q 40.53125 48.484375 33.40625 48.484375 
Q 26.265625 48.484375 22.1875 42.84375 
Q 18.109375 37.203125 18.109375 27.296875 
Q 18.109375 17.390625 22.1875 11.75 
Q 26.265625 6.109375 33.40625 6.109375 
Q 40.53125 6.109375 44.609375 11.75 
Q 48.6875 17.390625 48.6875 27.296875 
z
" id="DejaVuSans-112"/>
       </defs>
       <use xlink:href="#DejaVuSans-83"/>
       <use x="63.476562" xlink:href="#DejaVuSans-101"/>
       <use x="125" xlink:href="#DejaVuSans-112"/>
      </g>
     </g>
    </g>
    <g id="xtick_6">
     <g id="line2d_11">
      <path clip-path="url(#pd7d8c7c702)" d="M 347.148412 391.84375 
L 347.148412 39.3555 
" style="fill:none;stroke:#000000;stroke-dasharray:0.8,1.32;stroke-dashoffset:0;stroke-opacity:0.5;stroke-width:0.8;"/>
     </g>
     <g id="line2d_12">
      <g>
       <use style="stroke:#000000;stroke-width:0.8;" x="347.148412" xlink:href="#m4d9c8460ce" y="391.84375"/>
      </g>
     </g>
     <g id="text_6">
      <!-- 15 -->
      <g transform="translate(340.785912 406.442187)scale(0.1 -0.1)">
       <use xlink:href="#DejaVuSans-49"/>
       <use x="63.623047" xlink:href="#DejaVuSans-53"/>
      </g>
     </g>
    </g>
    <g id="xtick_7">
     <g id="line2d_13">
      <path clip-path="url(#pd7d8c7c702)" d="M 409.900051 391.84375 
L 409.900051 39.3555 
" style="fill:none;stroke:#000000;stroke-dasharray:0.8,1.32;stroke-dashoffset:0;stroke-opacity:0.5;stroke-width:0.8;"/>
     </g>
     <g id="line2d_14">
      <g>
       <use style="stroke:#000000;stroke-width:0.8;" x="409.900051" xlink:href="#m4d9c8460ce" y="391.84375"/>
      </g>
     </g>
     <g id="text_7">
      <!-- Oct -->
      <g transform="translate(401.254739 406.442187)scale(0.1 -0.1)">
       <defs>
        <path d="M 39.40625 66.21875 
Q 28.65625 66.21875 22.328125 58.203125 
Q 16.015625 50.203125 16.015625 36.375 
Q 16.015625 22.609375 22.328125 14.59375 
Q 28.65625 6.59375 39.40625 6.59375 
Q 50.140625 6.59375 56.421875 14.59375 
Q 62.703125 22.609375 62.703125 36.375 
Q 62.703125 50.203125 56.421875 58.203125 
Q 50.140625 66.21875 39.40625 66.21875 
z
M 39.40625 74.21875 
Q 54.734375 74.21875 63.90625 63.9375 
Q 73.09375 53.65625 73.09375 36.375 
Q 73.09375 19.140625 63.90625 8.859375 
Q 54.734375 -1.421875 39.40625 -1.421875 
Q 24.03125 -1.421875 14.8125 8.828125 
Q 5.609375 19.09375 5.609375 36.375 
Q 5.609375 53.65625 14.8125 63.9375 
Q 24.03125 74.21875 39.40625 74.21875 
z
" id="DejaVuSans-79"/>
        <path d="M 48.78125 52.59375 
L 48.78125 44.1875 
Q 44.96875 46.296875 41.140625 47.34375 
Q 37.3125 48.390625 33.40625 48.390625 
Q 24.65625 48.390625 19.8125 42.84375 
Q 14.984375 37.3125 14.984375 27.296875 
Q 14.984375 17.28125 19.8125 11.734375 
Q 24.65625 6.203125 33.40625 6.203125 
Q 37.3125 6.203125 41.140625 7.25 
Q 44.96875 8.296875 48.78125 10.40625 
L 48.78125 2.09375 
Q 45.015625 0.34375 40.984375 -0.53125 
Q 36.96875 -1.421875 32.421875 -1.421875 
Q 20.0625 -1.421875 12.78125 6.34375 
Q 5.515625 14.109375 5.515625 27.296875 
Q 5.515625 40.671875 12.859375 48.328125 
Q 20.21875 56 33.015625 56 
Q 37.15625 56 41.109375 55.140625 
Q 45.0625 54.296875 48.78125 52.59375 
z
" id="DejaVuSans-99"/>
        <path d="M 18.3125 70.21875 
L 18.3125 54.6875 
L 36.8125 54.6875 
L 36.8125 47.703125 
L 18.3125 47.703125 
L 18.3125 18.015625 
Q 18.3125 11.328125 20.140625 9.421875 
Q 21.96875 7.515625 27.59375 7.515625 
L 36.8125 7.515625 
L 36.8125 0 
L 27.59375 0 
Q 17.1875 0 13.234375 3.875 
Q 9.28125 7.765625 9.28125 18.015625 
L 9.28125 47.703125 
L 2.6875 47.703125 
L 2.6875 54.6875 
L 9.28125 54.6875 
L 9.28125 70.21875 
z
" id="DejaVuSans-116"/>
       </defs>
       <use xlink:href="#DejaVuSans-79"/>
       <use x="78.710938" xlink:href="#DejaVuSans-99"/>
       <use x="133.691406" xlink:href="#DejaVuSans-116"/>
      </g>
     </g>
    </g>
    <g id="xtick_8">
     <g id="line2d_15">
      <path clip-path="url(#pd7d8c7c702)" d="M 464.807736 391.84375 
L 464.807736 39.3555 
" style="fill:none;stroke:#000000;stroke-dasharray:0.8,1.32;stroke-dashoffset:0;stroke-opacity:0.5;stroke-width:0.8;"/>
     </g>
     <g id="line2d_16">
      <g>
       <use style="stroke:#000000;stroke-width:0.8;" x="464.807736" xlink:href="#m4d9c8460ce" y="391.84375"/>
      </g>
     </g>
     <g id="text_8">
      <!-- 15 -->
      <g transform="translate(458.445236 406.442187)scale(0.1 -0.1)">
       <use xlink:href="#DejaVuSans-49"/>
       <use x="63.623047" xlink:href="#DejaVuSans-53"/>
      </g>
     </g>
    </g>
    <g id="xtick_9">
     <g id="line2d_17">
      <path clip-path="url(#pd7d8c7c702)" d="M 531.481352 391.84375 
L 531.481352 39.3555 
" style="fill:none;stroke:#000000;stroke-dasharray:0.8,1.32;stroke-dashoffset:0;stroke-opacity:0.5;stroke-width:0.8;"/>
     </g>
     <g id="line2d_18">
      <g>
       <use style="stroke:#000000;stroke-width:0.8;" x="531.481352" xlink:href="#m4d9c8460ce" y="391.84375"/>
      </g>
     </g>
     <g id="text_9">
      <!-- Nov -->
      <g transform="translate(521.721977 406.442187)scale(0.1 -0.1)">
       <defs>
        <path d="M 9.8125 72.90625 
L 23.09375 72.90625 
L 55.421875 11.921875 
L 55.421875 72.90625 
L 64.984375 72.90625 
L 64.984375 0 
L 51.703125 0 
L 19.390625 60.984375 
L 19.390625 0 
L 9.8125 0 
z
" id="DejaVuSans-78"/>
        <path d="M 30.609375 48.390625 
Q 23.390625 48.390625 19.1875 42.75 
Q 14.984375 37.109375 14.984375 27.296875 
Q 14.984375 17.484375 19.15625 11.84375 
Q 23.34375 6.203125 30.609375 6.203125 
Q 37.796875 6.203125 41.984375 11.859375 
Q 46.1875 17.53125 46.1875 27.296875 
Q 46.1875 37.015625 41.984375 42.703125 
Q 37.796875 48.390625 30.609375 48.390625 
z
M 30.609375 56 
Q 42.328125 56 49.015625 48.375 
Q 55.71875 40.765625 55.71875 27.296875 
Q 55.71875 13.875 49.015625 6.21875 
Q 42.328125 -1.421875 30.609375 -1.421875 
Q 18.84375 -1.421875 12.171875 6.21875 
Q 5.515625 13.875 5.515625 27.296875 
Q 5.515625 40.765625 12.171875 48.375 
Q 18.84375 56 30.609375 56 
z
" id="DejaVuSans-111"/>
        <path d="M 2.984375 54.6875 
L 12.5 54.6875 
L 29.59375 8.796875 
L 46.6875 54.6875 
L 56.203125 54.6875 
L 35.6875 0 
L 23.484375 0 
z
" id="DejaVuSans-118"/>
       </defs>
       <use xlink:href="#DejaVuSans-78"/>
       <use x="74.804688" xlink:href="#DejaVuSans-111"/>
       <use x="135.986328" xlink:href="#DejaVuSans-118"/>
      </g>
     </g>
    </g>
    <g id="xtick_10">
     <g id="line2d_19">
      <path clip-path="url(#pd7d8c7c702)" d="M 586.389037 391.84375 
L 586.389037 39.3555 
" style="fill:none;stroke:#000000;stroke-dasharray:0.8,1.32;stroke-dashoffset:0;stroke-opacity:0.5;stroke-width:0.8;"/>
     </g>
     <g id="line2d_20">
      <g>
       <use style="stroke:#000000;stroke-width:0.8;" x="586.389037" xlink:href="#m4d9c8460ce" y="391.84375"/>
      </g>
     </g>
     <g id="text_10">
      <!-- 15 -->
      <g transform="translate(580.026537 406.442187)scale(0.1 -0.1)">
       <use xlink:href="#DejaVuSans-49"/>
       <use x="63.623047" xlink:href="#DejaVuSans-53"/>
      </g>
     </g>
    </g>
    <g id="xtick_11">
     <g id="line2d_21">
      <path clip-path="url(#pd7d8c7c702)" d="M 649.140676 391.84375 
L 649.140676 39.3555 
" style="fill:none;stroke:#000000;stroke-dasharray:0.8,1.32;stroke-dashoffset:0;stroke-opacity:0.5;stroke-width:0.8;"/>
     </g>
     <g id="line2d_22">
      <g>
       <use style="stroke:#000000;stroke-width:0.8;" x="649.140676" xlink:href="#m4d9c8460ce" y="391.84375"/>
      </g>
     </g>
     <g id="text_11">
      <!-- Dec -->
      <g transform="translate(639.464895 406.442187)scale(0.1 -0.1)">
       <defs>
        <path d="M 19.671875 64.796875 
L 19.671875 8.109375 
L 31.59375 8.109375 
Q 46.6875 8.109375 53.6875 14.9375 
Q 60.6875 21.78125 60.6875 36.53125 
Q 60.6875 51.171875 53.6875 57.984375 
Q 46.6875 64.796875 31.59375 64.796875 
z
M 9.8125 72.90625 
L 30.078125 72.90625 
Q 51.265625 72.90625 61.171875 64.09375 
Q 71.09375 55.28125 71.09375 36.53125 
Q 71.09375 17.671875 61.125 8.828125 
Q 51.171875 0 30.078125 0 
L 9.8125 0 
z
" id="DejaVuSans-68"/>
       </defs>
       <use xlink:href="#DejaVuSans-68"/>
       <use x="77.001953" xlink:href="#DejaVuSans-101"/>
       <use x="138.525391" xlink:href="#DejaVuSans-99"/>
      </g>
     </g>
    </g>
    <g id="xtick_12">
     <g id="line2d_23">
      <path clip-path="url(#pd7d8c7c702)" d="M 704.048361 391.84375 
L 704.048361 39.3555 
" style="fill:none;stroke:#000000;stroke-dasharray:0.8,1.32;stroke-dashoffset:0;stroke-opacity:0.5;stroke-width:0.8;"/>
     </g>
     <g id="line2d_24">
      <g>
       <use style="stroke:#000000;stroke-width:0.8;" x="704.048361" xlink:href="#m4d9c8460ce" y="391.84375"/>
      </g>
     </g>
     <g id="text_12">
      <!-- 15 -->
      <g transform="translate(697.685861 406.442187)scale(0.1 -0.1)">
       <use xlink:href="#DejaVuSans-49"/>
       <use x="63.623047" xlink:href="#DejaVuSans-53"/>
      </g>
     </g>
    </g>
    <g id="text_13">
     <!-- 2020-Dec -->
     <g transform="translate(718.390625 419.120313)scale(0.1 -0.1)">
      <defs>
       <path d="M 19.1875 8.296875 
L 53.609375 8.296875 
L 53.609375 0 
L 7.328125 0 
L 7.328125 8.296875 
Q 12.9375 14.109375 22.625 23.890625 
Q 32.328125 33.6875 34.8125 36.53125 
Q 39.546875 41.84375 41.421875 45.53125 
Q 43.3125 49.21875 43.3125 52.78125 
Q 43.3125 58.59375 39.234375 62.25 
Q 35.15625 65.921875 28.609375 65.921875 
Q 23.96875 65.921875 18.8125 64.3125 
Q 13.671875 62.703125 7.8125 59.421875 
L 7.8125 69.390625 
Q 13.765625 71.78125 18.9375 73 
Q 24.125 74.21875 28.421875 74.21875 
Q 39.75 74.21875 46.484375 68.546875 
Q 53.21875 62.890625 53.21875 53.421875 
Q 53.21875 48.921875 51.53125 44.890625 
Q 49.859375 40.875 45.40625 35.40625 
Q 44.1875 33.984375 37.640625 27.21875 
Q 31.109375 20.453125 19.1875 8.296875 
z
" id="DejaVuSans-50"/>
       <path d="M 31.78125 66.40625 
Q 24.171875 66.40625 20.328125 58.90625 
Q 16.5 51.421875 16.5 36.375 
Q 16.5 21.390625 20.328125 13.890625 
Q 24.171875 6.390625 31.78125 6.390625 
Q 39.453125 6.390625 43.28125 13.890625 
Q 47.125 21.390625 47.125 36.375 
Q 47.125 51.421875 43.28125 58.90625 
Q 39.453125 66.40625 31.78125 66.40625 
z
M 31.78125 74.21875 
Q 44.046875 74.21875 50.515625 64.515625 
Q 56.984375 54.828125 56.984375 36.375 
Q 56.984375 17.96875 50.515625 8.265625 
Q 44.046875 -1.421875 31.78125 -1.421875 
Q 19.53125 -1.421875 13.0625 8.265625 
Q 6.59375 17.96875 6.59375 36.375 
Q 6.59375 54.828125 13.0625 64.515625 
Q 19.53125 74.21875 31.78125 74.21875 
z
" id="DejaVuSans-48"/>
       <path d="M 4.890625 31.390625 
L 31.203125 31.390625 
L 31.203125 23.390625 
L 4.890625 23.390625 
z
" id="DejaVuSans-45"/>
      </defs>
      <use xlink:href="#DejaVuSans-50"/>
      <use x="63.623047" xlink:href="#DejaVuSans-48"/>
      <use x="127.246094" xlink:href="#DejaVuSans-50"/>
      <use x="190.869141" xlink:href="#DejaVuSans-48"/>
      <use x="254.492188" xlink:href="#DejaVuSans-45"/>
      <use x="290.576172" xlink:href="#DejaVuSans-68"/>
      <use x="367.578125" xlink:href="#DejaVuSans-101"/>
      <use x="429.101562" xlink:href="#DejaVuSans-99"/>
     </g>
    </g>
   </g>
   <g id="matplotlib.axis_2">
    <g id="ytick_1">
     <g id="line2d_25">
      <path clip-path="url(#pd7d8c7c702)" d="M 49.078125 391.84375 
L 766.8 391.84375 
" style="fill:none;stroke:#000000;stroke-dasharray:0.8,1.32;stroke-dashoffset:0;stroke-opacity:0.5;stroke-width:0.8;"/>
     </g>
     <g id="line2d_26">
      <defs>
       <path d="M 0 0 
L -3.5 0 
" id="md36a8c4098" style="stroke:#000000;stroke-width:0.8;"/>
      </defs>
      <g>
       <use style="stroke:#000000;stroke-width:0.8;" x="49.078125" xlink:href="#md36a8c4098" y="391.84375"/>
      </g>
     </g>
     <g id="text_14">
      <!-- 1 -->
      <g transform="translate(35.715625 395.642969)scale(0.1 -0.1)">
       <use xlink:href="#DejaVuSans-49"/>
      </g>
     </g>
    </g>
    <g id="ytick_2">
     <g id="line2d_27">
      <path clip-path="url(#pd7d8c7c702)" d="M 49.078125 274.347667 
L 766.8 274.347667 
" style="fill:none;stroke:#000000;stroke-dasharray:0.8,1.32;stroke-dashoffset:0;stroke-opacity:0.5;stroke-width:0.8;"/>
     </g>
     <g id="line2d_28">
      <g>
       <use style="stroke:#000000;stroke-width:0.8;" x="49.078125" xlink:href="#md36a8c4098" y="274.347667"/>
      </g>
     </g>
     <g id="text_15">
      <!-- 10 -->
      <g transform="translate(29.353125 278.146885)scale(0.1 -0.1)">
       <use xlink:href="#DejaVuSans-49"/>
       <use x="63.623047" xlink:href="#DejaVuSans-48"/>
      </g>
     </g>
    </g>
    <g id="ytick_3">
     <g id="line2d_29">
      <path clip-path="url(#pd7d8c7c702)" d="M 49.078125 156.851583 
L 766.8 156.851583 
" style="fill:none;stroke:#000000;stroke-dasharray:0.8,1.32;stroke-dashoffset:0;stroke-opacity:0.5;stroke-width:0.8;"/>
     </g>
     <g id="line2d_30">
      <g>
       <use style="stroke:#000000;stroke-width:0.8;" x="49.078125" xlink:href="#md36a8c4098" y="156.851583"/>
      </g>
     </g>
     <g id="text_16">
      <!-- 100 -->
      <g transform="translate(22.990625 160.650802)scale(0.1 -0.1)">
       <use xlink:href="#DejaVuSans-49"/>
       <use x="63.623047" xlink:href="#DejaVuSans-48"/>
       <use x="127.246094" xlink:href="#DejaVuSans-48"/>
      </g>
     </g>
    </g>
    <g id="ytick_4">
     <g id="line2d_31">
      <path clip-path="url(#pd7d8c7c702)" d="M 49.078125 39.3555 
L 766.8 39.3555 
" style="fill:none;stroke:#000000;stroke-dasharray:0.8,1.32;stroke-dashoffset:0;stroke-opacity:0.5;stroke-width:0.8;"/>
     </g>
     <g id="line2d_32">
      <g>
       <use style="stroke:#000000;stroke-width:0.8;" x="49.078125" xlink:href="#md36a8c4098" y="39.3555"/>
      </g>
     </g>
     <g id="text_17">
      <!-- 1000 -->
      <g transform="translate(16.628125 43.154719)scale(0.1 -0.1)">
       <use xlink:href="#DejaVuSans-49"/>
       <use x="63.623047" xlink:href="#DejaVuSans-48"/>
       <use x="127.246094" xlink:href="#DejaVuSans-48"/>
       <use x="190.869141" xlink:href="#DejaVuSans-48"/>
      </g>
     </g>
    </g>
    <g id="ytick_5">
     <g id="line2d_33">
      <path clip-path="url(#pd7d8c7c702)" d="M 49.078125 356.473905 
L 766.8 356.473905 
" style="fill:none;stroke:#000000;stroke-dasharray:0.8,1.32;stroke-dashoffset:0;stroke-opacity:0.25;stroke-width:0.8;"/>
     </g>
     <g id="line2d_34">
      <defs>
       <path d="M 0 0 
L -2 0 
" id="m74fab981e0" style="stroke:#000000;stroke-width:0.6;"/>
      </defs>
      <g>
       <use style="stroke:#000000;stroke-width:0.6;" x="49.078125" xlink:href="#m74fab981e0" y="356.473905"/>
      </g>
     </g>
     <g id="text_18">
      <!-- 2 -->
      <g transform="translate(39.26255 359.110562)scale(0.0694 -0.0694)">
       <use xlink:href="#DejaVuSans-50"/>
      </g>
     </g>
    </g>
    <g id="ytick_6">
     <g id="line2d_35">
      <path clip-path="url(#pd7d8c7c702)" d="M 49.078125 335.783871 
L 766.8 335.783871 
" style="fill:none;stroke:#000000;stroke-dasharray:0.8,1.32;stroke-dashoffset:0;stroke-opacity:0.25;stroke-width:0.8;"/>
     </g>
     <g id="line2d_36">
      <g>
       <use style="stroke:#000000;stroke-width:0.6;" x="49.078125" xlink:href="#m74fab981e0" y="335.783871"/>
      </g>
     </g>
    </g>
    <g id="ytick_7">
     <g id="line2d_37">
      <path clip-path="url(#pd7d8c7c702)" d="M 49.078125 321.104059 
L 766.8 321.104059 
" style="fill:none;stroke:#000000;stroke-dasharray:0.8,1.32;stroke-dashoffset:0;stroke-opacity:0.25;stroke-width:0.8;"/>
     </g>
     <g id="line2d_38">
      <g>
       <use style="stroke:#000000;stroke-width:0.6;" x="49.078125" xlink:href="#m74fab981e0" y="321.104059"/>
      </g>
     </g>
     <g id="text_19">
      <!-- 4 -->
      <g transform="translate(39.26255 323.740717)scale(0.0694 -0.0694)">
       <defs>
        <path d="M 37.796875 64.3125 
L 12.890625 25.390625 
L 37.796875 25.390625 
z
M 35.203125 72.90625 
L 47.609375 72.90625 
L 47.609375 25.390625 
L 58.015625 25.390625 
L 58.015625 17.1875 
L 47.609375 17.1875 
L 47.609375 0 
L 37.796875 0 
L 37.796875 17.1875 
L 4.890625 17.1875 
L 4.890625 26.703125 
z
" id="DejaVuSans-52"/>
       </defs>
       <use xlink:href="#DejaVuSans-52"/>
      </g>
     </g>
    </g>
    <g id="ytick_8">
     <g id="line2d_39">
      <path clip-path="url(#pd7d8c7c702)" d="M 49.078125 309.717512 
L 766.8 309.717512 
" style="fill:none;stroke:#000000;stroke-dasharray:0.8,1.32;stroke-dashoffset:0;stroke-opacity:0.25;stroke-width:0.8;"/>
     </g>
     <g id="line2d_40">
      <g>
       <use style="stroke:#000000;stroke-width:0.6;" x="49.078125" xlink:href="#m74fab981e0" y="309.717512"/>
      </g>
     </g>
    </g>
    <g id="ytick_9">
     <g id="line2d_41">
      <path clip-path="url(#pd7d8c7c702)" d="M 49.078125 300.414026 
L 766.8 300.414026 
" style="fill:none;stroke:#000000;stroke-dasharray:0.8,1.32;stroke-dashoffset:0;stroke-opacity:0.25;stroke-width:0.8;"/>
     </g>
     <g id="line2d_42">
      <g>
       <use style="stroke:#000000;stroke-width:0.6;" x="49.078125" xlink:href="#m74fab981e0" y="300.414026"/>
      </g>
     </g>
     <g id="text_20">
      <!-- 6 -->
      <g transform="translate(39.26255 303.050684)scale(0.0694 -0.0694)">
       <defs>
        <path d="M 33.015625 40.375 
Q 26.375 40.375 22.484375 35.828125 
Q 18.609375 31.296875 18.609375 23.390625 
Q 18.609375 15.53125 22.484375 10.953125 
Q 26.375 6.390625 33.015625 6.390625 
Q 39.65625 6.390625 43.53125 10.953125 
Q 47.40625 15.53125 47.40625 23.390625 
Q 47.40625 31.296875 43.53125 35.828125 
Q 39.65625 40.375 33.015625 40.375 
z
M 52.59375 71.296875 
L 52.59375 62.3125 
Q 48.875 64.0625 45.09375 64.984375 
Q 41.3125 65.921875 37.59375 65.921875 
Q 27.828125 65.921875 22.671875 59.328125 
Q 17.53125 52.734375 16.796875 39.40625 
Q 19.671875 43.65625 24.015625 45.921875 
Q 28.375 48.1875 33.59375 48.1875 
Q 44.578125 48.1875 50.953125 41.515625 
Q 57.328125 34.859375 57.328125 23.390625 
Q 57.328125 12.15625 50.6875 5.359375 
Q 44.046875 -1.421875 33.015625 -1.421875 
Q 20.359375 -1.421875 13.671875 8.265625 
Q 6.984375 17.96875 6.984375 36.375 
Q 6.984375 53.65625 15.1875 63.9375 
Q 23.390625 74.21875 37.203125 74.21875 
Q 40.921875 74.21875 44.703125 73.484375 
Q 48.484375 72.75 52.59375 71.296875 
z
" id="DejaVuSans-54"/>
       </defs>
       <use xlink:href="#DejaVuSans-54"/>
      </g>
     </g>
    </g>
    <g id="ytick_10">
     <g id="line2d_43">
      <path clip-path="url(#pd7d8c7c702)" d="M 49.078125 292.54804 
L 766.8 292.54804 
" style="fill:none;stroke:#000000;stroke-dasharray:0.8,1.32;stroke-dashoffset:0;stroke-opacity:0.25;stroke-width:0.8;"/>
     </g>
     <g id="line2d_44">
      <g>
       <use style="stroke:#000000;stroke-width:0.6;" x="49.078125" xlink:href="#m74fab981e0" y="292.54804"/>
      </g>
     </g>
    </g>
    <g id="ytick_11">
     <g id="line2d_45">
      <path clip-path="url(#pd7d8c7c702)" d="M 49.078125 285.734214 
L 766.8 285.734214 
" style="fill:none;stroke:#000000;stroke-dasharray:0.8,1.32;stroke-dashoffset:0;stroke-opacity:0.25;stroke-width:0.8;"/>
     </g>
     <g id="line2d_46">
      <g>
       <use style="stroke:#000000;stroke-width:0.6;" x="49.078125" xlink:href="#m74fab981e0" y="285.734214"/>
      </g>
     </g>
     <g id="text_21">
      <!-- 8 -->
      <g transform="translate(39.26255 288.370871)scale(0.0694 -0.0694)">
       <defs>
        <path d="M 31.78125 34.625 
Q 24.75 34.625 20.71875 30.859375 
Q 16.703125 27.09375 16.703125 20.515625 
Q 16.703125 13.921875 20.71875 10.15625 
Q 24.75 6.390625 31.78125 6.390625 
Q 38.8125 6.390625 42.859375 10.171875 
Q 46.921875 13.96875 46.921875 20.515625 
Q 46.921875 27.09375 42.890625 30.859375 
Q 38.875 34.625 31.78125 34.625 
z
M 21.921875 38.8125 
Q 15.578125 40.375 12.03125 44.71875 
Q 8.5 49.078125 8.5 55.328125 
Q 8.5 64.0625 14.71875 69.140625 
Q 20.953125 74.21875 31.78125 74.21875 
Q 42.671875 74.21875 48.875 69.140625 
Q 55.078125 64.0625 55.078125 55.328125 
Q 55.078125 49.078125 51.53125 44.71875 
Q 48 40.375 41.703125 38.8125 
Q 48.828125 37.15625 52.796875 32.3125 
Q 56.78125 27.484375 56.78125 20.515625 
Q 56.78125 9.90625 50.3125 4.234375 
Q 43.84375 -1.421875 31.78125 -1.421875 
Q 19.734375 -1.421875 13.25 4.234375 
Q 6.78125 9.90625 6.78125 20.515625 
Q 6.78125 27.484375 10.78125 32.3125 
Q 14.796875 37.15625 21.921875 38.8125 
z
M 18.3125 54.390625 
Q 18.3125 48.734375 21.84375 45.5625 
Q 25.390625 42.390625 31.78125 42.390625 
Q 38.140625 42.390625 41.71875 45.5625 
Q 45.3125 48.734375 45.3125 54.390625 
Q 45.3125 60.0625 41.71875 63.234375 
Q 38.140625 66.40625 31.78125 66.40625 
Q 25.390625 66.40625 21.84375 63.234375 
Q 18.3125 60.0625 18.3125 54.390625 
z
" id="DejaVuSans-56"/>
       </defs>
       <use xlink:href="#DejaVuSans-56"/>
      </g>
     </g>
    </g>
    <g id="ytick_12">
     <g id="line2d_47">
      <path clip-path="url(#pd7d8c7c702)" d="M 49.078125 279.723993 
L 766.8 279.723993 
" style="fill:none;stroke:#000000;stroke-dasharray:0.8,1.32;stroke-dashoffset:0;stroke-opacity:0.25;stroke-width:0.8;"/>
     </g>
     <g id="line2d_48">
      <g>
       <use style="stroke:#000000;stroke-width:0.6;" x="49.078125" xlink:href="#m74fab981e0" y="279.723993"/>
      </g>
     </g>
    </g>
    <g id="ytick_13">
     <g id="line2d_49">
      <path clip-path="url(#pd7d8c7c702)" d="M 49.078125 238.977821 
L 766.8 238.977821 
" style="fill:none;stroke:#000000;stroke-dasharray:0.8,1.32;stroke-dashoffset:0;stroke-opacity:0.25;stroke-width:0.8;"/>
     </g>
     <g id="line2d_50">
      <g>
       <use style="stroke:#000000;stroke-width:0.6;" x="49.078125" xlink:href="#m74fab981e0" y="238.977821"/>
      </g>
     </g>
     <g id="text_22">
      <!-- 20 -->
      <g transform="translate(34.846975 241.614479)scale(0.0694 -0.0694)">
       <use xlink:href="#DejaVuSans-50"/>
       <use x="63.623047" xlink:href="#DejaVuSans-48"/>
      </g>
     </g>
    </g>
    <g id="ytick_14">
     <g id="line2d_51">
      <path clip-path="url(#pd7d8c7c702)" d="M 49.078125 218.287788 
L 766.8 218.287788 
" style="fill:none;stroke:#000000;stroke-dasharray:0.8,1.32;stroke-dashoffset:0;stroke-opacity:0.25;stroke-width:0.8;"/>
     </g>
     <g id="line2d_52">
      <g>
       <use style="stroke:#000000;stroke-width:0.6;" x="49.078125" xlink:href="#m74fab981e0" y="218.287788"/>
      </g>
     </g>
    </g>
    <g id="ytick_15">
     <g id="line2d_53">
      <path clip-path="url(#pd7d8c7c702)" d="M 49.078125 203.607976 
L 766.8 203.607976 
" style="fill:none;stroke:#000000;stroke-dasharray:0.8,1.32;stroke-dashoffset:0;stroke-opacity:0.25;stroke-width:0.8;"/>
     </g>
     <g id="line2d_54">
      <g>
       <use style="stroke:#000000;stroke-width:0.6;" x="49.078125" xlink:href="#m74fab981e0" y="203.607976"/>
      </g>
     </g>
     <g id="text_23">
      <!-- 40 -->
      <g transform="translate(34.846975 206.244634)scale(0.0694 -0.0694)">
       <use xlink:href="#DejaVuSans-52"/>
       <use x="63.623047" xlink:href="#DejaVuSans-48"/>
      </g>
     </g>
    </g>
    <g id="ytick_16">
     <g id="line2d_55">
      <path clip-path="url(#pd7d8c7c702)" d="M 49.078125 192.221429 
L 766.8 192.221429 
" style="fill:none;stroke:#000000;stroke-dasharray:0.8,1.32;stroke-dashoffset:0;stroke-opacity:0.25;stroke-width:0.8;"/>
     </g>
     <g id="line2d_56">
      <g>
       <use style="stroke:#000000;stroke-width:0.6;" x="49.078125" xlink:href="#m74fab981e0" y="192.221429"/>
      </g>
     </g>
    </g>
    <g id="ytick_17">
     <g id="line2d_57">
      <path clip-path="url(#pd7d8c7c702)" d="M 49.078125 182.917943 
L 766.8 182.917943 
" style="fill:none;stroke:#000000;stroke-dasharray:0.8,1.32;stroke-dashoffset:0;stroke-opacity:0.25;stroke-width:0.8;"/>
     </g>
     <g id="line2d_58">
      <g>
       <use style="stroke:#000000;stroke-width:0.6;" x="49.078125" xlink:href="#m74fab981e0" y="182.917943"/>
      </g>
     </g>
     <g id="text_24">
      <!-- 60 -->
      <g transform="translate(34.846975 185.5546)scale(0.0694 -0.0694)">
       <use xlink:href="#DejaVuSans-54"/>
       <use x="63.623047" xlink:href="#DejaVuSans-48"/>
      </g>
     </g>
    </g>
    <g id="ytick_18">
     <g id="line2d_59">
      <path clip-path="url(#pd7d8c7c702)" d="M 49.078125 175.051957 
L 766.8 175.051957 
" style="fill:none;stroke:#000000;stroke-dasharray:0.8,1.32;stroke-dashoffset:0;stroke-opacity:0.25;stroke-width:0.8;"/>
     </g>
     <g id="line2d_60">
      <g>
       <use style="stroke:#000000;stroke-width:0.6;" x="49.078125" xlink:href="#m74fab981e0" y="175.051957"/>
      </g>
     </g>
    </g>
    <g id="ytick_19">
     <g id="line2d_61">
      <path clip-path="url(#pd7d8c7c702)" d="M 49.078125 168.23813 
L 766.8 168.23813 
" style="fill:none;stroke:#000000;stroke-dasharray:0.8,1.32;stroke-dashoffset:0;stroke-opacity:0.25;stroke-width:0.8;"/>
     </g>
     <g id="line2d_62">
      <g>
       <use style="stroke:#000000;stroke-width:0.6;" x="49.078125" xlink:href="#m74fab981e0" y="168.23813"/>
      </g>
     </g>
     <g id="text_25">
      <!-- 80 -->
      <g transform="translate(34.846975 170.874788)scale(0.0694 -0.0694)">
       <use xlink:href="#DejaVuSans-56"/>
       <use x="63.623047" xlink:href="#DejaVuSans-48"/>
      </g>
     </g>
    </g>
    <g id="ytick_20">
     <g id="line2d_63">
      <path clip-path="url(#pd7d8c7c702)" d="M 49.078125 162.227909 
L 766.8 162.227909 
" style="fill:none;stroke:#000000;stroke-dasharray:0.8,1.32;stroke-dashoffset:0;stroke-opacity:0.25;stroke-width:0.8;"/>
     </g>
     <g id="line2d_64">
      <g>
       <use style="stroke:#000000;stroke-width:0.6;" x="49.078125" xlink:href="#m74fab981e0" y="162.227909"/>
      </g>
     </g>
    </g>
    <g id="ytick_21">
     <g id="line2d_65">
      <path clip-path="url(#pd7d8c7c702)" d="M 49.078125 121.481738 
L 766.8 121.481738 
" style="fill:none;stroke:#000000;stroke-dasharray:0.8,1.32;stroke-dashoffset:0;stroke-opacity:0.25;stroke-width:0.8;"/>
     </g>
     <g id="line2d_66">
      <g>
       <use style="stroke:#000000;stroke-width:0.6;" x="49.078125" xlink:href="#m74fab981e0" y="121.481738"/>
      </g>
     </g>
     <g id="text_26">
      <!-- 200 -->
      <g transform="translate(30.4314 124.118396)scale(0.0694 -0.0694)">
       <use xlink:href="#DejaVuSans-50"/>
       <use x="63.623047" xlink:href="#DejaVuSans-48"/>
       <use x="127.246094" xlink:href="#DejaVuSans-48"/>
      </g>
     </g>
    </g>
    <g id="ytick_22">
     <g id="line2d_67">
      <path clip-path="url(#pd7d8c7c702)" d="M 49.078125 100.791705 
L 766.8 100.791705 
" style="fill:none;stroke:#000000;stroke-dasharray:0.8,1.32;stroke-dashoffset:0;stroke-opacity:0.25;stroke-width:0.8;"/>
     </g>
     <g id="line2d_68">
      <g>
       <use style="stroke:#000000;stroke-width:0.6;" x="49.078125" xlink:href="#m74fab981e0" y="100.791705"/>
      </g>
     </g>
    </g>
    <g id="ytick_23">
     <g id="line2d_69">
      <path clip-path="url(#pd7d8c7c702)" d="M 49.078125 86.111892 
L 766.8 86.111892 
" style="fill:none;stroke:#000000;stroke-dasharray:0.8,1.32;stroke-dashoffset:0;stroke-opacity:0.25;stroke-width:0.8;"/>
     </g>
     <g id="line2d_70">
      <g>
       <use style="stroke:#000000;stroke-width:0.6;" x="49.078125" xlink:href="#m74fab981e0" y="86.111892"/>
      </g>
     </g>
     <g id="text_27">
      <!-- 400 -->
      <g transform="translate(30.4314 88.74855)scale(0.0694 -0.0694)">
       <use xlink:href="#DejaVuSans-52"/>
       <use x="63.623047" xlink:href="#DejaVuSans-48"/>
       <use x="127.246094" xlink:href="#DejaVuSans-48"/>
      </g>
     </g>
    </g>
    <g id="ytick_24">
     <g id="line2d_71">
      <path clip-path="url(#pd7d8c7c702)" d="M 49.078125 74.725345 
L 766.8 74.725345 
" style="fill:none;stroke:#000000;stroke-dasharray:0.8,1.32;stroke-dashoffset:0;stroke-opacity:0.25;stroke-width:0.8;"/>
     </g>
     <g id="line2d_72">
      <g>
       <use style="stroke:#000000;stroke-width:0.6;" x="49.078125" xlink:href="#m74fab981e0" y="74.725345"/>
      </g>
     </g>
    </g>
    <g id="ytick_25">
     <g id="line2d_73">
      <path clip-path="url(#pd7d8c7c702)" d="M 49.078125 65.421859 
L 766.8 65.421859 
" style="fill:none;stroke:#000000;stroke-dasharray:0.8,1.32;stroke-dashoffset:0;stroke-opacity:0.25;stroke-width:0.8;"/>
     </g>
     <g id="line2d_74">
      <g>
       <use style="stroke:#000000;stroke-width:0.6;" x="49.078125" xlink:href="#m74fab981e0" y="65.421859"/>
      </g>
     </g>
     <g id="text_28">
      <!-- 600 -->
      <g transform="translate(30.4314 68.058517)scale(0.0694 -0.0694)">
       <use xlink:href="#DejaVuSans-54"/>
       <use x="63.623047" xlink:href="#DejaVuSans-48"/>
       <use x="127.246094" xlink:href="#DejaVuSans-48"/>
      </g>
     </g>
    </g>
    <g id="ytick_26">
     <g id="line2d_75">
      <path clip-path="url(#pd7d8c7c702)" d="M 49.078125 57.555874 
L 766.8 57.555874 
" style="fill:none;stroke:#000000;stroke-dasharray:0.8,1.32;stroke-dashoffset:0;stroke-opacity:0.25;stroke-width:0.8;"/>
     </g>
     <g id="line2d_76">
      <g>
       <use style="stroke:#000000;stroke-width:0.6;" x="49.078125" xlink:href="#m74fab981e0" y="57.555874"/>
      </g>
     </g>
    </g>
    <g id="ytick_27">
     <g id="line2d_77">
      <path clip-path="url(#pd7d8c7c702)" d="M 49.078125 50.742047 
L 766.8 50.742047 
" style="fill:none;stroke:#000000;stroke-dasharray:0.8,1.32;stroke-dashoffset:0;stroke-opacity:0.25;stroke-width:0.8;"/>
     </g>
     <g id="line2d_78">
      <g>
       <use style="stroke:#000000;stroke-width:0.6;" x="49.078125" xlink:href="#m74fab981e0" y="50.742047"/>
      </g>
     </g>
     <g id="text_29">
      <!-- 800 -->
      <g transform="translate(30.4314 53.378705)scale(0.0694 -0.0694)">
       <use xlink:href="#DejaVuSans-56"/>
       <use x="63.623047" xlink:href="#DejaVuSans-48"/>
       <use x="127.246094" xlink:href="#DejaVuSans-48"/>
      </g>
     </g>
    </g>
    <g id="ytick_28">
     <g id="line2d_79">
      <path clip-path="url(#pd7d8c7c702)" d="M 49.078125 44.731826 
L 766.8 44.731826 
" style="fill:none;stroke:#000000;stroke-dasharray:0.8,1.32;stroke-dashoffset:0;stroke-opacity:0.25;stroke-width:0.8;"/>
     </g>
     <g id="line2d_80">
      <g>
       <use style="stroke:#000000;stroke-width:0.6;" x="49.078125" xlink:href="#m74fab981e0" y="44.731826"/>
      </g>
     </g>
    </g>
    <g id="text_30">
     <!-- Cases -->
     <g transform="translate(10.548438 230.441031)rotate(-90)scale(0.1 -0.1)">
      <defs>
       <path d="M 64.40625 67.28125 
L 64.40625 56.890625 
Q 59.421875 61.53125 53.78125 63.8125 
Q 48.140625 66.109375 41.796875 66.109375 
Q 29.296875 66.109375 22.65625 58.46875 
Q 16.015625 50.828125 16.015625 36.375 
Q 16.015625 21.96875 22.65625 14.328125 
Q 29.296875 6.6875 41.796875 6.6875 
Q 48.140625 6.6875 53.78125 8.984375 
Q 59.421875 11.28125 64.40625 15.921875 
L 64.40625 5.609375 
Q 59.234375 2.09375 53.4375 0.328125 
Q 47.65625 -1.421875 41.21875 -1.421875 
Q 24.65625 -1.421875 15.125 8.703125 
Q 5.609375 18.84375 5.609375 36.375 
Q 5.609375 53.953125 15.125 64.078125 
Q 24.65625 74.21875 41.21875 74.21875 
Q 47.75 74.21875 53.53125 72.484375 
Q 59.328125 70.75 64.40625 67.28125 
z
" id="DejaVuSans-67"/>
       <path d="M 34.28125 27.484375 
Q 23.390625 27.484375 19.1875 25 
Q 14.984375 22.515625 14.984375 16.5 
Q 14.984375 11.71875 18.140625 8.90625 
Q 21.296875 6.109375 26.703125 6.109375 
Q 34.1875 6.109375 38.703125 11.40625 
Q 43.21875 16.703125 43.21875 25.484375 
L 43.21875 27.484375 
z
M 52.203125 31.203125 
L 52.203125 0 
L 43.21875 0 
L 43.21875 8.296875 
Q 40.140625 3.328125 35.546875 0.953125 
Q 30.953125 -1.421875 24.3125 -1.421875 
Q 15.921875 -1.421875 10.953125 3.296875 
Q 6 8.015625 6 15.921875 
Q 6 25.140625 12.171875 29.828125 
Q 18.359375 34.515625 30.609375 34.515625 
L 43.21875 34.515625 
L 43.21875 35.40625 
Q 43.21875 41.609375 39.140625 45 
Q 35.0625 48.390625 27.6875 48.390625 
Q 23 48.390625 18.546875 47.265625 
Q 14.109375 46.140625 10.015625 43.890625 
L 10.015625 52.203125 
Q 14.9375 54.109375 19.578125 55.046875 
Q 24.21875 56 28.609375 56 
Q 40.484375 56 46.34375 49.84375 
Q 52.203125 43.703125 52.203125 31.203125 
z
" id="DejaVuSans-97"/>
       <path d="M 44.28125 53.078125 
L 44.28125 44.578125 
Q 40.484375 46.53125 36.375 47.5 
Q 32.28125 48.484375 27.875 48.484375 
Q 21.1875 48.484375 17.84375 46.4375 
Q 14.5 44.390625 14.5 40.28125 
Q 14.5 37.15625 16.890625 35.375 
Q 19.28125 33.59375 26.515625 31.984375 
L 29.59375 31.296875 
Q 39.15625 29.25 43.1875 25.515625 
Q 47.21875 21.78125 47.21875 15.09375 
Q 47.21875 7.46875 41.1875 3.015625 
Q 35.15625 -1.421875 24.609375 -1.421875 
Q 20.21875 -1.421875 15.453125 -0.5625 
Q 10.6875 0.296875 5.421875 2 
L 5.421875 11.28125 
Q 10.40625 8.6875 15.234375 7.390625 
Q 20.0625 6.109375 24.8125 6.109375 
Q 31.15625 6.109375 34.5625 8.28125 
Q 37.984375 10.453125 37.984375 14.40625 
Q 37.984375 18.0625 35.515625 20.015625 
Q 33.0625 21.96875 24.703125 23.78125 
L 21.578125 24.515625 
Q 13.234375 26.265625 9.515625 29.90625 
Q 5.8125 33.546875 5.8125 39.890625 
Q 5.8125 47.609375 11.28125 51.796875 
Q 16.75 56 26.8125 56 
Q 31.78125 56 36.171875 55.265625 
Q 40.578125 54.546875 44.28125 53.078125 
z
" id="DejaVuSans-115"/>
      </defs>
      <use xlink:href="#DejaVuSans-67"/>
      <use x="69.824219" xlink:href="#DejaVuSans-97"/>
      <use x="131.103516" xlink:href="#DejaVuSans-115"/>
      <use x="183.203125" xlink:href="#DejaVuSans-101"/>
      <use x="244.726562" xlink:href="#DejaVuSans-115"/>
     </g>
    </g>
   </g>
   <g id="line2d_81">
    <path clip-path="url(#pd7d8c7c702)" d="M -1 290.008815 
L 2.014395 290.008815 
L 2.014395 285.734214 
L 5.936373 285.734214 
L 5.936373 275.82684 
L 9.85835 275.82684 
L 9.85835 271.16843 
L 13.780328 271.16843 
L 13.780328 267.53384 
L 17.702305 267.53384 
L 17.702305 262.381251 
L 21.624283 262.381251 
L 21.624283 258.496819 
L 25.54626 258.496819 
L 25.54626 251.984438 
L 29.468238 251.984438 
L 29.468238 246.843807 
L 33.390215 246.843807 
L 33.390215 240.456994 
L 37.312193 240.456994 
L 37.312193 233.948936 
L 41.23417 233.948936 
L 41.23417 225.310318 
L 45.156148 225.310318 
L 45.156148 218.531358 
L 49.078125 218.531358 
L 49.078125 212.11583 
L 53.000102 212.11583 
L 53.000102 206.513931 
L 56.92208 206.513931 
L 56.92208 201.905394 
L 60.844057 201.905394 
L 60.844057 195.689947 
L 64.766035 195.689947 
L 64.766035 191.858239 
L 68.688012 191.858239 
L 68.688012 186.049471 
L 72.60999 186.049471 
L 72.60999 177.124171 
L 76.531967 177.124171 
L 76.531967 171.774966 
L 80.453945 171.774966 
L 80.453945 166.403523 
L 84.375922 166.403523 
L 84.375922 161.584016 
L 88.2979 161.584016 
L 88.2979 152.454116 
L 92.219877 152.454116 
L 92.219877 145.904304 
L 96.141855 145.904304 
L 96.141855 143.100496 
L 100.063832 143.100496 
L 100.063832 138.143465 
L 103.985809 138.143465 
L 103.985809 134.653226 
L 107.907787 134.653226 
L 107.907787 129.667649 
L 111.829764 129.667649 
L 111.829764 123.318607 
L 115.751742 123.318607 
L 115.751742 121.245371 
L 119.673719 121.245371 
L 119.673719 116.585135 
L 123.595697 116.585135 
L 123.595697 113.939607 
L 127.517674 113.939607 
L 127.517674 111.290002 
L 131.439652 111.290002 
L 131.439652 106.806482 
L 135.361629 106.806482 
L 135.361629 103.81999 
L 139.283607 103.81999 
L 139.283607 101.996467 
L 143.205584 101.996467 
L 143.205584 101.464341 
L 147.127561 101.464341 
L 147.127561 99.602861 
L 151.049539 99.602861 
L 151.049539 95.873031 
L 154.971516 95.873031 
L 154.971516 94.673602 
L 158.893494 94.673602 
L 158.893494 94.084297 
L 162.815471 94.084297 
L 162.815471 90.674647 
L 166.737449 90.674647 
L 166.737449 88.998559 
L 170.659426 88.998559 
L 170.659426 87.506714 
L 174.581404 87.506714 
L 174.581404 85.119276 
L 178.503381 85.119276 
L 178.503381 84.321256 
L 182.425359 84.321256 
L 182.425359 83.769976 
L 186.347336 83.769976 
L 186.347336 81.630896 
L 190.269314 81.630896 
L 190.269314 81.04999 
L 194.191291 81.04999 
L 194.191291 79.956085 
L 198.113268 79.956085 
L 198.113268 78.980134 
L 202.035246 78.980134 
L 202.035246 79.266183 
L 205.957223 79.266183 
L 205.957223 80.745591 
L 209.879201 80.745591 
L 209.879201 81.04999 
L 213.801178 81.04999 
L 213.801178 80.012653 
L 217.723156 80.012653 
L 217.723156 83.095589 
L 221.645133 83.095589 
L 221.645133 84.736442 
L 225.567111 84.736442 
L 225.567111 85.343181 
L 229.489088 85.343181 
L 229.489088 88.413733 
L 233.411066 88.413733 
L 233.411066 89.230504 
L 237.333043 89.230504 
L 237.333043 91.064748 
L 241.25502 91.064748 
L 241.25502 96.116338 
L 245.176998 96.116338 
L 245.176998 98.53399 
L 249.098975 98.53399 
L 249.098975 101.538259 
L 253.020953 101.538259 
L 253.020953 105.139019 
L 256.94293 105.139019 
L 256.94293 107.466868 
L 260.864908 107.466868 
L 260.864908 110.328996 
L 264.786885 110.328996 
L 264.786885 112.958721 
L 268.708863 112.958721 
L 268.708863 117.117721 
L 272.63084 117.117721 
L 272.63084 119.620767 
L 276.552818 119.620767 
L 276.552818 124.214358 
L 280.474795 124.214358 
L 280.474795 128.441567 
L 284.396773 128.441567 
L 284.396773 131.853332 
L 288.31875 131.853332 
L 288.31875 136.429542 
L 292.240727 136.429542 
L 292.240727 140.363542 
L 296.162705 140.363542 
L 296.162705 143.660325 
L 300.084682 143.660325 
L 300.084682 147.184908 
L 304.00666 147.184908 
L 304.00666 150.133524 
L 307.928637 150.133524 
L 307.928637 153.501399 
L 311.850615 153.501399 
L 311.850615 158.518705 
L 315.772592 158.518705 
L 315.772592 161.26509 
L 319.69457 161.26509 
L 319.69457 165.316394 
L 323.616547 165.316394 
L 323.616547 168.512229 
L 327.538525 168.512229 
L 327.538525 171.482821 
L 331.460502 171.482821 
L 331.460502 175.051957 
L 335.38248 175.051957 
L 335.38248 177.999269 
L 339.304457 177.999269 
L 339.304457 181.836038 
L 343.226434 181.836038 
L 343.226434 184.33462 
L 347.148412 184.33462 
L 347.148412 185.856061 
L 351.070389 185.856061 
L 351.070389 188.905388 
L 354.992367 188.905388 
L 354.992367 195.06954 
L 358.914344 195.06954 
L 358.914344 197.436018 
L 362.836322 197.436018 
L 362.836322 201.729436 
L 366.758299 201.729436 
L 366.758299 206.225365 
L 370.680277 206.225365 
L 370.680277 208.883156 
L 374.602254 208.883156 
L 374.602254 210.94517 
L 378.524232 210.94517 
L 378.524232 217.205884 
L 382.446209 217.205884 
L 382.446209 221.678342 
L 386.368186 221.678342 
L 386.368186 225.310318 
L 390.290164 225.310318 
L 390.290164 228.622176 
L 394.212141 228.622176 
L 394.212141 232.48392 
L 398.134119 232.48392 
L 398.134119 236.662022 
L 402.056096 236.662022 
L 402.056096 242.173983 
L 405.978074 242.173983 
L 405.978074 248.573732 
L 409.900051 248.573732 
L 409.900051 251.052395 
L 413.822029 251.052395 
L 413.822029 261.240915 
L 417.744006 261.240915 
L 417.744006 264.440293 
L 421.665984 264.440293 
L 421.665984 265.348825 
L 425.587961 265.348825 
L 425.587961 266.273828 
L 429.509939 266.273828 
L 429.509939 270.488048 
L 433.431916 270.488048 
L 433.431916 273.623855 
L 437.353893 273.623855 
L 437.353893 273.984477 
L 441.275871 273.984477 
L 441.275871 274.71346 
L 445.197848 274.71346 
L 445.197848 273.984477 
L 449.119826 273.984477 
L 449.119826 273.984477 
" style="fill:none;stroke:#808080;stroke-linecap:square;stroke-width:1.5;"/>
   </g>
   <g id="line2d_82">
    <path clip-path="url(#pd7d8c7c702)" d="M 447.158837 273.984477 
L 451.080815 275.70449 
L 455.002792 273.294324 
L 458.924769 272.280888 
L 462.846747 271.535023 
L 466.768724 272.078442 
L 470.690702 269.453579 
L 474.612679 268.137457 
L 478.534657 267.072958 
L 482.456634 265.318533 
L 486.378612 265.634271 
L 490.300589 262.854217 
L 494.222567 261.522858 
L 498.144544 260.406685 
L 502.066522 260.038063 
L 505.988499 258.849025 
L 509.910476 257.659987 
L 513.832454 256.470948 
L 517.754431 255.28191 
L 521.676409 254.092872 
L 525.598386 252.903834 
L 529.520364 251.714795 
L 533.442341 250.525757 
L 537.364319 249.336719 
L 541.286296 248.147681 
L 545.208274 246.958642 
L 549.130251 245.769604 
L 553.052228 244.580566 
L 556.974206 243.391528 
L 560.896183 242.202489 
L 564.818161 241.013451 
L 568.740138 239.824413 
L 572.662116 238.635375 
L 576.584093 237.446337 
L 580.506071 236.257298 
L 584.428048 235.06826 
L 588.350026 233.879222 
L 592.272003 232.690184 
L 596.193981 231.501145 
L 600.115958 230.312107 
L 604.037935 229.123069 
L 607.959913 227.934031 
L 611.88189 226.744992 
L 615.803868 225.555954 
L 619.725845 224.366916 
L 623.647823 223.177878 
L 627.5698 221.988839 
L 631.491778 220.799801 
L 635.413755 219.610763 
L 639.335733 218.421725 
L 643.25771 217.232686 
L 647.179687 216.043648 
L 651.101665 214.85461 
L 655.023642 213.665572 
L 658.94562 212.476534 
L 662.867597 211.287495 
L 666.789575 210.098457 
L 670.711552 208.909419 
L 674.63353 207.720381 
L 678.555507 206.531342 
L 682.477485 205.342304 
L 686.399462 204.153266 
L 690.32144 202.964228 
L 694.243417 201.775189 
L 698.165394 200.586151 
L 702.087372 199.397113 
L 706.009349 198.208075 
L 709.931327 197.019036 
L 713.853304 195.829998 
L 717.775282 194.64096 
L 721.697259 193.451922 
L 725.619237 192.262883 
L 729.541214 191.073845 
L 733.463192 189.884807 
L 737.385169 188.695769 
L 741.307147 187.506731 
L 745.229124 186.317692 
L 749.151101 185.128654 
L 753.073079 183.939616 
L 756.995056 182.750578 
L 760.917034 181.561539 
L 764.839011 180.372501 
L 768.760989 179.183463 
" style="fill:none;stroke:#808080;stroke-dasharray:5.55,2.4;stroke-dashoffset:0;stroke-width:1.5;"/>
   </g>
   <g id="line2d_83">
    <path clip-path="url(#pd7d8c7c702)" d="M 449.119826 391.84375 
L 449.119826 39.3555 
" style="fill:none;stroke:#000000;stroke-dasharray:5.55,2.4;stroke-dashoffset:0;stroke-width:1.5;"/>
   </g>
   <g id="line2d_84">
    <path clip-path="url(#pd7d8c7c702)" d="M 343.226434 3.985655 
L 398.134119 3.985655 
L 398.134119 192.221429 
L 480.495645 192.221429 
L 480.495645 309.717512 
L 562.857172 309.717512 
L 562.857172 433 
" style="fill:none;stroke:#000000;stroke-linecap:square;stroke-width:2;"/>
   </g>
   <g id="patch_3">
    <path d="M 49.078125 391.84375 
L 49.078125 39.3555 
" style="fill:none;stroke:#000000;stroke-linecap:square;stroke-linejoin:miter;stroke-width:0.8;"/>
   </g>
   <g id="patch_4">
    <path d="M 766.8 391.84375 
L 766.8 39.3555 
" style="fill:none;stroke:#000000;stroke-linecap:square;stroke-linejoin:miter;stroke-width:0.8;"/>
   </g>
   <g id="patch_5">
    <path d="M 49.078125 391.84375 
L 766.8 391.84375 
" style="fill:none;stroke:#000000;stroke-linecap:square;stroke-linejoin:miter;stroke-width:0.8;"/>
   </g>
   <g id="patch_6">
    <path d="M 49.078125 39.3555 
L 766.8 39.3555 
" style="fill:none;stroke:#000000;stroke-linecap:square;stroke-linejoin:miter;stroke-width:0.8;"/>
   </g>
   <g id="text_31">
    <!-- VIC 14 day average with Melbourne reopening targets -->
    <g transform="translate(245.241562 19.918125)scale(0.12 -0.12)">
     <defs>
      <path d="M 28.609375 0 
L 0.78125 72.90625 
L 11.078125 72.90625 
L 34.1875 11.53125 
L 57.328125 72.90625 
L 67.578125 72.90625 
L 39.796875 0 
z
" id="DejaVuSans-86"/>
      <path d="M 9.8125 72.90625 
L 19.671875 72.90625 
L 19.671875 0 
L 9.8125 0 
z
" id="DejaVuSans-73"/>
      <path id="DejaVuSans-32"/>
      <path d="M 45.40625 46.390625 
L 45.40625 75.984375 
L 54.390625 75.984375 
L 54.390625 0 
L 45.40625 0 
L 45.40625 8.203125 
Q 42.578125 3.328125 38.25 0.953125 
Q 33.9375 -1.421875 27.875 -1.421875 
Q 17.96875 -1.421875 11.734375 6.484375 
Q 5.515625 14.40625 5.515625 27.296875 
Q 5.515625 40.1875 11.734375 48.09375 
Q 17.96875 56 27.875 56 
Q 33.9375 56 38.25 53.625 
Q 42.578125 51.265625 45.40625 46.390625 
z
M 14.796875 27.296875 
Q 14.796875 17.390625 18.875 11.75 
Q 22.953125 6.109375 30.078125 6.109375 
Q 37.203125 6.109375 41.296875 11.75 
Q 45.40625 17.390625 45.40625 27.296875 
Q 45.40625 37.203125 41.296875 42.84375 
Q 37.203125 48.484375 30.078125 48.484375 
Q 22.953125 48.484375 18.875 42.84375 
Q 14.796875 37.203125 14.796875 27.296875 
z
" id="DejaVuSans-100"/>
      <path d="M 32.171875 -5.078125 
Q 28.375 -14.84375 24.75 -17.8125 
Q 21.140625 -20.796875 15.09375 -20.796875 
L 7.90625 -20.796875 
L 7.90625 -13.28125 
L 13.1875 -13.28125 
Q 16.890625 -13.28125 18.9375 -11.515625 
Q 21 -9.765625 23.484375 -3.21875 
L 25.09375 0.875 
L 2.984375 54.6875 
L 12.5 54.6875 
L 29.59375 11.921875 
L 46.6875 54.6875 
L 56.203125 54.6875 
z
" id="DejaVuSans-121"/>
      <path d="M 41.109375 46.296875 
Q 39.59375 47.171875 37.8125 47.578125 
Q 36.03125 48 33.890625 48 
Q 26.265625 48 22.1875 43.046875 
Q 18.109375 38.09375 18.109375 28.8125 
L 18.109375 0 
L 9.078125 0 
L 9.078125 54.6875 
L 18.109375 54.6875 
L 18.109375 46.1875 
Q 20.953125 51.171875 25.484375 53.578125 
Q 30.03125 56 36.53125 56 
Q 37.453125 56 38.578125 55.875 
Q 39.703125 55.765625 41.0625 55.515625 
z
" id="DejaVuSans-114"/>
      <path d="M 4.203125 54.6875 
L 13.1875 54.6875 
L 24.421875 12.015625 
L 35.59375 54.6875 
L 46.1875 54.6875 
L 57.421875 12.015625 
L 68.609375 54.6875 
L 77.59375 54.6875 
L 63.28125 0 
L 52.6875 0 
L 40.921875 44.828125 
L 29.109375 0 
L 18.5 0 
z
" id="DejaVuSans-119"/>
      <path d="M 9.421875 54.6875 
L 18.40625 54.6875 
L 18.40625 0 
L 9.421875 0 
z
M 9.421875 75.984375 
L 18.40625 75.984375 
L 18.40625 64.59375 
L 9.421875 64.59375 
z
" id="DejaVuSans-105"/>
      <path d="M 54.890625 33.015625 
L 54.890625 0 
L 45.90625 0 
L 45.90625 32.71875 
Q 45.90625 40.484375 42.875 44.328125 
Q 39.84375 48.1875 33.796875 48.1875 
Q 26.515625 48.1875 22.3125 43.546875 
Q 18.109375 38.921875 18.109375 30.90625 
L 18.109375 0 
L 9.078125 0 
L 9.078125 75.984375 
L 18.109375 75.984375 
L 18.109375 46.1875 
Q 21.34375 51.125 25.703125 53.5625 
Q 30.078125 56 35.796875 56 
Q 45.21875 56 50.046875 50.171875 
Q 54.890625 44.34375 54.890625 33.015625 
z
" id="DejaVuSans-104"/>
      <path d="M 9.8125 72.90625 
L 24.515625 72.90625 
L 43.109375 23.296875 
L 61.8125 72.90625 
L 76.515625 72.90625 
L 76.515625 0 
L 66.890625 0 
L 66.890625 64.015625 
L 48.09375 14.015625 
L 38.1875 14.015625 
L 19.390625 64.015625 
L 19.390625 0 
L 9.8125 0 
z
" id="DejaVuSans-77"/>
      <path d="M 48.6875 27.296875 
Q 48.6875 37.203125 44.609375 42.84375 
Q 40.53125 48.484375 33.40625 48.484375 
Q 26.265625 48.484375 22.1875 42.84375 
Q 18.109375 37.203125 18.109375 27.296875 
Q 18.109375 17.390625 22.1875 11.75 
Q 26.265625 6.109375 33.40625 6.109375 
Q 40.53125 6.109375 44.609375 11.75 
Q 48.6875 17.390625 48.6875 27.296875 
z
M 18.109375 46.390625 
Q 20.953125 51.265625 25.265625 53.625 
Q 29.59375 56 35.59375 56 
Q 45.5625 56 51.78125 48.09375 
Q 58.015625 40.1875 58.015625 27.296875 
Q 58.015625 14.40625 51.78125 6.484375 
Q 45.5625 -1.421875 35.59375 -1.421875 
Q 29.59375 -1.421875 25.265625 0.953125 
Q 20.953125 3.328125 18.109375 8.203125 
L 18.109375 0 
L 9.078125 0 
L 9.078125 75.984375 
L 18.109375 75.984375 
z
" id="DejaVuSans-98"/>
      <path d="M 54.890625 33.015625 
L 54.890625 0 
L 45.90625 0 
L 45.90625 32.71875 
Q 45.90625 40.484375 42.875 44.328125 
Q 39.84375 48.1875 33.796875 48.1875 
Q 26.515625 48.1875 22.3125 43.546875 
Q 18.109375 38.921875 18.109375 30.90625 
L 18.109375 0 
L 9.078125 0 
L 9.078125 54.6875 
L 18.109375 54.6875 
L 18.109375 46.1875 
Q 21.34375 51.125 25.703125 53.5625 
Q 30.078125 56 35.796875 56 
Q 45.21875 56 50.046875 50.171875 
Q 54.890625 44.34375 54.890625 33.015625 
z
" id="DejaVuSans-110"/>
     </defs>
     <use xlink:href="#DejaVuSans-86"/>
     <use x="68.408203" xlink:href="#DejaVuSans-73"/>
     <use x="97.900391" xlink:href="#DejaVuSans-67"/>
     <use x="167.724609" xlink:href="#DejaVuSans-32"/>
     <use x="199.511719" xlink:href="#DejaVuSans-49"/>
     <use x="263.134766" xlink:href="#DejaVuSans-52"/>
     <use x="326.757812" xlink:href="#DejaVuSans-32"/>
     <use x="358.544922" xlink:href="#DejaVuSans-100"/>
     <use x="422.021484" xlink:href="#DejaVuSans-97"/>
     <use x="483.300781" xlink:href="#DejaVuSans-121"/>
     <use x="542.480469" xlink:href="#DejaVuSans-32"/>
     <use x="574.267578" xlink:href="#DejaVuSans-97"/>
     <use x="635.546875" xlink:href="#DejaVuSans-118"/>
     <use x="694.726562" xlink:href="#DejaVuSans-101"/>
     <use x="756.25" xlink:href="#DejaVuSans-114"/>
     <use x="797.363281" xlink:href="#DejaVuSans-97"/>
     <use x="858.642578" xlink:href="#DejaVuSans-103"/>
     <use x="922.119141" xlink:href="#DejaVuSans-101"/>
     <use x="983.642578" xlink:href="#DejaVuSans-32"/>
     <use x="1015.429688" xlink:href="#DejaVuSans-119"/>
     <use x="1097.216797" xlink:href="#DejaVuSans-105"/>
     <use x="1125" xlink:href="#DejaVuSans-116"/>
     <use x="1164.208984" xlink:href="#DejaVuSans-104"/>
     <use x="1227.587891" xlink:href="#DejaVuSans-32"/>
     <use x="1259.375" xlink:href="#DejaVuSans-77"/>
     <use x="1345.654297" xlink:href="#DejaVuSans-101"/>
     <use x="1407.177734" xlink:href="#DejaVuSans-108"/>
     <use x="1434.960938" xlink:href="#DejaVuSans-98"/>
     <use x="1498.4375" xlink:href="#DejaVuSans-111"/>
     <use x="1559.619141" xlink:href="#DejaVuSans-117"/>
     <use x="1622.998047" xlink:href="#DejaVuSans-114"/>
     <use x="1662.361328" xlink:href="#DejaVuSans-110"/>
     <use x="1725.740234" xlink:href="#DejaVuSans-101"/>
     <use x="1787.263672" xlink:href="#DejaVuSans-32"/>
     <use x="1819.050781" xlink:href="#DejaVuSans-114"/>
     <use x="1857.914062" xlink:href="#DejaVuSans-101"/>
     <use x="1919.4375" xlink:href="#DejaVuSans-111"/>
     <use x="1980.619141" xlink:href="#DejaVuSans-112"/>
     <use x="2044.095703" xlink:href="#DejaVuSans-101"/>
     <use x="2105.619141" xlink:href="#DejaVuSans-110"/>
     <use x="2168.998047" xlink:href="#DejaVuSans-105"/>
     <use x="2196.78125" xlink:href="#DejaVuSans-110"/>
     <use x="2260.160156" xlink:href="#DejaVuSans-103"/>
     <use x="2323.636719" xlink:href="#DejaVuSans-32"/>
     <use x="2355.423828" xlink:href="#DejaVuSans-116"/>
     <use x="2394.632812" xlink:href="#DejaVuSans-97"/>
     <use x="2455.912109" xlink:href="#DejaVuSans-114"/>
     <use x="2495.275391" xlink:href="#DejaVuSans-103"/>
     <use x="2558.751953" xlink:href="#DejaVuSans-101"/>
     <use x="2620.275391" xlink:href="#DejaVuSans-116"/>
     <use x="2659.484375" xlink:href="#DejaVuSans-115"/>
    </g>
    <!-- Current average: 10.1 cases per day. Fortnightly mystery cases: 10 -->
    <g transform="translate(205.791562 33.3555)scale(0.12 -0.12)">
     <defs>
      <path d="M 11.71875 12.40625 
L 22.015625 12.40625 
L 22.015625 0 
L 11.71875 0 
z
M 11.71875 51.703125 
L 22.015625 51.703125 
L 22.015625 39.3125 
L 11.71875 39.3125 
z
" id="DejaVuSans-58"/>
      <path d="M 10.6875 12.40625 
L 21 12.40625 
L 21 0 
L 10.6875 0 
z
" id="DejaVuSans-46"/>
      <path d="M 9.8125 72.90625 
L 51.703125 72.90625 
L 51.703125 64.59375 
L 19.671875 64.59375 
L 19.671875 43.109375 
L 48.578125 43.109375 
L 48.578125 34.8125 
L 19.671875 34.8125 
L 19.671875 0 
L 9.8125 0 
z
" id="DejaVuSans-70"/>
      <path d="M 52 44.1875 
Q 55.375 50.25 60.0625 53.125 
Q 64.75 56 71.09375 56 
Q 79.640625 56 84.28125 50.015625 
Q 88.921875 44.046875 88.921875 33.015625 
L 88.921875 0 
L 79.890625 0 
L 79.890625 32.71875 
Q 79.890625 40.578125 77.09375 44.375 
Q 74.3125 48.1875 68.609375 48.1875 
Q 61.625 48.1875 57.5625 43.546875 
Q 53.515625 38.921875 53.515625 30.90625 
L 53.515625 0 
L 44.484375 0 
L 44.484375 32.71875 
Q 44.484375 40.625 41.703125 44.40625 
Q 38.921875 48.1875 33.109375 48.1875 
Q 26.21875 48.1875 22.15625 43.53125 
Q 18.109375 38.875 18.109375 30.90625 
L 18.109375 0 
L 9.078125 0 
L 9.078125 54.6875 
L 18.109375 54.6875 
L 18.109375 46.1875 
Q 21.1875 51.21875 25.484375 53.609375 
Q 29.78125 56 35.6875 56 
Q 41.65625 56 45.828125 52.96875 
Q 50 49.953125 52 44.1875 
z
" id="DejaVuSans-109"/>
     </defs>
     <use xlink:href="#DejaVuSans-67"/>
     <use x="69.824219" xlink:href="#DejaVuSans-117"/>
     <use x="133.203125" xlink:href="#DejaVuSans-114"/>
     <use x="172.566406" xlink:href="#DejaVuSans-114"/>
     <use x="211.429688" xlink:href="#DejaVuSans-101"/>
     <use x="272.953125" xlink:href="#DejaVuSans-110"/>
     <use x="336.332031" xlink:href="#DejaVuSans-116"/>
     <use x="375.541016" xlink:href="#DejaVuSans-32"/>
     <use x="407.328125" xlink:href="#DejaVuSans-97"/>
     <use x="468.607422" xlink:href="#DejaVuSans-118"/>
     <use x="527.787109" xlink:href="#DejaVuSans-101"/>
     <use x="589.310547" xlink:href="#DejaVuSans-114"/>
     <use x="630.423828" xlink:href="#DejaVuSans-97"/>
     <use x="691.703125" xlink:href="#DejaVuSans-103"/>
     <use x="755.179688" xlink:href="#DejaVuSans-101"/>
     <use x="816.703125" xlink:href="#DejaVuSans-58"/>
     <use x="850.394531" xlink:href="#DejaVuSans-32"/>
     <use x="882.181641" xlink:href="#DejaVuSans-49"/>
     <use x="945.804688" xlink:href="#DejaVuSans-48"/>
     <use x="1009.427734" xlink:href="#DejaVuSans-46"/>
     <use x="1041.214844" xlink:href="#DejaVuSans-49"/>
     <use x="1104.837891" xlink:href="#DejaVuSans-32"/>
     <use x="1136.625" xlink:href="#DejaVuSans-99"/>
     <use x="1191.605469" xlink:href="#DejaVuSans-97"/>
     <use x="1252.884766" xlink:href="#DejaVuSans-115"/>
     <use x="1304.984375" xlink:href="#DejaVuSans-101"/>
     <use x="1366.507812" xlink:href="#DejaVuSans-115"/>
     <use x="1418.607422" xlink:href="#DejaVuSans-32"/>
     <use x="1450.394531" xlink:href="#DejaVuSans-112"/>
     <use x="1513.871094" xlink:href="#DejaVuSans-101"/>
     <use x="1575.394531" xlink:href="#DejaVuSans-114"/>
     <use x="1616.507812" xlink:href="#DejaVuSans-32"/>
     <use x="1648.294922" xlink:href="#DejaVuSans-100"/>
     <use x="1711.771484" xlink:href="#DejaVuSans-97"/>
     <use x="1773.050781" xlink:href="#DejaVuSans-121"/>
     <use x="1817.980469" xlink:href="#DejaVuSans-46"/>
     <use x="1849.767578" xlink:href="#DejaVuSans-32"/>
     <use x="1881.554688" xlink:href="#DejaVuSans-70"/>
     <use x="1935.449219" xlink:href="#DejaVuSans-111"/>
     <use x="1996.630859" xlink:href="#DejaVuSans-114"/>
     <use x="2037.744141" xlink:href="#DejaVuSans-116"/>
     <use x="2076.953125" xlink:href="#DejaVuSans-110"/>
     <use x="2140.332031" xlink:href="#DejaVuSans-105"/>
     <use x="2168.115234" xlink:href="#DejaVuSans-103"/>
     <use x="2231.591797" xlink:href="#DejaVuSans-104"/>
     <use x="2294.970703" xlink:href="#DejaVuSans-116"/>
     <use x="2334.179688" xlink:href="#DejaVuSans-108"/>
     <use x="2361.962891" xlink:href="#DejaVuSans-121"/>
     <use x="2421.142578" xlink:href="#DejaVuSans-32"/>
     <use x="2452.929688" xlink:href="#DejaVuSans-109"/>
     <use x="2550.341797" xlink:href="#DejaVuSans-121"/>
     <use x="2609.521484" xlink:href="#DejaVuSans-115"/>
     <use x="2661.621094" xlink:href="#DejaVuSans-116"/>
     <use x="2700.830078" xlink:href="#DejaVuSans-101"/>
     <use x="2762.353516" xlink:href="#DejaVuSans-114"/>
     <use x="2803.466797" xlink:href="#DejaVuSans-121"/>
     <use x="2862.646484" xlink:href="#DejaVuSans-32"/>
     <use x="2894.433594" xlink:href="#DejaVuSans-99"/>
     <use x="2949.414062" xlink:href="#DejaVuSans-97"/>
     <use x="3010.693359" xlink:href="#DejaVuSans-115"/>
     <use x="3062.792969" xlink:href="#DejaVuSans-101"/>
     <use x="3124.316406" xlink:href="#DejaVuSans-115"/>
     <use x="3176.416016" xlink:href="#DejaVuSans-58"/>
     <use x="3210.107422" xlink:href="#DejaVuSans-32"/>
     <use x="3241.894531" xlink:href="#DejaVuSans-49"/>
     <use x="3305.517578" xlink:href="#DejaVuSans-48"/>
    </g>
   </g>
   <g id="line2d_85">
    <path clip-path="url(#pd7d8c7c702)" d="M 307.928637 121.481738 
L 307.928637 121.481738 
L 311.850615 121.481738 
L 311.850615 123.036007 
L 315.772592 123.036007 
L 315.772592 154.850233 
L 331.460502 154.850233 
L 331.460502 160.008955 
L 335.38248 160.008955 
L 335.38248 166.359591 
L 339.304457 166.359591 
L 339.304457 166.978118 
L 343.226434 166.978118 
L 343.226434 165.748471 
L 347.148412 165.748471 
L 347.148412 172.910612 
L 351.070389 172.910612 
L 351.070389 179.624677 
L 354.992367 179.624677 
L 354.992367 190.220078 
L 358.914344 190.220078 
L 358.914344 195.378801 
L 362.836322 195.378801 
L 362.836322 197.597755 
L 366.758299 197.597755 
L 366.758299 202.347964 
L 370.680277 202.347964 
L 370.680277 207.58619 
L 374.602254 207.58619 
L 374.602254 211.900976 
L 378.524232 211.900976 
L 378.524232 216.614592 
L 382.446209 216.614592 
L 382.446209 216.614592 
L 386.368186 216.614592 
L 386.368186 216.614592 
L 390.290164 216.614592 
L 390.290164 223.664114 
L 394.212141 223.664114 
L 394.212141 236.488162 
L 398.134119 236.488162 
L 398.134119 241.59521 
L 402.056096 241.59521 
L 402.056096 257.178195 
L 405.978074 257.178195 
L 405.978074 269.484188 
L 409.900051 269.484188 
L 409.900051 260.959769 
L 413.822029 260.959769 
L 413.822029 260.959769 
L 417.744006 260.959769 
L 417.744006 260.959769 
L 421.665984 260.959769 
L 421.665984 265.04418 
L 425.587961 265.04418 
L 425.587961 257.178195 
L 429.509939 257.178195 
L 429.509939 265.04418 
L 433.431916 265.04418 
L 433.431916 274.347667 
L 437.353893 274.347667 
" style="fill:none;stroke:#0000ff;stroke-linecap:square;stroke-opacity:0.5;stroke-width:1.5;"/>
   </g>
   <g id="legend_1">
    <g id="patch_7">
     <path d="M 443.698437 135.42425 
L 759.8 135.42425 
Q 761.8 135.42425 761.8 133.42425 
L 761.8 46.3555 
Q 761.8 44.3555 759.8 44.3555 
L 443.698437 44.3555 
Q 441.698437 44.3555 441.698437 46.3555 
L 441.698437 133.42425 
Q 441.698437 135.42425 443.698437 135.42425 
z
" style="fill:#ffffff;opacity:0.8;stroke:#cccccc;stroke-linejoin:miter;"/>
    </g>
    <g id="line2d_86">
     <path d="M 445.698437 52.453937 
L 465.698437 52.453937 
" style="fill:none;stroke:#808080;stroke-linecap:square;stroke-width:1.5;"/>
    </g>
    <g id="line2d_87"/>
    <g id="text_32">
     <!-- 14d average daily cases -->
     <g transform="translate(473.698437 55.953937)scale(0.1 -0.1)">
      <use xlink:href="#DejaVuSans-49"/>
      <use x="63.623047" xlink:href="#DejaVuSans-52"/>
      <use x="127.246094" xlink:href="#DejaVuSans-100"/>
      <use x="190.722656" xlink:href="#DejaVuSans-32"/>
      <use x="222.509766" xlink:href="#DejaVuSans-97"/>
      <use x="283.789062" xlink:href="#DejaVuSans-118"/>
      <use x="342.96875" xlink:href="#DejaVuSans-101"/>
      <use x="404.492188" xlink:href="#DejaVuSans-114"/>
      <use x="445.605469" xlink:href="#DejaVuSans-97"/>
      <use x="506.884766" xlink:href="#DejaVuSans-103"/>
      <use x="570.361328" xlink:href="#DejaVuSans-101"/>
      <use x="631.884766" xlink:href="#DejaVuSans-32"/>
      <use x="663.671875" xlink:href="#DejaVuSans-100"/>
      <use x="727.148438" xlink:href="#DejaVuSans-97"/>
      <use x="788.427734" xlink:href="#DejaVuSans-105"/>
      <use x="816.210938" xlink:href="#DejaVuSans-108"/>
      <use x="843.994141" xlink:href="#DejaVuSans-121"/>
      <use x="903.173828" xlink:href="#DejaVuSans-32"/>
      <use x="934.960938" xlink:href="#DejaVuSans-99"/>
      <use x="989.941406" xlink:href="#DejaVuSans-97"/>
      <use x="1051.220703" xlink:href="#DejaVuSans-115"/>
      <use x="1103.320312" xlink:href="#DejaVuSans-101"/>
      <use x="1164.84375" xlink:href="#DejaVuSans-115"/>
     </g>
    </g>
    <g id="line2d_88">
     <path d="M 445.698437 67.132063 
L 465.698437 67.132063 
" style="fill:none;stroke:#808080;stroke-dasharray:5.55,2.4;stroke-dashoffset:0;stroke-width:1.5;"/>
    </g>
    <g id="line2d_89"/>
    <g id="text_33">
     <!-- 14d average (projected) -->
     <g transform="translate(473.698437 70.632063)scale(0.1 -0.1)">
      <defs>
       <path d="M 31 75.875 
Q 24.46875 64.65625 21.28125 53.65625 
Q 18.109375 42.671875 18.109375 31.390625 
Q 18.109375 20.125 21.3125 9.0625 
Q 24.515625 -2 31 -13.1875 
L 23.1875 -13.1875 
Q 15.875 -1.703125 12.234375 9.375 
Q 8.59375 20.453125 8.59375 31.390625 
Q 8.59375 42.28125 12.203125 53.3125 
Q 15.828125 64.359375 23.1875 75.875 
z
" id="DejaVuSans-40"/>
       <path d="M 9.421875 54.6875 
L 18.40625 54.6875 
L 18.40625 -0.984375 
Q 18.40625 -11.421875 14.421875 -16.109375 
Q 10.453125 -20.796875 1.609375 -20.796875 
L -1.8125 -20.796875 
L -1.8125 -13.1875 
L 0.59375 -13.1875 
Q 5.71875 -13.1875 7.5625 -10.8125 
Q 9.421875 -8.453125 9.421875 -0.984375 
z
M 9.421875 75.984375 
L 18.40625 75.984375 
L 18.40625 64.59375 
L 9.421875 64.59375 
z
" id="DejaVuSans-106"/>
       <path d="M 8.015625 75.875 
L 15.828125 75.875 
Q 23.140625 64.359375 26.78125 53.3125 
Q 30.421875 42.28125 30.421875 31.390625 
Q 30.421875 20.453125 26.78125 9.375 
Q 23.140625 -1.703125 15.828125 -13.1875 
L 8.015625 -13.1875 
Q 14.5 -2 17.703125 9.0625 
Q 20.90625 20.125 20.90625 31.390625 
Q 20.90625 42.671875 17.703125 53.65625 
Q 14.5 64.65625 8.015625 75.875 
z
" id="DejaVuSans-41"/>
      </defs>
      <use xlink:href="#DejaVuSans-49"/>
      <use x="63.623047" xlink:href="#DejaVuSans-52"/>
      <use x="127.246094" xlink:href="#DejaVuSans-100"/>
      <use x="190.722656" xlink:href="#DejaVuSans-32"/>
      <use x="222.509766" xlink:href="#DejaVuSans-97"/>
      <use x="283.789062" xlink:href="#DejaVuSans-118"/>
      <use x="342.96875" xlink:href="#DejaVuSans-101"/>
      <use x="404.492188" xlink:href="#DejaVuSans-114"/>
      <use x="445.605469" xlink:href="#DejaVuSans-97"/>
      <use x="506.884766" xlink:href="#DejaVuSans-103"/>
      <use x="570.361328" xlink:href="#DejaVuSans-101"/>
      <use x="631.884766" xlink:href="#DejaVuSans-32"/>
      <use x="663.671875" xlink:href="#DejaVuSans-40"/>
      <use x="702.685547" xlink:href="#DejaVuSans-112"/>
      <use x="766.162109" xlink:href="#DejaVuSans-114"/>
      <use x="805.025391" xlink:href="#DejaVuSans-111"/>
      <use x="866.207031" xlink:href="#DejaVuSans-106"/>
      <use x="893.990234" xlink:href="#DejaVuSans-101"/>
      <use x="955.513672" xlink:href="#DejaVuSans-99"/>
      <use x="1010.494141" xlink:href="#DejaVuSans-116"/>
      <use x="1049.703125" xlink:href="#DejaVuSans-101"/>
      <use x="1111.226562" xlink:href="#DejaVuSans-100"/>
      <use x="1174.703125" xlink:href="#DejaVuSans-41"/>
     </g>
    </g>
    <g id="patch_8">
     <path d="M 445.698437 85.310187 
L 465.698437 85.310187 
L 465.698437 78.310187 
L 445.698437 78.310187 
z
" style="fill:#808080;opacity:0.5;"/>
    </g>
    <g id="text_34">
     <!-- Projection uncertainty -->
     <g transform="translate(473.698437 85.310187)scale(0.1 -0.1)">
      <defs>
       <path d="M 19.671875 64.796875 
L 19.671875 37.40625 
L 32.078125 37.40625 
Q 38.96875 37.40625 42.71875 40.96875 
Q 46.484375 44.53125 46.484375 51.125 
Q 46.484375 57.671875 42.71875 61.234375 
Q 38.96875 64.796875 32.078125 64.796875 
z
M 9.8125 72.90625 
L 32.078125 72.90625 
Q 44.34375 72.90625 50.609375 67.359375 
Q 56.890625 61.8125 56.890625 51.125 
Q 56.890625 40.328125 50.609375 34.8125 
Q 44.34375 29.296875 32.078125 29.296875 
L 19.671875 29.296875 
L 19.671875 0 
L 9.8125 0 
z
" id="DejaVuSans-80"/>
      </defs>
      <use xlink:href="#DejaVuSans-80"/>
      <use x="58.552734" xlink:href="#DejaVuSans-114"/>
      <use x="97.416016" xlink:href="#DejaVuSans-111"/>
      <use x="158.597656" xlink:href="#DejaVuSans-106"/>
      <use x="186.380859" xlink:href="#DejaVuSans-101"/>
      <use x="247.904297" xlink:href="#DejaVuSans-99"/>
      <use x="302.884766" xlink:href="#DejaVuSans-116"/>
      <use x="342.09375" xlink:href="#DejaVuSans-105"/>
      <use x="369.876953" xlink:href="#DejaVuSans-111"/>
      <use x="431.058594" xlink:href="#DejaVuSans-110"/>
      <use x="494.4375" xlink:href="#DejaVuSans-32"/>
      <use x="526.224609" xlink:href="#DejaVuSans-117"/>
      <use x="589.603516" xlink:href="#DejaVuSans-110"/>
      <use x="652.982422" xlink:href="#DejaVuSans-99"/>
      <use x="707.962891" xlink:href="#DejaVuSans-101"/>
      <use x="769.486328" xlink:href="#DejaVuSans-114"/>
      <use x="810.599609" xlink:href="#DejaVuSans-116"/>
      <use x="849.808594" xlink:href="#DejaVuSans-97"/>
      <use x="911.087891" xlink:href="#DejaVuSans-105"/>
      <use x="938.871094" xlink:href="#DejaVuSans-110"/>
      <use x="1002.25" xlink:href="#DejaVuSans-116"/>
      <use x="1041.458984" xlink:href="#DejaVuSans-121"/>
     </g>
    </g>
    <g id="line2d_90">
     <path d="M 445.698437 96.488313 
L 465.698437 96.488313 
" style="fill:none;stroke:#000000;stroke-linecap:square;stroke-width:2;"/>
    </g>
    <g id="line2d_91"/>
    <g id="text_35">
     <!-- Required target -->
     <g transform="translate(473.698437 99.988313)scale(0.1 -0.1)">
      <defs>
       <path d="M 44.390625 34.1875 
Q 47.5625 33.109375 50.5625 29.59375 
Q 53.5625 26.078125 56.59375 19.921875 
L 66.609375 0 
L 56 0 
L 46.6875 18.703125 
Q 43.0625 26.03125 39.671875 28.421875 
Q 36.28125 30.8125 30.421875 30.8125 
L 19.671875 30.8125 
L 19.671875 0 
L 9.8125 0 
L 9.8125 72.90625 
L 32.078125 72.90625 
Q 44.578125 72.90625 50.734375 67.671875 
Q 56.890625 62.453125 56.890625 51.90625 
Q 56.890625 45.015625 53.6875 40.46875 
Q 50.484375 35.9375 44.390625 34.1875 
z
M 19.671875 64.796875 
L 19.671875 38.921875 
L 32.078125 38.921875 
Q 39.203125 38.921875 42.84375 42.21875 
Q 46.484375 45.515625 46.484375 51.90625 
Q 46.484375 58.296875 42.84375 61.546875 
Q 39.203125 64.796875 32.078125 64.796875 
z
" id="DejaVuSans-82"/>
       <path d="M 14.796875 27.296875 
Q 14.796875 17.390625 18.875 11.75 
Q 22.953125 6.109375 30.078125 6.109375 
Q 37.203125 6.109375 41.296875 11.75 
Q 45.40625 17.390625 45.40625 27.296875 
Q 45.40625 37.203125 41.296875 42.84375 
Q 37.203125 48.484375 30.078125 48.484375 
Q 22.953125 48.484375 18.875 42.84375 
Q 14.796875 37.203125 14.796875 27.296875 
z
M 45.40625 8.203125 
Q 42.578125 3.328125 38.25 0.953125 
Q 33.9375 -1.421875 27.875 -1.421875 
Q 17.96875 -1.421875 11.734375 6.484375 
Q 5.515625 14.40625 5.515625 27.296875 
Q 5.515625 40.1875 11.734375 48.09375 
Q 17.96875 56 27.875 56 
Q 33.9375 56 38.25 53.625 
Q 42.578125 51.265625 45.40625 46.390625 
L 45.40625 54.6875 
L 54.390625 54.6875 
L 54.390625 -20.796875 
L 45.40625 -20.796875 
z
" id="DejaVuSans-113"/>
      </defs>
      <use xlink:href="#DejaVuSans-82"/>
      <use x="64.982422" xlink:href="#DejaVuSans-101"/>
      <use x="126.505859" xlink:href="#DejaVuSans-113"/>
      <use x="189.982422" xlink:href="#DejaVuSans-117"/>
      <use x="253.361328" xlink:href="#DejaVuSans-105"/>
      <use x="281.144531" xlink:href="#DejaVuSans-114"/>
      <use x="320.007812" xlink:href="#DejaVuSans-101"/>
      <use x="381.53125" xlink:href="#DejaVuSans-100"/>
      <use x="445.007812" xlink:href="#DejaVuSans-32"/>
      <use x="476.794922" xlink:href="#DejaVuSans-116"/>
      <use x="516.003906" xlink:href="#DejaVuSans-97"/>
      <use x="577.283203" xlink:href="#DejaVuSans-114"/>
      <use x="616.646484" xlink:href="#DejaVuSans-103"/>
      <use x="680.123047" xlink:href="#DejaVuSans-101"/>
      <use x="741.646484" xlink:href="#DejaVuSans-116"/>
     </g>
    </g>
    <g id="line2d_92">
     <path d="M 445.698437 111.166438 
L 465.698437 111.166438 
" style="fill:none;stroke:#0000ff;stroke-linecap:square;stroke-opacity:0.5;stroke-width:1.5;"/>
    </g>
    <g id="line2d_93"/>
    <g id="text_36">
     <!-- 14d total mystery cases* (DHHS) -->
     <g transform="translate(473.698437 114.666438)scale(0.1 -0.1)">
      <defs>
       <path d="M 47.015625 60.890625 
L 29.5 51.421875 
L 47.015625 41.890625 
L 44.1875 37.109375 
L 27.78125 47.015625 
L 27.78125 28.609375 
L 22.21875 28.609375 
L 22.21875 47.015625 
L 5.8125 37.109375 
L 2.984375 41.890625 
L 20.515625 51.421875 
L 2.984375 60.890625 
L 5.8125 65.71875 
L 22.21875 55.8125 
L 22.21875 74.21875 
L 27.78125 74.21875 
L 27.78125 55.8125 
L 44.1875 65.71875 
z
" id="DejaVuSans-42"/>
       <path d="M 9.8125 72.90625 
L 19.671875 72.90625 
L 19.671875 43.015625 
L 55.515625 43.015625 
L 55.515625 72.90625 
L 65.375 72.90625 
L 65.375 0 
L 55.515625 0 
L 55.515625 34.71875 
L 19.671875 34.71875 
L 19.671875 0 
L 9.8125 0 
z
" id="DejaVuSans-72"/>
      </defs>
      <use xlink:href="#DejaVuSans-49"/>
      <use x="63.623047" xlink:href="#DejaVuSans-52"/>
      <use x="127.246094" xlink:href="#DejaVuSans-100"/>
      <use x="190.722656" xlink:href="#DejaVuSans-32"/>
      <use x="222.509766" xlink:href="#DejaVuSans-116"/>
      <use x="261.71875" xlink:href="#DejaVuSans-111"/>
      <use x="322.900391" xlink:href="#DejaVuSans-116"/>
      <use x="362.109375" xlink:href="#DejaVuSans-97"/>
      <use x="423.388672" xlink:href="#DejaVuSans-108"/>
      <use x="451.171875" xlink:href="#DejaVuSans-32"/>
      <use x="482.958984" xlink:href="#DejaVuSans-109"/>
      <use x="580.371094" xlink:href="#DejaVuSans-121"/>
      <use x="639.550781" xlink:href="#DejaVuSans-115"/>
      <use x="691.650391" xlink:href="#DejaVuSans-116"/>
      <use x="730.859375" xlink:href="#DejaVuSans-101"/>
      <use x="792.382812" xlink:href="#DejaVuSans-114"/>
      <use x="833.496094" xlink:href="#DejaVuSans-121"/>
      <use x="892.675781" xlink:href="#DejaVuSans-32"/>
      <use x="924.462891" xlink:href="#DejaVuSans-99"/>
      <use x="979.443359" xlink:href="#DejaVuSans-97"/>
      <use x="1040.722656" xlink:href="#DejaVuSans-115"/>
      <use x="1092.822266" xlink:href="#DejaVuSans-101"/>
      <use x="1154.345703" xlink:href="#DejaVuSans-115"/>
      <use x="1206.445312" xlink:href="#DejaVuSans-42"/>
      <use x="1256.445312" xlink:href="#DejaVuSans-32"/>
      <use x="1288.232422" xlink:href="#DejaVuSans-40"/>
      <use x="1327.246094" xlink:href="#DejaVuSans-68"/>
      <use x="1404.248047" xlink:href="#DejaVuSans-72"/>
      <use x="1479.443359" xlink:href="#DejaVuSans-72"/>
      <use x="1554.638672" xlink:href="#DejaVuSans-83"/>
      <use x="1618.115234" xlink:href="#DejaVuSans-41"/>
     </g>
    </g>
    <g id="line2d_94">
     <path d="M 445.698437 125.844562 
L 465.698437 125.844562 
" style="fill:none;stroke:#000000;stroke-dasharray:5.55,2.4;stroke-dashoffset:0;stroke-width:1.5;"/>
    </g>
    <g id="line2d_95"/>
    <g id="text_37">
     <!-- Today (Oct 10) -->
     <g transform="translate(473.698437 129.344562)scale(0.1 -0.1)">
      <defs>
       <path d="M -0.296875 72.90625 
L 61.375 72.90625 
L 61.375 64.59375 
L 35.5 64.59375 
L 35.5 0 
L 25.59375 0 
L 25.59375 64.59375 
L -0.296875 64.59375 
z
" id="DejaVuSans-84"/>
      </defs>
      <use xlink:href="#DejaVuSans-84"/>
      <use x="44.083984" xlink:href="#DejaVuSans-111"/>
      <use x="105.265625" xlink:href="#DejaVuSans-100"/>
      <use x="168.742188" xlink:href="#DejaVuSans-97"/>
      <use x="230.021484" xlink:href="#DejaVuSans-121"/>
      <use x="289.201172" xlink:href="#DejaVuSans-32"/>
      <use x="320.988281" xlink:href="#DejaVuSans-40"/>
      <use x="360.001953" xlink:href="#DejaVuSans-79"/>
      <use x="438.712891" xlink:href="#DejaVuSans-99"/>
      <use x="493.693359" xlink:href="#DejaVuSans-116"/>
      <use x="532.902344" xlink:href="#DejaVuSans-32"/>
      <use x="564.689453" xlink:href="#DejaVuSans-49"/>
      <use x="628.3125" xlink:href="#DejaVuSans-48"/>
      <use x="691.935547" xlink:href="#DejaVuSans-41"/>
     </g>
    </g>
    <g id="patch_9">
     <path d="M 659.4125 55.953937 
L 679.4125 55.953937 
L 679.4125 48.953937 
L 659.4125 48.953937 
z
" style="fill:#ff0000;opacity:0.5;"/>
    </g>
    <g id="text_38">
     <!-- First step -->
     <g transform="translate(687.4125 55.953937)scale(0.1 -0.1)">
      <use xlink:href="#DejaVuSans-70"/>
      <use x="50.269531" xlink:href="#DejaVuSans-105"/>
      <use x="78.052734" xlink:href="#DejaVuSans-114"/>
      <use x="119.166016" xlink:href="#DejaVuSans-115"/>
      <use x="171.265625" xlink:href="#DejaVuSans-116"/>
      <use x="210.474609" xlink:href="#DejaVuSans-32"/>
      <use x="242.261719" xlink:href="#DejaVuSans-115"/>
      <use x="294.361328" xlink:href="#DejaVuSans-116"/>
      <use x="333.570312" xlink:href="#DejaVuSans-101"/>
      <use x="395.09375" xlink:href="#DejaVuSans-112"/>
     </g>
    </g>
    <g id="patch_10">
     <path d="M 659.4125 70.632063 
L 679.4125 70.632063 
L 679.4125 63.632063 
L 659.4125 63.632063 
z
" style="fill:#ffa500;opacity:0.5;"/>
    </g>
    <g id="text_39">
     <!-- Second step -->
     <g transform="translate(687.4125 70.632063)scale(0.1 -0.1)">
      <use xlink:href="#DejaVuSans-83"/>
      <use x="63.476562" xlink:href="#DejaVuSans-101"/>
      <use x="125" xlink:href="#DejaVuSans-99"/>
      <use x="179.980469" xlink:href="#DejaVuSans-111"/>
      <use x="241.162109" xlink:href="#DejaVuSans-110"/>
      <use x="304.541016" xlink:href="#DejaVuSans-100"/>
      <use x="368.017578" xlink:href="#DejaVuSans-32"/>
      <use x="399.804688" xlink:href="#DejaVuSans-115"/>
      <use x="451.904297" xlink:href="#DejaVuSans-116"/>
      <use x="491.113281" xlink:href="#DejaVuSans-101"/>
      <use x="552.636719" xlink:href="#DejaVuSans-112"/>
     </g>
    </g>
    <g id="patch_11">
     <path d="M 659.4125 85.310187 
L 679.4125 85.310187 
L 679.4125 78.310187 
L 659.4125 78.310187 
z
" style="fill:#ffff00;opacity:0.5;"/>
    </g>
    <g id="text_40">
     <!-- Third step -->
     <g transform="translate(687.4125 85.310187)scale(0.1 -0.1)">
      <use xlink:href="#DejaVuSans-84"/>
      <use x="61.083984" xlink:href="#DejaVuSans-104"/>
      <use x="124.462891" xlink:href="#DejaVuSans-105"/>
      <use x="152.246094" xlink:href="#DejaVuSans-114"/>
      <use x="191.609375" xlink:href="#DejaVuSans-100"/>
      <use x="255.085938" xlink:href="#DejaVuSans-32"/>
      <use x="286.873047" xlink:href="#DejaVuSans-115"/>
      <use x="338.972656" xlink:href="#DejaVuSans-116"/>
      <use x="378.181641" xlink:href="#DejaVuSans-101"/>
      <use x="439.705078" xlink:href="#DejaVuSans-112"/>
     </g>
    </g>
    <g id="patch_12">
     <path d="M 659.4125 99.988313 
L 679.4125 99.988313 
L 679.4125 92.988313 
L 659.4125 92.988313 
z
" style="fill:#008000;opacity:0.5;"/>
    </g>
    <g id="text_41">
     <!-- Last step -->
     <g transform="translate(687.4125 99.988313)scale(0.1 -0.1)">
      <defs>
       <path d="M 9.8125 72.90625 
L 19.671875 72.90625 
L 19.671875 8.296875 
L 55.171875 8.296875 
L 55.171875 0 
L 9.8125 0 
z
" id="DejaVuSans-76"/>
      </defs>
      <use xlink:href="#DejaVuSans-76"/>
      <use x="55.712891" xlink:href="#DejaVuSans-97"/>
      <use x="116.992188" xlink:href="#DejaVuSans-115"/>
      <use x="169.091797" xlink:href="#DejaVuSans-116"/>
      <use x="208.300781" xlink:href="#DejaVuSans-32"/>
      <use x="240.087891" xlink:href="#DejaVuSans-115"/>
      <use x="292.1875" xlink:href="#DejaVuSans-116"/>
      <use x="331.396484" xlink:href="#DejaVuSans-101"/>
      <use x="392.919922" xlink:href="#DejaVuSans-112"/>
     </g>
    </g>
    <g id="patch_13">
     <path d="M 659.4125 114.666438 
L 679.4125 114.666438 
L 679.4125 107.666438 
L 659.4125 107.666438 
z
" style="fill:#008000;opacity:0.25;"/>
    </g>
    <g id="text_42">
     <!-- COVID normal -->
     <g transform="translate(687.4125 114.666438)scale(0.1 -0.1)">
      <use xlink:href="#DejaVuSans-67"/>
      <use x="69.824219" xlink:href="#DejaVuSans-79"/>
      <use x="146.785156" xlink:href="#DejaVuSans-86"/>
      <use x="215.193359" xlink:href="#DejaVuSans-73"/>
      <use x="244.685547" xlink:href="#DejaVuSans-68"/>
      <use x="321.6875" xlink:href="#DejaVuSans-32"/>
      <use x="353.474609" xlink:href="#DejaVuSans-110"/>
      <use x="416.853516" xlink:href="#DejaVuSans-111"/>
      <use x="478.035156" xlink:href="#DejaVuSans-114"/>
      <use x="517.398438" xlink:href="#DejaVuSans-109"/>
      <use x="614.810547" xlink:href="#DejaVuSans-97"/>
      <use x="676.089844" xlink:href="#DejaVuSans-108"/>
     </g>
    </g>
   </g>
  </g>
  <g id="text_43">
   <g id="patch_14">
    <path d="M 439.2068 156.668503 
L 654.062694 156.668503 
L 654.062694 141.901484 
L 439.2068 141.901484 
z
" style="fill:#ffffff;opacity:0.8;"/>
   </g>
   <!-- * 14d mystery cases must be below 5 to move to third step -->
   <g transform="translate(443.232 151.2)scale(0.0694 -0.0694)">
    <use xlink:href="#DejaVuSans-42"/>
    <use x="50" xlink:href="#DejaVuSans-32"/>
    <use x="81.787109" xlink:href="#DejaVuSans-49"/>
    <use x="145.410156" xlink:href="#DejaVuSans-52"/>
    <use x="209.033203" xlink:href="#DejaVuSans-100"/>
    <use x="272.509766" xlink:href="#DejaVuSans-32"/>
    <use x="304.296875" xlink:href="#DejaVuSans-109"/>
    <use x="401.708984" xlink:href="#DejaVuSans-121"/>
    <use x="460.888672" xlink:href="#DejaVuSans-115"/>
    <use x="512.988281" xlink:href="#DejaVuSans-116"/>
    <use x="552.197266" xlink:href="#DejaVuSans-101"/>
    <use x="613.720703" xlink:href="#DejaVuSans-114"/>
    <use x="654.833984" xlink:href="#DejaVuSans-121"/>
    <use x="714.013672" xlink:href="#DejaVuSans-32"/>
    <use x="745.800781" xlink:href="#DejaVuSans-99"/>
    <use x="800.78125" xlink:href="#DejaVuSans-97"/>
    <use x="862.060547" xlink:href="#DejaVuSans-115"/>
    <use x="914.160156" xlink:href="#DejaVuSans-101"/>
    <use x="975.683594" xlink:href="#DejaVuSans-115"/>
    <use x="1027.783203" xlink:href="#DejaVuSans-32"/>
    <use x="1059.570312" xlink:href="#DejaVuSans-109"/>
    <use x="1156.982422" xlink:href="#DejaVuSans-117"/>
    <use x="1220.361328" xlink:href="#DejaVuSans-115"/>
    <use x="1272.460938" xlink:href="#DejaVuSans-116"/>
    <use x="1311.669922" xlink:href="#DejaVuSans-32"/>
    <use x="1343.457031" xlink:href="#DejaVuSans-98"/>
    <use x="1406.933594" xlink:href="#DejaVuSans-101"/>
    <use x="1468.457031" xlink:href="#DejaVuSans-32"/>
    <use x="1500.244141" xlink:href="#DejaVuSans-98"/>
    <use x="1563.720703" xlink:href="#DejaVuSans-101"/>
    <use x="1625.244141" xlink:href="#DejaVuSans-108"/>
    <use x="1653.027344" xlink:href="#DejaVuSans-111"/>
    <use x="1714.208984" xlink:href="#DejaVuSans-119"/>
    <use x="1795.996094" xlink:href="#DejaVuSans-32"/>
    <use x="1827.783203" xlink:href="#DejaVuSans-53"/>
    <use x="1891.40625" xlink:href="#DejaVuSans-32"/>
    <use x="1923.193359" xlink:href="#DejaVuSans-116"/>
    <use x="1962.402344" xlink:href="#DejaVuSans-111"/>
    <use x="2023.583984" xlink:href="#DejaVuSans-32"/>
    <use x="2055.371094" xlink:href="#DejaVuSans-109"/>
    <use x="2152.783203" xlink:href="#DejaVuSans-111"/>
    <use x="2213.964844" xlink:href="#DejaVuSans-118"/>
    <use x="2273.144531" xlink:href="#DejaVuSans-101"/>
    <use x="2334.667969" xlink:href="#DejaVuSans-32"/>
    <use x="2366.455078" xlink:href="#DejaVuSans-116"/>
    <use x="2405.664062" xlink:href="#DejaVuSans-111"/>
    <use x="2466.845703" xlink:href="#DejaVuSans-32"/>
    <use x="2498.632812" xlink:href="#DejaVuSans-116"/>
    <use x="2537.841797" xlink:href="#DejaVuSans-104"/>
    <use x="2601.220703" xlink:href="#DejaVuSans-105"/>
    <use x="2629.003906" xlink:href="#DejaVuSans-114"/>
    <use x="2668.367188" xlink:href="#DejaVuSans-100"/>
    <use x="2731.84375" xlink:href="#DejaVuSans-32"/>
    <use x="2763.630859" xlink:href="#DejaVuSans-115"/>
    <use x="2815.730469" xlink:href="#DejaVuSans-116"/>
    <use x="2854.939453" xlink:href="#DejaVuSans-101"/>
    <use x="2916.462891" xlink:href="#DejaVuSans-112"/>
   </g>
  </g>
 </g>
 <defs>
  <clipPath id="pd7d8c7c702">
   <rect height="352.48825" width="717.721875" x="49.078125" y="39.3555"/>
  </clipPath>
 </defs>
</svg>
