<?xml version="1.0" encoding="utf-8" standalone="no"?>
<!DOCTYPE svg PUBLIC "-//W3C//DTD SVG 1.1//EN"
  "http://www.w3.org/Graphics/SVG/1.1/DTD/svg11.dtd">
<!-- Created with matplotlib (https://matplotlib.org/) -->
<svg height="432pt" version="1.1" viewBox="0 0 777.6 432" width="777.6pt" xmlns="http://www.w3.org/2000/svg" xmlns:xlink="http://www.w3.org/1999/xlink">
 <metadata>
  <rdf:RDF xmlns:cc="http://creativecommons.org/ns#" xmlns:dc="http://purl.org/dc/elements/1.1/" xmlns:rdf="http://www.w3.org/1999/02/22-rdf-syntax-ns#">
   <cc:Work>
    <dc:type rdf:resource="http://purl.org/dc/dcmitype/StillImage"/>
    <dc:date>2020-09-07T19:17:42.447327</dc:date>
    <dc:format>image/svg+xml</dc:format>
    <dc:creator>
     <cc:Agent>
      <dc:title>Matplotlib v3.3.1, https://matplotlib.org/</dc:title>
     </cc:Agent>
    </dc:creator>
   </cc:Work>
  </rdf:RDF>
 </metadata>
 <defs>
  <style type="text/css">*{stroke-linecap:butt;stroke-linejoin:round;}</style>
 </defs>
 <g id="figure_1">
  <g id="patch_1">
   <path d="M 0 432 
L 777.6 432 
L 777.6 0 
L 0 0 
z
" style="fill:#ffffff;"/>
  </g>
  <g id="axes_1">
   <g id="patch_2">
    <path d="M 49.385209 391.04 
L 766.8 391.04 
L 766.8 26.16 
L 49.385209 26.16 
z
" style="fill:#ffffff;"/>
   </g>
   <g id="PolyCollection_1">
    <path clip-path="url(#p270ed240da)" d="M 317.925718 154.027046 
L 317.925718 154.027046 
L 321.846018 157.965939 
L 325.766317 162.965644 
L 329.686617 166.642332 
L 333.606916 170.93656 
L 337.527215 174.127318 
L 341.447515 179.830101 
L 345.367814 182.874816 
L 349.288114 185.751292 
L 353.208413 191.327289 
L 357.128712 200.337947 
L 361.049012 207.426094 
L 364.969311 213.811031 
L 368.889611 220.528731 
L 372.80991 224.586443 
L 376.730209 230.710817 
L 380.650509 236.835191 
L 384.570808 242.959566 
L 388.491108 249.08394 
L 392.411407 255.208315 
L 396.331706 261.332689 
L 400.252006 267.457064 
L 404.172305 273.581438 
L 408.092605 279.705812 
L 412.012904 285.830187 
L 415.933203 291.954561 
L 419.853503 298.078936 
L 423.773802 304.20331 
L 427.694102 310.327685 
L 431.614401 316.452059 
L 435.5347 322.576433 
L 439.455 328.700808 
L 443.375299 334.825182 
L 447.295599 340.949557 
L 451.215898 347.073931 
L 455.136197 353.198305 
L 459.056497 359.32268 
L 462.976796 365.447054 
L 466.897096 371.571429 
L 470.817395 377.695803 
L 474.737694 383.820178 
L 478.657994 389.944552 
L 482.578293 396.068926 
L 486.498593 402.193301 
L 490.418892 408.317675 
L 494.339191 414.44205 
L 498.259491 420.566424 
L 502.17979 426.690799 
L 506.10009 432.815173 
L 510.020389 438.939547 
L 513.940688 445.063922 
L 517.860988 451.188296 
L 521.781287 457.312671 
L 525.701587 463.437045 
L 529.621886 469.56142 
L 533.542185 475.685794 
L 537.462485 481.810168 
L 541.382784 487.934543 
L 545.303084 494.058917 
L 549.223383 500.183292 
L 553.143683 506.307666 
L 557.063982 512.43204 
L 560.984281 518.556415 
L 564.904581 524.680789 
L 568.82488 530.805164 
L 572.74518 536.929538 
L 576.665479 543.053913 
L 580.585778 549.178287 
L 584.506078 555.302661 
L 588.426377 561.427036 
L 592.346677 567.55141 
L 596.266976 573.675785 
L 600.187275 579.800159 
L 604.107575 585.924534 
L 608.027874 592.048908 
L 611.948174 598.173282 
L 615.868473 604.297657 
L 619.788772 610.422031 
L 623.709072 616.546406 
L 627.629371 622.67078 
L 631.549671 628.795154 
L 635.46997 634.919529 
L 639.390269 641.043903 
L 643.310569 647.168278 
L 647.230868 653.292652 
L 651.151168 659.417027 
L 655.071467 665.541401 
L 658.991766 671.665775 
L 662.912066 677.79015 
L 666.832365 683.914524 
L 670.752665 690.038899 
L 674.672964 696.163273 
L 678.593263 702.287648 
L 682.513563 708.412022 
L 686.433862 714.536396 
L 690.354162 720.660771 
L 694.274461 726.785145 
L 698.19476 732.90952 
L 702.11506 739.033894 
L 706.035359 745.158268 
L 709.955659 751.282643 
L 713.875958 757.407017 
L 717.796257 763.531392 
L 721.716557 769.655766 
L 725.636856 775.780141 
L 729.557156 781.904515 
L 733.477455 788.028889 
L 737.397754 794.153264 
L 741.318054 800.277638 
L 745.238353 806.402013 
L 749.158653 812.526387 
L 753.078952 818.650762 
L 756.999251 824.775136 
L 760.919551 830.89951 
L 764.83985 837.023885 
L 768.76015 843.148259 
L 768.76015 526.831274 
L 768.76015 526.831274 
L 764.83985 523.570471 
L 760.919551 520.309668 
L 756.999251 517.048865 
L 753.078952 513.788061 
L 749.158653 510.527258 
L 745.238353 507.266455 
L 741.318054 504.005651 
L 737.397754 500.744848 
L 733.477455 497.484045 
L 729.557156 494.223241 
L 725.636856 490.962438 
L 721.716557 487.701635 
L 717.796257 484.440832 
L 713.875958 481.180028 
L 709.955659 477.919225 
L 706.035359 474.658422 
L 702.11506 471.397618 
L 698.19476 468.136815 
L 694.274461 464.876012 
L 690.354162 461.615208 
L 686.433862 458.354405 
L 682.513563 455.093602 
L 678.593263 451.832799 
L 674.672964 448.571995 
L 670.752665 445.311192 
L 666.832365 442.050389 
L 662.912066 438.789585 
L 658.991766 435.528782 
L 655.071467 432.267979 
L 651.151168 429.007175 
L 647.230868 425.746372 
L 643.310569 422.485569 
L 639.390269 419.224766 
L 635.46997 415.963962 
L 631.549671 412.703159 
L 627.629371 409.442356 
L 623.709072 406.181552 
L 619.788772 402.920749 
L 615.868473 399.659946 
L 611.948174 396.399142 
L 608.027874 393.138339 
L 604.107575 389.877536 
L 600.187275 386.616733 
L 596.266976 383.355929 
L 592.346677 380.095126 
L 588.426377 376.834323 
L 584.506078 373.573519 
L 580.585778 370.312716 
L 576.665479 367.051913 
L 572.74518 363.791109 
L 568.82488 360.530306 
L 564.904581 357.269503 
L 560.984281 354.008699 
L 557.063982 350.747896 
L 553.143683 347.487093 
L 549.223383 344.22629 
L 545.303084 340.965486 
L 541.382784 337.704683 
L 537.462485 334.44388 
L 533.542185 331.183076 
L 529.621886 327.922273 
L 525.701587 324.66147 
L 521.781287 321.400666 
L 517.860988 318.139863 
L 513.940688 314.87906 
L 510.020389 311.618257 
L 506.10009 308.357453 
L 502.17979 305.09665 
L 498.259491 301.835847 
L 494.339191 298.575043 
L 490.418892 295.31424 
L 486.498593 292.053437 
L 482.578293 288.792633 
L 478.657994 285.53183 
L 474.737694 282.271027 
L 470.817395 279.010224 
L 466.897096 275.74942 
L 462.976796 272.488617 
L 459.056497 269.227814 
L 455.136197 265.96701 
L 451.215898 262.706207 
L 447.295599 259.445404 
L 443.375299 256.1846 
L 439.455 252.923797 
L 435.5347 249.662994 
L 431.614401 246.402191 
L 427.694102 243.141387 
L 423.773802 239.880584 
L 419.853503 236.619781 
L 415.933203 233.358977 
L 412.012904 230.098174 
L 408.092605 226.837371 
L 404.172305 223.576567 
L 400.252006 220.315764 
L 396.331706 217.054961 
L 392.411407 213.794158 
L 388.491108 210.533354 
L 384.570808 207.272551 
L 380.650509 204.011748 
L 376.730209 200.750944 
L 372.80991 197.490141 
L 368.889611 196.468942 
L 364.969311 193.513682 
L 361.049012 190.436493 
L 357.128712 186.484307 
L 353.208413 180.580884 
L 349.288114 177.083823 
L 345.367814 175.702145 
L 341.447515 174.065517 
L 337.527215 169.863474 
L 333.606916 167.793292 
L 329.686617 164.533023 
L 325.766317 161.706857 
L 321.846018 157.423609 
L 317.925718 154.027046 
z
" style="fill:#808080;fill-opacity:0.5;"/>
   </g>
   <g id="PolyCollection_2">
    <path clip-path="url(#p270ed240da)" d="M 398.291856 122017.706667 
L 343.407664 122017.706667 
L 343.407664 26.16 
L 398.291856 26.16 
L 398.291856 26.16 
L 398.291856 122017.706667 
z
" style="fill:#ff0000;fill-opacity:0.5;"/>
   </g>
   <g id="PolyCollection_3">
    <path clip-path="url(#p270ed240da)" d="M 508.060239 122017.706667 
L 398.291856 122017.706667 
L 398.291856 26.16 
L 508.060239 26.16 
L 508.060239 26.16 
L 508.060239 122017.706667 
z
" style="fill:#ffa500;fill-opacity:0.5;"/>
   </g>
   <g id="PolyCollection_4">
    <path clip-path="url(#p270ed240da)" d="M 617.828623 122017.706667 
L 508.060239 122017.706667 
L 508.060239 26.16 
L 617.828623 26.16 
L 617.828623 26.16 
L 617.828623 122017.706667 
z
" style="fill:#ffff00;fill-opacity:0.5;"/>
   </g>
   <g id="PolyCollection_5">
    <path clip-path="url(#p270ed240da)" d="M 766.8 122017.706667 
L 617.828623 122017.706667 
L 617.828623 26.16 
L 766.8 26.16 
L 766.8 26.16 
L 766.8 122017.706667 
z
" style="fill:#008000;fill-opacity:0.5;"/>
   </g>
   <g id="matplotlib.axis_1">
    <g id="xtick_1">
     <g id="line2d_1">
      <path clip-path="url(#p270ed240da)" d="M 49.385209 391.04 
L 49.385209 26.16 
" style="fill:none;stroke:#000000;stroke-dasharray:0.8,1.32;stroke-dashoffset:0;stroke-opacity:0.5;stroke-width:0.8;"/>
     </g>
     <g id="line2d_2">
      <defs>
       <path d="M 0 0 
L 0 3.5 
" id="m829ef2ae73" style="stroke:#000000;stroke-width:0.8;"/>
      </defs>
      <g>
       <use style="stroke:#000000;stroke-width:0.8;" x="49.385209" xlink:href="#m829ef2ae73" y="391.04"/>
      </g>
     </g>
     <g id="text_1">
      <!-- Jul -->
      <g transform="translate(43.352397 405.638438)scale(0.1 -0.1)">
       <defs>
        <path d="M 9.8125 72.90625 
L 19.671875 72.90625 
L 19.671875 5.078125 
Q 19.671875 -8.109375 14.671875 -14.0625 
Q 9.671875 -20.015625 -1.421875 -20.015625 
L -5.171875 -20.015625 
L -5.171875 -11.71875 
L -2.09375 -11.71875 
Q 4.4375 -11.71875 7.125 -8.046875 
Q 9.8125 -4.390625 9.8125 5.078125 
z
" id="DejaVuSans-74"/>
        <path d="M 8.5 21.578125 
L 8.5 54.6875 
L 17.484375 54.6875 
L 17.484375 21.921875 
Q 17.484375 14.15625 20.5 10.265625 
Q 23.53125 6.390625 29.59375 6.390625 
Q 36.859375 6.390625 41.078125 11.03125 
Q 45.3125 15.671875 45.3125 23.6875 
L 45.3125 54.6875 
L 54.296875 54.6875 
L 54.296875 0 
L 45.3125 0 
L 45.3125 8.40625 
Q 42.046875 3.421875 37.71875 1 
Q 33.40625 -1.421875 27.6875 -1.421875 
Q 18.265625 -1.421875 13.375 4.4375 
Q 8.5 10.296875 8.5 21.578125 
z
M 31.109375 56 
z
" id="DejaVuSans-117"/>
        <path d="M 9.421875 75.984375 
L 18.40625 75.984375 
L 18.40625 0 
L 9.421875 0 
z
" id="DejaVuSans-108"/>
       </defs>
       <use xlink:href="#DejaVuSans-74"/>
       <use x="29.492188" xlink:href="#DejaVuSans-117"/>
       <use x="92.871094" xlink:href="#DejaVuSans-108"/>
      </g>
     </g>
    </g>
    <g id="xtick_2">
     <g id="line2d_3">
      <path clip-path="url(#p270ed240da)" d="M 170.914491 391.04 
L 170.914491 26.16 
" style="fill:none;stroke:#000000;stroke-dasharray:0.8,1.32;stroke-dashoffset:0;stroke-opacity:0.5;stroke-width:0.8;"/>
     </g>
     <g id="line2d_4">
      <g>
       <use style="stroke:#000000;stroke-width:0.8;" x="170.914491" xlink:href="#m829ef2ae73" y="391.04"/>
      </g>
     </g>
     <g id="text_2">
      <!-- Aug -->
      <g transform="translate(161.151209 405.638438)scale(0.1 -0.1)">
       <defs>
        <path d="M 34.1875 63.1875 
L 20.796875 26.90625 
L 47.609375 26.90625 
z
M 28.609375 72.90625 
L 39.796875 72.90625 
L 67.578125 0 
L 57.328125 0 
L 50.6875 18.703125 
L 17.828125 18.703125 
L 11.1875 0 
L 0.78125 0 
z
" id="DejaVuSans-65"/>
        <path d="M 45.40625 27.984375 
Q 45.40625 37.75 41.375 43.109375 
Q 37.359375 48.484375 30.078125 48.484375 
Q 22.859375 48.484375 18.828125 43.109375 
Q 14.796875 37.75 14.796875 27.984375 
Q 14.796875 18.265625 18.828125 12.890625 
Q 22.859375 7.515625 30.078125 7.515625 
Q 37.359375 7.515625 41.375 12.890625 
Q 45.40625 18.265625 45.40625 27.984375 
z
M 54.390625 6.78125 
Q 54.390625 -7.171875 48.1875 -13.984375 
Q 42 -20.796875 29.203125 -20.796875 
Q 24.46875 -20.796875 20.265625 -20.09375 
Q 16.0625 -19.390625 12.109375 -17.921875 
L 12.109375 -9.1875 
Q 16.0625 -11.328125 19.921875 -12.34375 
Q 23.78125 -13.375 27.78125 -13.375 
Q 36.625 -13.375 41.015625 -8.765625 
Q 45.40625 -4.15625 45.40625 5.171875 
L 45.40625 9.625 
Q 42.625 4.78125 38.28125 2.390625 
Q 33.9375 0 27.875 0 
Q 17.828125 0 11.671875 7.65625 
Q 5.515625 15.328125 5.515625 27.984375 
Q 5.515625 40.671875 11.671875 48.328125 
Q 17.828125 56 27.875 56 
Q 33.9375 56 38.28125 53.609375 
Q 42.625 51.21875 45.40625 46.390625 
L 45.40625 54.6875 
L 54.390625 54.6875 
z
" id="DejaVuSans-103"/>
       </defs>
       <use xlink:href="#DejaVuSans-65"/>
       <use x="68.408203" xlink:href="#DejaVuSans-117"/>
       <use x="131.787109" xlink:href="#DejaVuSans-103"/>
      </g>
     </g>
    </g>
    <g id="xtick_3">
     <g id="line2d_5">
      <path clip-path="url(#p270ed240da)" d="M 292.443772 391.04 
L 292.443772 26.16 
" style="fill:none;stroke:#000000;stroke-dasharray:0.8,1.32;stroke-dashoffset:0;stroke-opacity:0.5;stroke-width:0.8;"/>
     </g>
     <g id="line2d_6">
      <g>
       <use style="stroke:#000000;stroke-width:0.8;" x="292.443772" xlink:href="#m829ef2ae73" y="391.04"/>
      </g>
     </g>
     <g id="text_3">
      <!-- Sep -->
      <g transform="translate(283.018772 405.638438)scale(0.1 -0.1)">
       <defs>
        <path d="M 53.515625 70.515625 
L 53.515625 60.890625 
Q 47.90625 63.578125 42.921875 64.890625 
Q 37.9375 66.21875 33.296875 66.21875 
Q 25.25 66.21875 20.875 63.09375 
Q 16.5 59.96875 16.5 54.203125 
Q 16.5 49.359375 19.40625 46.890625 
Q 22.3125 44.4375 30.421875 42.921875 
L 36.375 41.703125 
Q 47.40625 39.59375 52.65625 34.296875 
Q 57.90625 29 57.90625 20.125 
Q 57.90625 9.515625 50.796875 4.046875 
Q 43.703125 -1.421875 29.984375 -1.421875 
Q 24.8125 -1.421875 18.96875 -0.25 
Q 13.140625 0.921875 6.890625 3.21875 
L 6.890625 13.375 
Q 12.890625 10.015625 18.65625 8.296875 
Q 24.421875 6.59375 29.984375 6.59375 
Q 38.421875 6.59375 43.015625 9.90625 
Q 47.609375 13.234375 47.609375 19.390625 
Q 47.609375 24.75 44.3125 27.78125 
Q 41.015625 30.8125 33.5 32.328125 
L 27.484375 33.5 
Q 16.453125 35.6875 11.515625 40.375 
Q 6.59375 45.0625 6.59375 53.421875 
Q 6.59375 63.09375 13.40625 68.65625 
Q 20.21875 74.21875 32.171875 74.21875 
Q 37.3125 74.21875 42.625 73.28125 
Q 47.953125 72.359375 53.515625 70.515625 
z
" id="DejaVuSans-83"/>
        <path d="M 56.203125 29.59375 
L 56.203125 25.203125 
L 14.890625 25.203125 
Q 15.484375 15.921875 20.484375 11.0625 
Q 25.484375 6.203125 34.421875 6.203125 
Q 39.59375 6.203125 44.453125 7.46875 
Q 49.3125 8.734375 54.109375 11.28125 
L 54.109375 2.78125 
Q 49.265625 0.734375 44.1875 -0.34375 
Q 39.109375 -1.421875 33.890625 -1.421875 
Q 20.796875 -1.421875 13.15625 6.1875 
Q 5.515625 13.8125 5.515625 26.8125 
Q 5.515625 40.234375 12.765625 48.109375 
Q 20.015625 56 32.328125 56 
Q 43.359375 56 49.78125 48.890625 
Q 56.203125 41.796875 56.203125 29.59375 
z
M 47.21875 32.234375 
Q 47.125 39.59375 43.09375 43.984375 
Q 39.0625 48.390625 32.421875 48.390625 
Q 24.90625 48.390625 20.390625 44.140625 
Q 15.875 39.890625 15.1875 32.171875 
z
" id="DejaVuSans-101"/>
        <path d="M 18.109375 8.203125 
L 18.109375 -20.796875 
L 9.078125 -20.796875 
L 9.078125 54.6875 
L 18.109375 54.6875 
L 18.109375 46.390625 
Q 20.953125 51.265625 25.265625 53.625 
Q 29.59375 56 35.59375 56 
Q 45.5625 56 51.78125 48.09375 
Q 58.015625 40.1875 58.015625 27.296875 
Q 58.015625 14.40625 51.78125 6.484375 
Q 45.5625 -1.421875 35.59375 -1.421875 
Q 29.59375 -1.421875 25.265625 0.953125 
Q 20.953125 3.328125 18.109375 8.203125 
z
M 48.6875 27.296875 
Q 48.6875 37.203125 44.609375 42.84375 
Q 40.53125 48.484375 33.40625 48.484375 
Q 26.265625 48.484375 22.1875 42.84375 
Q 18.109375 37.203125 18.109375 27.296875 
Q 18.109375 17.390625 22.1875 11.75 
Q 26.265625 6.109375 33.40625 6.109375 
Q 40.53125 6.109375 44.609375 11.75 
Q 48.6875 17.390625 48.6875 27.296875 
z
" id="DejaVuSans-112"/>
       </defs>
       <use xlink:href="#DejaVuSans-83"/>
       <use x="63.476562" xlink:href="#DejaVuSans-101"/>
       <use x="125" xlink:href="#DejaVuSans-112"/>
      </g>
     </g>
    </g>
    <g id="xtick_4">
     <g id="line2d_7">
      <path clip-path="url(#p270ed240da)" d="M 410.052754 391.04 
L 410.052754 26.16 
" style="fill:none;stroke:#000000;stroke-dasharray:0.8,1.32;stroke-dashoffset:0;stroke-opacity:0.5;stroke-width:0.8;"/>
     </g>
     <g id="line2d_8">
      <g>
       <use style="stroke:#000000;stroke-width:0.8;" x="410.052754" xlink:href="#m829ef2ae73" y="391.04"/>
      </g>
     </g>
     <g id="text_4">
      <!-- Oct -->
      <g transform="translate(401.407442 405.638438)scale(0.1 -0.1)">
       <defs>
        <path d="M 39.40625 66.21875 
Q 28.65625 66.21875 22.328125 58.203125 
Q 16.015625 50.203125 16.015625 36.375 
Q 16.015625 22.609375 22.328125 14.59375 
Q 28.65625 6.59375 39.40625 6.59375 
Q 50.140625 6.59375 56.421875 14.59375 
Q 62.703125 22.609375 62.703125 36.375 
Q 62.703125 50.203125 56.421875 58.203125 
Q 50.140625 66.21875 39.40625 66.21875 
z
M 39.40625 74.21875 
Q 54.734375 74.21875 63.90625 63.9375 
Q 73.09375 53.65625 73.09375 36.375 
Q 73.09375 19.140625 63.90625 8.859375 
Q 54.734375 -1.421875 39.40625 -1.421875 
Q 24.03125 -1.421875 14.8125 8.828125 
Q 5.609375 19.09375 5.609375 36.375 
Q 5.609375 53.65625 14.8125 63.9375 
Q 24.03125 74.21875 39.40625 74.21875 
z
" id="DejaVuSans-79"/>
        <path d="M 48.78125 52.59375 
L 48.78125 44.1875 
Q 44.96875 46.296875 41.140625 47.34375 
Q 37.3125 48.390625 33.40625 48.390625 
Q 24.65625 48.390625 19.8125 42.84375 
Q 14.984375 37.3125 14.984375 27.296875 
Q 14.984375 17.28125 19.8125 11.734375 
Q 24.65625 6.203125 33.40625 6.203125 
Q 37.3125 6.203125 41.140625 7.25 
Q 44.96875 8.296875 48.78125 10.40625 
L 48.78125 2.09375 
Q 45.015625 0.34375 40.984375 -0.53125 
Q 36.96875 -1.421875 32.421875 -1.421875 
Q 20.0625 -1.421875 12.78125 6.34375 
Q 5.515625 14.109375 5.515625 27.296875 
Q 5.515625 40.671875 12.859375 48.328125 
Q 20.21875 56 33.015625 56 
Q 37.15625 56 41.109375 55.140625 
Q 45.0625 54.296875 48.78125 52.59375 
z
" id="DejaVuSans-99"/>
        <path d="M 18.3125 70.21875 
L 18.3125 54.6875 
L 36.8125 54.6875 
L 36.8125 47.703125 
L 18.3125 47.703125 
L 18.3125 18.015625 
Q 18.3125 11.328125 20.140625 9.421875 
Q 21.96875 7.515625 27.59375 7.515625 
L 36.8125 7.515625 
L 36.8125 0 
L 27.59375 0 
Q 17.1875 0 13.234375 3.875 
Q 9.28125 7.765625 9.28125 18.015625 
L 9.28125 47.703125 
L 2.6875 47.703125 
L 2.6875 54.6875 
L 9.28125 54.6875 
L 9.28125 70.21875 
z
" id="DejaVuSans-116"/>
       </defs>
       <use xlink:href="#DejaVuSans-79"/>
       <use x="78.710938" xlink:href="#DejaVuSans-99"/>
       <use x="133.691406" xlink:href="#DejaVuSans-116"/>
      </g>
     </g>
    </g>
    <g id="xtick_5">
     <g id="line2d_9">
      <path clip-path="url(#p270ed240da)" d="M 531.582036 391.04 
L 531.582036 26.16 
" style="fill:none;stroke:#000000;stroke-dasharray:0.8,1.32;stroke-dashoffset:0;stroke-opacity:0.5;stroke-width:0.8;"/>
     </g>
     <g id="line2d_10">
      <g>
       <use style="stroke:#000000;stroke-width:0.8;" x="531.582036" xlink:href="#m829ef2ae73" y="391.04"/>
      </g>
     </g>
     <g id="text_5">
      <!-- Nov -->
      <g transform="translate(521.822661 405.638438)scale(0.1 -0.1)">
       <defs>
        <path d="M 9.8125 72.90625 
L 23.09375 72.90625 
L 55.421875 11.921875 
L 55.421875 72.90625 
L 64.984375 72.90625 
L 64.984375 0 
L 51.703125 0 
L 19.390625 60.984375 
L 19.390625 0 
L 9.8125 0 
z
" id="DejaVuSans-78"/>
        <path d="M 30.609375 48.390625 
Q 23.390625 48.390625 19.1875 42.75 
Q 14.984375 37.109375 14.984375 27.296875 
Q 14.984375 17.484375 19.15625 11.84375 
Q 23.34375 6.203125 30.609375 6.203125 
Q 37.796875 6.203125 41.984375 11.859375 
Q 46.1875 17.53125 46.1875 27.296875 
Q 46.1875 37.015625 41.984375 42.703125 
Q 37.796875 48.390625 30.609375 48.390625 
z
M 30.609375 56 
Q 42.328125 56 49.015625 48.375 
Q 55.71875 40.765625 55.71875 27.296875 
Q 55.71875 13.875 49.015625 6.21875 
Q 42.328125 -1.421875 30.609375 -1.421875 
Q 18.84375 -1.421875 12.171875 6.21875 
Q 5.515625 13.875 5.515625 27.296875 
Q 5.515625 40.765625 12.171875 48.375 
Q 18.84375 56 30.609375 56 
z
" id="DejaVuSans-111"/>
        <path d="M 2.984375 54.6875 
L 12.5 54.6875 
L 29.59375 8.796875 
L 46.6875 54.6875 
L 56.203125 54.6875 
L 35.6875 0 
L 23.484375 0 
z
" id="DejaVuSans-118"/>
       </defs>
       <use xlink:href="#DejaVuSans-78"/>
       <use x="74.804688" xlink:href="#DejaVuSans-111"/>
       <use x="135.986328" xlink:href="#DejaVuSans-118"/>
      </g>
     </g>
    </g>
    <g id="xtick_6">
     <g id="line2d_11">
      <path clip-path="url(#p270ed240da)" d="M 649.191018 391.04 
L 649.191018 26.16 
" style="fill:none;stroke:#000000;stroke-dasharray:0.8,1.32;stroke-dashoffset:0;stroke-opacity:0.5;stroke-width:0.8;"/>
     </g>
     <g id="line2d_12">
      <g>
       <use style="stroke:#000000;stroke-width:0.8;" x="649.191018" xlink:href="#m829ef2ae73" y="391.04"/>
      </g>
     </g>
     <g id="text_6">
      <!-- Dec -->
      <g transform="translate(639.515237 405.638438)scale(0.1 -0.1)">
       <defs>
        <path d="M 19.671875 64.796875 
L 19.671875 8.109375 
L 31.59375 8.109375 
Q 46.6875 8.109375 53.6875 14.9375 
Q 60.6875 21.78125 60.6875 36.53125 
Q 60.6875 51.171875 53.6875 57.984375 
Q 46.6875 64.796875 31.59375 64.796875 
z
M 9.8125 72.90625 
L 30.078125 72.90625 
Q 51.265625 72.90625 61.171875 64.09375 
Q 71.09375 55.28125 71.09375 36.53125 
Q 71.09375 17.671875 61.125 8.828125 
Q 51.171875 0 30.078125 0 
L 9.8125 0 
z
" id="DejaVuSans-68"/>
       </defs>
       <use xlink:href="#DejaVuSans-68"/>
       <use x="77.001953" xlink:href="#DejaVuSans-101"/>
       <use x="138.525391" xlink:href="#DejaVuSans-99"/>
      </g>
     </g>
    </g>
    <g id="text_7">
     <!-- 2020 -->
     <g transform="translate(741.35 418.316563)scale(0.1 -0.1)">
      <defs>
       <path d="M 19.1875 8.296875 
L 53.609375 8.296875 
L 53.609375 0 
L 7.328125 0 
L 7.328125 8.296875 
Q 12.9375 14.109375 22.625 23.890625 
Q 32.328125 33.6875 34.8125 36.53125 
Q 39.546875 41.84375 41.421875 45.53125 
Q 43.3125 49.21875 43.3125 52.78125 
Q 43.3125 58.59375 39.234375 62.25 
Q 35.15625 65.921875 28.609375 65.921875 
Q 23.96875 65.921875 18.8125 64.3125 
Q 13.671875 62.703125 7.8125 59.421875 
L 7.8125 69.390625 
Q 13.765625 71.78125 18.9375 73 
Q 24.125 74.21875 28.421875 74.21875 
Q 39.75 74.21875 46.484375 68.546875 
Q 53.21875 62.890625 53.21875 53.421875 
Q 53.21875 48.921875 51.53125 44.890625 
Q 49.859375 40.875 45.40625 35.40625 
Q 44.1875 33.984375 37.640625 27.21875 
Q 31.109375 20.453125 19.1875 8.296875 
z
" id="DejaVuSans-50"/>
       <path d="M 31.78125 66.40625 
Q 24.171875 66.40625 20.328125 58.90625 
Q 16.5 51.421875 16.5 36.375 
Q 16.5 21.390625 20.328125 13.890625 
Q 24.171875 6.390625 31.78125 6.390625 
Q 39.453125 6.390625 43.28125 13.890625 
Q 47.125 21.390625 47.125 36.375 
Q 47.125 51.421875 43.28125 58.90625 
Q 39.453125 66.40625 31.78125 66.40625 
z
M 31.78125 74.21875 
Q 44.046875 74.21875 50.515625 64.515625 
Q 56.984375 54.828125 56.984375 36.375 
Q 56.984375 17.96875 50.515625 8.265625 
Q 44.046875 -1.421875 31.78125 -1.421875 
Q 19.53125 -1.421875 13.0625 8.265625 
Q 6.59375 17.96875 6.59375 36.375 
Q 6.59375 54.828125 13.0625 64.515625 
Q 19.53125 74.21875 31.78125 74.21875 
z
" id="DejaVuSans-48"/>
      </defs>
      <use xlink:href="#DejaVuSans-50"/>
      <use x="63.623047" xlink:href="#DejaVuSans-48"/>
      <use x="127.246094" xlink:href="#DejaVuSans-50"/>
      <use x="190.869141" xlink:href="#DejaVuSans-48"/>
     </g>
    </g>
   </g>
   <g id="matplotlib.axis_2">
    <g id="ytick_1">
     <g id="line2d_13">
      <path clip-path="url(#p270ed240da)" d="M 49.385209 391.04 
L 766.8 391.04 
" style="fill:none;stroke:#000000;stroke-dasharray:0.8,1.32;stroke-dashoffset:0;stroke-opacity:0.5;stroke-width:0.8;"/>
     </g>
     <g id="line2d_14">
      <defs>
       <path d="M 0 0 
L -3.5 0 
" id="m716951b5b4" style="stroke:#000000;stroke-width:0.8;"/>
      </defs>
      <g>
       <use style="stroke:#000000;stroke-width:0.8;" x="49.385209" xlink:href="#m716951b5b4" y="391.04"/>
      </g>
     </g>
     <g id="text_8">
      <!-- $\mathdefault{10^{0}}$ -->
      <g transform="translate(24.785209 394.839219)scale(0.1 -0.1)">
       <defs>
        <path d="M 12.40625 8.296875 
L 28.515625 8.296875 
L 28.515625 63.921875 
L 10.984375 60.40625 
L 10.984375 69.390625 
L 28.421875 72.90625 
L 38.28125 72.90625 
L 38.28125 8.296875 
L 54.390625 8.296875 
L 54.390625 0 
L 12.40625 0 
z
" id="DejaVuSans-49"/>
       </defs>
       <use transform="translate(0 0.765625)" xlink:href="#DejaVuSans-49"/>
       <use transform="translate(63.623047 0.765625)" xlink:href="#DejaVuSans-48"/>
       <use transform="translate(128.203125 39.046875)scale(0.7)" xlink:href="#DejaVuSans-48"/>
      </g>
     </g>
    </g>
    <g id="ytick_2">
     <g id="line2d_15">
      <path clip-path="url(#p270ed240da)" d="M 49.385209 269.413333 
L 766.8 269.413333 
" style="fill:none;stroke:#000000;stroke-dasharray:0.8,1.32;stroke-dashoffset:0;stroke-opacity:0.5;stroke-width:0.8;"/>
     </g>
     <g id="line2d_16">
      <g>
       <use style="stroke:#000000;stroke-width:0.8;" x="49.385209" xlink:href="#m716951b5b4" y="269.413333"/>
      </g>
     </g>
     <g id="text_9">
      <!-- $\mathdefault{10^{1}}$ -->
      <g transform="translate(24.785209 273.212552)scale(0.1 -0.1)">
       <use transform="translate(0 0.684375)" xlink:href="#DejaVuSans-49"/>
       <use transform="translate(63.623047 0.684375)" xlink:href="#DejaVuSans-48"/>
       <use transform="translate(128.203125 38.965625)scale(0.7)" xlink:href="#DejaVuSans-49"/>
      </g>
     </g>
    </g>
    <g id="ytick_3">
     <g id="line2d_17">
      <path clip-path="url(#p270ed240da)" d="M 49.385209 147.786667 
L 766.8 147.786667 
" style="fill:none;stroke:#000000;stroke-dasharray:0.8,1.32;stroke-dashoffset:0;stroke-opacity:0.5;stroke-width:0.8;"/>
     </g>
     <g id="line2d_18">
      <g>
       <use style="stroke:#000000;stroke-width:0.8;" x="49.385209" xlink:href="#m716951b5b4" y="147.786667"/>
      </g>
     </g>
     <g id="text_10">
      <!-- $\mathdefault{10^{2}}$ -->
      <g transform="translate(24.785209 151.585885)scale(0.1 -0.1)">
       <use transform="translate(0 0.765625)" xlink:href="#DejaVuSans-49"/>
       <use transform="translate(63.623047 0.765625)" xlink:href="#DejaVuSans-48"/>
       <use transform="translate(128.203125 39.046875)scale(0.7)" xlink:href="#DejaVuSans-50"/>
      </g>
     </g>
    </g>
    <g id="ytick_4">
     <g id="line2d_19">
      <path clip-path="url(#p270ed240da)" d="M 49.385209 26.16 
L 766.8 26.16 
" style="fill:none;stroke:#000000;stroke-dasharray:0.8,1.32;stroke-dashoffset:0;stroke-opacity:0.5;stroke-width:0.8;"/>
     </g>
     <g id="line2d_20">
      <g>
       <use style="stroke:#000000;stroke-width:0.8;" x="49.385209" xlink:href="#m716951b5b4" y="26.16"/>
      </g>
     </g>
     <g id="text_11">
      <!-- $\mathdefault{10^{3}}$ -->
      <g transform="translate(24.785209 29.959219)scale(0.1 -0.1)">
       <defs>
        <path d="M 40.578125 39.3125 
Q 47.65625 37.796875 51.625 33 
Q 55.609375 28.21875 55.609375 21.1875 
Q 55.609375 10.40625 48.1875 4.484375 
Q 40.765625 -1.421875 27.09375 -1.421875 
Q 22.515625 -1.421875 17.65625 -0.515625 
Q 12.796875 0.390625 7.625 2.203125 
L 7.625 11.71875 
Q 11.71875 9.328125 16.59375 8.109375 
Q 21.484375 6.890625 26.8125 6.890625 
Q 36.078125 6.890625 40.9375 10.546875 
Q 45.796875 14.203125 45.796875 21.1875 
Q 45.796875 27.640625 41.28125 31.265625 
Q 36.765625 34.90625 28.71875 34.90625 
L 20.21875 34.90625 
L 20.21875 43.015625 
L 29.109375 43.015625 
Q 36.375 43.015625 40.234375 45.921875 
Q 44.09375 48.828125 44.09375 54.296875 
Q 44.09375 59.90625 40.109375 62.90625 
Q 36.140625 65.921875 28.71875 65.921875 
Q 24.65625 65.921875 20.015625 65.03125 
Q 15.375 64.15625 9.8125 62.3125 
L 9.8125 71.09375 
Q 15.4375 72.65625 20.34375 73.4375 
Q 25.25 74.21875 29.59375 74.21875 
Q 40.828125 74.21875 47.359375 69.109375 
Q 53.90625 64.015625 53.90625 55.328125 
Q 53.90625 49.265625 50.4375 45.09375 
Q 46.96875 40.921875 40.578125 39.3125 
z
" id="DejaVuSans-51"/>
       </defs>
       <use transform="translate(0 0.765625)" xlink:href="#DejaVuSans-49"/>
       <use transform="translate(63.623047 0.765625)" xlink:href="#DejaVuSans-48"/>
       <use transform="translate(128.203125 39.046875)scale(0.7)" xlink:href="#DejaVuSans-51"/>
      </g>
     </g>
    </g>
    <g id="ytick_5">
     <g id="line2d_21">
      <defs>
       <path d="M 0 0 
L -2 0 
" id="maebf766eb7" style="stroke:#000000;stroke-width:0.6;"/>
      </defs>
      <g>
       <use style="stroke:#000000;stroke-width:0.6;" x="49.385209" xlink:href="#maebf766eb7" y="354.426725"/>
      </g>
     </g>
    </g>
    <g id="ytick_6">
     <g id="line2d_22">
      <g>
       <use style="stroke:#000000;stroke-width:0.6;" x="49.385209" xlink:href="#maebf766eb7" y="333.009332"/>
      </g>
     </g>
    </g>
    <g id="ytick_7">
     <g id="line2d_23">
      <g>
       <use style="stroke:#000000;stroke-width:0.6;" x="49.385209" xlink:href="#maebf766eb7" y="317.81345"/>
      </g>
     </g>
    </g>
    <g id="ytick_8">
     <g id="line2d_24">
      <g>
       <use style="stroke:#000000;stroke-width:0.6;" x="49.385209" xlink:href="#maebf766eb7" y="306.026608"/>
      </g>
     </g>
    </g>
    <g id="ytick_9">
     <g id="line2d_25">
      <g>
       <use style="stroke:#000000;stroke-width:0.6;" x="49.385209" xlink:href="#maebf766eb7" y="296.396057"/>
      </g>
     </g>
    </g>
    <g id="ytick_10">
     <g id="line2d_26">
      <g>
       <use style="stroke:#000000;stroke-width:0.6;" x="49.385209" xlink:href="#maebf766eb7" y="288.253542"/>
      </g>
     </g>
    </g>
    <g id="ytick_11">
     <g id="line2d_27">
      <g>
       <use style="stroke:#000000;stroke-width:0.6;" x="49.385209" xlink:href="#maebf766eb7" y="281.200175"/>
      </g>
     </g>
    </g>
    <g id="ytick_12">
     <g id="line2d_28">
      <g>
       <use style="stroke:#000000;stroke-width:0.6;" x="49.385209" xlink:href="#maebf766eb7" y="274.978664"/>
      </g>
     </g>
    </g>
    <g id="ytick_13">
     <g id="line2d_29">
      <g>
       <use style="stroke:#000000;stroke-width:0.6;" x="49.385209" xlink:href="#maebf766eb7" y="232.800058"/>
      </g>
     </g>
    </g>
    <g id="ytick_14">
     <g id="line2d_30">
      <g>
       <use style="stroke:#000000;stroke-width:0.6;" x="49.385209" xlink:href="#maebf766eb7" y="211.382666"/>
      </g>
     </g>
    </g>
    <g id="ytick_15">
     <g id="line2d_31">
      <g>
       <use style="stroke:#000000;stroke-width:0.6;" x="49.385209" xlink:href="#maebf766eb7" y="196.186783"/>
      </g>
     </g>
    </g>
    <g id="ytick_16">
     <g id="line2d_32">
      <g>
       <use style="stroke:#000000;stroke-width:0.6;" x="49.385209" xlink:href="#maebf766eb7" y="184.399942"/>
      </g>
     </g>
    </g>
    <g id="ytick_17">
     <g id="line2d_33">
      <g>
       <use style="stroke:#000000;stroke-width:0.6;" x="49.385209" xlink:href="#maebf766eb7" y="174.769391"/>
      </g>
     </g>
    </g>
    <g id="ytick_18">
     <g id="line2d_34">
      <g>
       <use style="stroke:#000000;stroke-width:0.6;" x="49.385209" xlink:href="#maebf766eb7" y="166.626876"/>
      </g>
     </g>
    </g>
    <g id="ytick_19">
     <g id="line2d_35">
      <g>
       <use style="stroke:#000000;stroke-width:0.6;" x="49.385209" xlink:href="#maebf766eb7" y="159.573509"/>
      </g>
     </g>
    </g>
    <g id="ytick_20">
     <g id="line2d_36">
      <g>
       <use style="stroke:#000000;stroke-width:0.6;" x="49.385209" xlink:href="#maebf766eb7" y="153.351998"/>
      </g>
     </g>
    </g>
    <g id="ytick_21">
     <g id="line2d_37">
      <g>
       <use style="stroke:#000000;stroke-width:0.6;" x="49.385209" xlink:href="#maebf766eb7" y="111.173392"/>
      </g>
     </g>
    </g>
    <g id="ytick_22">
     <g id="line2d_38">
      <g>
       <use style="stroke:#000000;stroke-width:0.6;" x="49.385209" xlink:href="#maebf766eb7" y="89.755999"/>
      </g>
     </g>
    </g>
    <g id="ytick_23">
     <g id="line2d_39">
      <g>
       <use style="stroke:#000000;stroke-width:0.6;" x="49.385209" xlink:href="#maebf766eb7" y="74.560117"/>
      </g>
     </g>
    </g>
    <g id="ytick_24">
     <g id="line2d_40">
      <g>
       <use style="stroke:#000000;stroke-width:0.6;" x="49.385209" xlink:href="#maebf766eb7" y="62.773275"/>
      </g>
     </g>
    </g>
    <g id="ytick_25">
     <g id="line2d_41">
      <g>
       <use style="stroke:#000000;stroke-width:0.6;" x="49.385209" xlink:href="#maebf766eb7" y="53.142724"/>
      </g>
     </g>
    </g>
    <g id="ytick_26">
     <g id="line2d_42">
      <g>
       <use style="stroke:#000000;stroke-width:0.6;" x="49.385209" xlink:href="#maebf766eb7" y="45.000209"/>
      </g>
     </g>
    </g>
    <g id="ytick_27">
     <g id="line2d_43">
      <g>
       <use style="stroke:#000000;stroke-width:0.6;" x="49.385209" xlink:href="#maebf766eb7" y="37.946842"/>
      </g>
     </g>
    </g>
    <g id="ytick_28">
     <g id="line2d_44">
      <g>
       <use style="stroke:#000000;stroke-width:0.6;" x="49.385209" xlink:href="#maebf766eb7" y="31.725331"/>
      </g>
     </g>
    </g>
    <g id="text_12">
     <!-- 14 day average new cases -->
     <g transform="translate(18.705522 275.420312)rotate(-90)scale(0.1 -0.1)">
      <defs>
       <path d="M 37.796875 64.3125 
L 12.890625 25.390625 
L 37.796875 25.390625 
z
M 35.203125 72.90625 
L 47.609375 72.90625 
L 47.609375 25.390625 
L 58.015625 25.390625 
L 58.015625 17.1875 
L 47.609375 17.1875 
L 47.609375 0 
L 37.796875 0 
L 37.796875 17.1875 
L 4.890625 17.1875 
L 4.890625 26.703125 
z
" id="DejaVuSans-52"/>
       <path id="DejaVuSans-32"/>
       <path d="M 45.40625 46.390625 
L 45.40625 75.984375 
L 54.390625 75.984375 
L 54.390625 0 
L 45.40625 0 
L 45.40625 8.203125 
Q 42.578125 3.328125 38.25 0.953125 
Q 33.9375 -1.421875 27.875 -1.421875 
Q 17.96875 -1.421875 11.734375 6.484375 
Q 5.515625 14.40625 5.515625 27.296875 
Q 5.515625 40.1875 11.734375 48.09375 
Q 17.96875 56 27.875 56 
Q 33.9375 56 38.25 53.625 
Q 42.578125 51.265625 45.40625 46.390625 
z
M 14.796875 27.296875 
Q 14.796875 17.390625 18.875 11.75 
Q 22.953125 6.109375 30.078125 6.109375 
Q 37.203125 6.109375 41.296875 11.75 
Q 45.40625 17.390625 45.40625 27.296875 
Q 45.40625 37.203125 41.296875 42.84375 
Q 37.203125 48.484375 30.078125 48.484375 
Q 22.953125 48.484375 18.875 42.84375 
Q 14.796875 37.203125 14.796875 27.296875 
z
" id="DejaVuSans-100"/>
       <path d="M 34.28125 27.484375 
Q 23.390625 27.484375 19.1875 25 
Q 14.984375 22.515625 14.984375 16.5 
Q 14.984375 11.71875 18.140625 8.90625 
Q 21.296875 6.109375 26.703125 6.109375 
Q 34.1875 6.109375 38.703125 11.40625 
Q 43.21875 16.703125 43.21875 25.484375 
L 43.21875 27.484375 
z
M 52.203125 31.203125 
L 52.203125 0 
L 43.21875 0 
L 43.21875 8.296875 
Q 40.140625 3.328125 35.546875 0.953125 
Q 30.953125 -1.421875 24.3125 -1.421875 
Q 15.921875 -1.421875 10.953125 3.296875 
Q 6 8.015625 6 15.921875 
Q 6 25.140625 12.171875 29.828125 
Q 18.359375 34.515625 30.609375 34.515625 
L 43.21875 34.515625 
L 43.21875 35.40625 
Q 43.21875 41.609375 39.140625 45 
Q 35.0625 48.390625 27.6875 48.390625 
Q 23 48.390625 18.546875 47.265625 
Q 14.109375 46.140625 10.015625 43.890625 
L 10.015625 52.203125 
Q 14.9375 54.109375 19.578125 55.046875 
Q 24.21875 56 28.609375 56 
Q 40.484375 56 46.34375 49.84375 
Q 52.203125 43.703125 52.203125 31.203125 
z
" id="DejaVuSans-97"/>
       <path d="M 32.171875 -5.078125 
Q 28.375 -14.84375 24.75 -17.8125 
Q 21.140625 -20.796875 15.09375 -20.796875 
L 7.90625 -20.796875 
L 7.90625 -13.28125 
L 13.1875 -13.28125 
Q 16.890625 -13.28125 18.9375 -11.515625 
Q 21 -9.765625 23.484375 -3.21875 
L 25.09375 0.875 
L 2.984375 54.6875 
L 12.5 54.6875 
L 29.59375 11.921875 
L 46.6875 54.6875 
L 56.203125 54.6875 
z
" id="DejaVuSans-121"/>
       <path d="M 41.109375 46.296875 
Q 39.59375 47.171875 37.8125 47.578125 
Q 36.03125 48 33.890625 48 
Q 26.265625 48 22.1875 43.046875 
Q 18.109375 38.09375 18.109375 28.8125 
L 18.109375 0 
L 9.078125 0 
L 9.078125 54.6875 
L 18.109375 54.6875 
L 18.109375 46.1875 
Q 20.953125 51.171875 25.484375 53.578125 
Q 30.03125 56 36.53125 56 
Q 37.453125 56 38.578125 55.875 
Q 39.703125 55.765625 41.0625 55.515625 
z
" id="DejaVuSans-114"/>
       <path d="M 54.890625 33.015625 
L 54.890625 0 
L 45.90625 0 
L 45.90625 32.71875 
Q 45.90625 40.484375 42.875 44.328125 
Q 39.84375 48.1875 33.796875 48.1875 
Q 26.515625 48.1875 22.3125 43.546875 
Q 18.109375 38.921875 18.109375 30.90625 
L 18.109375 0 
L 9.078125 0 
L 9.078125 54.6875 
L 18.109375 54.6875 
L 18.109375 46.1875 
Q 21.34375 51.125 25.703125 53.5625 
Q 30.078125 56 35.796875 56 
Q 45.21875 56 50.046875 50.171875 
Q 54.890625 44.34375 54.890625 33.015625 
z
" id="DejaVuSans-110"/>
       <path d="M 4.203125 54.6875 
L 13.1875 54.6875 
L 24.421875 12.015625 
L 35.59375 54.6875 
L 46.1875 54.6875 
L 57.421875 12.015625 
L 68.609375 54.6875 
L 77.59375 54.6875 
L 63.28125 0 
L 52.6875 0 
L 40.921875 44.828125 
L 29.109375 0 
L 18.5 0 
z
" id="DejaVuSans-119"/>
       <path d="M 44.28125 53.078125 
L 44.28125 44.578125 
Q 40.484375 46.53125 36.375 47.5 
Q 32.28125 48.484375 27.875 48.484375 
Q 21.1875 48.484375 17.84375 46.4375 
Q 14.5 44.390625 14.5 40.28125 
Q 14.5 37.15625 16.890625 35.375 
Q 19.28125 33.59375 26.515625 31.984375 
L 29.59375 31.296875 
Q 39.15625 29.25 43.1875 25.515625 
Q 47.21875 21.78125 47.21875 15.09375 
Q 47.21875 7.46875 41.1875 3.015625 
Q 35.15625 -1.421875 24.609375 -1.421875 
Q 20.21875 -1.421875 15.453125 -0.5625 
Q 10.6875 0.296875 5.421875 2 
L 5.421875 11.28125 
Q 10.40625 8.6875 15.234375 7.390625 
Q 20.0625 6.109375 24.8125 6.109375 
Q 31.15625 6.109375 34.5625 8.28125 
Q 37.984375 10.453125 37.984375 14.40625 
Q 37.984375 18.0625 35.515625 20.015625 
Q 33.0625 21.96875 24.703125 23.78125 
L 21.578125 24.515625 
Q 13.234375 26.265625 9.515625 29.90625 
Q 5.8125 33.546875 5.8125 39.890625 
Q 5.8125 47.609375 11.28125 51.796875 
Q 16.75 56 26.8125 56 
Q 31.78125 56 36.171875 55.265625 
Q 40.578125 54.546875 44.28125 53.078125 
z
" id="DejaVuSans-115"/>
      </defs>
      <use xlink:href="#DejaVuSans-49"/>
      <use x="63.623047" xlink:href="#DejaVuSans-52"/>
      <use x="127.246094" xlink:href="#DejaVuSans-32"/>
      <use x="159.033203" xlink:href="#DejaVuSans-100"/>
      <use x="222.509766" xlink:href="#DejaVuSans-97"/>
      <use x="283.789062" xlink:href="#DejaVuSans-121"/>
      <use x="342.96875" xlink:href="#DejaVuSans-32"/>
      <use x="374.755859" xlink:href="#DejaVuSans-97"/>
      <use x="436.035156" xlink:href="#DejaVuSans-118"/>
      <use x="495.214844" xlink:href="#DejaVuSans-101"/>
      <use x="556.738281" xlink:href="#DejaVuSans-114"/>
      <use x="597.851562" xlink:href="#DejaVuSans-97"/>
      <use x="659.130859" xlink:href="#DejaVuSans-103"/>
      <use x="722.607422" xlink:href="#DejaVuSans-101"/>
      <use x="784.130859" xlink:href="#DejaVuSans-32"/>
      <use x="815.917969" xlink:href="#DejaVuSans-110"/>
      <use x="879.296875" xlink:href="#DejaVuSans-101"/>
      <use x="940.820312" xlink:href="#DejaVuSans-119"/>
      <use x="1022.607422" xlink:href="#DejaVuSans-32"/>
      <use x="1054.394531" xlink:href="#DejaVuSans-99"/>
      <use x="1109.375" xlink:href="#DejaVuSans-97"/>
      <use x="1170.654297" xlink:href="#DejaVuSans-115"/>
      <use x="1222.753906" xlink:href="#DejaVuSans-101"/>
      <use x="1284.277344" xlink:href="#DejaVuSans-115"/>
     </g>
    </g>
   </g>
   <g id="line2d_45">
    <path clip-path="url(#p270ed240da)" d="M -1 286.140389 
L 2.341616 286.140389 
L 2.341616 281.673916 
L 6.261916 281.673916 
L 6.261916 270.944507 
L 10.182215 270.944507 
L 10.182215 265.41803 
L 14.102515 265.41803 
L 14.102515 262.359966 
L 18.022814 262.359966 
L 18.022814 257.026237 
L 21.943113 257.026237 
L 21.943113 252.455016 
L 25.863413 252.455016 
L 25.863413 246.021064 
L 29.783712 246.021064 
L 29.783712 240.069466 
L 33.704012 240.069466 
L 33.704012 233.560097 
L 37.624311 233.560097 
L 37.624311 227.765604 
L 41.54461 227.765604 
L 41.54461 218.507948 
L 45.46491 218.507948 
L 45.46491 211.634799 
L 49.385209 211.634799 
L 49.385209 205.553884 
L 53.305509 205.553884 
L 53.305509 199.797434 
L 57.225808 199.797434 
L 57.225808 194.698747 
L 61.146107 194.698747 
L 61.146107 188.152178 
L 65.066407 188.152178 
L 65.066407 184.399942 
L 68.986706 184.399942 
L 68.986706 176.49512 
L 72.907006 176.49512 
L 72.907006 167.716023 
L 76.827305 167.716023 
L 76.827305 162.581622 
L 80.747604 162.581622 
L 80.747604 156.772218 
L 84.667904 156.772218 
L 84.667904 146.592903 
L 88.588203 146.592903 
L 88.588203 141.632274 
L 92.508503 141.632274 
L 92.508503 135.369736 
L 96.428802 135.369736 
L 96.428802 132.553068 
L 100.349101 132.553068 
L 100.349101 127.257056 
L 104.269401 127.257056 
L 104.269401 123.505404 
L 108.1897 123.505404 
L 108.1897 118.291478 
L 112.11 118.291478 
L 112.11 111.230017 
L 116.030299 111.230017 
L 116.030299 109.612043 
L 119.950598 109.612043 
L 119.950598 104.784458 
L 123.870898 104.784458 
L 123.870898 102.783518 
L 127.791197 102.783518 
L 127.791197 99.917427 
L 131.711497 99.917427 
L 131.711497 95.084304 
L 135.631796 95.084304 
L 135.631796 91.977834 
L 143.472395 91.990952 
L 143.472395 89.957609 
L 147.392694 89.957609 
L 147.392694 87.515261 
L 151.312994 87.515261 
L 151.312994 83.48979 
L 155.233293 83.48979 
L 155.233293 82.428232 
L 159.153592 82.428232 
L 159.153592 82.089945 
L 163.073892 82.089945 
L 163.073892 77.989283 
L 166.994191 77.989283 
L 166.994191 76.363869 
L 170.914491 76.363869 
L 170.914491 74.76804 
L 174.83479 74.76804 
L 174.83479 72.153892 
L 178.755089 72.153892 
L 178.755089 70.959826 
L 182.675389 70.959826 
L 182.675389 70.512367 
L 186.595688 70.512367 
L 186.595688 68.372154 
L 190.515988 68.372154 
L 190.515988 67.970974 
L 194.436287 67.970974 
L 194.436287 66.997501 
L 198.356587 66.997501 
L 198.356587 66.371807 
L 202.276886 66.371807 
L 202.276886 66.866875 
L 206.197185 66.866875 
L 206.197185 68.666614 
L 210.117485 68.666614 
L 210.117485 69.166736 
L 214.037784 69.166736 
L 214.037784 67.987629 
L 217.958084 67.987629 
L 217.958084 72.117855 
L 221.878383 72.117855 
L 221.878383 74.025184 
L 225.798682 74.025184 
L 225.798682 74.692337 
L 229.718982 74.692337 
L 229.718982 78.403574 
L 233.639281 78.403574 
L 233.639281 79.604004 
L 237.559581 79.604004 
L 237.559581 81.581154 
L 241.47988 81.581154 
L 241.47988 87.166839 
L 245.400179 87.166839 
L 245.400179 89.580219 
L 249.320479 89.580219 
L 249.320479 92.531637 
L 253.240778 92.531637 
L 253.240778 95.798596 
L 257.161078 95.798596 
L 257.161078 98.310956 
L 261.081377 98.310956 
L 261.081377 101.338865 
L 265.001676 101.338865 
L 265.001676 103.905871 
L 268.921976 103.905871 
L 268.921976 108.202414 
L 272.842275 108.202414 
L 272.842275 110.219938 
L 276.762575 110.219938 
L 276.762575 115.332265 
L 280.682874 115.332265 
L 280.682874 119.624936 
L 284.603173 119.624936 
L 284.603173 122.701476 
L 288.523473 122.701476 
L 288.523473 127.564906 
L 292.443772 127.564906 
L 292.443772 131.655861 
L 296.364072 131.655861 
L 296.364072 135.161366 
L 300.284371 135.161366 
L 300.284371 139.011933 
L 304.20467 139.011933 
L 304.20467 141.969149 
L 308.12497 141.969149 
L 308.12497 145.93308 
L 312.045269 145.93308 
L 312.045269 151.41752 
L 315.965569 151.41752 
L 315.965569 154.027046 
L 319.885868 154.027046 
L 319.885868 154.027046 
" style="fill:none;stroke:#808080;stroke-linecap:square;stroke-width:1.5;"/>
   </g>
   <g id="line2d_46">
    <path clip-path="url(#p270ed240da)" d="M 317.925718 154.027046 
L 321.846018 157.696377 
L 325.766317 162.341286 
L 329.686617 165.598113 
L 333.606916 169.382524 
L 337.527215 172.021535 
L 341.447515 176.981304 
L 345.367814 179.329584 
L 349.288114 181.464768 
L 353.208413 185.994578 
L 357.128712 193.406064 
L 361.049012 198.853225 
L 364.969311 203.474358 
L 368.889611 208.13718 
L 372.80991 210.519958 
L 376.730209 215.115817 
L 380.650509 219.711677 
L 384.570808 224.307536 
L 388.491108 228.903396 
L 392.411407 233.499256 
L 396.331706 238.095115 
L 400.252006 242.690975 
L 404.172305 247.286835 
L 408.092605 251.882694 
L 412.012904 256.478554 
L 415.933203 261.074413 
L 419.853503 265.670273 
L 423.773802 270.266133 
L 427.694102 274.861992 
L 431.614401 279.457852 
L 435.5347 284.053712 
L 439.455 288.649571 
L 443.375299 293.245431 
L 447.295599 297.84129 
L 451.215898 302.43715 
L 455.136197 307.03301 
L 459.056497 311.628869 
L 462.976796 316.224729 
L 466.897096 320.820589 
L 470.817395 325.416448 
L 474.737694 330.012308 
L 478.657994 334.608167 
L 482.578293 339.204027 
L 486.498593 343.799887 
L 490.418892 348.395746 
L 494.339191 352.991606 
L 498.259491 357.587466 
L 502.17979 362.183325 
L 506.10009 366.779185 
L 510.020389 371.375044 
L 513.940688 375.970904 
L 517.860988 380.566764 
L 521.781287 385.162623 
L 525.701587 389.758483 
L 529.621886 394.354343 
L 533.542185 398.950202 
L 537.462485 403.546062 
L 541.382784 408.141921 
L 545.303084 412.737781 
L 549.223383 417.333641 
L 553.143683 421.9295 
L 557.063982 426.52536 
L 560.984281 431.12122 
L 562.586894 433 
" style="fill:none;stroke:#808080;stroke-dasharray:5.55,2.4;stroke-dashoffset:0;stroke-width:1.5;"/>
   </g>
   <g id="line2d_47">
    <path clip-path="url(#p270ed240da)" d="M 319.885868 391.04 
L 319.885868 26.16 
" style="fill:none;stroke:#000000;stroke-dasharray:5.55,2.4;stroke-dashoffset:0;stroke-width:1.5;"/>
   </g>
   <g id="line2d_48">
    <path clip-path="url(#p270ed240da)" d="M 398.291856 -1 
L 398.291856 184.399942 
L 508.060239 184.399942 
L 508.060239 306.026608 
L 617.828623 306.026608 
L 617.828623 433 
" style="fill:none;stroke:#000000;stroke-linecap:square;stroke-width:2;"/>
   </g>
   <g id="patch_3">
    <path d="M 49.385209 391.04 
L 49.385209 26.16 
" style="fill:none;stroke:#000000;stroke-linecap:square;stroke-linejoin:miter;stroke-width:0.8;"/>
   </g>
   <g id="patch_4">
    <path d="M 766.8 391.04 
L 766.8 26.16 
" style="fill:none;stroke:#000000;stroke-linecap:square;stroke-linejoin:miter;stroke-width:0.8;"/>
   </g>
   <g id="patch_5">
    <path d="M 49.385209 391.04 
L 766.8 391.04 
" style="fill:none;stroke:#000000;stroke-linecap:square;stroke-linejoin:miter;stroke-width:0.8;"/>
   </g>
   <g id="patch_6">
    <path d="M 49.385209 26.16 
L 766.8 26.16 
" style="fill:none;stroke:#000000;stroke-linecap:square;stroke-linejoin:miter;stroke-width:0.8;"/>
   </g>
   <g id="text_13">
    <!-- VIC 14 day average with Melbourne reopening targets -->
    <g transform="translate(245.395105 20.16)scale(0.12 -0.12)">
     <defs>
      <path d="M 28.609375 0 
L 0.78125 72.90625 
L 11.078125 72.90625 
L 34.1875 11.53125 
L 57.328125 72.90625 
L 67.578125 72.90625 
L 39.796875 0 
z
" id="DejaVuSans-86"/>
      <path d="M 9.8125 72.90625 
L 19.671875 72.90625 
L 19.671875 0 
L 9.8125 0 
z
" id="DejaVuSans-73"/>
      <path d="M 64.40625 67.28125 
L 64.40625 56.890625 
Q 59.421875 61.53125 53.78125 63.8125 
Q 48.140625 66.109375 41.796875 66.109375 
Q 29.296875 66.109375 22.65625 58.46875 
Q 16.015625 50.828125 16.015625 36.375 
Q 16.015625 21.96875 22.65625 14.328125 
Q 29.296875 6.6875 41.796875 6.6875 
Q 48.140625 6.6875 53.78125 8.984375 
Q 59.421875 11.28125 64.40625 15.921875 
L 64.40625 5.609375 
Q 59.234375 2.09375 53.4375 0.328125 
Q 47.65625 -1.421875 41.21875 -1.421875 
Q 24.65625 -1.421875 15.125 8.703125 
Q 5.609375 18.84375 5.609375 36.375 
Q 5.609375 53.953125 15.125 64.078125 
Q 24.65625 74.21875 41.21875 74.21875 
Q 47.75 74.21875 53.53125 72.484375 
Q 59.328125 70.75 64.40625 67.28125 
z
" id="DejaVuSans-67"/>
      <path d="M 9.421875 54.6875 
L 18.40625 54.6875 
L 18.40625 0 
L 9.421875 0 
z
M 9.421875 75.984375 
L 18.40625 75.984375 
L 18.40625 64.59375 
L 9.421875 64.59375 
z
" id="DejaVuSans-105"/>
      <path d="M 54.890625 33.015625 
L 54.890625 0 
L 45.90625 0 
L 45.90625 32.71875 
Q 45.90625 40.484375 42.875 44.328125 
Q 39.84375 48.1875 33.796875 48.1875 
Q 26.515625 48.1875 22.3125 43.546875 
Q 18.109375 38.921875 18.109375 30.90625 
L 18.109375 0 
L 9.078125 0 
L 9.078125 75.984375 
L 18.109375 75.984375 
L 18.109375 46.1875 
Q 21.34375 51.125 25.703125 53.5625 
Q 30.078125 56 35.796875 56 
Q 45.21875 56 50.046875 50.171875 
Q 54.890625 44.34375 54.890625 33.015625 
z
" id="DejaVuSans-104"/>
      <path d="M 9.8125 72.90625 
L 24.515625 72.90625 
L 43.109375 23.296875 
L 61.8125 72.90625 
L 76.515625 72.90625 
L 76.515625 0 
L 66.890625 0 
L 66.890625 64.015625 
L 48.09375 14.015625 
L 38.1875 14.015625 
L 19.390625 64.015625 
L 19.390625 0 
L 9.8125 0 
z
" id="DejaVuSans-77"/>
      <path d="M 48.6875 27.296875 
Q 48.6875 37.203125 44.609375 42.84375 
Q 40.53125 48.484375 33.40625 48.484375 
Q 26.265625 48.484375 22.1875 42.84375 
Q 18.109375 37.203125 18.109375 27.296875 
Q 18.109375 17.390625 22.1875 11.75 
Q 26.265625 6.109375 33.40625 6.109375 
Q 40.53125 6.109375 44.609375 11.75 
Q 48.6875 17.390625 48.6875 27.296875 
z
M 18.109375 46.390625 
Q 20.953125 51.265625 25.265625 53.625 
Q 29.59375 56 35.59375 56 
Q 45.5625 56 51.78125 48.09375 
Q 58.015625 40.1875 58.015625 27.296875 
Q 58.015625 14.40625 51.78125 6.484375 
Q 45.5625 -1.421875 35.59375 -1.421875 
Q 29.59375 -1.421875 25.265625 0.953125 
Q 20.953125 3.328125 18.109375 8.203125 
L 18.109375 0 
L 9.078125 0 
L 9.078125 75.984375 
L 18.109375 75.984375 
z
" id="DejaVuSans-98"/>
     </defs>
     <use xlink:href="#DejaVuSans-86"/>
     <use x="68.408203" xlink:href="#DejaVuSans-73"/>
     <use x="97.900391" xlink:href="#DejaVuSans-67"/>
     <use x="167.724609" xlink:href="#DejaVuSans-32"/>
     <use x="199.511719" xlink:href="#DejaVuSans-49"/>
     <use x="263.134766" xlink:href="#DejaVuSans-52"/>
     <use x="326.757812" xlink:href="#DejaVuSans-32"/>
     <use x="358.544922" xlink:href="#DejaVuSans-100"/>
     <use x="422.021484" xlink:href="#DejaVuSans-97"/>
     <use x="483.300781" xlink:href="#DejaVuSans-121"/>
     <use x="542.480469" xlink:href="#DejaVuSans-32"/>
     <use x="574.267578" xlink:href="#DejaVuSans-97"/>
     <use x="635.546875" xlink:href="#DejaVuSans-118"/>
     <use x="694.726562" xlink:href="#DejaVuSans-101"/>
     <use x="756.25" xlink:href="#DejaVuSans-114"/>
     <use x="797.363281" xlink:href="#DejaVuSans-97"/>
     <use x="858.642578" xlink:href="#DejaVuSans-103"/>
     <use x="922.119141" xlink:href="#DejaVuSans-101"/>
     <use x="983.642578" xlink:href="#DejaVuSans-32"/>
     <use x="1015.429688" xlink:href="#DejaVuSans-119"/>
     <use x="1097.216797" xlink:href="#DejaVuSans-105"/>
     <use x="1125" xlink:href="#DejaVuSans-116"/>
     <use x="1164.208984" xlink:href="#DejaVuSans-104"/>
     <use x="1227.587891" xlink:href="#DejaVuSans-32"/>
     <use x="1259.375" xlink:href="#DejaVuSans-77"/>
     <use x="1345.654297" xlink:href="#DejaVuSans-101"/>
     <use x="1407.177734" xlink:href="#DejaVuSans-108"/>
     <use x="1434.960938" xlink:href="#DejaVuSans-98"/>
     <use x="1498.4375" xlink:href="#DejaVuSans-111"/>
     <use x="1559.619141" xlink:href="#DejaVuSans-117"/>
     <use x="1622.998047" xlink:href="#DejaVuSans-114"/>
     <use x="1662.361328" xlink:href="#DejaVuSans-110"/>
     <use x="1725.740234" xlink:href="#DejaVuSans-101"/>
     <use x="1787.263672" xlink:href="#DejaVuSans-32"/>
     <use x="1819.050781" xlink:href="#DejaVuSans-114"/>
     <use x="1857.914062" xlink:href="#DejaVuSans-101"/>
     <use x="1919.4375" xlink:href="#DejaVuSans-111"/>
     <use x="1980.619141" xlink:href="#DejaVuSans-112"/>
     <use x="2044.095703" xlink:href="#DejaVuSans-101"/>
     <use x="2105.619141" xlink:href="#DejaVuSans-110"/>
     <use x="2168.998047" xlink:href="#DejaVuSans-105"/>
     <use x="2196.78125" xlink:href="#DejaVuSans-110"/>
     <use x="2260.160156" xlink:href="#DejaVuSans-103"/>
     <use x="2323.636719" xlink:href="#DejaVuSans-32"/>
     <use x="2355.423828" xlink:href="#DejaVuSans-116"/>
     <use x="2394.632812" xlink:href="#DejaVuSans-97"/>
     <use x="2455.912109" xlink:href="#DejaVuSans-114"/>
     <use x="2495.275391" xlink:href="#DejaVuSans-103"/>
     <use x="2558.751953" xlink:href="#DejaVuSans-101"/>
     <use x="2620.275391" xlink:href="#DejaVuSans-116"/>
     <use x="2659.484375" xlink:href="#DejaVuSans-115"/>
    </g>
   </g>
   <g id="legend_1">
    <g id="patch_7">
     <path d="M 496.807813 107.550625 
L 759.8 107.550625 
Q 761.8 107.550625 761.8 105.550625 
L 761.8 33.16 
Q 761.8 31.16 759.8 31.16 
L 496.807813 31.16 
Q 494.807813 31.16 494.807813 33.16 
L 494.807813 105.550625 
Q 494.807813 107.550625 496.807813 107.550625 
z
" style="fill:#ffffff;opacity:0.8;stroke:#cccccc;stroke-linejoin:miter;"/>
    </g>
    <g id="line2d_49">
     <path d="M 498.807813 39.258437 
L 518.807813 39.258437 
" style="fill:none;stroke:#808080;stroke-linecap:square;stroke-width:1.5;"/>
    </g>
    <g id="line2d_50"/>
    <g id="text_14">
     <!-- 14d average -->
     <g transform="translate(526.807813 42.758437)scale(0.1 -0.1)">
      <use xlink:href="#DejaVuSans-49"/>
      <use x="63.623047" xlink:href="#DejaVuSans-52"/>
      <use x="127.246094" xlink:href="#DejaVuSans-100"/>
      <use x="190.722656" xlink:href="#DejaVuSans-32"/>
      <use x="222.509766" xlink:href="#DejaVuSans-97"/>
      <use x="283.789062" xlink:href="#DejaVuSans-118"/>
      <use x="342.96875" xlink:href="#DejaVuSans-101"/>
      <use x="404.492188" xlink:href="#DejaVuSans-114"/>
      <use x="445.605469" xlink:href="#DejaVuSans-97"/>
      <use x="506.884766" xlink:href="#DejaVuSans-103"/>
      <use x="570.361328" xlink:href="#DejaVuSans-101"/>
     </g>
    </g>
    <g id="line2d_51">
     <path d="M 498.807813 53.936562 
L 518.807813 53.936562 
" style="fill:none;stroke:#808080;stroke-dasharray:5.55,2.4;stroke-dashoffset:0;stroke-width:1.5;"/>
    </g>
    <g id="line2d_52"/>
    <g id="text_15">
     <!-- 14d average (projected) -->
     <g transform="translate(526.807813 57.436562)scale(0.1 -0.1)">
      <defs>
       <path d="M 31 75.875 
Q 24.46875 64.65625 21.28125 53.65625 
Q 18.109375 42.671875 18.109375 31.390625 
Q 18.109375 20.125 21.3125 9.0625 
Q 24.515625 -2 31 -13.1875 
L 23.1875 -13.1875 
Q 15.875 -1.703125 12.234375 9.375 
Q 8.59375 20.453125 8.59375 31.390625 
Q 8.59375 42.28125 12.203125 53.3125 
Q 15.828125 64.359375 23.1875 75.875 
z
" id="DejaVuSans-40"/>
       <path d="M 9.421875 54.6875 
L 18.40625 54.6875 
L 18.40625 -0.984375 
Q 18.40625 -11.421875 14.421875 -16.109375 
Q 10.453125 -20.796875 1.609375 -20.796875 
L -1.8125 -20.796875 
L -1.8125 -13.1875 
L 0.59375 -13.1875 
Q 5.71875 -13.1875 7.5625 -10.8125 
Q 9.421875 -8.453125 9.421875 -0.984375 
z
M 9.421875 75.984375 
L 18.40625 75.984375 
L 18.40625 64.59375 
L 9.421875 64.59375 
z
" id="DejaVuSans-106"/>
       <path d="M 8.015625 75.875 
L 15.828125 75.875 
Q 23.140625 64.359375 26.78125 53.3125 
Q 30.421875 42.28125 30.421875 31.390625 
Q 30.421875 20.453125 26.78125 9.375 
Q 23.140625 -1.703125 15.828125 -13.1875 
L 8.015625 -13.1875 
Q 14.5 -2 17.703125 9.0625 
Q 20.90625 20.125 20.90625 31.390625 
Q 20.90625 42.671875 17.703125 53.65625 
Q 14.5 64.65625 8.015625 75.875 
z
" id="DejaVuSans-41"/>
      </defs>
      <use xlink:href="#DejaVuSans-49"/>
      <use x="63.623047" xlink:href="#DejaVuSans-52"/>
      <use x="127.246094" xlink:href="#DejaVuSans-100"/>
      <use x="190.722656" xlink:href="#DejaVuSans-32"/>
      <use x="222.509766" xlink:href="#DejaVuSans-97"/>
      <use x="283.789062" xlink:href="#DejaVuSans-118"/>
      <use x="342.96875" xlink:href="#DejaVuSans-101"/>
      <use x="404.492188" xlink:href="#DejaVuSans-114"/>
      <use x="445.605469" xlink:href="#DejaVuSans-97"/>
      <use x="506.884766" xlink:href="#DejaVuSans-103"/>
      <use x="570.361328" xlink:href="#DejaVuSans-101"/>
      <use x="631.884766" xlink:href="#DejaVuSans-32"/>
      <use x="663.671875" xlink:href="#DejaVuSans-40"/>
      <use x="702.685547" xlink:href="#DejaVuSans-112"/>
      <use x="766.162109" xlink:href="#DejaVuSans-114"/>
      <use x="805.025391" xlink:href="#DejaVuSans-111"/>
      <use x="866.207031" xlink:href="#DejaVuSans-106"/>
      <use x="893.990234" xlink:href="#DejaVuSans-101"/>
      <use x="955.513672" xlink:href="#DejaVuSans-99"/>
      <use x="1010.494141" xlink:href="#DejaVuSans-116"/>
      <use x="1049.703125" xlink:href="#DejaVuSans-101"/>
      <use x="1111.226562" xlink:href="#DejaVuSans-100"/>
      <use x="1174.703125" xlink:href="#DejaVuSans-41"/>
     </g>
    </g>
    <g id="patch_8">
     <path d="M 498.807813 72.114687 
L 518.807813 72.114687 
L 518.807813 65.114687 
L 498.807813 65.114687 
z
" style="fill:#808080;opacity:0.5;"/>
    </g>
    <g id="text_16">
     <!-- Projection uncertainty -->
     <g transform="translate(526.807813 72.114687)scale(0.1 -0.1)">
      <defs>
       <path d="M 19.671875 64.796875 
L 19.671875 37.40625 
L 32.078125 37.40625 
Q 38.96875 37.40625 42.71875 40.96875 
Q 46.484375 44.53125 46.484375 51.125 
Q 46.484375 57.671875 42.71875 61.234375 
Q 38.96875 64.796875 32.078125 64.796875 
z
M 9.8125 72.90625 
L 32.078125 72.90625 
Q 44.34375 72.90625 50.609375 67.359375 
Q 56.890625 61.8125 56.890625 51.125 
Q 56.890625 40.328125 50.609375 34.8125 
Q 44.34375 29.296875 32.078125 29.296875 
L 19.671875 29.296875 
L 19.671875 0 
L 9.8125 0 
z
" id="DejaVuSans-80"/>
      </defs>
      <use xlink:href="#DejaVuSans-80"/>
      <use x="58.552734" xlink:href="#DejaVuSans-114"/>
      <use x="97.416016" xlink:href="#DejaVuSans-111"/>
      <use x="158.597656" xlink:href="#DejaVuSans-106"/>
      <use x="186.380859" xlink:href="#DejaVuSans-101"/>
      <use x="247.904297" xlink:href="#DejaVuSans-99"/>
      <use x="302.884766" xlink:href="#DejaVuSans-116"/>
      <use x="342.09375" xlink:href="#DejaVuSans-105"/>
      <use x="369.876953" xlink:href="#DejaVuSans-111"/>
      <use x="431.058594" xlink:href="#DejaVuSans-110"/>
      <use x="494.4375" xlink:href="#DejaVuSans-32"/>
      <use x="526.224609" xlink:href="#DejaVuSans-117"/>
      <use x="589.603516" xlink:href="#DejaVuSans-110"/>
      <use x="652.982422" xlink:href="#DejaVuSans-99"/>
      <use x="707.962891" xlink:href="#DejaVuSans-101"/>
      <use x="769.486328" xlink:href="#DejaVuSans-114"/>
      <use x="810.599609" xlink:href="#DejaVuSans-116"/>
      <use x="849.808594" xlink:href="#DejaVuSans-97"/>
      <use x="911.087891" xlink:href="#DejaVuSans-105"/>
      <use x="938.871094" xlink:href="#DejaVuSans-110"/>
      <use x="1002.25" xlink:href="#DejaVuSans-116"/>
      <use x="1041.458984" xlink:href="#DejaVuSans-121"/>
     </g>
    </g>
    <g id="line2d_53">
     <path d="M 498.807813 83.292812 
L 518.807813 83.292812 
" style="fill:none;stroke:#000000;stroke-linecap:square;stroke-width:2;"/>
    </g>
    <g id="line2d_54"/>
    <g id="text_17">
     <!-- Required target -->
     <g transform="translate(526.807813 86.792812)scale(0.1 -0.1)">
      <defs>
       <path d="M 44.390625 34.1875 
Q 47.5625 33.109375 50.5625 29.59375 
Q 53.5625 26.078125 56.59375 19.921875 
L 66.609375 0 
L 56 0 
L 46.6875 18.703125 
Q 43.0625 26.03125 39.671875 28.421875 
Q 36.28125 30.8125 30.421875 30.8125 
L 19.671875 30.8125 
L 19.671875 0 
L 9.8125 0 
L 9.8125 72.90625 
L 32.078125 72.90625 
Q 44.578125 72.90625 50.734375 67.671875 
Q 56.890625 62.453125 56.890625 51.90625 
Q 56.890625 45.015625 53.6875 40.46875 
Q 50.484375 35.9375 44.390625 34.1875 
z
M 19.671875 64.796875 
L 19.671875 38.921875 
L 32.078125 38.921875 
Q 39.203125 38.921875 42.84375 42.21875 
Q 46.484375 45.515625 46.484375 51.90625 
Q 46.484375 58.296875 42.84375 61.546875 
Q 39.203125 64.796875 32.078125 64.796875 
z
" id="DejaVuSans-82"/>
       <path d="M 14.796875 27.296875 
Q 14.796875 17.390625 18.875 11.75 
Q 22.953125 6.109375 30.078125 6.109375 
Q 37.203125 6.109375 41.296875 11.75 
Q 45.40625 17.390625 45.40625 27.296875 
Q 45.40625 37.203125 41.296875 42.84375 
Q 37.203125 48.484375 30.078125 48.484375 
Q 22.953125 48.484375 18.875 42.84375 
Q 14.796875 37.203125 14.796875 27.296875 
z
M 45.40625 8.203125 
Q 42.578125 3.328125 38.25 0.953125 
Q 33.9375 -1.421875 27.875 -1.421875 
Q 17.96875 -1.421875 11.734375 6.484375 
Q 5.515625 14.40625 5.515625 27.296875 
Q 5.515625 40.1875 11.734375 48.09375 
Q 17.96875 56 27.875 56 
Q 33.9375 56 38.25 53.625 
Q 42.578125 51.265625 45.40625 46.390625 
L 45.40625 54.6875 
L 54.390625 54.6875 
L 54.390625 -20.796875 
L 45.40625 -20.796875 
z
" id="DejaVuSans-113"/>
      </defs>
      <use xlink:href="#DejaVuSans-82"/>
      <use x="64.982422" xlink:href="#DejaVuSans-101"/>
      <use x="126.505859" xlink:href="#DejaVuSans-113"/>
      <use x="189.982422" xlink:href="#DejaVuSans-117"/>
      <use x="253.361328" xlink:href="#DejaVuSans-105"/>
      <use x="281.144531" xlink:href="#DejaVuSans-114"/>
      <use x="320.007812" xlink:href="#DejaVuSans-101"/>
      <use x="381.53125" xlink:href="#DejaVuSans-100"/>
      <use x="445.007812" xlink:href="#DejaVuSans-32"/>
      <use x="476.794922" xlink:href="#DejaVuSans-116"/>
      <use x="516.003906" xlink:href="#DejaVuSans-97"/>
      <use x="577.283203" xlink:href="#DejaVuSans-114"/>
      <use x="616.646484" xlink:href="#DejaVuSans-103"/>
      <use x="680.123047" xlink:href="#DejaVuSans-101"/>
      <use x="741.646484" xlink:href="#DejaVuSans-116"/>
     </g>
    </g>
    <g id="line2d_55">
     <path d="M 498.807813 97.970937 
L 518.807813 97.970937 
" style="fill:none;stroke:#000000;stroke-dasharray:5.55,2.4;stroke-dashoffset:0;stroke-width:1.5;"/>
    </g>
    <g id="line2d_56"/>
    <g id="text_18">
     <!-- Today -->
     <g transform="translate(526.807813 101.470937)scale(0.1 -0.1)">
      <defs>
       <path d="M -0.296875 72.90625 
L 61.375 72.90625 
L 61.375 64.59375 
L 35.5 64.59375 
L 35.5 0 
L 25.59375 0 
L 25.59375 64.59375 
L -0.296875 64.59375 
z
" id="DejaVuSans-84"/>
      </defs>
      <use xlink:href="#DejaVuSans-84"/>
      <use x="44.083984" xlink:href="#DejaVuSans-111"/>
      <use x="105.265625" xlink:href="#DejaVuSans-100"/>
      <use x="168.742188" xlink:href="#DejaVuSans-97"/>
      <use x="230.021484" xlink:href="#DejaVuSans-121"/>
     </g>
    </g>
    <g id="patch_9">
     <path d="M 668.185938 42.758437 
L 688.185938 42.758437 
L 688.185938 35.758437 
L 668.185938 35.758437 
z
" style="fill:#ff0000;opacity:0.5;"/>
    </g>
    <g id="text_19">
     <!-- First step -->
     <g transform="translate(696.185938 42.758437)scale(0.1 -0.1)">
      <defs>
       <path d="M 9.8125 72.90625 
L 51.703125 72.90625 
L 51.703125 64.59375 
L 19.671875 64.59375 
L 19.671875 43.109375 
L 48.578125 43.109375 
L 48.578125 34.8125 
L 19.671875 34.8125 
L 19.671875 0 
L 9.8125 0 
z
" id="DejaVuSans-70"/>
      </defs>
      <use xlink:href="#DejaVuSans-70"/>
      <use x="50.269531" xlink:href="#DejaVuSans-105"/>
      <use x="78.052734" xlink:href="#DejaVuSans-114"/>
      <use x="119.166016" xlink:href="#DejaVuSans-115"/>
      <use x="171.265625" xlink:href="#DejaVuSans-116"/>
      <use x="210.474609" xlink:href="#DejaVuSans-32"/>
      <use x="242.261719" xlink:href="#DejaVuSans-115"/>
      <use x="294.361328" xlink:href="#DejaVuSans-116"/>
      <use x="333.570312" xlink:href="#DejaVuSans-101"/>
      <use x="395.09375" xlink:href="#DejaVuSans-112"/>
     </g>
    </g>
    <g id="patch_10">
     <path d="M 668.185938 57.436562 
L 688.185938 57.436562 
L 688.185938 50.436562 
L 668.185938 50.436562 
z
" style="fill:#ffa500;opacity:0.5;"/>
    </g>
    <g id="text_20">
     <!-- Second step -->
     <g transform="translate(696.185938 57.436562)scale(0.1 -0.1)">
      <use xlink:href="#DejaVuSans-83"/>
      <use x="63.476562" xlink:href="#DejaVuSans-101"/>
      <use x="125" xlink:href="#DejaVuSans-99"/>
      <use x="179.980469" xlink:href="#DejaVuSans-111"/>
      <use x="241.162109" xlink:href="#DejaVuSans-110"/>
      <use x="304.541016" xlink:href="#DejaVuSans-100"/>
      <use x="368.017578" xlink:href="#DejaVuSans-32"/>
      <use x="399.804688" xlink:href="#DejaVuSans-115"/>
      <use x="451.904297" xlink:href="#DejaVuSans-116"/>
      <use x="491.113281" xlink:href="#DejaVuSans-101"/>
      <use x="552.636719" xlink:href="#DejaVuSans-112"/>
     </g>
    </g>
    <g id="patch_11">
     <path d="M 668.185938 72.114687 
L 688.185938 72.114687 
L 688.185938 65.114687 
L 668.185938 65.114687 
z
" style="fill:#ffff00;opacity:0.5;"/>
    </g>
    <g id="text_21">
     <!-- Third step -->
     <g transform="translate(696.185938 72.114687)scale(0.1 -0.1)">
      <use xlink:href="#DejaVuSans-84"/>
      <use x="61.083984" xlink:href="#DejaVuSans-104"/>
      <use x="124.462891" xlink:href="#DejaVuSans-105"/>
      <use x="152.246094" xlink:href="#DejaVuSans-114"/>
      <use x="191.609375" xlink:href="#DejaVuSans-100"/>
      <use x="255.085938" xlink:href="#DejaVuSans-32"/>
      <use x="286.873047" xlink:href="#DejaVuSans-115"/>
      <use x="338.972656" xlink:href="#DejaVuSans-116"/>
      <use x="378.181641" xlink:href="#DejaVuSans-101"/>
      <use x="439.705078" xlink:href="#DejaVuSans-112"/>
     </g>
    </g>
    <g id="patch_12">
     <path d="M 668.185938 86.792812 
L 688.185938 86.792812 
L 688.185938 79.792812 
L 668.185938 79.792812 
z
" style="fill:#008000;opacity:0.5;"/>
    </g>
    <g id="text_22">
     <!-- Last step -->
     <g transform="translate(696.185938 86.792812)scale(0.1 -0.1)">
      <defs>
       <path d="M 9.8125 72.90625 
L 19.671875 72.90625 
L 19.671875 8.296875 
L 55.171875 8.296875 
L 55.171875 0 
L 9.8125 0 
z
" id="DejaVuSans-76"/>
      </defs>
      <use xlink:href="#DejaVuSans-76"/>
      <use x="55.712891" xlink:href="#DejaVuSans-97"/>
      <use x="116.992188" xlink:href="#DejaVuSans-115"/>
      <use x="169.091797" xlink:href="#DejaVuSans-116"/>
      <use x="208.300781" xlink:href="#DejaVuSans-32"/>
      <use x="240.087891" xlink:href="#DejaVuSans-115"/>
      <use x="292.1875" xlink:href="#DejaVuSans-116"/>
      <use x="331.396484" xlink:href="#DejaVuSans-101"/>
      <use x="392.919922" xlink:href="#DejaVuSans-112"/>
     </g>
    </g>
   </g>
  </g>
 </g>
 <defs>
  <clipPath id="p270ed240da">
   <rect height="364.88" width="717.414791" x="49.385209" y="26.16"/>
  </clipPath>
 </defs>
</svg>
