<?xml version="1.0" encoding="utf-8" standalone="no"?>
<!DOCTYPE svg PUBLIC "-//W3C//DTD SVG 1.1//EN"
  "http://www.w3.org/Graphics/SVG/1.1/DTD/svg11.dtd">
<!-- Created with matplotlib (https://matplotlib.org/) -->
<svg height="432pt" version="1.1" viewBox="0 0 777.6 432" width="777.6pt" xmlns="http://www.w3.org/2000/svg" xmlns:xlink="http://www.w3.org/1999/xlink">
 <metadata>
  <rdf:RDF xmlns:cc="http://creativecommons.org/ns#" xmlns:dc="http://purl.org/dc/elements/1.1/" xmlns:rdf="http://www.w3.org/1999/02/22-rdf-syntax-ns#">
   <cc:Work>
    <dc:type rdf:resource="http://purl.org/dc/dcmitype/StillImage"/>
    <dc:date>2020-10-22T10:38:11.025810</dc:date>
    <dc:format>image/svg+xml</dc:format>
    <dc:creator>
     <cc:Agent>
      <dc:title>Matplotlib v3.3.2, https://matplotlib.org/</dc:title>
     </cc:Agent>
    </dc:creator>
   </cc:Work>
  </rdf:RDF>
 </metadata>
 <defs>
  <style type="text/css">*{stroke-linecap:butt;stroke-linejoin:round;}</style>
 </defs>
 <g id="figure_1">
  <g id="patch_1">
   <path d="M 0 432 
L 777.6 432 
L 777.6 0 
L 0 0 
z
" style="fill:#ffffff;"/>
  </g>
  <g id="axes_1">
   <g id="patch_2">
    <path d="M 50.105209 391.04 
L 766.8 391.04 
L 766.8 37.968 
L 50.105209 37.968 
z
" style="fill:#ffffff;"/>
   </g>
   <g id="PolyCollection_1">
    <path clip-path="url(#p20532b382b)" d="M 494.612634 296.503563 
L 494.612634 296.503563 
L 498.528999 302.404309 
L 502.445364 312.163415 
L 506.361729 321.40908 
L 510.278094 336.381838 
L 514.194459 352.298031 
L 518.110824 361.530763 
L 522.027189 375.473938 
L 525.943554 381.062618 
L 529.859919 384.079178 
L 533.776284 390.8191 
L 537.692649 407.861599 
L 541.609014 413.150507 
L 545.525379 433.580381 
L 549.441744 521.246353 
L 553.358109 537.106175 
L 557.274474 552.977059 
L 561.190839 568.856693 
L 565.107204 584.743371 
L 569.023569 600.635808 
L 572.939934 616.533014 
L 576.856299 632.434216 
L 580.772664 648.3388 
L 584.689029 664.246271 
L 588.605394 680.15623 
L 592.521759 696.068346 
L 596.438123 711.982345 
L 600.354488 727.897998 
L 604.270853 743.815111 
L 608.187218 759.733522 
L 612.103583 775.653089 
L 616.019948 791.573691 
L 619.936313 807.495225 
L 623.852678 823.4176 
L 627.769043 839.340735 
L 631.685408 855.264563 
L 635.601773 871.18902 
L 639.518138 887.114053 
L 643.434503 903.039615 
L 647.350868 918.965661 
L 651.267233 934.892153 
L 655.183598 950.819058 
L 659.099963 966.746344 
L 663.016328 982.673983 
L 666.932693 998.60195 
L 670.849058 1014.530223 
L 674.765423 1030.458779 
L 678.681788 1046.387604 
L 682.598153 1062.316674 
L 686.514518 1078.245982 
L 690.430883 1094.175499 
L 694.347248 1110.105213 
L 698.263613 1126.035131 
L 702.179978 1141.965225 
L 706.096343 1157.895505 
L 710.012708 1173.825934 
L 713.929073 1189.756549 
L 717.845438 1205.687309 
L 721.761803 1221.618093 
L 725.678168 1237.549021 
L 729.594533 1253.480007 
L 733.510898 1269.411312 
L 737.427263 1285.342647 
L 741.343628 1301.273696 
L 745.259993 1317.205534 
L 749.176358 1333.138199 
L 753.092723 1349.070272 
L 757.009088 1365.002813 
L 760.925453 1380.936726 
L 764.841818 1396.867943 
L 768.758182 1412.800216 
L 768.758182 6.429375 
L 768.758182 6.429375 
L 764.841818 10.363544 
L 760.925453 14.297651 
L 757.009088 18.231696 
L 753.092723 22.165675 
L 749.176358 26.099584 
L 745.259993 30.033421 
L 741.343628 33.967183 
L 737.427263 37.900866 
L 733.510898 41.834466 
L 729.594533 45.76798 
L 725.678168 49.701403 
L 721.761803 53.63473 
L 717.845438 57.567958 
L 713.929073 61.50108 
L 710.012708 65.434092 
L 706.096343 69.366986 
L 702.179978 73.299759 
L 698.263613 77.232401 
L 694.347248 81.164907 
L 690.430883 85.097267 
L 686.514518 89.029475 
L 682.598153 92.961521 
L 678.681788 96.893394 
L 674.765423 100.825084 
L 670.849058 104.756581 
L 666.932693 108.68787 
L 663.016328 112.618939 
L 659.099963 116.549772 
L 655.183598 120.480353 
L 651.267233 124.410664 
L 647.350868 128.340686 
L 643.434503 132.270397 
L 639.518138 136.199773 
L 635.601773 140.128787 
L 631.685408 144.057411 
L 627.769043 147.985612 
L 623.852678 151.913353 
L 619.936313 155.840594 
L 616.019948 159.767289 
L 612.103583 163.693387 
L 608.187218 167.618829 
L 604.270853 171.543548 
L 600.354488 175.46747 
L 596.438123 179.390507 
L 592.521759 183.312559 
L 588.605394 187.233509 
L 584.689029 191.153221 
L 580.772664 195.071535 
L 576.856299 198.98826 
L 572.939934 202.90317 
L 569.023569 206.815989 
L 565.107204 210.726383 
L 561.190839 214.633937 
L 557.274474 218.538132 
L 553.358109 222.438305 
L 549.441744 226.333598 
L 545.525379 231.58821 
L 541.609014 237.283427 
L 537.692649 243.554359 
L 533.776284 249.434117 
L 529.859919 256.001377 
L 525.943554 263.199721 
L 522.027189 270.543816 
L 518.110824 276.796642 
L 514.194459 283.61487 
L 510.278094 287.692826 
L 506.361729 289.834187 
L 502.445364 292.953617 
L 498.528999 293.910901 
L 494.612634 296.503563 
z
" style="fill:#808080;fill-opacity:0.5;"/>
   </g>
   <g id="PolyCollection_2">
    <path clip-path="url(#p20532b382b)" d="M 398.661692 118081.706667 
L 343.832582 118081.706667 
L 343.832582 37.968 
L 398.661692 37.968 
L 398.661692 37.968 
L 398.661692 118081.706667 
z
" style="fill:#ff0000;fill-opacity:0.5;"/>
   </g>
   <g id="PolyCollection_3">
    <path clip-path="url(#p20532b382b)" d="M 480.905357 118081.706667 
L 398.661692 118081.706667 
L 398.661692 37.968 
L 480.905357 37.968 
L 480.905357 37.968 
L 480.905357 118081.706667 
z
" style="fill:#ffa500;fill-opacity:0.5;"/>
   </g>
   <g id="PolyCollection_4">
    <path clip-path="url(#p20532b382b)" d="M 480.905357 118081.706667 
L 508.319912 118081.706667 
L 508.319912 37.968 
L 480.905357 37.968 
L 480.905357 37.968 
L 480.905357 118081.706667 
z
" style="fill:#ffd200;fill-opacity:0.5;"/>
   </g>
   <g id="PolyCollection_5">
    <path clip-path="url(#p20532b382b)" d="M 590.563576 118081.706667 
L 508.319912 118081.706667 
L 508.319912 37.968 
L 590.563576 37.968 
L 590.563576 37.968 
L 590.563576 118081.706667 
z
" style="fill:#ffff00;fill-opacity:0.5;"/>
   </g>
   <g id="PolyCollection_6">
    <path clip-path="url(#p20532b382b)" d="M 672.807241 118081.706667 
L 590.563576 118081.706667 
L 590.563576 37.968 
L 672.807241 37.968 
L 672.807241 37.968 
L 672.807241 118081.706667 
z
" style="fill:#008000;fill-opacity:0.5;"/>
   </g>
   <g id="PolyCollection_7">
    <path clip-path="url(#p20532b382b)" d="M 766.8 118081.706667 
L 672.807241 118081.706667 
L 672.807241 37.968 
L 766.8 37.968 
L 766.8 37.968 
L 766.8 118081.706667 
z
" style="fill:#008000;fill-opacity:0.25;"/>
   </g>
   <g id="matplotlib.axis_1">
    <g id="xtick_1">
     <g id="line2d_1">
      <path clip-path="url(#p20532b382b)" d="M 50.105209 391.04 
L 50.105209 37.968 
" style="fill:none;stroke:#000000;stroke-dasharray:0.8,1.32;stroke-dashoffset:0;stroke-opacity:0.5;stroke-width:0.8;"/>
     </g>
     <g id="line2d_2">
      <defs>
       <path d="M 0 0 
L 0 3.5 
" id="mb6d425d303" style="stroke:#000000;stroke-width:0.8;"/>
      </defs>
      <g>
       <use style="stroke:#000000;stroke-width:0.8;" x="50.105209" xlink:href="#mb6d425d303" y="391.04"/>
      </g>
     </g>
     <g id="text_1">
      <!-- Jul -->
      <g transform="translate(44.072397 405.638438)scale(0.1 -0.1)">
       <defs>
        <path d="M 9.8125 72.90625 
L 19.671875 72.90625 
L 19.671875 5.078125 
Q 19.671875 -8.109375 14.671875 -14.0625 
Q 9.671875 -20.015625 -1.421875 -20.015625 
L -5.171875 -20.015625 
L -5.171875 -11.71875 
L -2.09375 -11.71875 
Q 4.4375 -11.71875 7.125 -8.046875 
Q 9.8125 -4.390625 9.8125 5.078125 
z
" id="DejaVuSans-74"/>
        <path d="M 8.5 21.578125 
L 8.5 54.6875 
L 17.484375 54.6875 
L 17.484375 21.921875 
Q 17.484375 14.15625 20.5 10.265625 
Q 23.53125 6.390625 29.59375 6.390625 
Q 36.859375 6.390625 41.078125 11.03125 
Q 45.3125 15.671875 45.3125 23.6875 
L 45.3125 54.6875 
L 54.296875 54.6875 
L 54.296875 0 
L 45.3125 0 
L 45.3125 8.40625 
Q 42.046875 3.421875 37.71875 1 
Q 33.40625 -1.421875 27.6875 -1.421875 
Q 18.265625 -1.421875 13.375 4.4375 
Q 8.5 10.296875 8.5 21.578125 
z
M 31.109375 56 
z
" id="DejaVuSans-117"/>
        <path d="M 9.421875 75.984375 
L 18.40625 75.984375 
L 18.40625 0 
L 9.421875 0 
z
" id="DejaVuSans-108"/>
       </defs>
       <use xlink:href="#DejaVuSans-74"/>
       <use x="29.492188" xlink:href="#DejaVuSans-117"/>
       <use x="92.871094" xlink:href="#DejaVuSans-108"/>
      </g>
     </g>
    </g>
    <g id="xtick_2">
     <g id="line2d_3">
      <path clip-path="url(#p20532b382b)" d="M 104.934319 391.04 
L 104.934319 37.968 
" style="fill:none;stroke:#000000;stroke-dasharray:0.8,1.32;stroke-dashoffset:0;stroke-opacity:0.5;stroke-width:0.8;"/>
     </g>
     <g id="line2d_4">
      <g>
       <use style="stroke:#000000;stroke-width:0.8;" x="104.934319" xlink:href="#mb6d425d303" y="391.04"/>
      </g>
     </g>
     <g id="text_2">
      <!-- 15 -->
      <g transform="translate(98.571819 405.638438)scale(0.1 -0.1)">
       <defs>
        <path d="M 12.40625 8.296875 
L 28.515625 8.296875 
L 28.515625 63.921875 
L 10.984375 60.40625 
L 10.984375 69.390625 
L 28.421875 72.90625 
L 38.28125 72.90625 
L 38.28125 8.296875 
L 54.390625 8.296875 
L 54.390625 0 
L 12.40625 0 
z
" id="DejaVuSans-49"/>
        <path d="M 10.796875 72.90625 
L 49.515625 72.90625 
L 49.515625 64.59375 
L 19.828125 64.59375 
L 19.828125 46.734375 
Q 21.96875 47.46875 24.109375 47.828125 
Q 26.265625 48.1875 28.421875 48.1875 
Q 40.625 48.1875 47.75 41.5 
Q 54.890625 34.8125 54.890625 23.390625 
Q 54.890625 11.625 47.5625 5.09375 
Q 40.234375 -1.421875 26.90625 -1.421875 
Q 22.3125 -1.421875 17.546875 -0.640625 
Q 12.796875 0.140625 7.71875 1.703125 
L 7.71875 11.625 
Q 12.109375 9.234375 16.796875 8.0625 
Q 21.484375 6.890625 26.703125 6.890625 
Q 35.15625 6.890625 40.078125 11.328125 
Q 45.015625 15.765625 45.015625 23.390625 
Q 45.015625 31 40.078125 35.4375 
Q 35.15625 39.890625 26.703125 39.890625 
Q 22.75 39.890625 18.8125 39.015625 
Q 14.890625 38.140625 10.796875 36.28125 
z
" id="DejaVuSans-53"/>
       </defs>
       <use xlink:href="#DejaVuSans-49"/>
       <use x="63.623047" xlink:href="#DejaVuSans-53"/>
      </g>
     </g>
    </g>
    <g id="xtick_3">
     <g id="line2d_5">
      <path clip-path="url(#p20532b382b)" d="M 171.512523 391.04 
L 171.512523 37.968 
" style="fill:none;stroke:#000000;stroke-dasharray:0.8,1.32;stroke-dashoffset:0;stroke-opacity:0.5;stroke-width:0.8;"/>
     </g>
     <g id="line2d_6">
      <g>
       <use style="stroke:#000000;stroke-width:0.8;" x="171.512523" xlink:href="#mb6d425d303" y="391.04"/>
      </g>
     </g>
     <g id="text_3">
      <!-- Aug -->
      <g transform="translate(161.749242 405.638438)scale(0.1 -0.1)">
       <defs>
        <path d="M 34.1875 63.1875 
L 20.796875 26.90625 
L 47.609375 26.90625 
z
M 28.609375 72.90625 
L 39.796875 72.90625 
L 67.578125 0 
L 57.328125 0 
L 50.6875 18.703125 
L 17.828125 18.703125 
L 11.1875 0 
L 0.78125 0 
z
" id="DejaVuSans-65"/>
        <path d="M 45.40625 27.984375 
Q 45.40625 37.75 41.375 43.109375 
Q 37.359375 48.484375 30.078125 48.484375 
Q 22.859375 48.484375 18.828125 43.109375 
Q 14.796875 37.75 14.796875 27.984375 
Q 14.796875 18.265625 18.828125 12.890625 
Q 22.859375 7.515625 30.078125 7.515625 
Q 37.359375 7.515625 41.375 12.890625 
Q 45.40625 18.265625 45.40625 27.984375 
z
M 54.390625 6.78125 
Q 54.390625 -7.171875 48.1875 -13.984375 
Q 42 -20.796875 29.203125 -20.796875 
Q 24.46875 -20.796875 20.265625 -20.09375 
Q 16.0625 -19.390625 12.109375 -17.921875 
L 12.109375 -9.1875 
Q 16.0625 -11.328125 19.921875 -12.34375 
Q 23.78125 -13.375 27.78125 -13.375 
Q 36.625 -13.375 41.015625 -8.765625 
Q 45.40625 -4.15625 45.40625 5.171875 
L 45.40625 9.625 
Q 42.625 4.78125 38.28125 2.390625 
Q 33.9375 0 27.875 0 
Q 17.828125 0 11.671875 7.65625 
Q 5.515625 15.328125 5.515625 27.984375 
Q 5.515625 40.671875 11.671875 48.328125 
Q 17.828125 56 27.875 56 
Q 33.9375 56 38.28125 53.609375 
Q 42.625 51.21875 45.40625 46.390625 
L 45.40625 54.6875 
L 54.390625 54.6875 
z
" id="DejaVuSans-103"/>
       </defs>
       <use xlink:href="#DejaVuSans-65"/>
       <use x="68.408203" xlink:href="#DejaVuSans-117"/>
       <use x="131.787109" xlink:href="#DejaVuSans-103"/>
      </g>
     </g>
    </g>
    <g id="xtick_4">
     <g id="line2d_7">
      <path clip-path="url(#p20532b382b)" d="M 226.341633 391.04 
L 226.341633 37.968 
" style="fill:none;stroke:#000000;stroke-dasharray:0.8,1.32;stroke-dashoffset:0;stroke-opacity:0.5;stroke-width:0.8;"/>
     </g>
     <g id="line2d_8">
      <g>
       <use style="stroke:#000000;stroke-width:0.8;" x="226.341633" xlink:href="#mb6d425d303" y="391.04"/>
      </g>
     </g>
     <g id="text_4">
      <!-- 15 -->
      <g transform="translate(219.979133 405.638438)scale(0.1 -0.1)">
       <use xlink:href="#DejaVuSans-49"/>
       <use x="63.623047" xlink:href="#DejaVuSans-53"/>
      </g>
     </g>
    </g>
    <g id="xtick_5">
     <g id="line2d_9">
      <path clip-path="url(#p20532b382b)" d="M 292.919838 391.04 
L 292.919838 37.968 
" style="fill:none;stroke:#000000;stroke-dasharray:0.8,1.32;stroke-dashoffset:0;stroke-opacity:0.5;stroke-width:0.8;"/>
     </g>
     <g id="line2d_10">
      <g>
       <use style="stroke:#000000;stroke-width:0.8;" x="292.919838" xlink:href="#mb6d425d303" y="391.04"/>
      </g>
     </g>
     <g id="text_5">
      <!-- Sep -->
      <g transform="translate(283.494838 405.638438)scale(0.1 -0.1)">
       <defs>
        <path d="M 53.515625 70.515625 
L 53.515625 60.890625 
Q 47.90625 63.578125 42.921875 64.890625 
Q 37.9375 66.21875 33.296875 66.21875 
Q 25.25 66.21875 20.875 63.09375 
Q 16.5 59.96875 16.5 54.203125 
Q 16.5 49.359375 19.40625 46.890625 
Q 22.3125 44.4375 30.421875 42.921875 
L 36.375 41.703125 
Q 47.40625 39.59375 52.65625 34.296875 
Q 57.90625 29 57.90625 20.125 
Q 57.90625 9.515625 50.796875 4.046875 
Q 43.703125 -1.421875 29.984375 -1.421875 
Q 24.8125 -1.421875 18.96875 -0.25 
Q 13.140625 0.921875 6.890625 3.21875 
L 6.890625 13.375 
Q 12.890625 10.015625 18.65625 8.296875 
Q 24.421875 6.59375 29.984375 6.59375 
Q 38.421875 6.59375 43.015625 9.90625 
Q 47.609375 13.234375 47.609375 19.390625 
Q 47.609375 24.75 44.3125 27.78125 
Q 41.015625 30.8125 33.5 32.328125 
L 27.484375 33.5 
Q 16.453125 35.6875 11.515625 40.375 
Q 6.59375 45.0625 6.59375 53.421875 
Q 6.59375 63.09375 13.40625 68.65625 
Q 20.21875 74.21875 32.171875 74.21875 
Q 37.3125 74.21875 42.625 73.28125 
Q 47.953125 72.359375 53.515625 70.515625 
z
" id="DejaVuSans-83"/>
        <path d="M 56.203125 29.59375 
L 56.203125 25.203125 
L 14.890625 25.203125 
Q 15.484375 15.921875 20.484375 11.0625 
Q 25.484375 6.203125 34.421875 6.203125 
Q 39.59375 6.203125 44.453125 7.46875 
Q 49.3125 8.734375 54.109375 11.28125 
L 54.109375 2.78125 
Q 49.265625 0.734375 44.1875 -0.34375 
Q 39.109375 -1.421875 33.890625 -1.421875 
Q 20.796875 -1.421875 13.15625 6.1875 
Q 5.515625 13.8125 5.515625 26.8125 
Q 5.515625 40.234375 12.765625 48.109375 
Q 20.015625 56 32.328125 56 
Q 43.359375 56 49.78125 48.890625 
Q 56.203125 41.796875 56.203125 29.59375 
z
M 47.21875 32.234375 
Q 47.125 39.59375 43.09375 43.984375 
Q 39.0625 48.390625 32.421875 48.390625 
Q 24.90625 48.390625 20.390625 44.140625 
Q 15.875 39.890625 15.1875 32.171875 
z
" id="DejaVuSans-101"/>
        <path d="M 18.109375 8.203125 
L 18.109375 -20.796875 
L 9.078125 -20.796875 
L 9.078125 54.6875 
L 18.109375 54.6875 
L 18.109375 46.390625 
Q 20.953125 51.265625 25.265625 53.625 
Q 29.59375 56 35.59375 56 
Q 45.5625 56 51.78125 48.09375 
Q 58.015625 40.1875 58.015625 27.296875 
Q 58.015625 14.40625 51.78125 6.484375 
Q 45.5625 -1.421875 35.59375 -1.421875 
Q 29.59375 -1.421875 25.265625 0.953125 
Q 20.953125 3.328125 18.109375 8.203125 
z
M 48.6875 27.296875 
Q 48.6875 37.203125 44.609375 42.84375 
Q 40.53125 48.484375 33.40625 48.484375 
Q 26.265625 48.484375 22.1875 42.84375 
Q 18.109375 37.203125 18.109375 27.296875 
Q 18.109375 17.390625 22.1875 11.75 
Q 26.265625 6.109375 33.40625 6.109375 
Q 40.53125 6.109375 44.609375 11.75 
Q 48.6875 17.390625 48.6875 27.296875 
z
" id="DejaVuSans-112"/>
       </defs>
       <use xlink:href="#DejaVuSans-83"/>
       <use x="63.476562" xlink:href="#DejaVuSans-101"/>
       <use x="125" xlink:href="#DejaVuSans-112"/>
      </g>
     </g>
    </g>
    <g id="xtick_6">
     <g id="line2d_11">
      <path clip-path="url(#p20532b382b)" d="M 347.748947 391.04 
L 347.748947 37.968 
" style="fill:none;stroke:#000000;stroke-dasharray:0.8,1.32;stroke-dashoffset:0;stroke-opacity:0.5;stroke-width:0.8;"/>
     </g>
     <g id="line2d_12">
      <g>
       <use style="stroke:#000000;stroke-width:0.8;" x="347.748947" xlink:href="#mb6d425d303" y="391.04"/>
      </g>
     </g>
     <g id="text_6">
      <!-- 15 -->
      <g transform="translate(341.386447 405.638438)scale(0.1 -0.1)">
       <use xlink:href="#DejaVuSans-49"/>
       <use x="63.623047" xlink:href="#DejaVuSans-53"/>
      </g>
     </g>
    </g>
    <g id="xtick_7">
     <g id="line2d_13">
      <path clip-path="url(#p20532b382b)" d="M 410.410787 391.04 
L 410.410787 37.968 
" style="fill:none;stroke:#000000;stroke-dasharray:0.8,1.32;stroke-dashoffset:0;stroke-opacity:0.5;stroke-width:0.8;"/>
     </g>
     <g id="line2d_14">
      <g>
       <use style="stroke:#000000;stroke-width:0.8;" x="410.410787" xlink:href="#mb6d425d303" y="391.04"/>
      </g>
     </g>
     <g id="text_7">
      <!-- Oct -->
      <g transform="translate(401.765475 405.638438)scale(0.1 -0.1)">
       <defs>
        <path d="M 39.40625 66.21875 
Q 28.65625 66.21875 22.328125 58.203125 
Q 16.015625 50.203125 16.015625 36.375 
Q 16.015625 22.609375 22.328125 14.59375 
Q 28.65625 6.59375 39.40625 6.59375 
Q 50.140625 6.59375 56.421875 14.59375 
Q 62.703125 22.609375 62.703125 36.375 
Q 62.703125 50.203125 56.421875 58.203125 
Q 50.140625 66.21875 39.40625 66.21875 
z
M 39.40625 74.21875 
Q 54.734375 74.21875 63.90625 63.9375 
Q 73.09375 53.65625 73.09375 36.375 
Q 73.09375 19.140625 63.90625 8.859375 
Q 54.734375 -1.421875 39.40625 -1.421875 
Q 24.03125 -1.421875 14.8125 8.828125 
Q 5.609375 19.09375 5.609375 36.375 
Q 5.609375 53.65625 14.8125 63.9375 
Q 24.03125 74.21875 39.40625 74.21875 
z
" id="DejaVuSans-79"/>
        <path d="M 48.78125 52.59375 
L 48.78125 44.1875 
Q 44.96875 46.296875 41.140625 47.34375 
Q 37.3125 48.390625 33.40625 48.390625 
Q 24.65625 48.390625 19.8125 42.84375 
Q 14.984375 37.3125 14.984375 27.296875 
Q 14.984375 17.28125 19.8125 11.734375 
Q 24.65625 6.203125 33.40625 6.203125 
Q 37.3125 6.203125 41.140625 7.25 
Q 44.96875 8.296875 48.78125 10.40625 
L 48.78125 2.09375 
Q 45.015625 0.34375 40.984375 -0.53125 
Q 36.96875 -1.421875 32.421875 -1.421875 
Q 20.0625 -1.421875 12.78125 6.34375 
Q 5.515625 14.109375 5.515625 27.296875 
Q 5.515625 40.671875 12.859375 48.328125 
Q 20.21875 56 33.015625 56 
Q 37.15625 56 41.109375 55.140625 
Q 45.0625 54.296875 48.78125 52.59375 
z
" id="DejaVuSans-99"/>
        <path d="M 18.3125 70.21875 
L 18.3125 54.6875 
L 36.8125 54.6875 
L 36.8125 47.703125 
L 18.3125 47.703125 
L 18.3125 18.015625 
Q 18.3125 11.328125 20.140625 9.421875 
Q 21.96875 7.515625 27.59375 7.515625 
L 36.8125 7.515625 
L 36.8125 0 
L 27.59375 0 
Q 17.1875 0 13.234375 3.875 
Q 9.28125 7.765625 9.28125 18.015625 
L 9.28125 47.703125 
L 2.6875 47.703125 
L 2.6875 54.6875 
L 9.28125 54.6875 
L 9.28125 70.21875 
z
" id="DejaVuSans-116"/>
       </defs>
       <use xlink:href="#DejaVuSans-79"/>
       <use x="78.710938" xlink:href="#DejaVuSans-99"/>
       <use x="133.691406" xlink:href="#DejaVuSans-116"/>
      </g>
     </g>
    </g>
    <g id="xtick_8">
     <g id="line2d_15">
      <path clip-path="url(#p20532b382b)" d="M 465.239897 391.04 
L 465.239897 37.968 
" style="fill:none;stroke:#000000;stroke-dasharray:0.8,1.32;stroke-dashoffset:0;stroke-opacity:0.5;stroke-width:0.8;"/>
     </g>
     <g id="line2d_16">
      <g>
       <use style="stroke:#000000;stroke-width:0.8;" x="465.239897" xlink:href="#mb6d425d303" y="391.04"/>
      </g>
     </g>
     <g id="text_8">
      <!-- 15 -->
      <g transform="translate(458.877397 405.638438)scale(0.1 -0.1)">
       <use xlink:href="#DejaVuSans-49"/>
       <use x="63.623047" xlink:href="#DejaVuSans-53"/>
      </g>
     </g>
    </g>
    <g id="xtick_9">
     <g id="line2d_17">
      <path clip-path="url(#p20532b382b)" d="M 531.818101 391.04 
L 531.818101 37.968 
" style="fill:none;stroke:#000000;stroke-dasharray:0.8,1.32;stroke-dashoffset:0;stroke-opacity:0.5;stroke-width:0.8;"/>
     </g>
     <g id="line2d_18">
      <g>
       <use style="stroke:#000000;stroke-width:0.8;" x="531.818101" xlink:href="#mb6d425d303" y="391.04"/>
      </g>
     </g>
     <g id="text_9">
      <!-- Nov -->
      <g transform="translate(522.058726 405.638438)scale(0.1 -0.1)">
       <defs>
        <path d="M 9.8125 72.90625 
L 23.09375 72.90625 
L 55.421875 11.921875 
L 55.421875 72.90625 
L 64.984375 72.90625 
L 64.984375 0 
L 51.703125 0 
L 19.390625 60.984375 
L 19.390625 0 
L 9.8125 0 
z
" id="DejaVuSans-78"/>
        <path d="M 30.609375 48.390625 
Q 23.390625 48.390625 19.1875 42.75 
Q 14.984375 37.109375 14.984375 27.296875 
Q 14.984375 17.484375 19.15625 11.84375 
Q 23.34375 6.203125 30.609375 6.203125 
Q 37.796875 6.203125 41.984375 11.859375 
Q 46.1875 17.53125 46.1875 27.296875 
Q 46.1875 37.015625 41.984375 42.703125 
Q 37.796875 48.390625 30.609375 48.390625 
z
M 30.609375 56 
Q 42.328125 56 49.015625 48.375 
Q 55.71875 40.765625 55.71875 27.296875 
Q 55.71875 13.875 49.015625 6.21875 
Q 42.328125 -1.421875 30.609375 -1.421875 
Q 18.84375 -1.421875 12.171875 6.21875 
Q 5.515625 13.875 5.515625 27.296875 
Q 5.515625 40.765625 12.171875 48.375 
Q 18.84375 56 30.609375 56 
z
" id="DejaVuSans-111"/>
        <path d="M 2.984375 54.6875 
L 12.5 54.6875 
L 29.59375 8.796875 
L 46.6875 54.6875 
L 56.203125 54.6875 
L 35.6875 0 
L 23.484375 0 
z
" id="DejaVuSans-118"/>
       </defs>
       <use xlink:href="#DejaVuSans-78"/>
       <use x="74.804688" xlink:href="#DejaVuSans-111"/>
       <use x="135.986328" xlink:href="#DejaVuSans-118"/>
      </g>
     </g>
    </g>
    <g id="xtick_10">
     <g id="line2d_19">
      <path clip-path="url(#p20532b382b)" d="M 586.647211 391.04 
L 586.647211 37.968 
" style="fill:none;stroke:#000000;stroke-dasharray:0.8,1.32;stroke-dashoffset:0;stroke-opacity:0.5;stroke-width:0.8;"/>
     </g>
     <g id="line2d_20">
      <g>
       <use style="stroke:#000000;stroke-width:0.8;" x="586.647211" xlink:href="#mb6d425d303" y="391.04"/>
      </g>
     </g>
     <g id="text_10">
      <!-- 15 -->
      <g transform="translate(580.284711 405.638438)scale(0.1 -0.1)">
       <use xlink:href="#DejaVuSans-49"/>
       <use x="63.623047" xlink:href="#DejaVuSans-53"/>
      </g>
     </g>
    </g>
    <g id="xtick_11">
     <g id="line2d_21">
      <path clip-path="url(#p20532b382b)" d="M 649.309051 391.04 
L 649.309051 37.968 
" style="fill:none;stroke:#000000;stroke-dasharray:0.8,1.32;stroke-dashoffset:0;stroke-opacity:0.5;stroke-width:0.8;"/>
     </g>
     <g id="line2d_22">
      <g>
       <use style="stroke:#000000;stroke-width:0.8;" x="649.309051" xlink:href="#mb6d425d303" y="391.04"/>
      </g>
     </g>
     <g id="text_11">
      <!-- Dec -->
      <g transform="translate(639.633269 405.638438)scale(0.1 -0.1)">
       <defs>
        <path d="M 19.671875 64.796875 
L 19.671875 8.109375 
L 31.59375 8.109375 
Q 46.6875 8.109375 53.6875 14.9375 
Q 60.6875 21.78125 60.6875 36.53125 
Q 60.6875 51.171875 53.6875 57.984375 
Q 46.6875 64.796875 31.59375 64.796875 
z
M 9.8125 72.90625 
L 30.078125 72.90625 
Q 51.265625 72.90625 61.171875 64.09375 
Q 71.09375 55.28125 71.09375 36.53125 
Q 71.09375 17.671875 61.125 8.828125 
Q 51.171875 0 30.078125 0 
L 9.8125 0 
z
" id="DejaVuSans-68"/>
       </defs>
       <use xlink:href="#DejaVuSans-68"/>
       <use x="77.001953" xlink:href="#DejaVuSans-101"/>
       <use x="138.525391" xlink:href="#DejaVuSans-99"/>
      </g>
     </g>
    </g>
    <g id="xtick_12">
     <g id="line2d_23">
      <path clip-path="url(#p20532b382b)" d="M 704.13816 391.04 
L 704.13816 37.968 
" style="fill:none;stroke:#000000;stroke-dasharray:0.8,1.32;stroke-dashoffset:0;stroke-opacity:0.5;stroke-width:0.8;"/>
     </g>
     <g id="line2d_24">
      <g>
       <use style="stroke:#000000;stroke-width:0.8;" x="704.13816" xlink:href="#mb6d425d303" y="391.04"/>
      </g>
     </g>
     <g id="text_12">
      <!-- 15 -->
      <g transform="translate(697.77566 405.638438)scale(0.1 -0.1)">
       <use xlink:href="#DejaVuSans-49"/>
       <use x="63.623047" xlink:href="#DejaVuSans-53"/>
      </g>
     </g>
    </g>
    <g id="text_13">
     <!-- 2020-Dec -->
     <g transform="translate(718.390625 418.316563)scale(0.1 -0.1)">
      <defs>
       <path d="M 19.1875 8.296875 
L 53.609375 8.296875 
L 53.609375 0 
L 7.328125 0 
L 7.328125 8.296875 
Q 12.9375 14.109375 22.625 23.890625 
Q 32.328125 33.6875 34.8125 36.53125 
Q 39.546875 41.84375 41.421875 45.53125 
Q 43.3125 49.21875 43.3125 52.78125 
Q 43.3125 58.59375 39.234375 62.25 
Q 35.15625 65.921875 28.609375 65.921875 
Q 23.96875 65.921875 18.8125 64.3125 
Q 13.671875 62.703125 7.8125 59.421875 
L 7.8125 69.390625 
Q 13.765625 71.78125 18.9375 73 
Q 24.125 74.21875 28.421875 74.21875 
Q 39.75 74.21875 46.484375 68.546875 
Q 53.21875 62.890625 53.21875 53.421875 
Q 53.21875 48.921875 51.53125 44.890625 
Q 49.859375 40.875 45.40625 35.40625 
Q 44.1875 33.984375 37.640625 27.21875 
Q 31.109375 20.453125 19.1875 8.296875 
z
" id="DejaVuSans-50"/>
       <path d="M 31.78125 66.40625 
Q 24.171875 66.40625 20.328125 58.90625 
Q 16.5 51.421875 16.5 36.375 
Q 16.5 21.390625 20.328125 13.890625 
Q 24.171875 6.390625 31.78125 6.390625 
Q 39.453125 6.390625 43.28125 13.890625 
Q 47.125 21.390625 47.125 36.375 
Q 47.125 51.421875 43.28125 58.90625 
Q 39.453125 66.40625 31.78125 66.40625 
z
M 31.78125 74.21875 
Q 44.046875 74.21875 50.515625 64.515625 
Q 56.984375 54.828125 56.984375 36.375 
Q 56.984375 17.96875 50.515625 8.265625 
Q 44.046875 -1.421875 31.78125 -1.421875 
Q 19.53125 -1.421875 13.0625 8.265625 
Q 6.59375 17.96875 6.59375 36.375 
Q 6.59375 54.828125 13.0625 64.515625 
Q 19.53125 74.21875 31.78125 74.21875 
z
" id="DejaVuSans-48"/>
       <path d="M 4.890625 31.390625 
L 31.203125 31.390625 
L 31.203125 23.390625 
L 4.890625 23.390625 
z
" id="DejaVuSans-45"/>
      </defs>
      <use xlink:href="#DejaVuSans-50"/>
      <use x="63.623047" xlink:href="#DejaVuSans-48"/>
      <use x="127.246094" xlink:href="#DejaVuSans-50"/>
      <use x="190.869141" xlink:href="#DejaVuSans-48"/>
      <use x="254.492188" xlink:href="#DejaVuSans-45"/>
      <use x="290.576172" xlink:href="#DejaVuSans-68"/>
      <use x="367.578125" xlink:href="#DejaVuSans-101"/>
      <use x="429.101562" xlink:href="#DejaVuSans-99"/>
     </g>
    </g>
   </g>
   <g id="matplotlib.axis_2">
    <g id="ytick_1">
     <g id="line2d_25">
      <path clip-path="url(#p20532b382b)" d="M 50.105209 391.04 
L 766.8 391.04 
" style="fill:none;stroke:#000000;stroke-dasharray:0.8,1.32;stroke-dashoffset:0;stroke-opacity:0.5;stroke-width:0.8;"/>
     </g>
     <g id="line2d_26">
      <defs>
       <path d="M 0 0 
L -3.5 0 
" id="m96ea1cc514" style="stroke:#000000;stroke-width:0.8;"/>
      </defs>
      <g>
       <use style="stroke:#000000;stroke-width:0.8;" x="50.105209" xlink:href="#m96ea1cc514" y="391.04"/>
      </g>
     </g>
     <g id="text_14">
      <!-- 1 -->
      <g transform="translate(36.742709 394.839219)scale(0.1 -0.1)">
       <use xlink:href="#DejaVuSans-49"/>
      </g>
     </g>
    </g>
    <g id="ytick_2">
     <g id="line2d_27">
      <path clip-path="url(#p20532b382b)" d="M 50.105209 273.349333 
L 766.8 273.349333 
" style="fill:none;stroke:#000000;stroke-dasharray:0.8,1.32;stroke-dashoffset:0;stroke-opacity:0.5;stroke-width:0.8;"/>
     </g>
     <g id="line2d_28">
      <g>
       <use style="stroke:#000000;stroke-width:0.8;" x="50.105209" xlink:href="#m96ea1cc514" y="273.349333"/>
      </g>
     </g>
     <g id="text_15">
      <!-- 10 -->
      <g transform="translate(30.380209 277.148552)scale(0.1 -0.1)">
       <use xlink:href="#DejaVuSans-49"/>
       <use x="63.623047" xlink:href="#DejaVuSans-48"/>
      </g>
     </g>
    </g>
    <g id="ytick_3">
     <g id="line2d_29">
      <path clip-path="url(#p20532b382b)" d="M 50.105209 155.658667 
L 766.8 155.658667 
" style="fill:none;stroke:#000000;stroke-dasharray:0.8,1.32;stroke-dashoffset:0;stroke-opacity:0.5;stroke-width:0.8;"/>
     </g>
     <g id="line2d_30">
      <g>
       <use style="stroke:#000000;stroke-width:0.8;" x="50.105209" xlink:href="#m96ea1cc514" y="155.658667"/>
      </g>
     </g>
     <g id="text_16">
      <!-- 100 -->
      <g transform="translate(24.017709 159.457885)scale(0.1 -0.1)">
       <use xlink:href="#DejaVuSans-49"/>
       <use x="63.623047" xlink:href="#DejaVuSans-48"/>
       <use x="127.246094" xlink:href="#DejaVuSans-48"/>
      </g>
     </g>
    </g>
    <g id="ytick_4">
     <g id="line2d_31">
      <path clip-path="url(#p20532b382b)" d="M 50.105209 37.968 
L 766.8 37.968 
" style="fill:none;stroke:#000000;stroke-dasharray:0.8,1.32;stroke-dashoffset:0;stroke-opacity:0.5;stroke-width:0.8;"/>
     </g>
     <g id="line2d_32">
      <g>
       <use style="stroke:#000000;stroke-width:0.8;" x="50.105209" xlink:href="#m96ea1cc514" y="37.968"/>
      </g>
     </g>
     <g id="text_17">
      <!-- 1000 -->
      <g transform="translate(17.655209 41.767219)scale(0.1 -0.1)">
       <use xlink:href="#DejaVuSans-49"/>
       <use x="63.623047" xlink:href="#DejaVuSans-48"/>
       <use x="127.246094" xlink:href="#DejaVuSans-48"/>
       <use x="190.869141" xlink:href="#DejaVuSans-48"/>
      </g>
     </g>
    </g>
    <g id="ytick_5">
     <g id="line2d_33">
      <path clip-path="url(#p20532b382b)" d="M 50.105209 355.611579 
L 766.8 355.611579 
" style="fill:none;stroke:#000000;stroke-dasharray:0.8,1.32;stroke-dashoffset:0;stroke-opacity:0.25;stroke-width:0.8;"/>
     </g>
     <g id="line2d_34">
      <defs>
       <path d="M 0 0 
L -2 0 
" id="me4e1e029cb" style="stroke:#000000;stroke-width:0.6;"/>
      </defs>
      <g>
       <use style="stroke:#000000;stroke-width:0.6;" x="50.105209" xlink:href="#me4e1e029cb" y="355.611579"/>
      </g>
     </g>
     <g id="text_18">
      <!-- 2 -->
      <g transform="translate(40.289634 358.248237)scale(0.0694 -0.0694)">
       <use xlink:href="#DejaVuSans-50"/>
      </g>
     </g>
    </g>
    <g id="ytick_6">
     <g id="line2d_35">
      <path clip-path="url(#p20532b382b)" d="M 50.105209 334.887281 
L 766.8 334.887281 
" style="fill:none;stroke:#000000;stroke-dasharray:0.8,1.32;stroke-dashoffset:0;stroke-opacity:0.25;stroke-width:0.8;"/>
     </g>
     <g id="line2d_36">
      <g>
       <use style="stroke:#000000;stroke-width:0.6;" x="50.105209" xlink:href="#me4e1e029cb" y="334.887281"/>
      </g>
     </g>
    </g>
    <g id="ytick_7">
     <g id="line2d_37">
      <path clip-path="url(#p20532b382b)" d="M 50.105209 320.183158 
L 766.8 320.183158 
" style="fill:none;stroke:#000000;stroke-dasharray:0.8,1.32;stroke-dashoffset:0;stroke-opacity:0.25;stroke-width:0.8;"/>
     </g>
     <g id="line2d_38">
      <g>
       <use style="stroke:#000000;stroke-width:0.6;" x="50.105209" xlink:href="#me4e1e029cb" y="320.183158"/>
      </g>
     </g>
     <g id="text_19">
      <!-- 4 -->
      <g transform="translate(40.289634 322.819816)scale(0.0694 -0.0694)">
       <defs>
        <path d="M 37.796875 64.3125 
L 12.890625 25.390625 
L 37.796875 25.390625 
z
M 35.203125 72.90625 
L 47.609375 72.90625 
L 47.609375 25.390625 
L 58.015625 25.390625 
L 58.015625 17.1875 
L 47.609375 17.1875 
L 47.609375 0 
L 37.796875 0 
L 37.796875 17.1875 
L 4.890625 17.1875 
L 4.890625 26.703125 
z
" id="DejaVuSans-52"/>
       </defs>
       <use xlink:href="#DejaVuSans-52"/>
      </g>
     </g>
    </g>
    <g id="ytick_8">
     <g id="line2d_39">
      <path clip-path="url(#p20532b382b)" d="M 50.105209 308.777754 
L 766.8 308.777754 
" style="fill:none;stroke:#000000;stroke-dasharray:0.8,1.32;stroke-dashoffset:0;stroke-opacity:0.25;stroke-width:0.8;"/>
     </g>
     <g id="line2d_40">
      <g>
       <use style="stroke:#000000;stroke-width:0.6;" x="50.105209" xlink:href="#me4e1e029cb" y="308.777754"/>
      </g>
     </g>
    </g>
    <g id="ytick_9">
     <g id="line2d_41">
      <path clip-path="url(#p20532b382b)" d="M 50.105209 299.458861 
L 766.8 299.458861 
" style="fill:none;stroke:#000000;stroke-dasharray:0.8,1.32;stroke-dashoffset:0;stroke-opacity:0.25;stroke-width:0.8;"/>
     </g>
     <g id="line2d_42">
      <g>
       <use style="stroke:#000000;stroke-width:0.6;" x="50.105209" xlink:href="#me4e1e029cb" y="299.458861"/>
      </g>
     </g>
     <g id="text_20">
      <!-- 6 -->
      <g transform="translate(40.289634 302.095518)scale(0.0694 -0.0694)">
       <defs>
        <path d="M 33.015625 40.375 
Q 26.375 40.375 22.484375 35.828125 
Q 18.609375 31.296875 18.609375 23.390625 
Q 18.609375 15.53125 22.484375 10.953125 
Q 26.375 6.390625 33.015625 6.390625 
Q 39.65625 6.390625 43.53125 10.953125 
Q 47.40625 15.53125 47.40625 23.390625 
Q 47.40625 31.296875 43.53125 35.828125 
Q 39.65625 40.375 33.015625 40.375 
z
M 52.59375 71.296875 
L 52.59375 62.3125 
Q 48.875 64.0625 45.09375 64.984375 
Q 41.3125 65.921875 37.59375 65.921875 
Q 27.828125 65.921875 22.671875 59.328125 
Q 17.53125 52.734375 16.796875 39.40625 
Q 19.671875 43.65625 24.015625 45.921875 
Q 28.375 48.1875 33.59375 48.1875 
Q 44.578125 48.1875 50.953125 41.515625 
Q 57.328125 34.859375 57.328125 23.390625 
Q 57.328125 12.15625 50.6875 5.359375 
Q 44.046875 -1.421875 33.015625 -1.421875 
Q 20.359375 -1.421875 13.671875 8.265625 
Q 6.984375 17.96875 6.984375 36.375 
Q 6.984375 53.65625 15.1875 63.9375 
Q 23.390625 74.21875 37.203125 74.21875 
Q 40.921875 74.21875 44.703125 73.484375 
Q 48.484375 72.75 52.59375 71.296875 
z
" id="DejaVuSans-54"/>
       </defs>
       <use xlink:href="#DejaVuSans-54"/>
      </g>
     </g>
    </g>
    <g id="ytick_10">
     <g id="line2d_43">
      <path clip-path="url(#p20532b382b)" d="M 50.105209 291.579848 
L 766.8 291.579848 
" style="fill:none;stroke:#000000;stroke-dasharray:0.8,1.32;stroke-dashoffset:0;stroke-opacity:0.25;stroke-width:0.8;"/>
     </g>
     <g id="line2d_44">
      <g>
       <use style="stroke:#000000;stroke-width:0.6;" x="50.105209" xlink:href="#me4e1e029cb" y="291.579848"/>
      </g>
     </g>
    </g>
    <g id="ytick_11">
     <g id="line2d_45">
      <path clip-path="url(#p20532b382b)" d="M 50.105209 284.754737 
L 766.8 284.754737 
" style="fill:none;stroke:#000000;stroke-dasharray:0.8,1.32;stroke-dashoffset:0;stroke-opacity:0.25;stroke-width:0.8;"/>
     </g>
     <g id="line2d_46">
      <g>
       <use style="stroke:#000000;stroke-width:0.6;" x="50.105209" xlink:href="#me4e1e029cb" y="284.754737"/>
      </g>
     </g>
     <g id="text_21">
      <!-- 8 -->
      <g transform="translate(40.289634 287.391395)scale(0.0694 -0.0694)">
       <defs>
        <path d="M 31.78125 34.625 
Q 24.75 34.625 20.71875 30.859375 
Q 16.703125 27.09375 16.703125 20.515625 
Q 16.703125 13.921875 20.71875 10.15625 
Q 24.75 6.390625 31.78125 6.390625 
Q 38.8125 6.390625 42.859375 10.171875 
Q 46.921875 13.96875 46.921875 20.515625 
Q 46.921875 27.09375 42.890625 30.859375 
Q 38.875 34.625 31.78125 34.625 
z
M 21.921875 38.8125 
Q 15.578125 40.375 12.03125 44.71875 
Q 8.5 49.078125 8.5 55.328125 
Q 8.5 64.0625 14.71875 69.140625 
Q 20.953125 74.21875 31.78125 74.21875 
Q 42.671875 74.21875 48.875 69.140625 
Q 55.078125 64.0625 55.078125 55.328125 
Q 55.078125 49.078125 51.53125 44.71875 
Q 48 40.375 41.703125 38.8125 
Q 48.828125 37.15625 52.796875 32.3125 
Q 56.78125 27.484375 56.78125 20.515625 
Q 56.78125 9.90625 50.3125 4.234375 
Q 43.84375 -1.421875 31.78125 -1.421875 
Q 19.734375 -1.421875 13.25 4.234375 
Q 6.78125 9.90625 6.78125 20.515625 
Q 6.78125 27.484375 10.78125 32.3125 
Q 14.796875 37.15625 21.921875 38.8125 
z
M 18.3125 54.390625 
Q 18.3125 48.734375 21.84375 45.5625 
Q 25.390625 42.390625 31.78125 42.390625 
Q 38.140625 42.390625 41.71875 45.5625 
Q 45.3125 48.734375 45.3125 54.390625 
Q 45.3125 60.0625 41.71875 63.234375 
Q 38.140625 66.40625 31.78125 66.40625 
Q 25.390625 66.40625 21.84375 63.234375 
Q 18.3125 60.0625 18.3125 54.390625 
z
" id="DejaVuSans-56"/>
       </defs>
       <use xlink:href="#DejaVuSans-56"/>
      </g>
     </g>
    </g>
    <g id="ytick_12">
     <g id="line2d_47">
      <path clip-path="url(#p20532b382b)" d="M 50.105209 278.734563 
L 766.8 278.734563 
" style="fill:none;stroke:#000000;stroke-dasharray:0.8,1.32;stroke-dashoffset:0;stroke-opacity:0.25;stroke-width:0.8;"/>
     </g>
     <g id="line2d_48">
      <g>
       <use style="stroke:#000000;stroke-width:0.6;" x="50.105209" xlink:href="#me4e1e029cb" y="278.734563"/>
      </g>
     </g>
    </g>
    <g id="ytick_13">
     <g id="line2d_49">
      <path clip-path="url(#p20532b382b)" d="M 50.105209 237.920912 
L 766.8 237.920912 
" style="fill:none;stroke:#000000;stroke-dasharray:0.8,1.32;stroke-dashoffset:0;stroke-opacity:0.25;stroke-width:0.8;"/>
     </g>
     <g id="line2d_50">
      <g>
       <use style="stroke:#000000;stroke-width:0.6;" x="50.105209" xlink:href="#me4e1e029cb" y="237.920912"/>
      </g>
     </g>
     <g id="text_22">
      <!-- 20 -->
      <g transform="translate(35.874059 240.55757)scale(0.0694 -0.0694)">
       <use xlink:href="#DejaVuSans-50"/>
       <use x="63.623047" xlink:href="#DejaVuSans-48"/>
      </g>
     </g>
    </g>
    <g id="ytick_14">
     <g id="line2d_51">
      <path clip-path="url(#p20532b382b)" d="M 50.105209 217.196615 
L 766.8 217.196615 
" style="fill:none;stroke:#000000;stroke-dasharray:0.8,1.32;stroke-dashoffset:0;stroke-opacity:0.25;stroke-width:0.8;"/>
     </g>
     <g id="line2d_52">
      <g>
       <use style="stroke:#000000;stroke-width:0.6;" x="50.105209" xlink:href="#me4e1e029cb" y="217.196615"/>
      </g>
     </g>
    </g>
    <g id="ytick_15">
     <g id="line2d_53">
      <path clip-path="url(#p20532b382b)" d="M 50.105209 202.492492 
L 766.8 202.492492 
" style="fill:none;stroke:#000000;stroke-dasharray:0.8,1.32;stroke-dashoffset:0;stroke-opacity:0.25;stroke-width:0.8;"/>
     </g>
     <g id="line2d_54">
      <g>
       <use style="stroke:#000000;stroke-width:0.6;" x="50.105209" xlink:href="#me4e1e029cb" y="202.492492"/>
      </g>
     </g>
     <g id="text_23">
      <!-- 40 -->
      <g transform="translate(35.874059 205.129149)scale(0.0694 -0.0694)">
       <use xlink:href="#DejaVuSans-52"/>
       <use x="63.623047" xlink:href="#DejaVuSans-48"/>
      </g>
     </g>
    </g>
    <g id="ytick_16">
     <g id="line2d_55">
      <path clip-path="url(#p20532b382b)" d="M 50.105209 191.087088 
L 766.8 191.087088 
" style="fill:none;stroke:#000000;stroke-dasharray:0.8,1.32;stroke-dashoffset:0;stroke-opacity:0.25;stroke-width:0.8;"/>
     </g>
     <g id="line2d_56">
      <g>
       <use style="stroke:#000000;stroke-width:0.6;" x="50.105209" xlink:href="#me4e1e029cb" y="191.087088"/>
      </g>
     </g>
    </g>
    <g id="ytick_17">
     <g id="line2d_57">
      <path clip-path="url(#p20532b382b)" d="M 50.105209 181.768194 
L 766.8 181.768194 
" style="fill:none;stroke:#000000;stroke-dasharray:0.8,1.32;stroke-dashoffset:0;stroke-opacity:0.25;stroke-width:0.8;"/>
     </g>
     <g id="line2d_58">
      <g>
       <use style="stroke:#000000;stroke-width:0.6;" x="50.105209" xlink:href="#me4e1e029cb" y="181.768194"/>
      </g>
     </g>
     <g id="text_24">
      <!-- 60 -->
      <g transform="translate(35.874059 184.404852)scale(0.0694 -0.0694)">
       <use xlink:href="#DejaVuSans-54"/>
       <use x="63.623047" xlink:href="#DejaVuSans-48"/>
      </g>
     </g>
    </g>
    <g id="ytick_18">
     <g id="line2d_59">
      <path clip-path="url(#p20532b382b)" d="M 50.105209 173.889182 
L 766.8 173.889182 
" style="fill:none;stroke:#000000;stroke-dasharray:0.8,1.32;stroke-dashoffset:0;stroke-opacity:0.25;stroke-width:0.8;"/>
     </g>
     <g id="line2d_60">
      <g>
       <use style="stroke:#000000;stroke-width:0.6;" x="50.105209" xlink:href="#me4e1e029cb" y="173.889182"/>
      </g>
     </g>
    </g>
    <g id="ytick_19">
     <g id="line2d_61">
      <path clip-path="url(#p20532b382b)" d="M 50.105209 167.064071 
L 766.8 167.064071 
" style="fill:none;stroke:#000000;stroke-dasharray:0.8,1.32;stroke-dashoffset:0;stroke-opacity:0.25;stroke-width:0.8;"/>
     </g>
     <g id="line2d_62">
      <g>
       <use style="stroke:#000000;stroke-width:0.6;" x="50.105209" xlink:href="#me4e1e029cb" y="167.064071"/>
      </g>
     </g>
     <g id="text_25">
      <!-- 80 -->
      <g transform="translate(35.874059 169.700729)scale(0.0694 -0.0694)">
       <use xlink:href="#DejaVuSans-56"/>
       <use x="63.623047" xlink:href="#DejaVuSans-48"/>
      </g>
     </g>
    </g>
    <g id="ytick_20">
     <g id="line2d_63">
      <path clip-path="url(#p20532b382b)" d="M 50.105209 161.043896 
L 766.8 161.043896 
" style="fill:none;stroke:#000000;stroke-dasharray:0.8,1.32;stroke-dashoffset:0;stroke-opacity:0.25;stroke-width:0.8;"/>
     </g>
     <g id="line2d_64">
      <g>
       <use style="stroke:#000000;stroke-width:0.6;" x="50.105209" xlink:href="#me4e1e029cb" y="161.043896"/>
      </g>
     </g>
    </g>
    <g id="ytick_21">
     <g id="line2d_65">
      <path clip-path="url(#p20532b382b)" d="M 50.105209 120.230246 
L 766.8 120.230246 
" style="fill:none;stroke:#000000;stroke-dasharray:0.8,1.32;stroke-dashoffset:0;stroke-opacity:0.25;stroke-width:0.8;"/>
     </g>
     <g id="line2d_66">
      <g>
       <use style="stroke:#000000;stroke-width:0.6;" x="50.105209" xlink:href="#me4e1e029cb" y="120.230246"/>
      </g>
     </g>
     <g id="text_26">
      <!-- 200 -->
      <g transform="translate(31.458484 122.866904)scale(0.0694 -0.0694)">
       <use xlink:href="#DejaVuSans-50"/>
       <use x="63.623047" xlink:href="#DejaVuSans-48"/>
       <use x="127.246094" xlink:href="#DejaVuSans-48"/>
      </g>
     </g>
    </g>
    <g id="ytick_22">
     <g id="line2d_67">
      <path clip-path="url(#p20532b382b)" d="M 50.105209 99.505948 
L 766.8 99.505948 
" style="fill:none;stroke:#000000;stroke-dasharray:0.8,1.32;stroke-dashoffset:0;stroke-opacity:0.25;stroke-width:0.8;"/>
     </g>
     <g id="line2d_68">
      <g>
       <use style="stroke:#000000;stroke-width:0.6;" x="50.105209" xlink:href="#me4e1e029cb" y="99.505948"/>
      </g>
     </g>
    </g>
    <g id="ytick_23">
     <g id="line2d_69">
      <path clip-path="url(#p20532b382b)" d="M 50.105209 84.801825 
L 766.8 84.801825 
" style="fill:none;stroke:#000000;stroke-dasharray:0.8,1.32;stroke-dashoffset:0;stroke-opacity:0.25;stroke-width:0.8;"/>
     </g>
     <g id="line2d_70">
      <g>
       <use style="stroke:#000000;stroke-width:0.6;" x="50.105209" xlink:href="#me4e1e029cb" y="84.801825"/>
      </g>
     </g>
     <g id="text_27">
      <!-- 400 -->
      <g transform="translate(31.458484 87.438483)scale(0.0694 -0.0694)">
       <use xlink:href="#DejaVuSans-52"/>
       <use x="63.623047" xlink:href="#DejaVuSans-48"/>
       <use x="127.246094" xlink:href="#DejaVuSans-48"/>
      </g>
     </g>
    </g>
    <g id="ytick_24">
     <g id="line2d_71">
      <path clip-path="url(#p20532b382b)" d="M 50.105209 73.396421 
L 766.8 73.396421 
" style="fill:none;stroke:#000000;stroke-dasharray:0.8,1.32;stroke-dashoffset:0;stroke-opacity:0.25;stroke-width:0.8;"/>
     </g>
     <g id="line2d_72">
      <g>
       <use style="stroke:#000000;stroke-width:0.6;" x="50.105209" xlink:href="#me4e1e029cb" y="73.396421"/>
      </g>
     </g>
    </g>
    <g id="ytick_25">
     <g id="line2d_73">
      <path clip-path="url(#p20532b382b)" d="M 50.105209 64.077527 
L 766.8 64.077527 
" style="fill:none;stroke:#000000;stroke-dasharray:0.8,1.32;stroke-dashoffset:0;stroke-opacity:0.25;stroke-width:0.8;"/>
     </g>
     <g id="line2d_74">
      <g>
       <use style="stroke:#000000;stroke-width:0.6;" x="50.105209" xlink:href="#me4e1e029cb" y="64.077527"/>
      </g>
     </g>
     <g id="text_28">
      <!-- 600 -->
      <g transform="translate(31.458484 66.714185)scale(0.0694 -0.0694)">
       <use xlink:href="#DejaVuSans-54"/>
       <use x="63.623047" xlink:href="#DejaVuSans-48"/>
       <use x="127.246094" xlink:href="#DejaVuSans-48"/>
      </g>
     </g>
    </g>
    <g id="ytick_26">
     <g id="line2d_75">
      <path clip-path="url(#p20532b382b)" d="M 50.105209 56.198515 
L 766.8 56.198515 
" style="fill:none;stroke:#000000;stroke-dasharray:0.8,1.32;stroke-dashoffset:0;stroke-opacity:0.25;stroke-width:0.8;"/>
     </g>
     <g id="line2d_76">
      <g>
       <use style="stroke:#000000;stroke-width:0.6;" x="50.105209" xlink:href="#me4e1e029cb" y="56.198515"/>
      </g>
     </g>
    </g>
    <g id="ytick_27">
     <g id="line2d_77">
      <path clip-path="url(#p20532b382b)" d="M 50.105209 49.373404 
L 766.8 49.373404 
" style="fill:none;stroke:#000000;stroke-dasharray:0.8,1.32;stroke-dashoffset:0;stroke-opacity:0.25;stroke-width:0.8;"/>
     </g>
     <g id="line2d_78">
      <g>
       <use style="stroke:#000000;stroke-width:0.6;" x="50.105209" xlink:href="#me4e1e029cb" y="49.373404"/>
      </g>
     </g>
     <g id="text_29">
      <!-- 800 -->
      <g transform="translate(31.458484 52.010062)scale(0.0694 -0.0694)">
       <use xlink:href="#DejaVuSans-56"/>
       <use x="63.623047" xlink:href="#DejaVuSans-48"/>
       <use x="127.246094" xlink:href="#DejaVuSans-48"/>
      </g>
     </g>
    </g>
    <g id="ytick_28">
     <g id="line2d_79">
      <path clip-path="url(#p20532b382b)" d="M 50.105209 43.35323 
L 766.8 43.35323 
" style="fill:none;stroke:#000000;stroke-dasharray:0.8,1.32;stroke-dashoffset:0;stroke-opacity:0.25;stroke-width:0.8;"/>
     </g>
     <g id="line2d_80">
      <g>
       <use style="stroke:#000000;stroke-width:0.6;" x="50.105209" xlink:href="#me4e1e029cb" y="43.35323"/>
      </g>
     </g>
    </g>
    <g id="text_30">
     <!-- Cases -->
     <g transform="translate(11.575522 229.345406)rotate(-90)scale(0.1 -0.1)">
      <defs>
       <path d="M 64.40625 67.28125 
L 64.40625 56.890625 
Q 59.421875 61.53125 53.78125 63.8125 
Q 48.140625 66.109375 41.796875 66.109375 
Q 29.296875 66.109375 22.65625 58.46875 
Q 16.015625 50.828125 16.015625 36.375 
Q 16.015625 21.96875 22.65625 14.328125 
Q 29.296875 6.6875 41.796875 6.6875 
Q 48.140625 6.6875 53.78125 8.984375 
Q 59.421875 11.28125 64.40625 15.921875 
L 64.40625 5.609375 
Q 59.234375 2.09375 53.4375 0.328125 
Q 47.65625 -1.421875 41.21875 -1.421875 
Q 24.65625 -1.421875 15.125 8.703125 
Q 5.609375 18.84375 5.609375 36.375 
Q 5.609375 53.953125 15.125 64.078125 
Q 24.65625 74.21875 41.21875 74.21875 
Q 47.75 74.21875 53.53125 72.484375 
Q 59.328125 70.75 64.40625 67.28125 
z
" id="DejaVuSans-67"/>
       <path d="M 34.28125 27.484375 
Q 23.390625 27.484375 19.1875 25 
Q 14.984375 22.515625 14.984375 16.5 
Q 14.984375 11.71875 18.140625 8.90625 
Q 21.296875 6.109375 26.703125 6.109375 
Q 34.1875 6.109375 38.703125 11.40625 
Q 43.21875 16.703125 43.21875 25.484375 
L 43.21875 27.484375 
z
M 52.203125 31.203125 
L 52.203125 0 
L 43.21875 0 
L 43.21875 8.296875 
Q 40.140625 3.328125 35.546875 0.953125 
Q 30.953125 -1.421875 24.3125 -1.421875 
Q 15.921875 -1.421875 10.953125 3.296875 
Q 6 8.015625 6 15.921875 
Q 6 25.140625 12.171875 29.828125 
Q 18.359375 34.515625 30.609375 34.515625 
L 43.21875 34.515625 
L 43.21875 35.40625 
Q 43.21875 41.609375 39.140625 45 
Q 35.0625 48.390625 27.6875 48.390625 
Q 23 48.390625 18.546875 47.265625 
Q 14.109375 46.140625 10.015625 43.890625 
L 10.015625 52.203125 
Q 14.9375 54.109375 19.578125 55.046875 
Q 24.21875 56 28.609375 56 
Q 40.484375 56 46.34375 49.84375 
Q 52.203125 43.703125 52.203125 31.203125 
z
" id="DejaVuSans-97"/>
       <path d="M 44.28125 53.078125 
L 44.28125 44.578125 
Q 40.484375 46.53125 36.375 47.5 
Q 32.28125 48.484375 27.875 48.484375 
Q 21.1875 48.484375 17.84375 46.4375 
Q 14.5 44.390625 14.5 40.28125 
Q 14.5 37.15625 16.890625 35.375 
Q 19.28125 33.59375 26.515625 31.984375 
L 29.59375 31.296875 
Q 39.15625 29.25 43.1875 25.515625 
Q 47.21875 21.78125 47.21875 15.09375 
Q 47.21875 7.46875 41.1875 3.015625 
Q 35.15625 -1.421875 24.609375 -1.421875 
Q 20.21875 -1.421875 15.453125 -0.5625 
Q 10.6875 0.296875 5.421875 2 
L 5.421875 11.28125 
Q 10.40625 8.6875 15.234375 7.390625 
Q 20.0625 6.109375 24.8125 6.109375 
Q 31.15625 6.109375 34.5625 8.28125 
Q 37.984375 10.453125 37.984375 14.40625 
Q 37.984375 18.0625 35.515625 20.015625 
Q 33.0625 21.96875 24.703125 23.78125 
L 21.578125 24.515625 
Q 13.234375 26.265625 9.515625 29.90625 
Q 5.8125 33.546875 5.8125 39.890625 
Q 5.8125 47.609375 11.28125 51.796875 
Q 16.75 56 26.8125 56 
Q 31.78125 56 36.171875 55.265625 
Q 40.578125 54.546875 44.28125 53.078125 
z
" id="DejaVuSans-115"/>
      </defs>
      <use xlink:href="#DejaVuSans-67"/>
      <use x="69.824219" xlink:href="#DejaVuSans-97"/>
      <use x="131.103516" xlink:href="#DejaVuSans-115"/>
      <use x="183.203125" xlink:href="#DejaVuSans-101"/>
      <use x="244.726562" xlink:href="#DejaVuSans-115"/>
     </g>
    </g>
   </g>
   <g id="line2d_81">
    <path clip-path="url(#p20532b382b)" d="M -1 294.256502 
L -0.807536 294.256502 
L -0.807536 289.036418 
L 3.108829 289.036418 
L 3.108829 284.754737 
L 7.025194 284.754737 
L 7.025194 274.830956 
L 10.941559 274.830956 
L 10.941559 270.164832 
L 14.857924 270.164832 
L 14.857924 266.524222 
L 18.774289 266.524222 
L 18.774289 261.3631 
L 22.690654 261.3631 
L 22.690654 257.472235 
L 26.607019 257.472235 
L 26.607019 250.949069 
L 30.523384 250.949069 
L 30.523384 245.799925 
L 34.439749 245.799925 
L 34.439749 239.402535 
L 38.356114 239.402535 
L 38.356114 232.883699 
L 42.272479 232.883699 
L 42.272479 224.230775 
L 46.188844 224.230775 
L 46.188844 217.440589 
L 50.105209 217.440589 
L 50.105209 211.014436 
L 54.021574 211.014436 
L 54.021574 205.403259 
L 57.937939 205.403259 
L 57.937939 200.787091 
L 61.854304 200.787091 
L 61.854304 194.56135 
L 65.770669 194.56135 
L 65.770669 190.723297 
L 69.687034 190.723297 
L 69.687034 184.904908 
L 73.603399 184.904908 
L 73.603399 175.964827 
L 77.519764 175.964827 
L 77.519764 170.606764 
L 81.436129 170.606764 
L 81.436129 165.226425 
L 85.352494 165.226425 
L 85.352494 160.398936 
L 89.268859 160.398936 
L 89.268859 151.253917 
L 93.185224 151.253917 
L 93.185224 144.693257 
L 97.101589 144.693257 
L 97.101589 141.884807 
L 101.017954 141.884807 
L 101.017954 136.919566 
L 104.934319 136.919566 
L 104.934319 133.447183 
L 108.850684 133.447183 
L 108.850684 128.451148 
L 112.767049 128.451148 
L 112.767049 122.070157 
L 116.683414 122.070157 
L 116.683414 120.011661 
L 120.599779 120.011661 
L 120.599779 115.342121 
L 124.516144 115.342121 
L 124.516144 112.691374 
L 128.432509 112.691374 
L 128.432509 110.036583 
L 132.348874 110.036583 
L 132.348874 105.54438 
L 136.265239 105.54438 
L 136.265239 102.552164 
L 140.181604 102.552164 
L 140.181604 100.725167 
L 144.097969 100.725167 
L 144.097969 100.192031 
L 148.014334 100.192031 
L 148.014334 98.33892 
L 151.930699 98.33892 
L 151.930699 94.601236 
L 155.847064 94.601236 
L 155.847064 93.399307 
L 159.763429 93.399307 
L 159.763429 92.798104 
L 163.679794 92.798104 
L 163.679794 89.382118 
L 167.596158 89.382118 
L 167.596158 87.712592 
L 171.512523 87.712592 
L 171.512523 86.21772 
L 175.428888 86.21772 
L 175.428888 83.825471 
L 179.345253 83.825471 
L 179.345253 83.025851 
L 183.261618 83.025851 
L 183.261618 82.473469 
L 187.177983 82.473469 
L 187.177983 80.330131 
L 191.094348 80.330131 
L 191.094348 79.748073 
L 195.010713 79.748073 
L 195.010713 78.652006 
L 198.927078 78.652006 
L 198.927078 77.674132 
L 202.843443 77.674132 
L 202.843443 77.952761 
L 206.759808 77.952761 
L 206.759808 79.434853 
L 210.676173 79.434853 
L 210.676173 79.739806 
L 214.592538 79.739806 
L 214.592538 78.708685 
L 218.508903 78.708685 
L 218.508903 81.797736 
L 222.425268 81.797736 
L 222.425268 83.441869 
L 226.341633 83.441869 
L 226.341633 84.040832 
L 230.257998 84.040832 
L 230.257998 87.117027 
L 234.174363 87.117027 
L 234.174363 87.94501 
L 238.090728 87.94501 
L 238.090728 89.783002 
L 242.007093 89.783002 
L 242.007093 94.845051 
L 245.923458 94.845051 
L 245.923458 97.267786 
L 249.839823 97.267786 
L 249.839823 100.278443 
L 253.756188 100.278443 
L 253.756188 103.886972 
L 257.672553 103.886972 
L 257.672553 106.219915 
L 261.588918 106.219915 
L 261.588918 109.088384 
L 265.505283 109.088384 
L 265.505283 111.724016 
L 269.421648 111.724016 
L 269.421648 115.875763 
L 273.338013 115.875763 
L 273.338013 118.383796 
L 277.254378 118.383796 
L 277.254378 122.986653 
L 281.170743 122.986653 
L 281.170743 127.222527 
L 285.087108 127.222527 
L 285.087108 130.64139 
L 289.003473 130.64139 
L 289.003473 135.202804 
L 292.919838 135.202804 
L 292.919838 139.14332 
L 296.836203 139.14332 
L 296.836203 142.445563 
L 300.752568 142.445563 
L 300.752568 145.975982 
L 304.668933 145.975982 
L 304.668933 148.929481 
L 308.585298 148.929481 
L 308.585298 152.302934 
L 312.501663 152.302934 
L 312.501663 157.328549 
L 316.418028 157.328549 
L 316.418028 160.079483 
L 320.334393 160.079483 
L 320.334393 164.137496 
L 324.250758 164.137496 
L 324.250758 167.338623 
L 328.167123 167.338623 
L 328.167123 170.314135 
L 332.083488 170.314135 
L 332.083488 173.889182 
L 335.999853 173.889182 
L 335.999853 176.841375 
L 339.916217 176.841375 
L 339.916217 180.684498 
L 343.832582 180.684498 
L 343.832582 183.187217 
L 347.748947 183.187217 
L 347.748947 184.711178 
L 351.665312 184.711178 
L 351.665312 187.765555 
L 355.581677 187.765555 
L 355.581677 193.939915 
L 359.498042 193.939915 
L 359.498042 196.310313 
L 363.414407 196.310313 
L 363.414407 200.610841 
L 367.330772 200.610841 
L 367.330772 205.114215 
L 371.247137 205.114215 
L 371.247137 207.776408 
L 375.163502 207.776408 
L 375.163502 209.841837 
L 379.079867 209.841837 
L 379.079867 216.112919 
L 382.996232 216.112919 
L 382.996232 220.592784 
L 386.912597 220.592784 
L 386.912597 224.230775 
L 390.828962 224.230775 
L 390.828962 227.548117 
L 394.745327 227.548117 
L 394.745327 231.416257 
L 398.661692 231.416257 
L 398.661692 235.601278 
L 402.578057 235.601278 
L 402.578057 241.122367 
L 406.494422 241.122367 
L 406.494422 247.532715 
L 410.410787 247.532715 
L 410.410787 250.015483 
L 414.327152 250.015483 
L 414.327152 260.220876 
L 418.243517 260.220876 
L 418.243517 263.425552 
L 422.159882 263.425552 
L 422.159882 264.335589 
L 426.076247 264.335589 
L 426.076247 265.262124 
L 429.992612 265.262124 
L 429.992612 269.822942 
L 433.908977 269.822942 
L 433.908977 272.985542 
L 437.825342 272.985542 
L 437.825342 273.715732 
L 441.741707 273.715732 
L 441.741707 274.830956 
L 445.658072 274.830956 
L 445.658072 274.084776 
L 449.574437 274.084776 
L 449.574437 275.971057 
L 453.490802 275.971057 
L 453.490802 272.624322 
L 457.407167 272.624322 
L 457.407167 271.909452 
L 461.323532 271.909452 
L 461.323532 273.715732 
L 465.239897 273.715732 
L 465.239897 276.745502 
L 469.156262 276.745502 
L 469.156262 277.929626 
L 473.072627 277.929626 
L 473.072627 281.228346 
L 476.988992 281.228346 
L 476.988992 284.754737 
L 480.905357 284.754737 
L 480.905357 286.613575 
L 484.821722 286.613575 
L 484.821722 293.168963 
L 488.738087 293.168963 
L 488.738087 294.256502 
L 492.654452 294.256502 
L 492.654452 296.503563 
L 496.570817 296.503563 
L 496.570817 296.503563 
" style="fill:none;stroke:#808080;stroke-linecap:square;stroke-width:1.5;"/>
   </g>
   <g id="line2d_82">
    <path clip-path="url(#p20532b382b)" d="M 494.612634 296.503563 
L 498.528999 301.266189 
L 502.445364 309.562995 
L 506.361729 317.01672 
L 510.278094 329.091766 
L 514.194459 340.892177 
L 518.110824 346.441893 
L 522.027189 354.650581 
L 525.943554 356.631526 
L 529.859919 356.979081 
L 533.776284 359.429597 
L 537.692649 366.498588 
L 541.609014 367.473672 
L 545.525379 373.556657 
L 549.441744 386.963184 
L 553.358109 392.962286 
L 557.274474 398.961389 
L 561.190839 404.960492 
L 565.107204 410.959594 
L 569.023569 416.958697 
L 572.939934 422.957799 
L 576.856299 428.956902 
L 579.495735 433 
" style="fill:none;stroke:#808080;stroke-dasharray:5.55,2.4;stroke-dashoffset:0;stroke-width:1.5;"/>
   </g>
   <g id="line2d_83">
    <path clip-path="url(#p20532b382b)" d="M 496.570817 391.04 
L 496.570817 37.968 
" style="fill:none;stroke:#000000;stroke-dasharray:5.55,2.4;stroke-dashoffset:0;stroke-width:1.5;"/>
   </g>
   <g id="line2d_84">
    <path clip-path="url(#p20532b382b)" d="M 343.832582 2.539579 
L 398.661692 2.539579 
L 398.661692 191.087088 
L 508.319912 191.087088 
L 508.319912 308.777754 
L 590.563576 308.777754 
L 590.563576 433 
" style="fill:none;stroke:#000000;stroke-linecap:square;stroke-width:2;"/>
   </g>
   <g id="patch_3">
    <path d="M 50.105209 391.04 
L 50.105209 37.968 
" style="fill:none;stroke:#000000;stroke-linecap:square;stroke-linejoin:miter;stroke-width:0.8;"/>
   </g>
   <g id="patch_4">
    <path d="M 766.8 391.04 
L 766.8 37.968 
" style="fill:none;stroke:#000000;stroke-linecap:square;stroke-linejoin:miter;stroke-width:0.8;"/>
   </g>
   <g id="patch_5">
    <path d="M 50.105209 391.04 
L 766.8 391.04 
" style="fill:none;stroke:#000000;stroke-linecap:square;stroke-linejoin:miter;stroke-width:0.8;"/>
   </g>
   <g id="patch_6">
    <path d="M 50.105209 37.968 
L 766.8 37.968 
" style="fill:none;stroke:#000000;stroke-linecap:square;stroke-linejoin:miter;stroke-width:0.8;"/>
   </g>
   <g id="text_31">
    <!-- VIC 14 day average with Melbourne reopening targets -->
    <g transform="translate(245.755105 18.530625)scale(0.12 -0.12)">
     <defs>
      <path d="M 28.609375 0 
L 0.78125 72.90625 
L 11.078125 72.90625 
L 34.1875 11.53125 
L 57.328125 72.90625 
L 67.578125 72.90625 
L 39.796875 0 
z
" id="DejaVuSans-86"/>
      <path d="M 9.8125 72.90625 
L 19.671875 72.90625 
L 19.671875 0 
L 9.8125 0 
z
" id="DejaVuSans-73"/>
      <path id="DejaVuSans-32"/>
      <path d="M 45.40625 46.390625 
L 45.40625 75.984375 
L 54.390625 75.984375 
L 54.390625 0 
L 45.40625 0 
L 45.40625 8.203125 
Q 42.578125 3.328125 38.25 0.953125 
Q 33.9375 -1.421875 27.875 -1.421875 
Q 17.96875 -1.421875 11.734375 6.484375 
Q 5.515625 14.40625 5.515625 27.296875 
Q 5.515625 40.1875 11.734375 48.09375 
Q 17.96875 56 27.875 56 
Q 33.9375 56 38.25 53.625 
Q 42.578125 51.265625 45.40625 46.390625 
z
M 14.796875 27.296875 
Q 14.796875 17.390625 18.875 11.75 
Q 22.953125 6.109375 30.078125 6.109375 
Q 37.203125 6.109375 41.296875 11.75 
Q 45.40625 17.390625 45.40625 27.296875 
Q 45.40625 37.203125 41.296875 42.84375 
Q 37.203125 48.484375 30.078125 48.484375 
Q 22.953125 48.484375 18.875 42.84375 
Q 14.796875 37.203125 14.796875 27.296875 
z
" id="DejaVuSans-100"/>
      <path d="M 32.171875 -5.078125 
Q 28.375 -14.84375 24.75 -17.8125 
Q 21.140625 -20.796875 15.09375 -20.796875 
L 7.90625 -20.796875 
L 7.90625 -13.28125 
L 13.1875 -13.28125 
Q 16.890625 -13.28125 18.9375 -11.515625 
Q 21 -9.765625 23.484375 -3.21875 
L 25.09375 0.875 
L 2.984375 54.6875 
L 12.5 54.6875 
L 29.59375 11.921875 
L 46.6875 54.6875 
L 56.203125 54.6875 
z
" id="DejaVuSans-121"/>
      <path d="M 41.109375 46.296875 
Q 39.59375 47.171875 37.8125 47.578125 
Q 36.03125 48 33.890625 48 
Q 26.265625 48 22.1875 43.046875 
Q 18.109375 38.09375 18.109375 28.8125 
L 18.109375 0 
L 9.078125 0 
L 9.078125 54.6875 
L 18.109375 54.6875 
L 18.109375 46.1875 
Q 20.953125 51.171875 25.484375 53.578125 
Q 30.03125 56 36.53125 56 
Q 37.453125 56 38.578125 55.875 
Q 39.703125 55.765625 41.0625 55.515625 
z
" id="DejaVuSans-114"/>
      <path d="M 4.203125 54.6875 
L 13.1875 54.6875 
L 24.421875 12.015625 
L 35.59375 54.6875 
L 46.1875 54.6875 
L 57.421875 12.015625 
L 68.609375 54.6875 
L 77.59375 54.6875 
L 63.28125 0 
L 52.6875 0 
L 40.921875 44.828125 
L 29.109375 0 
L 18.5 0 
z
" id="DejaVuSans-119"/>
      <path d="M 9.421875 54.6875 
L 18.40625 54.6875 
L 18.40625 0 
L 9.421875 0 
z
M 9.421875 75.984375 
L 18.40625 75.984375 
L 18.40625 64.59375 
L 9.421875 64.59375 
z
" id="DejaVuSans-105"/>
      <path d="M 54.890625 33.015625 
L 54.890625 0 
L 45.90625 0 
L 45.90625 32.71875 
Q 45.90625 40.484375 42.875 44.328125 
Q 39.84375 48.1875 33.796875 48.1875 
Q 26.515625 48.1875 22.3125 43.546875 
Q 18.109375 38.921875 18.109375 30.90625 
L 18.109375 0 
L 9.078125 0 
L 9.078125 75.984375 
L 18.109375 75.984375 
L 18.109375 46.1875 
Q 21.34375 51.125 25.703125 53.5625 
Q 30.078125 56 35.796875 56 
Q 45.21875 56 50.046875 50.171875 
Q 54.890625 44.34375 54.890625 33.015625 
z
" id="DejaVuSans-104"/>
      <path d="M 9.8125 72.90625 
L 24.515625 72.90625 
L 43.109375 23.296875 
L 61.8125 72.90625 
L 76.515625 72.90625 
L 76.515625 0 
L 66.890625 0 
L 66.890625 64.015625 
L 48.09375 14.015625 
L 38.1875 14.015625 
L 19.390625 64.015625 
L 19.390625 0 
L 9.8125 0 
z
" id="DejaVuSans-77"/>
      <path d="M 48.6875 27.296875 
Q 48.6875 37.203125 44.609375 42.84375 
Q 40.53125 48.484375 33.40625 48.484375 
Q 26.265625 48.484375 22.1875 42.84375 
Q 18.109375 37.203125 18.109375 27.296875 
Q 18.109375 17.390625 22.1875 11.75 
Q 26.265625 6.109375 33.40625 6.109375 
Q 40.53125 6.109375 44.609375 11.75 
Q 48.6875 17.390625 48.6875 27.296875 
z
M 18.109375 46.390625 
Q 20.953125 51.265625 25.265625 53.625 
Q 29.59375 56 35.59375 56 
Q 45.5625 56 51.78125 48.09375 
Q 58.015625 40.1875 58.015625 27.296875 
Q 58.015625 14.40625 51.78125 6.484375 
Q 45.5625 -1.421875 35.59375 -1.421875 
Q 29.59375 -1.421875 25.265625 0.953125 
Q 20.953125 3.328125 18.109375 8.203125 
L 18.109375 0 
L 9.078125 0 
L 9.078125 75.984375 
L 18.109375 75.984375 
z
" id="DejaVuSans-98"/>
      <path d="M 54.890625 33.015625 
L 54.890625 0 
L 45.90625 0 
L 45.90625 32.71875 
Q 45.90625 40.484375 42.875 44.328125 
Q 39.84375 48.1875 33.796875 48.1875 
Q 26.515625 48.1875 22.3125 43.546875 
Q 18.109375 38.921875 18.109375 30.90625 
L 18.109375 0 
L 9.078125 0 
L 9.078125 54.6875 
L 18.109375 54.6875 
L 18.109375 46.1875 
Q 21.34375 51.125 25.703125 53.5625 
Q 30.078125 56 35.796875 56 
Q 45.21875 56 50.046875 50.171875 
Q 54.890625 44.34375 54.890625 33.015625 
z
" id="DejaVuSans-110"/>
     </defs>
     <use xlink:href="#DejaVuSans-86"/>
     <use x="68.408203" xlink:href="#DejaVuSans-73"/>
     <use x="97.900391" xlink:href="#DejaVuSans-67"/>
     <use x="167.724609" xlink:href="#DejaVuSans-32"/>
     <use x="199.511719" xlink:href="#DejaVuSans-49"/>
     <use x="263.134766" xlink:href="#DejaVuSans-52"/>
     <use x="326.757812" xlink:href="#DejaVuSans-32"/>
     <use x="358.544922" xlink:href="#DejaVuSans-100"/>
     <use x="422.021484" xlink:href="#DejaVuSans-97"/>
     <use x="483.300781" xlink:href="#DejaVuSans-121"/>
     <use x="542.480469" xlink:href="#DejaVuSans-32"/>
     <use x="574.267578" xlink:href="#DejaVuSans-97"/>
     <use x="635.546875" xlink:href="#DejaVuSans-118"/>
     <use x="694.726562" xlink:href="#DejaVuSans-101"/>
     <use x="756.25" xlink:href="#DejaVuSans-114"/>
     <use x="797.363281" xlink:href="#DejaVuSans-97"/>
     <use x="858.642578" xlink:href="#DejaVuSans-103"/>
     <use x="922.119141" xlink:href="#DejaVuSans-101"/>
     <use x="983.642578" xlink:href="#DejaVuSans-32"/>
     <use x="1015.429688" xlink:href="#DejaVuSans-119"/>
     <use x="1097.216797" xlink:href="#DejaVuSans-105"/>
     <use x="1125" xlink:href="#DejaVuSans-116"/>
     <use x="1164.208984" xlink:href="#DejaVuSans-104"/>
     <use x="1227.587891" xlink:href="#DejaVuSans-32"/>
     <use x="1259.375" xlink:href="#DejaVuSans-77"/>
     <use x="1345.654297" xlink:href="#DejaVuSans-101"/>
     <use x="1407.177734" xlink:href="#DejaVuSans-108"/>
     <use x="1434.960938" xlink:href="#DejaVuSans-98"/>
     <use x="1498.4375" xlink:href="#DejaVuSans-111"/>
     <use x="1559.619141" xlink:href="#DejaVuSans-117"/>
     <use x="1622.998047" xlink:href="#DejaVuSans-114"/>
     <use x="1662.361328" xlink:href="#DejaVuSans-110"/>
     <use x="1725.740234" xlink:href="#DejaVuSans-101"/>
     <use x="1787.263672" xlink:href="#DejaVuSans-32"/>
     <use x="1819.050781" xlink:href="#DejaVuSans-114"/>
     <use x="1857.914062" xlink:href="#DejaVuSans-101"/>
     <use x="1919.4375" xlink:href="#DejaVuSans-111"/>
     <use x="1980.619141" xlink:href="#DejaVuSans-112"/>
     <use x="2044.095703" xlink:href="#DejaVuSans-101"/>
     <use x="2105.619141" xlink:href="#DejaVuSans-110"/>
     <use x="2168.998047" xlink:href="#DejaVuSans-105"/>
     <use x="2196.78125" xlink:href="#DejaVuSans-110"/>
     <use x="2260.160156" xlink:href="#DejaVuSans-103"/>
     <use x="2323.636719" xlink:href="#DejaVuSans-32"/>
     <use x="2355.423828" xlink:href="#DejaVuSans-116"/>
     <use x="2394.632812" xlink:href="#DejaVuSans-97"/>
     <use x="2455.912109" xlink:href="#DejaVuSans-114"/>
     <use x="2495.275391" xlink:href="#DejaVuSans-103"/>
     <use x="2558.751953" xlink:href="#DejaVuSans-101"/>
     <use x="2620.275391" xlink:href="#DejaVuSans-116"/>
     <use x="2659.484375" xlink:href="#DejaVuSans-115"/>
    </g>
    <!-- Current average: 6.4 cases per day. Fortnightly mystery cases: 10 -->
    <g transform="translate(210.122605 31.968)scale(0.12 -0.12)">
     <defs>
      <path d="M 11.71875 12.40625 
L 22.015625 12.40625 
L 22.015625 0 
L 11.71875 0 
z
M 11.71875 51.703125 
L 22.015625 51.703125 
L 22.015625 39.3125 
L 11.71875 39.3125 
z
" id="DejaVuSans-58"/>
      <path d="M 10.6875 12.40625 
L 21 12.40625 
L 21 0 
L 10.6875 0 
z
" id="DejaVuSans-46"/>
      <path d="M 9.8125 72.90625 
L 51.703125 72.90625 
L 51.703125 64.59375 
L 19.671875 64.59375 
L 19.671875 43.109375 
L 48.578125 43.109375 
L 48.578125 34.8125 
L 19.671875 34.8125 
L 19.671875 0 
L 9.8125 0 
z
" id="DejaVuSans-70"/>
      <path d="M 52 44.1875 
Q 55.375 50.25 60.0625 53.125 
Q 64.75 56 71.09375 56 
Q 79.640625 56 84.28125 50.015625 
Q 88.921875 44.046875 88.921875 33.015625 
L 88.921875 0 
L 79.890625 0 
L 79.890625 32.71875 
Q 79.890625 40.578125 77.09375 44.375 
Q 74.3125 48.1875 68.609375 48.1875 
Q 61.625 48.1875 57.5625 43.546875 
Q 53.515625 38.921875 53.515625 30.90625 
L 53.515625 0 
L 44.484375 0 
L 44.484375 32.71875 
Q 44.484375 40.625 41.703125 44.40625 
Q 38.921875 48.1875 33.109375 48.1875 
Q 26.21875 48.1875 22.15625 43.53125 
Q 18.109375 38.875 18.109375 30.90625 
L 18.109375 0 
L 9.078125 0 
L 9.078125 54.6875 
L 18.109375 54.6875 
L 18.109375 46.1875 
Q 21.1875 51.21875 25.484375 53.609375 
Q 29.78125 56 35.6875 56 
Q 41.65625 56 45.828125 52.96875 
Q 50 49.953125 52 44.1875 
z
" id="DejaVuSans-109"/>
     </defs>
     <use xlink:href="#DejaVuSans-67"/>
     <use x="69.824219" xlink:href="#DejaVuSans-117"/>
     <use x="133.203125" xlink:href="#DejaVuSans-114"/>
     <use x="172.566406" xlink:href="#DejaVuSans-114"/>
     <use x="211.429688" xlink:href="#DejaVuSans-101"/>
     <use x="272.953125" xlink:href="#DejaVuSans-110"/>
     <use x="336.332031" xlink:href="#DejaVuSans-116"/>
     <use x="375.541016" xlink:href="#DejaVuSans-32"/>
     <use x="407.328125" xlink:href="#DejaVuSans-97"/>
     <use x="468.607422" xlink:href="#DejaVuSans-118"/>
     <use x="527.787109" xlink:href="#DejaVuSans-101"/>
     <use x="589.310547" xlink:href="#DejaVuSans-114"/>
     <use x="630.423828" xlink:href="#DejaVuSans-97"/>
     <use x="691.703125" xlink:href="#DejaVuSans-103"/>
     <use x="755.179688" xlink:href="#DejaVuSans-101"/>
     <use x="816.703125" xlink:href="#DejaVuSans-58"/>
     <use x="850.394531" xlink:href="#DejaVuSans-32"/>
     <use x="882.181641" xlink:href="#DejaVuSans-54"/>
     <use x="945.804688" xlink:href="#DejaVuSans-46"/>
     <use x="977.591797" xlink:href="#DejaVuSans-52"/>
     <use x="1041.214844" xlink:href="#DejaVuSans-32"/>
     <use x="1073.001953" xlink:href="#DejaVuSans-99"/>
     <use x="1127.982422" xlink:href="#DejaVuSans-97"/>
     <use x="1189.261719" xlink:href="#DejaVuSans-115"/>
     <use x="1241.361328" xlink:href="#DejaVuSans-101"/>
     <use x="1302.884766" xlink:href="#DejaVuSans-115"/>
     <use x="1354.984375" xlink:href="#DejaVuSans-32"/>
     <use x="1386.771484" xlink:href="#DejaVuSans-112"/>
     <use x="1450.248047" xlink:href="#DejaVuSans-101"/>
     <use x="1511.771484" xlink:href="#DejaVuSans-114"/>
     <use x="1552.884766" xlink:href="#DejaVuSans-32"/>
     <use x="1584.671875" xlink:href="#DejaVuSans-100"/>
     <use x="1648.148438" xlink:href="#DejaVuSans-97"/>
     <use x="1709.427734" xlink:href="#DejaVuSans-121"/>
     <use x="1754.357422" xlink:href="#DejaVuSans-46"/>
     <use x="1786.144531" xlink:href="#DejaVuSans-32"/>
     <use x="1817.931641" xlink:href="#DejaVuSans-70"/>
     <use x="1871.826172" xlink:href="#DejaVuSans-111"/>
     <use x="1933.007812" xlink:href="#DejaVuSans-114"/>
     <use x="1974.121094" xlink:href="#DejaVuSans-116"/>
     <use x="2013.330078" xlink:href="#DejaVuSans-110"/>
     <use x="2076.708984" xlink:href="#DejaVuSans-105"/>
     <use x="2104.492188" xlink:href="#DejaVuSans-103"/>
     <use x="2167.96875" xlink:href="#DejaVuSans-104"/>
     <use x="2231.347656" xlink:href="#DejaVuSans-116"/>
     <use x="2270.556641" xlink:href="#DejaVuSans-108"/>
     <use x="2298.339844" xlink:href="#DejaVuSans-121"/>
     <use x="2357.519531" xlink:href="#DejaVuSans-32"/>
     <use x="2389.306641" xlink:href="#DejaVuSans-109"/>
     <use x="2486.71875" xlink:href="#DejaVuSans-121"/>
     <use x="2545.898438" xlink:href="#DejaVuSans-115"/>
     <use x="2597.998047" xlink:href="#DejaVuSans-116"/>
     <use x="2637.207031" xlink:href="#DejaVuSans-101"/>
     <use x="2698.730469" xlink:href="#DejaVuSans-114"/>
     <use x="2739.84375" xlink:href="#DejaVuSans-121"/>
     <use x="2799.023438" xlink:href="#DejaVuSans-32"/>
     <use x="2830.810547" xlink:href="#DejaVuSans-99"/>
     <use x="2885.791016" xlink:href="#DejaVuSans-97"/>
     <use x="2947.070312" xlink:href="#DejaVuSans-115"/>
     <use x="2999.169922" xlink:href="#DejaVuSans-101"/>
     <use x="3060.693359" xlink:href="#DejaVuSans-115"/>
     <use x="3112.792969" xlink:href="#DejaVuSans-58"/>
     <use x="3146.484375" xlink:href="#DejaVuSans-32"/>
     <use x="3178.271484" xlink:href="#DejaVuSans-49"/>
     <use x="3241.894531" xlink:href="#DejaVuSans-48"/>
    </g>
   </g>
   <g id="line2d_85">
    <path clip-path="url(#p20532b382b)" d="M 308.585298 120.230246 
L 308.585298 120.230246 
L 312.501663 120.230246 
L 312.501663 121.787089 
L 316.418028 121.787089 
L 316.418028 153.654002 
L 332.083488 153.654002 
L 332.083488 158.821267 
L 335.999853 158.821267 
L 335.999853 165.18242 
L 339.916217 165.18242 
L 339.916217 165.801972 
L 343.832582 165.801972 
L 343.832582 164.570288 
L 347.748947 164.570288 
L 347.748947 171.74429 
L 351.665312 171.74429 
L 351.665312 178.469475 
L 355.581677 178.469475 
L 355.581677 189.082422 
L 359.498042 189.082422 
L 359.498042 194.249688 
L 363.414407 194.249688 
L 363.414407 196.472317 
L 367.330772 196.472317 
L 367.330772 201.230393 
L 371.247137 201.230393 
L 371.247137 206.477294 
L 375.163502 206.477294 
L 375.163502 210.799225 
L 379.079867 210.799225 
L 379.079867 215.520648 
L 382.996232 215.520648 
L 382.996232 215.520648 
L 386.912597 215.520648 
L 386.912597 215.520648 
L 390.828962 215.520648 
L 390.828962 222.581844 
L 394.745327 222.581844 
L 394.745327 235.42713 
L 398.661692 235.42713 
L 398.661692 240.542636 
L 402.578057 240.542636 
L 402.578057 256.151427 
L 406.494422 256.151427 
L 406.494422 268.477801 
L 410.410787 268.477801 
L 410.410787 259.939264 
L 418.243517 259.939264 
L 418.243517 259.939264 
L 422.159882 259.939264 
L 422.159882 264.03044 
L 426.076247 264.03044 
L 426.076247 256.151427 
L 429.992612 256.151427 
L 429.992612 264.03044 
L 433.908977 264.03044 
L 433.908977 273.349333 
L 437.825342 273.349333 
L 437.825342 273.349333 
L 441.741707 273.349333 
L 441.741707 268.477801 
L 445.658072 268.477801 
L 445.658072 259.939264 
L 449.574437 259.939264 
L 449.574437 256.151427 
L 453.490802 256.151427 
L 453.490802 252.625036 
L 457.407167 252.625036 
L 457.407167 246.227646 
L 461.323532 246.227646 
L 461.323532 246.227646 
L 465.239897 246.227646 
L 465.239897 252.625036 
L 469.156262 252.625036 
L 469.156262 252.625036 
L 473.072627 252.625036 
L 473.072627 259.939264 
L 476.988992 259.939264 
L 476.988992 273.349333 
L 480.905357 273.349333 
L 480.905357 273.349333 
L 484.821722 273.349333 
" style="fill:none;stroke:#0000ff;stroke-linecap:square;stroke-width:1.5;"/>
   </g>
   <g id="legend_1">
    <g id="patch_7">
     <path d="M 443.698438 134.03675 
L 759.8 134.03675 
Q 761.8 134.03675 761.8 132.03675 
L 761.8 44.968 
Q 761.8 42.968 759.8 42.968 
L 443.698438 42.968 
Q 441.698438 42.968 441.698438 44.968 
L 441.698438 132.03675 
Q 441.698438 134.03675 443.698438 134.03675 
z
" style="fill:#ffffff;opacity:0.8;stroke:#cccccc;stroke-linejoin:miter;"/>
    </g>
    <g id="line2d_86">
     <path d="M 445.698438 51.066437 
L 465.698438 51.066437 
" style="fill:none;stroke:#808080;stroke-linecap:square;stroke-width:1.5;"/>
    </g>
    <g id="line2d_87"/>
    <g id="text_32">
     <!-- 14d average daily cases -->
     <g transform="translate(473.698438 54.566437)scale(0.1 -0.1)">
      <use xlink:href="#DejaVuSans-49"/>
      <use x="63.623047" xlink:href="#DejaVuSans-52"/>
      <use x="127.246094" xlink:href="#DejaVuSans-100"/>
      <use x="190.722656" xlink:href="#DejaVuSans-32"/>
      <use x="222.509766" xlink:href="#DejaVuSans-97"/>
      <use x="283.789062" xlink:href="#DejaVuSans-118"/>
      <use x="342.96875" xlink:href="#DejaVuSans-101"/>
      <use x="404.492188" xlink:href="#DejaVuSans-114"/>
      <use x="445.605469" xlink:href="#DejaVuSans-97"/>
      <use x="506.884766" xlink:href="#DejaVuSans-103"/>
      <use x="570.361328" xlink:href="#DejaVuSans-101"/>
      <use x="631.884766" xlink:href="#DejaVuSans-32"/>
      <use x="663.671875" xlink:href="#DejaVuSans-100"/>
      <use x="727.148438" xlink:href="#DejaVuSans-97"/>
      <use x="788.427734" xlink:href="#DejaVuSans-105"/>
      <use x="816.210938" xlink:href="#DejaVuSans-108"/>
      <use x="843.994141" xlink:href="#DejaVuSans-121"/>
      <use x="903.173828" xlink:href="#DejaVuSans-32"/>
      <use x="934.960938" xlink:href="#DejaVuSans-99"/>
      <use x="989.941406" xlink:href="#DejaVuSans-97"/>
      <use x="1051.220703" xlink:href="#DejaVuSans-115"/>
      <use x="1103.320312" xlink:href="#DejaVuSans-101"/>
      <use x="1164.84375" xlink:href="#DejaVuSans-115"/>
     </g>
    </g>
    <g id="line2d_88">
     <path d="M 445.698438 65.744562 
L 465.698438 65.744562 
" style="fill:none;stroke:#808080;stroke-dasharray:5.55,2.4;stroke-dashoffset:0;stroke-width:1.5;"/>
    </g>
    <g id="line2d_89"/>
    <g id="text_33">
     <!-- 14d average (trend) -->
     <g transform="translate(473.698438 69.244562)scale(0.1 -0.1)">
      <defs>
       <path d="M 31 75.875 
Q 24.46875 64.65625 21.28125 53.65625 
Q 18.109375 42.671875 18.109375 31.390625 
Q 18.109375 20.125 21.3125 9.0625 
Q 24.515625 -2 31 -13.1875 
L 23.1875 -13.1875 
Q 15.875 -1.703125 12.234375 9.375 
Q 8.59375 20.453125 8.59375 31.390625 
Q 8.59375 42.28125 12.203125 53.3125 
Q 15.828125 64.359375 23.1875 75.875 
z
" id="DejaVuSans-40"/>
       <path d="M 8.015625 75.875 
L 15.828125 75.875 
Q 23.140625 64.359375 26.78125 53.3125 
Q 30.421875 42.28125 30.421875 31.390625 
Q 30.421875 20.453125 26.78125 9.375 
Q 23.140625 -1.703125 15.828125 -13.1875 
L 8.015625 -13.1875 
Q 14.5 -2 17.703125 9.0625 
Q 20.90625 20.125 20.90625 31.390625 
Q 20.90625 42.671875 17.703125 53.65625 
Q 14.5 64.65625 8.015625 75.875 
z
" id="DejaVuSans-41"/>
      </defs>
      <use xlink:href="#DejaVuSans-49"/>
      <use x="63.623047" xlink:href="#DejaVuSans-52"/>
      <use x="127.246094" xlink:href="#DejaVuSans-100"/>
      <use x="190.722656" xlink:href="#DejaVuSans-32"/>
      <use x="222.509766" xlink:href="#DejaVuSans-97"/>
      <use x="283.789062" xlink:href="#DejaVuSans-118"/>
      <use x="342.96875" xlink:href="#DejaVuSans-101"/>
      <use x="404.492188" xlink:href="#DejaVuSans-114"/>
      <use x="445.605469" xlink:href="#DejaVuSans-97"/>
      <use x="506.884766" xlink:href="#DejaVuSans-103"/>
      <use x="570.361328" xlink:href="#DejaVuSans-101"/>
      <use x="631.884766" xlink:href="#DejaVuSans-32"/>
      <use x="663.671875" xlink:href="#DejaVuSans-40"/>
      <use x="702.685547" xlink:href="#DejaVuSans-116"/>
      <use x="741.894531" xlink:href="#DejaVuSans-114"/>
      <use x="780.757812" xlink:href="#DejaVuSans-101"/>
      <use x="842.28125" xlink:href="#DejaVuSans-110"/>
      <use x="905.660156" xlink:href="#DejaVuSans-100"/>
      <use x="969.136719" xlink:href="#DejaVuSans-41"/>
     </g>
    </g>
    <g id="patch_8">
     <path d="M 445.698438 83.922687 
L 465.698438 83.922687 
L 465.698438 76.922687 
L 445.698438 76.922687 
z
" style="fill:#808080;opacity:0.5;"/>
    </g>
    <g id="text_34">
     <!-- Trend uncertainty -->
     <g transform="translate(473.698438 83.922687)scale(0.1 -0.1)">
      <defs>
       <path d="M -0.296875 72.90625 
L 61.375 72.90625 
L 61.375 64.59375 
L 35.5 64.59375 
L 35.5 0 
L 25.59375 0 
L 25.59375 64.59375 
L -0.296875 64.59375 
z
" id="DejaVuSans-84"/>
      </defs>
      <use xlink:href="#DejaVuSans-84"/>
      <use x="46.333984" xlink:href="#DejaVuSans-114"/>
      <use x="85.197266" xlink:href="#DejaVuSans-101"/>
      <use x="146.720703" xlink:href="#DejaVuSans-110"/>
      <use x="210.099609" xlink:href="#DejaVuSans-100"/>
      <use x="273.576172" xlink:href="#DejaVuSans-32"/>
      <use x="305.363281" xlink:href="#DejaVuSans-117"/>
      <use x="368.742188" xlink:href="#DejaVuSans-110"/>
      <use x="432.121094" xlink:href="#DejaVuSans-99"/>
      <use x="487.101562" xlink:href="#DejaVuSans-101"/>
      <use x="548.625" xlink:href="#DejaVuSans-114"/>
      <use x="589.738281" xlink:href="#DejaVuSans-116"/>
      <use x="628.947266" xlink:href="#DejaVuSans-97"/>
      <use x="690.226562" xlink:href="#DejaVuSans-105"/>
      <use x="718.009766" xlink:href="#DejaVuSans-110"/>
      <use x="781.388672" xlink:href="#DejaVuSans-116"/>
      <use x="820.597656" xlink:href="#DejaVuSans-121"/>
     </g>
    </g>
    <g id="line2d_90">
     <path d="M 445.698438 95.100812 
L 465.698438 95.100812 
" style="fill:none;stroke:#000000;stroke-linecap:square;stroke-width:2;"/>
    </g>
    <g id="line2d_91"/>
    <g id="text_35">
     <!-- Required target -->
     <g transform="translate(473.698438 98.600812)scale(0.1 -0.1)">
      <defs>
       <path d="M 44.390625 34.1875 
Q 47.5625 33.109375 50.5625 29.59375 
Q 53.5625 26.078125 56.59375 19.921875 
L 66.609375 0 
L 56 0 
L 46.6875 18.703125 
Q 43.0625 26.03125 39.671875 28.421875 
Q 36.28125 30.8125 30.421875 30.8125 
L 19.671875 30.8125 
L 19.671875 0 
L 9.8125 0 
L 9.8125 72.90625 
L 32.078125 72.90625 
Q 44.578125 72.90625 50.734375 67.671875 
Q 56.890625 62.453125 56.890625 51.90625 
Q 56.890625 45.015625 53.6875 40.46875 
Q 50.484375 35.9375 44.390625 34.1875 
z
M 19.671875 64.796875 
L 19.671875 38.921875 
L 32.078125 38.921875 
Q 39.203125 38.921875 42.84375 42.21875 
Q 46.484375 45.515625 46.484375 51.90625 
Q 46.484375 58.296875 42.84375 61.546875 
Q 39.203125 64.796875 32.078125 64.796875 
z
" id="DejaVuSans-82"/>
       <path d="M 14.796875 27.296875 
Q 14.796875 17.390625 18.875 11.75 
Q 22.953125 6.109375 30.078125 6.109375 
Q 37.203125 6.109375 41.296875 11.75 
Q 45.40625 17.390625 45.40625 27.296875 
Q 45.40625 37.203125 41.296875 42.84375 
Q 37.203125 48.484375 30.078125 48.484375 
Q 22.953125 48.484375 18.875 42.84375 
Q 14.796875 37.203125 14.796875 27.296875 
z
M 45.40625 8.203125 
Q 42.578125 3.328125 38.25 0.953125 
Q 33.9375 -1.421875 27.875 -1.421875 
Q 17.96875 -1.421875 11.734375 6.484375 
Q 5.515625 14.40625 5.515625 27.296875 
Q 5.515625 40.1875 11.734375 48.09375 
Q 17.96875 56 27.875 56 
Q 33.9375 56 38.25 53.625 
Q 42.578125 51.265625 45.40625 46.390625 
L 45.40625 54.6875 
L 54.390625 54.6875 
L 54.390625 -20.796875 
L 45.40625 -20.796875 
z
" id="DejaVuSans-113"/>
      </defs>
      <use xlink:href="#DejaVuSans-82"/>
      <use x="64.982422" xlink:href="#DejaVuSans-101"/>
      <use x="126.505859" xlink:href="#DejaVuSans-113"/>
      <use x="189.982422" xlink:href="#DejaVuSans-117"/>
      <use x="253.361328" xlink:href="#DejaVuSans-105"/>
      <use x="281.144531" xlink:href="#DejaVuSans-114"/>
      <use x="320.007812" xlink:href="#DejaVuSans-101"/>
      <use x="381.53125" xlink:href="#DejaVuSans-100"/>
      <use x="445.007812" xlink:href="#DejaVuSans-32"/>
      <use x="476.794922" xlink:href="#DejaVuSans-116"/>
      <use x="516.003906" xlink:href="#DejaVuSans-97"/>
      <use x="577.283203" xlink:href="#DejaVuSans-114"/>
      <use x="616.646484" xlink:href="#DejaVuSans-103"/>
      <use x="680.123047" xlink:href="#DejaVuSans-101"/>
      <use x="741.646484" xlink:href="#DejaVuSans-116"/>
     </g>
    </g>
    <g id="line2d_92">
     <path d="M 445.698438 109.778937 
L 465.698438 109.778937 
" style="fill:none;stroke:#0000ff;stroke-linecap:square;stroke-width:1.5;"/>
    </g>
    <g id="line2d_93"/>
    <g id="text_36">
     <!-- 14d total mystery cases* (DHHS) -->
     <g transform="translate(473.698438 113.278937)scale(0.1 -0.1)">
      <defs>
       <path d="M 47.015625 60.890625 
L 29.5 51.421875 
L 47.015625 41.890625 
L 44.1875 37.109375 
L 27.78125 47.015625 
L 27.78125 28.609375 
L 22.21875 28.609375 
L 22.21875 47.015625 
L 5.8125 37.109375 
L 2.984375 41.890625 
L 20.515625 51.421875 
L 2.984375 60.890625 
L 5.8125 65.71875 
L 22.21875 55.8125 
L 22.21875 74.21875 
L 27.78125 74.21875 
L 27.78125 55.8125 
L 44.1875 65.71875 
z
" id="DejaVuSans-42"/>
       <path d="M 9.8125 72.90625 
L 19.671875 72.90625 
L 19.671875 43.015625 
L 55.515625 43.015625 
L 55.515625 72.90625 
L 65.375 72.90625 
L 65.375 0 
L 55.515625 0 
L 55.515625 34.71875 
L 19.671875 34.71875 
L 19.671875 0 
L 9.8125 0 
z
" id="DejaVuSans-72"/>
      </defs>
      <use xlink:href="#DejaVuSans-49"/>
      <use x="63.623047" xlink:href="#DejaVuSans-52"/>
      <use x="127.246094" xlink:href="#DejaVuSans-100"/>
      <use x="190.722656" xlink:href="#DejaVuSans-32"/>
      <use x="222.509766" xlink:href="#DejaVuSans-116"/>
      <use x="261.71875" xlink:href="#DejaVuSans-111"/>
      <use x="322.900391" xlink:href="#DejaVuSans-116"/>
      <use x="362.109375" xlink:href="#DejaVuSans-97"/>
      <use x="423.388672" xlink:href="#DejaVuSans-108"/>
      <use x="451.171875" xlink:href="#DejaVuSans-32"/>
      <use x="482.958984" xlink:href="#DejaVuSans-109"/>
      <use x="580.371094" xlink:href="#DejaVuSans-121"/>
      <use x="639.550781" xlink:href="#DejaVuSans-115"/>
      <use x="691.650391" xlink:href="#DejaVuSans-116"/>
      <use x="730.859375" xlink:href="#DejaVuSans-101"/>
      <use x="792.382812" xlink:href="#DejaVuSans-114"/>
      <use x="833.496094" xlink:href="#DejaVuSans-121"/>
      <use x="892.675781" xlink:href="#DejaVuSans-32"/>
      <use x="924.462891" xlink:href="#DejaVuSans-99"/>
      <use x="979.443359" xlink:href="#DejaVuSans-97"/>
      <use x="1040.722656" xlink:href="#DejaVuSans-115"/>
      <use x="1092.822266" xlink:href="#DejaVuSans-101"/>
      <use x="1154.345703" xlink:href="#DejaVuSans-115"/>
      <use x="1206.445312" xlink:href="#DejaVuSans-42"/>
      <use x="1256.445312" xlink:href="#DejaVuSans-32"/>
      <use x="1288.232422" xlink:href="#DejaVuSans-40"/>
      <use x="1327.246094" xlink:href="#DejaVuSans-68"/>
      <use x="1404.248047" xlink:href="#DejaVuSans-72"/>
      <use x="1479.443359" xlink:href="#DejaVuSans-72"/>
      <use x="1554.638672" xlink:href="#DejaVuSans-83"/>
      <use x="1618.115234" xlink:href="#DejaVuSans-41"/>
     </g>
    </g>
    <g id="line2d_94">
     <path d="M 445.698438 124.457062 
L 465.698438 124.457062 
" style="fill:none;stroke:#000000;stroke-dasharray:5.55,2.4;stroke-dashoffset:0;stroke-width:1.5;"/>
    </g>
    <g id="line2d_95"/>
    <g id="text_37">
     <!-- Today (Oct 22) -->
     <g transform="translate(473.698438 127.957062)scale(0.1 -0.1)">
      <use xlink:href="#DejaVuSans-84"/>
      <use x="44.083984" xlink:href="#DejaVuSans-111"/>
      <use x="105.265625" xlink:href="#DejaVuSans-100"/>
      <use x="168.742188" xlink:href="#DejaVuSans-97"/>
      <use x="230.021484" xlink:href="#DejaVuSans-121"/>
      <use x="289.201172" xlink:href="#DejaVuSans-32"/>
      <use x="320.988281" xlink:href="#DejaVuSans-40"/>
      <use x="360.001953" xlink:href="#DejaVuSans-79"/>
      <use x="438.712891" xlink:href="#DejaVuSans-99"/>
      <use x="493.693359" xlink:href="#DejaVuSans-116"/>
      <use x="532.902344" xlink:href="#DejaVuSans-32"/>
      <use x="564.689453" xlink:href="#DejaVuSans-50"/>
      <use x="628.3125" xlink:href="#DejaVuSans-50"/>
      <use x="691.935547" xlink:href="#DejaVuSans-41"/>
     </g>
    </g>
    <g id="patch_9">
     <path d="M 659.4125 54.566437 
L 679.4125 54.566437 
L 679.4125 47.566437 
L 659.4125 47.566437 
z
" style="fill:#ff0000;opacity:0.5;"/>
    </g>
    <g id="text_38">
     <!-- First step -->
     <g transform="translate(687.4125 54.566437)scale(0.1 -0.1)">
      <use xlink:href="#DejaVuSans-70"/>
      <use x="50.269531" xlink:href="#DejaVuSans-105"/>
      <use x="78.052734" xlink:href="#DejaVuSans-114"/>
      <use x="119.166016" xlink:href="#DejaVuSans-115"/>
      <use x="171.265625" xlink:href="#DejaVuSans-116"/>
      <use x="210.474609" xlink:href="#DejaVuSans-32"/>
      <use x="242.261719" xlink:href="#DejaVuSans-115"/>
      <use x="294.361328" xlink:href="#DejaVuSans-116"/>
      <use x="333.570312" xlink:href="#DejaVuSans-101"/>
      <use x="395.09375" xlink:href="#DejaVuSans-112"/>
     </g>
    </g>
    <g id="patch_10">
     <path d="M 659.4125 69.244562 
L 679.4125 69.244562 
L 679.4125 62.244562 
L 659.4125 62.244562 
z
" style="fill:#ffa500;opacity:0.5;"/>
    </g>
    <g id="text_39">
     <!-- Second step -->
     <g transform="translate(687.4125 69.244562)scale(0.1 -0.1)">
      <use xlink:href="#DejaVuSans-83"/>
      <use x="63.476562" xlink:href="#DejaVuSans-101"/>
      <use x="125" xlink:href="#DejaVuSans-99"/>
      <use x="179.980469" xlink:href="#DejaVuSans-111"/>
      <use x="241.162109" xlink:href="#DejaVuSans-110"/>
      <use x="304.541016" xlink:href="#DejaVuSans-100"/>
      <use x="368.017578" xlink:href="#DejaVuSans-32"/>
      <use x="399.804688" xlink:href="#DejaVuSans-115"/>
      <use x="451.904297" xlink:href="#DejaVuSans-116"/>
      <use x="491.113281" xlink:href="#DejaVuSans-101"/>
      <use x="552.636719" xlink:href="#DejaVuSans-112"/>
     </g>
    </g>
    <g id="patch_11">
     <path d="M 659.4125 83.922687 
L 679.4125 83.922687 
L 679.4125 76.922687 
L 659.4125 76.922687 
z
" style="fill:#ffd200;opacity:0.5;"/>
    </g>
    <g id="text_40">
     <!-- Step 2.5 -->
     <g transform="translate(687.4125 83.922687)scale(0.1 -0.1)">
      <use xlink:href="#DejaVuSans-83"/>
      <use x="63.476562" xlink:href="#DejaVuSans-116"/>
      <use x="102.685547" xlink:href="#DejaVuSans-101"/>
      <use x="164.208984" xlink:href="#DejaVuSans-112"/>
      <use x="227.685547" xlink:href="#DejaVuSans-32"/>
      <use x="259.472656" xlink:href="#DejaVuSans-50"/>
      <use x="323.095703" xlink:href="#DejaVuSans-46"/>
      <use x="354.882812" xlink:href="#DejaVuSans-53"/>
     </g>
    </g>
    <g id="patch_12">
     <path d="M 659.4125 98.600812 
L 679.4125 98.600812 
L 679.4125 91.600812 
L 659.4125 91.600812 
z
" style="fill:#ffff00;opacity:0.5;"/>
    </g>
    <g id="text_41">
     <!-- Third step -->
     <g transform="translate(687.4125 98.600812)scale(0.1 -0.1)">
      <use xlink:href="#DejaVuSans-84"/>
      <use x="61.083984" xlink:href="#DejaVuSans-104"/>
      <use x="124.462891" xlink:href="#DejaVuSans-105"/>
      <use x="152.246094" xlink:href="#DejaVuSans-114"/>
      <use x="191.609375" xlink:href="#DejaVuSans-100"/>
      <use x="255.085938" xlink:href="#DejaVuSans-32"/>
      <use x="286.873047" xlink:href="#DejaVuSans-115"/>
      <use x="338.972656" xlink:href="#DejaVuSans-116"/>
      <use x="378.181641" xlink:href="#DejaVuSans-101"/>
      <use x="439.705078" xlink:href="#DejaVuSans-112"/>
     </g>
    </g>
    <g id="patch_13">
     <path d="M 659.4125 113.278937 
L 679.4125 113.278937 
L 679.4125 106.278937 
L 659.4125 106.278937 
z
" style="fill:#008000;opacity:0.5;"/>
    </g>
    <g id="text_42">
     <!-- Last step -->
     <g transform="translate(687.4125 113.278937)scale(0.1 -0.1)">
      <defs>
       <path d="M 9.8125 72.90625 
L 19.671875 72.90625 
L 19.671875 8.296875 
L 55.171875 8.296875 
L 55.171875 0 
L 9.8125 0 
z
" id="DejaVuSans-76"/>
      </defs>
      <use xlink:href="#DejaVuSans-76"/>
      <use x="55.712891" xlink:href="#DejaVuSans-97"/>
      <use x="116.992188" xlink:href="#DejaVuSans-115"/>
      <use x="169.091797" xlink:href="#DejaVuSans-116"/>
      <use x="208.300781" xlink:href="#DejaVuSans-32"/>
      <use x="240.087891" xlink:href="#DejaVuSans-115"/>
      <use x="292.1875" xlink:href="#DejaVuSans-116"/>
      <use x="331.396484" xlink:href="#DejaVuSans-101"/>
      <use x="392.919922" xlink:href="#DejaVuSans-112"/>
     </g>
    </g>
    <g id="patch_14">
     <path d="M 659.4125 127.957062 
L 679.4125 127.957062 
L 679.4125 120.957062 
L 659.4125 120.957062 
z
" style="fill:#008000;opacity:0.25;"/>
    </g>
    <g id="text_43">
     <!-- COVID normal -->
     <g transform="translate(687.4125 127.957062)scale(0.1 -0.1)">
      <use xlink:href="#DejaVuSans-67"/>
      <use x="69.824219" xlink:href="#DejaVuSans-79"/>
      <use x="146.785156" xlink:href="#DejaVuSans-86"/>
      <use x="215.193359" xlink:href="#DejaVuSans-73"/>
      <use x="244.685547" xlink:href="#DejaVuSans-68"/>
      <use x="321.6875" xlink:href="#DejaVuSans-32"/>
      <use x="353.474609" xlink:href="#DejaVuSans-110"/>
      <use x="416.853516" xlink:href="#DejaVuSans-111"/>
      <use x="478.035156" xlink:href="#DejaVuSans-114"/>
      <use x="517.398438" xlink:href="#DejaVuSans-109"/>
      <use x="614.810547" xlink:href="#DejaVuSans-97"/>
      <use x="676.089844" xlink:href="#DejaVuSans-108"/>
     </g>
    </g>
   </g>
  </g>
  <g id="text_44">
   <g id="patch_15">
    <path d="M 439.2068 156.668503 
L 654.062694 156.668503 
L 654.062694 141.901484 
L 439.2068 141.901484 
z
" style="fill:#ffffff;opacity:0.8;"/>
   </g>
   <!-- * 14d mystery cases must be below 5 to move to third step -->
   <g transform="translate(443.232 151.2)scale(0.0694 -0.0694)">
    <use xlink:href="#DejaVuSans-42"/>
    <use x="50" xlink:href="#DejaVuSans-32"/>
    <use x="81.787109" xlink:href="#DejaVuSans-49"/>
    <use x="145.410156" xlink:href="#DejaVuSans-52"/>
    <use x="209.033203" xlink:href="#DejaVuSans-100"/>
    <use x="272.509766" xlink:href="#DejaVuSans-32"/>
    <use x="304.296875" xlink:href="#DejaVuSans-109"/>
    <use x="401.708984" xlink:href="#DejaVuSans-121"/>
    <use x="460.888672" xlink:href="#DejaVuSans-115"/>
    <use x="512.988281" xlink:href="#DejaVuSans-116"/>
    <use x="552.197266" xlink:href="#DejaVuSans-101"/>
    <use x="613.720703" xlink:href="#DejaVuSans-114"/>
    <use x="654.833984" xlink:href="#DejaVuSans-121"/>
    <use x="714.013672" xlink:href="#DejaVuSans-32"/>
    <use x="745.800781" xlink:href="#DejaVuSans-99"/>
    <use x="800.78125" xlink:href="#DejaVuSans-97"/>
    <use x="862.060547" xlink:href="#DejaVuSans-115"/>
    <use x="914.160156" xlink:href="#DejaVuSans-101"/>
    <use x="975.683594" xlink:href="#DejaVuSans-115"/>
    <use x="1027.783203" xlink:href="#DejaVuSans-32"/>
    <use x="1059.570312" xlink:href="#DejaVuSans-109"/>
    <use x="1156.982422" xlink:href="#DejaVuSans-117"/>
    <use x="1220.361328" xlink:href="#DejaVuSans-115"/>
    <use x="1272.460938" xlink:href="#DejaVuSans-116"/>
    <use x="1311.669922" xlink:href="#DejaVuSans-32"/>
    <use x="1343.457031" xlink:href="#DejaVuSans-98"/>
    <use x="1406.933594" xlink:href="#DejaVuSans-101"/>
    <use x="1468.457031" xlink:href="#DejaVuSans-32"/>
    <use x="1500.244141" xlink:href="#DejaVuSans-98"/>
    <use x="1563.720703" xlink:href="#DejaVuSans-101"/>
    <use x="1625.244141" xlink:href="#DejaVuSans-108"/>
    <use x="1653.027344" xlink:href="#DejaVuSans-111"/>
    <use x="1714.208984" xlink:href="#DejaVuSans-119"/>
    <use x="1795.996094" xlink:href="#DejaVuSans-32"/>
    <use x="1827.783203" xlink:href="#DejaVuSans-53"/>
    <use x="1891.40625" xlink:href="#DejaVuSans-32"/>
    <use x="1923.193359" xlink:href="#DejaVuSans-116"/>
    <use x="1962.402344" xlink:href="#DejaVuSans-111"/>
    <use x="2023.583984" xlink:href="#DejaVuSans-32"/>
    <use x="2055.371094" xlink:href="#DejaVuSans-109"/>
    <use x="2152.783203" xlink:href="#DejaVuSans-111"/>
    <use x="2213.964844" xlink:href="#DejaVuSans-118"/>
    <use x="2273.144531" xlink:href="#DejaVuSans-101"/>
    <use x="2334.667969" xlink:href="#DejaVuSans-32"/>
    <use x="2366.455078" xlink:href="#DejaVuSans-116"/>
    <use x="2405.664062" xlink:href="#DejaVuSans-111"/>
    <use x="2466.845703" xlink:href="#DejaVuSans-32"/>
    <use x="2498.632812" xlink:href="#DejaVuSans-116"/>
    <use x="2537.841797" xlink:href="#DejaVuSans-104"/>
    <use x="2601.220703" xlink:href="#DejaVuSans-105"/>
    <use x="2629.003906" xlink:href="#DejaVuSans-114"/>
    <use x="2668.367188" xlink:href="#DejaVuSans-100"/>
    <use x="2731.84375" xlink:href="#DejaVuSans-32"/>
    <use x="2763.630859" xlink:href="#DejaVuSans-115"/>
    <use x="2815.730469" xlink:href="#DejaVuSans-116"/>
    <use x="2854.939453" xlink:href="#DejaVuSans-101"/>
    <use x="2916.462891" xlink:href="#DejaVuSans-112"/>
   </g>
  </g>
 </g>
 <defs>
  <clipPath id="p20532b382b">
   <rect height="353.072" width="716.694791" x="50.105209" y="37.968"/>
  </clipPath>
 </defs>
</svg>
