<?xml version="1.0" encoding="utf-8" standalone="no"?>
<!DOCTYPE svg PUBLIC "-//W3C//DTD SVG 1.1//EN"
  "http://www.w3.org/Graphics/SVG/1.1/DTD/svg11.dtd">
<!-- Created with matplotlib (https://matplotlib.org/) -->
<svg height="504pt" version="1.1" viewBox="0 0 777.6 504" width="777.6pt" xmlns="http://www.w3.org/2000/svg" xmlns:xlink="http://www.w3.org/1999/xlink">
 <metadata>
  <rdf:RDF xmlns:cc="http://creativecommons.org/ns#" xmlns:dc="http://purl.org/dc/elements/1.1/" xmlns:rdf="http://www.w3.org/1999/02/22-rdf-syntax-ns#">
   <cc:Work>
    <dc:type rdf:resource="http://purl.org/dc/dcmitype/StillImage"/>
    <dc:date>2021-01-03T22:49:21.181375</dc:date>
    <dc:format>image/svg+xml</dc:format>
    <dc:creator>
     <cc:Agent>
      <dc:title>Matplotlib v3.3.3, https://matplotlib.org/</dc:title>
     </cc:Agent>
    </dc:creator>
   </cc:Work>
  </rdf:RDF>
 </metadata>
 <defs>
  <style type="text/css">*{stroke-linecap:butt;stroke-linejoin:round;}</style>
 </defs>
 <g id="figure_1">
  <g id="patch_1">
   <path d="M 0 504 
L 777.6 504 
L 777.6 0 
L 0 0 
z
" style="fill:#ffffff;"/>
  </g>
  <g id="axes_1">
   <g id="patch_2">
    <path d="M 54.978125 463.84375 
L 766.8 463.84375 
L 766.8 25.918125 
L 54.978125 25.918125 
z
" style="fill:#ffffff;"/>
   </g>
   <g id="PolyCollection_1">
    <path clip-path="url(#pf806a7c25e)" d="M 401.16472 102150.154021 
L 346.708402 102150.154021 
L 346.708402 25.918125 
L 401.16472 25.918125 
L 401.16472 25.918125 
L 401.16472 102150.154021 
z
" style="fill:#ff0000;fill-opacity:0.5;"/>
   </g>
   <g id="PolyCollection_2">
    <path clip-path="url(#pf806a7c25e)" d="M 482.849197 102150.154021 
L 401.16472 102150.154021 
L 401.16472 25.918125 
L 482.849197 25.918125 
L 482.849197 25.918125 
L 482.849197 102150.154021 
z
" style="fill:#ffa500;fill-opacity:0.5;"/>
   </g>
   <g id="PolyCollection_3">
    <path clip-path="url(#pf806a7c25e)" d="M 482.849197 102150.154021 
L 517.856831 102150.154021 
L 517.856831 25.918125 
L 482.849197 25.918125 
L 482.849197 25.918125 
L 482.849197 102150.154021 
z
" style="fill:#ffd200;fill-opacity:0.5;"/>
   </g>
   <g id="PolyCollection_4">
    <path clip-path="url(#pf806a7c25e)" d="M 618.989993 102150.154021 
L 517.856831 102150.154021 
L 517.856831 25.918125 
L 618.989993 25.918125 
L 618.989993 25.918125 
L 618.989993 102150.154021 
z
" style="fill:#ffff00;fill-opacity:0.5;"/>
   </g>
   <g id="PolyCollection_5">
    <path clip-path="url(#pf806a7c25e)" d="M 673.446311 102150.154021 
L 618.989993 102150.154021 
L 618.989993 25.918125 
L 673.446311 25.918125 
L 673.446311 25.918125 
L 673.446311 102150.154021 
z
" style="fill:#008000;fill-opacity:0.5;"/>
   </g>
   <g id="PolyCollection_6">
    <path clip-path="url(#pf806a7c25e)" d="M 766.8 102150.154021 
L 673.446311 102150.154021 
L 673.446311 25.918125 
L 766.8 25.918125 
L 766.8 25.918125 
L 766.8 102150.154021 
z
" style="fill:#008000;fill-opacity:0.25;"/>
   </g>
   <g id="matplotlib.axis_1">
    <g id="xtick_1">
     <g id="line2d_1">
      <path clip-path="url(#pf806a7c25e)" d="M 54.978125 463.84375 
L 54.978125 25.918125 
" style="fill:none;stroke:#000000;stroke-dasharray:0.8,1.32;stroke-dashoffset:0;stroke-opacity:0.5;stroke-width:0.8;"/>
     </g>
     <g id="line2d_2">
      <defs>
       <path d="M 0 0 
L 0 3.5 
" id="m67a2a145ea" style="stroke:#000000;stroke-width:0.8;"/>
      </defs>
      <g>
       <use style="stroke:#000000;stroke-width:0.8;" x="54.978125" xlink:href="#m67a2a145ea" y="463.84375"/>
      </g>
     </g>
     <g id="text_1">
      <!-- Jul -->
      <g transform="translate(48.945312 478.442187)scale(0.1 -0.1)">
       <defs>
        <path d="M 9.8125 72.90625 
L 19.671875 72.90625 
L 19.671875 5.078125 
Q 19.671875 -8.109375 14.671875 -14.0625 
Q 9.671875 -20.015625 -1.421875 -20.015625 
L -5.171875 -20.015625 
L -5.171875 -11.71875 
L -2.09375 -11.71875 
Q 4.4375 -11.71875 7.125 -8.046875 
Q 9.8125 -4.390625 9.8125 5.078125 
z
" id="DejaVuSans-74"/>
        <path d="M 8.5 21.578125 
L 8.5 54.6875 
L 17.484375 54.6875 
L 17.484375 21.921875 
Q 17.484375 14.15625 20.5 10.265625 
Q 23.53125 6.390625 29.59375 6.390625 
Q 36.859375 6.390625 41.078125 11.03125 
Q 45.3125 15.671875 45.3125 23.6875 
L 45.3125 54.6875 
L 54.296875 54.6875 
L 54.296875 0 
L 45.3125 0 
L 45.3125 8.40625 
Q 42.046875 3.421875 37.71875 1 
Q 33.40625 -1.421875 27.6875 -1.421875 
Q 18.265625 -1.421875 13.375 4.4375 
Q 8.5 10.296875 8.5 21.578125 
z
M 31.109375 56 
z
" id="DejaVuSans-117"/>
        <path d="M 9.421875 75.984375 
L 18.40625 75.984375 
L 18.40625 0 
L 9.421875 0 
z
" id="DejaVuSans-108"/>
       </defs>
       <use xlink:href="#DejaVuSans-74"/>
       <use x="29.492188" xlink:href="#DejaVuSans-117"/>
       <use x="92.871094" xlink:href="#DejaVuSans-108"/>
      </g>
     </g>
    </g>
    <g id="xtick_2">
     <g id="line2d_3">
      <path clip-path="url(#pf806a7c25e)" d="M 109.434443 463.84375 
L 109.434443 25.918125 
" style="fill:none;stroke:#000000;stroke-dasharray:0.8,1.32;stroke-dashoffset:0;stroke-opacity:0.5;stroke-width:0.8;"/>
     </g>
     <g id="line2d_4">
      <g>
       <use style="stroke:#000000;stroke-width:0.8;" x="109.434443" xlink:href="#m67a2a145ea" y="463.84375"/>
      </g>
     </g>
     <g id="text_2">
      <!-- 15 -->
      <g transform="translate(103.071943 478.442187)scale(0.1 -0.1)">
       <defs>
        <path d="M 12.40625 8.296875 
L 28.515625 8.296875 
L 28.515625 63.921875 
L 10.984375 60.40625 
L 10.984375 69.390625 
L 28.421875 72.90625 
L 38.28125 72.90625 
L 38.28125 8.296875 
L 54.390625 8.296875 
L 54.390625 0 
L 12.40625 0 
z
" id="DejaVuSans-49"/>
        <path d="M 10.796875 72.90625 
L 49.515625 72.90625 
L 49.515625 64.59375 
L 19.828125 64.59375 
L 19.828125 46.734375 
Q 21.96875 47.46875 24.109375 47.828125 
Q 26.265625 48.1875 28.421875 48.1875 
Q 40.625 48.1875 47.75 41.5 
Q 54.890625 34.8125 54.890625 23.390625 
Q 54.890625 11.625 47.5625 5.09375 
Q 40.234375 -1.421875 26.90625 -1.421875 
Q 22.3125 -1.421875 17.546875 -0.640625 
Q 12.796875 0.140625 7.71875 1.703125 
L 7.71875 11.625 
Q 12.109375 9.234375 16.796875 8.0625 
Q 21.484375 6.890625 26.703125 6.890625 
Q 35.15625 6.890625 40.078125 11.328125 
Q 45.015625 15.765625 45.015625 23.390625 
Q 45.015625 31 40.078125 35.4375 
Q 35.15625 39.890625 26.703125 39.890625 
Q 22.75 39.890625 18.8125 39.015625 
Q 14.890625 38.140625 10.796875 36.28125 
z
" id="DejaVuSans-53"/>
       </defs>
       <use xlink:href="#DejaVuSans-49"/>
       <use x="63.623047" xlink:href="#DejaVuSans-53"/>
      </g>
     </g>
    </g>
    <g id="xtick_3">
     <g id="line2d_5">
      <path clip-path="url(#pf806a7c25e)" d="M 175.559973 463.84375 
L 175.559973 25.918125 
" style="fill:none;stroke:#000000;stroke-dasharray:0.8,1.32;stroke-dashoffset:0;stroke-opacity:0.5;stroke-width:0.8;"/>
     </g>
     <g id="line2d_6">
      <g>
       <use style="stroke:#000000;stroke-width:0.8;" x="175.559973" xlink:href="#m67a2a145ea" y="463.84375"/>
      </g>
     </g>
     <g id="text_3">
      <!-- Aug -->
      <g transform="translate(165.796691 478.442187)scale(0.1 -0.1)">
       <defs>
        <path d="M 34.1875 63.1875 
L 20.796875 26.90625 
L 47.609375 26.90625 
z
M 28.609375 72.90625 
L 39.796875 72.90625 
L 67.578125 0 
L 57.328125 0 
L 50.6875 18.703125 
L 17.828125 18.703125 
L 11.1875 0 
L 0.78125 0 
z
" id="DejaVuSans-65"/>
        <path d="M 45.40625 27.984375 
Q 45.40625 37.75 41.375 43.109375 
Q 37.359375 48.484375 30.078125 48.484375 
Q 22.859375 48.484375 18.828125 43.109375 
Q 14.796875 37.75 14.796875 27.984375 
Q 14.796875 18.265625 18.828125 12.890625 
Q 22.859375 7.515625 30.078125 7.515625 
Q 37.359375 7.515625 41.375 12.890625 
Q 45.40625 18.265625 45.40625 27.984375 
z
M 54.390625 6.78125 
Q 54.390625 -7.171875 48.1875 -13.984375 
Q 42 -20.796875 29.203125 -20.796875 
Q 24.46875 -20.796875 20.265625 -20.09375 
Q 16.0625 -19.390625 12.109375 -17.921875 
L 12.109375 -9.1875 
Q 16.0625 -11.328125 19.921875 -12.34375 
Q 23.78125 -13.375 27.78125 -13.375 
Q 36.625 -13.375 41.015625 -8.765625 
Q 45.40625 -4.15625 45.40625 5.171875 
L 45.40625 9.625 
Q 42.625 4.78125 38.28125 2.390625 
Q 33.9375 0 27.875 0 
Q 17.828125 0 11.671875 7.65625 
Q 5.515625 15.328125 5.515625 27.984375 
Q 5.515625 40.671875 11.671875 48.328125 
Q 17.828125 56 27.875 56 
Q 33.9375 56 38.28125 53.609375 
Q 42.625 51.21875 45.40625 46.390625 
L 45.40625 54.6875 
L 54.390625 54.6875 
z
" id="DejaVuSans-103"/>
       </defs>
       <use xlink:href="#DejaVuSans-65"/>
       <use x="68.408203" xlink:href="#DejaVuSans-117"/>
       <use x="131.787109" xlink:href="#DejaVuSans-103"/>
      </g>
     </g>
    </g>
    <g id="xtick_4">
     <g id="line2d_7">
      <path clip-path="url(#pf806a7c25e)" d="M 230.016291 463.84375 
L 230.016291 25.918125 
" style="fill:none;stroke:#000000;stroke-dasharray:0.8,1.32;stroke-dashoffset:0;stroke-opacity:0.5;stroke-width:0.8;"/>
     </g>
     <g id="line2d_8">
      <g>
       <use style="stroke:#000000;stroke-width:0.8;" x="230.016291" xlink:href="#m67a2a145ea" y="463.84375"/>
      </g>
     </g>
     <g id="text_4">
      <!-- 15 -->
      <g transform="translate(223.653791 478.442187)scale(0.1 -0.1)">
       <use xlink:href="#DejaVuSans-49"/>
       <use x="63.623047" xlink:href="#DejaVuSans-53"/>
      </g>
     </g>
    </g>
    <g id="xtick_5">
     <g id="line2d_9">
      <path clip-path="url(#pf806a7c25e)" d="M 296.14182 463.84375 
L 296.14182 25.918125 
" style="fill:none;stroke:#000000;stroke-dasharray:0.8,1.32;stroke-dashoffset:0;stroke-opacity:0.5;stroke-width:0.8;"/>
     </g>
     <g id="line2d_10">
      <g>
       <use style="stroke:#000000;stroke-width:0.8;" x="296.14182" xlink:href="#m67a2a145ea" y="463.84375"/>
      </g>
     </g>
     <g id="text_5">
      <!-- Sep -->
      <g transform="translate(286.71682 478.442187)scale(0.1 -0.1)">
       <defs>
        <path d="M 53.515625 70.515625 
L 53.515625 60.890625 
Q 47.90625 63.578125 42.921875 64.890625 
Q 37.9375 66.21875 33.296875 66.21875 
Q 25.25 66.21875 20.875 63.09375 
Q 16.5 59.96875 16.5 54.203125 
Q 16.5 49.359375 19.40625 46.890625 
Q 22.3125 44.4375 30.421875 42.921875 
L 36.375 41.703125 
Q 47.40625 39.59375 52.65625 34.296875 
Q 57.90625 29 57.90625 20.125 
Q 57.90625 9.515625 50.796875 4.046875 
Q 43.703125 -1.421875 29.984375 -1.421875 
Q 24.8125 -1.421875 18.96875 -0.25 
Q 13.140625 0.921875 6.890625 3.21875 
L 6.890625 13.375 
Q 12.890625 10.015625 18.65625 8.296875 
Q 24.421875 6.59375 29.984375 6.59375 
Q 38.421875 6.59375 43.015625 9.90625 
Q 47.609375 13.234375 47.609375 19.390625 
Q 47.609375 24.75 44.3125 27.78125 
Q 41.015625 30.8125 33.5 32.328125 
L 27.484375 33.5 
Q 16.453125 35.6875 11.515625 40.375 
Q 6.59375 45.0625 6.59375 53.421875 
Q 6.59375 63.09375 13.40625 68.65625 
Q 20.21875 74.21875 32.171875 74.21875 
Q 37.3125 74.21875 42.625 73.28125 
Q 47.953125 72.359375 53.515625 70.515625 
z
" id="DejaVuSans-83"/>
        <path d="M 56.203125 29.59375 
L 56.203125 25.203125 
L 14.890625 25.203125 
Q 15.484375 15.921875 20.484375 11.0625 
Q 25.484375 6.203125 34.421875 6.203125 
Q 39.59375 6.203125 44.453125 7.46875 
Q 49.3125 8.734375 54.109375 11.28125 
L 54.109375 2.78125 
Q 49.265625 0.734375 44.1875 -0.34375 
Q 39.109375 -1.421875 33.890625 -1.421875 
Q 20.796875 -1.421875 13.15625 6.1875 
Q 5.515625 13.8125 5.515625 26.8125 
Q 5.515625 40.234375 12.765625 48.109375 
Q 20.015625 56 32.328125 56 
Q 43.359375 56 49.78125 48.890625 
Q 56.203125 41.796875 56.203125 29.59375 
z
M 47.21875 32.234375 
Q 47.125 39.59375 43.09375 43.984375 
Q 39.0625 48.390625 32.421875 48.390625 
Q 24.90625 48.390625 20.390625 44.140625 
Q 15.875 39.890625 15.1875 32.171875 
z
" id="DejaVuSans-101"/>
        <path d="M 18.109375 8.203125 
L 18.109375 -20.796875 
L 9.078125 -20.796875 
L 9.078125 54.6875 
L 18.109375 54.6875 
L 18.109375 46.390625 
Q 20.953125 51.265625 25.265625 53.625 
Q 29.59375 56 35.59375 56 
Q 45.5625 56 51.78125 48.09375 
Q 58.015625 40.1875 58.015625 27.296875 
Q 58.015625 14.40625 51.78125 6.484375 
Q 45.5625 -1.421875 35.59375 -1.421875 
Q 29.59375 -1.421875 25.265625 0.953125 
Q 20.953125 3.328125 18.109375 8.203125 
z
M 48.6875 27.296875 
Q 48.6875 37.203125 44.609375 42.84375 
Q 40.53125 48.484375 33.40625 48.484375 
Q 26.265625 48.484375 22.1875 42.84375 
Q 18.109375 37.203125 18.109375 27.296875 
Q 18.109375 17.390625 22.1875 11.75 
Q 26.265625 6.109375 33.40625 6.109375 
Q 40.53125 6.109375 44.609375 11.75 
Q 48.6875 17.390625 48.6875 27.296875 
z
" id="DejaVuSans-112"/>
       </defs>
       <use xlink:href="#DejaVuSans-83"/>
       <use x="63.476562" xlink:href="#DejaVuSans-101"/>
       <use x="125" xlink:href="#DejaVuSans-112"/>
      </g>
     </g>
    </g>
    <g id="xtick_6">
     <g id="line2d_11">
      <path clip-path="url(#pf806a7c25e)" d="M 350.598139 463.84375 
L 350.598139 25.918125 
" style="fill:none;stroke:#000000;stroke-dasharray:0.8,1.32;stroke-dashoffset:0;stroke-opacity:0.5;stroke-width:0.8;"/>
     </g>
     <g id="line2d_12">
      <g>
       <use style="stroke:#000000;stroke-width:0.8;" x="350.598139" xlink:href="#m67a2a145ea" y="463.84375"/>
      </g>
     </g>
     <g id="text_6">
      <!-- 15 -->
      <g transform="translate(344.235639 478.442187)scale(0.1 -0.1)">
       <use xlink:href="#DejaVuSans-49"/>
       <use x="63.623047" xlink:href="#DejaVuSans-53"/>
      </g>
     </g>
    </g>
    <g id="xtick_7">
     <g id="line2d_13">
      <path clip-path="url(#pf806a7c25e)" d="M 412.833931 463.84375 
L 412.833931 25.918125 
" style="fill:none;stroke:#000000;stroke-dasharray:0.8,1.32;stroke-dashoffset:0;stroke-opacity:0.5;stroke-width:0.8;"/>
     </g>
     <g id="line2d_14">
      <g>
       <use style="stroke:#000000;stroke-width:0.8;" x="412.833931" xlink:href="#m67a2a145ea" y="463.84375"/>
      </g>
     </g>
     <g id="text_7">
      <!-- Oct -->
      <g transform="translate(404.188619 478.442187)scale(0.1 -0.1)">
       <defs>
        <path d="M 39.40625 66.21875 
Q 28.65625 66.21875 22.328125 58.203125 
Q 16.015625 50.203125 16.015625 36.375 
Q 16.015625 22.609375 22.328125 14.59375 
Q 28.65625 6.59375 39.40625 6.59375 
Q 50.140625 6.59375 56.421875 14.59375 
Q 62.703125 22.609375 62.703125 36.375 
Q 62.703125 50.203125 56.421875 58.203125 
Q 50.140625 66.21875 39.40625 66.21875 
z
M 39.40625 74.21875 
Q 54.734375 74.21875 63.90625 63.9375 
Q 73.09375 53.65625 73.09375 36.375 
Q 73.09375 19.140625 63.90625 8.859375 
Q 54.734375 -1.421875 39.40625 -1.421875 
Q 24.03125 -1.421875 14.8125 8.828125 
Q 5.609375 19.09375 5.609375 36.375 
Q 5.609375 53.65625 14.8125 63.9375 
Q 24.03125 74.21875 39.40625 74.21875 
z
" id="DejaVuSans-79"/>
        <path d="M 48.78125 52.59375 
L 48.78125 44.1875 
Q 44.96875 46.296875 41.140625 47.34375 
Q 37.3125 48.390625 33.40625 48.390625 
Q 24.65625 48.390625 19.8125 42.84375 
Q 14.984375 37.3125 14.984375 27.296875 
Q 14.984375 17.28125 19.8125 11.734375 
Q 24.65625 6.203125 33.40625 6.203125 
Q 37.3125 6.203125 41.140625 7.25 
Q 44.96875 8.296875 48.78125 10.40625 
L 48.78125 2.09375 
Q 45.015625 0.34375 40.984375 -0.53125 
Q 36.96875 -1.421875 32.421875 -1.421875 
Q 20.0625 -1.421875 12.78125 6.34375 
Q 5.515625 14.109375 5.515625 27.296875 
Q 5.515625 40.671875 12.859375 48.328125 
Q 20.21875 56 33.015625 56 
Q 37.15625 56 41.109375 55.140625 
Q 45.0625 54.296875 48.78125 52.59375 
z
" id="DejaVuSans-99"/>
        <path d="M 18.3125 70.21875 
L 18.3125 54.6875 
L 36.8125 54.6875 
L 36.8125 47.703125 
L 18.3125 47.703125 
L 18.3125 18.015625 
Q 18.3125 11.328125 20.140625 9.421875 
Q 21.96875 7.515625 27.59375 7.515625 
L 36.8125 7.515625 
L 36.8125 0 
L 27.59375 0 
Q 17.1875 0 13.234375 3.875 
Q 9.28125 7.765625 9.28125 18.015625 
L 9.28125 47.703125 
L 2.6875 47.703125 
L 2.6875 54.6875 
L 9.28125 54.6875 
L 9.28125 70.21875 
z
" id="DejaVuSans-116"/>
       </defs>
       <use xlink:href="#DejaVuSans-79"/>
       <use x="78.710938" xlink:href="#DejaVuSans-99"/>
       <use x="133.691406" xlink:href="#DejaVuSans-116"/>
      </g>
     </g>
    </g>
    <g id="xtick_8">
     <g id="line2d_15">
      <path clip-path="url(#pf806a7c25e)" d="M 467.290249 463.84375 
L 467.290249 25.918125 
" style="fill:none;stroke:#000000;stroke-dasharray:0.8,1.32;stroke-dashoffset:0;stroke-opacity:0.5;stroke-width:0.8;"/>
     </g>
     <g id="line2d_16">
      <g>
       <use style="stroke:#000000;stroke-width:0.8;" x="467.290249" xlink:href="#m67a2a145ea" y="463.84375"/>
      </g>
     </g>
     <g id="text_8">
      <!-- 15 -->
      <g transform="translate(460.927749 478.442187)scale(0.1 -0.1)">
       <use xlink:href="#DejaVuSans-49"/>
       <use x="63.623047" xlink:href="#DejaVuSans-53"/>
      </g>
     </g>
    </g>
    <g id="xtick_9">
     <g id="line2d_17">
      <path clip-path="url(#pf806a7c25e)" d="M 533.415779 463.84375 
L 533.415779 25.918125 
" style="fill:none;stroke:#000000;stroke-dasharray:0.8,1.32;stroke-dashoffset:0;stroke-opacity:0.5;stroke-width:0.8;"/>
     </g>
     <g id="line2d_18">
      <g>
       <use style="stroke:#000000;stroke-width:0.8;" x="533.415779" xlink:href="#m67a2a145ea" y="463.84375"/>
      </g>
     </g>
     <g id="text_9">
      <!-- Nov -->
      <g transform="translate(523.656404 478.442187)scale(0.1 -0.1)">
       <defs>
        <path d="M 9.8125 72.90625 
L 23.09375 72.90625 
L 55.421875 11.921875 
L 55.421875 72.90625 
L 64.984375 72.90625 
L 64.984375 0 
L 51.703125 0 
L 19.390625 60.984375 
L 19.390625 0 
L 9.8125 0 
z
" id="DejaVuSans-78"/>
        <path d="M 30.609375 48.390625 
Q 23.390625 48.390625 19.1875 42.75 
Q 14.984375 37.109375 14.984375 27.296875 
Q 14.984375 17.484375 19.15625 11.84375 
Q 23.34375 6.203125 30.609375 6.203125 
Q 37.796875 6.203125 41.984375 11.859375 
Q 46.1875 17.53125 46.1875 27.296875 
Q 46.1875 37.015625 41.984375 42.703125 
Q 37.796875 48.390625 30.609375 48.390625 
z
M 30.609375 56 
Q 42.328125 56 49.015625 48.375 
Q 55.71875 40.765625 55.71875 27.296875 
Q 55.71875 13.875 49.015625 6.21875 
Q 42.328125 -1.421875 30.609375 -1.421875 
Q 18.84375 -1.421875 12.171875 6.21875 
Q 5.515625 13.875 5.515625 27.296875 
Q 5.515625 40.765625 12.171875 48.375 
Q 18.84375 56 30.609375 56 
z
" id="DejaVuSans-111"/>
        <path d="M 2.984375 54.6875 
L 12.5 54.6875 
L 29.59375 8.796875 
L 46.6875 54.6875 
L 56.203125 54.6875 
L 35.6875 0 
L 23.484375 0 
z
" id="DejaVuSans-118"/>
       </defs>
       <use xlink:href="#DejaVuSans-78"/>
       <use x="74.804688" xlink:href="#DejaVuSans-111"/>
       <use x="135.986328" xlink:href="#DejaVuSans-118"/>
      </g>
     </g>
    </g>
    <g id="xtick_10">
     <g id="line2d_19">
      <path clip-path="url(#pf806a7c25e)" d="M 587.872097 463.84375 
L 587.872097 25.918125 
" style="fill:none;stroke:#000000;stroke-dasharray:0.8,1.32;stroke-dashoffset:0;stroke-opacity:0.5;stroke-width:0.8;"/>
     </g>
     <g id="line2d_20">
      <g>
       <use style="stroke:#000000;stroke-width:0.8;" x="587.872097" xlink:href="#m67a2a145ea" y="463.84375"/>
      </g>
     </g>
     <g id="text_10">
      <!-- 15 -->
      <g transform="translate(581.509597 478.442187)scale(0.1 -0.1)">
       <use xlink:href="#DejaVuSans-49"/>
       <use x="63.623047" xlink:href="#DejaVuSans-53"/>
      </g>
     </g>
    </g>
    <g id="xtick_11">
     <g id="line2d_21">
      <path clip-path="url(#pf806a7c25e)" d="M 650.107889 463.84375 
L 650.107889 25.918125 
" style="fill:none;stroke:#000000;stroke-dasharray:0.8,1.32;stroke-dashoffset:0;stroke-opacity:0.5;stroke-width:0.8;"/>
     </g>
     <g id="line2d_22">
      <g>
       <use style="stroke:#000000;stroke-width:0.8;" x="650.107889" xlink:href="#m67a2a145ea" y="463.84375"/>
      </g>
     </g>
     <g id="text_11">
      <!-- Dec -->
      <g transform="translate(640.432108 478.442187)scale(0.1 -0.1)">
       <defs>
        <path d="M 19.671875 64.796875 
L 19.671875 8.109375 
L 31.59375 8.109375 
Q 46.6875 8.109375 53.6875 14.9375 
Q 60.6875 21.78125 60.6875 36.53125 
Q 60.6875 51.171875 53.6875 57.984375 
Q 46.6875 64.796875 31.59375 64.796875 
z
M 9.8125 72.90625 
L 30.078125 72.90625 
Q 51.265625 72.90625 61.171875 64.09375 
Q 71.09375 55.28125 71.09375 36.53125 
Q 71.09375 17.671875 61.125 8.828125 
Q 51.171875 0 30.078125 0 
L 9.8125 0 
z
" id="DejaVuSans-68"/>
       </defs>
       <use xlink:href="#DejaVuSans-68"/>
       <use x="77.001953" xlink:href="#DejaVuSans-101"/>
       <use x="138.525391" xlink:href="#DejaVuSans-99"/>
      </g>
     </g>
    </g>
    <g id="xtick_12">
     <g id="line2d_23">
      <path clip-path="url(#pf806a7c25e)" d="M 704.564208 463.84375 
L 704.564208 25.918125 
" style="fill:none;stroke:#000000;stroke-dasharray:0.8,1.32;stroke-dashoffset:0;stroke-opacity:0.5;stroke-width:0.8;"/>
     </g>
     <g id="line2d_24">
      <g>
       <use style="stroke:#000000;stroke-width:0.8;" x="704.564208" xlink:href="#m67a2a145ea" y="463.84375"/>
      </g>
     </g>
     <g id="text_12">
      <!-- 15 -->
      <g transform="translate(698.201708 478.442187)scale(0.1 -0.1)">
       <use xlink:href="#DejaVuSans-49"/>
       <use x="63.623047" xlink:href="#DejaVuSans-53"/>
      </g>
     </g>
    </g>
    <g id="text_13">
     <!-- 2020-Dec -->
     <g transform="translate(718.390625 491.120313)scale(0.1 -0.1)">
      <defs>
       <path d="M 19.1875 8.296875 
L 53.609375 8.296875 
L 53.609375 0 
L 7.328125 0 
L 7.328125 8.296875 
Q 12.9375 14.109375 22.625 23.890625 
Q 32.328125 33.6875 34.8125 36.53125 
Q 39.546875 41.84375 41.421875 45.53125 
Q 43.3125 49.21875 43.3125 52.78125 
Q 43.3125 58.59375 39.234375 62.25 
Q 35.15625 65.921875 28.609375 65.921875 
Q 23.96875 65.921875 18.8125 64.3125 
Q 13.671875 62.703125 7.8125 59.421875 
L 7.8125 69.390625 
Q 13.765625 71.78125 18.9375 73 
Q 24.125 74.21875 28.421875 74.21875 
Q 39.75 74.21875 46.484375 68.546875 
Q 53.21875 62.890625 53.21875 53.421875 
Q 53.21875 48.921875 51.53125 44.890625 
Q 49.859375 40.875 45.40625 35.40625 
Q 44.1875 33.984375 37.640625 27.21875 
Q 31.109375 20.453125 19.1875 8.296875 
z
" id="DejaVuSans-50"/>
       <path d="M 31.78125 66.40625 
Q 24.171875 66.40625 20.328125 58.90625 
Q 16.5 51.421875 16.5 36.375 
Q 16.5 21.390625 20.328125 13.890625 
Q 24.171875 6.390625 31.78125 6.390625 
Q 39.453125 6.390625 43.28125 13.890625 
Q 47.125 21.390625 47.125 36.375 
Q 47.125 51.421875 43.28125 58.90625 
Q 39.453125 66.40625 31.78125 66.40625 
z
M 31.78125 74.21875 
Q 44.046875 74.21875 50.515625 64.515625 
Q 56.984375 54.828125 56.984375 36.375 
Q 56.984375 17.96875 50.515625 8.265625 
Q 44.046875 -1.421875 31.78125 -1.421875 
Q 19.53125 -1.421875 13.0625 8.265625 
Q 6.59375 17.96875 6.59375 36.375 
Q 6.59375 54.828125 13.0625 64.515625 
Q 19.53125 74.21875 31.78125 74.21875 
z
" id="DejaVuSans-48"/>
       <path d="M 4.890625 31.390625 
L 31.203125 31.390625 
L 31.203125 23.390625 
L 4.890625 23.390625 
z
" id="DejaVuSans-45"/>
      </defs>
      <use xlink:href="#DejaVuSans-50"/>
      <use x="63.623047" xlink:href="#DejaVuSans-48"/>
      <use x="127.246094" xlink:href="#DejaVuSans-50"/>
      <use x="190.869141" xlink:href="#DejaVuSans-48"/>
      <use x="254.492188" xlink:href="#DejaVuSans-45"/>
      <use x="290.576172" xlink:href="#DejaVuSans-68"/>
      <use x="367.578125" xlink:href="#DejaVuSans-101"/>
      <use x="429.101562" xlink:href="#DejaVuSans-99"/>
     </g>
    </g>
   </g>
   <g id="matplotlib.axis_2">
    <g id="ytick_1">
     <g id="line2d_25">
      <path clip-path="url(#pf806a7c25e)" d="M 54.978125 433.193243 
L 766.8 433.193243 
" style="fill:none;stroke:#000000;stroke-dasharray:0.8,1.32;stroke-dashoffset:0;stroke-opacity:0.5;stroke-width:0.8;"/>
     </g>
     <g id="line2d_26">
      <defs>
       <path d="M 0 0 
L -3.5 0 
" id="m35cc3a9160" style="stroke:#000000;stroke-width:0.8;"/>
      </defs>
      <g>
       <use style="stroke:#000000;stroke-width:0.8;" x="54.978125" xlink:href="#m35cc3a9160" y="433.193243"/>
      </g>
     </g>
     <g id="text_14">
      <!-- 0.1 -->
      <g transform="translate(32.075 436.992462)scale(0.1 -0.1)">
       <defs>
        <path d="M 10.6875 12.40625 
L 21 12.40625 
L 21 0 
L 10.6875 0 
z
" id="DejaVuSans-46"/>
       </defs>
       <use xlink:href="#DejaVuSans-48"/>
       <use x="63.623047" xlink:href="#DejaVuSans-46"/>
       <use x="95.410156" xlink:href="#DejaVuSans-49"/>
      </g>
     </g>
    </g>
    <g id="ytick_2">
     <g id="line2d_27">
      <path clip-path="url(#pf806a7c25e)" d="M 54.978125 331.374464 
L 766.8 331.374464 
" style="fill:none;stroke:#000000;stroke-dasharray:0.8,1.32;stroke-dashoffset:0;stroke-opacity:0.5;stroke-width:0.8;"/>
     </g>
     <g id="line2d_28">
      <g>
       <use style="stroke:#000000;stroke-width:0.8;" x="54.978125" xlink:href="#m35cc3a9160" y="331.374464"/>
      </g>
     </g>
     <g id="text_15">
      <!-- 1 -->
      <g transform="translate(41.615625 335.173682)scale(0.1 -0.1)">
       <use xlink:href="#DejaVuSans-49"/>
      </g>
     </g>
    </g>
    <g id="ytick_3">
     <g id="line2d_29">
      <path clip-path="url(#pf806a7c25e)" d="M 54.978125 229.555684 
L 766.8 229.555684 
" style="fill:none;stroke:#000000;stroke-dasharray:0.8,1.32;stroke-dashoffset:0;stroke-opacity:0.5;stroke-width:0.8;"/>
     </g>
     <g id="line2d_30">
      <g>
       <use style="stroke:#000000;stroke-width:0.8;" x="54.978125" xlink:href="#m35cc3a9160" y="229.555684"/>
      </g>
     </g>
     <g id="text_16">
      <!-- 10 -->
      <g transform="translate(35.253125 233.354903)scale(0.1 -0.1)">
       <use xlink:href="#DejaVuSans-49"/>
       <use x="63.623047" xlink:href="#DejaVuSans-48"/>
      </g>
     </g>
    </g>
    <g id="ytick_4">
     <g id="line2d_31">
      <path clip-path="url(#pf806a7c25e)" d="M 54.978125 127.736905 
L 766.8 127.736905 
" style="fill:none;stroke:#000000;stroke-dasharray:0.8,1.32;stroke-dashoffset:0;stroke-opacity:0.5;stroke-width:0.8;"/>
     </g>
     <g id="line2d_32">
      <g>
       <use style="stroke:#000000;stroke-width:0.8;" x="54.978125" xlink:href="#m35cc3a9160" y="127.736905"/>
      </g>
     </g>
     <g id="text_17">
      <!-- 100 -->
      <g transform="translate(28.890625 131.536123)scale(0.1 -0.1)">
       <use xlink:href="#DejaVuSans-49"/>
       <use x="63.623047" xlink:href="#DejaVuSans-48"/>
       <use x="127.246094" xlink:href="#DejaVuSans-48"/>
      </g>
     </g>
    </g>
    <g id="ytick_5">
     <g id="line2d_33">
      <path clip-path="url(#pf806a7c25e)" d="M 54.978125 25.918125 
L 766.8 25.918125 
" style="fill:none;stroke:#000000;stroke-dasharray:0.8,1.32;stroke-dashoffset:0;stroke-opacity:0.5;stroke-width:0.8;"/>
     </g>
     <g id="line2d_34">
      <g>
       <use style="stroke:#000000;stroke-width:0.8;" x="54.978125" xlink:href="#m35cc3a9160" y="25.918125"/>
      </g>
     </g>
     <g id="text_18">
      <!-- 1000 -->
      <g transform="translate(22.528125 29.717344)scale(0.1 -0.1)">
       <use xlink:href="#DejaVuSans-49"/>
       <use x="63.623047" xlink:href="#DejaVuSans-48"/>
       <use x="127.246094" xlink:href="#DejaVuSans-48"/>
       <use x="190.869141" xlink:href="#DejaVuSans-48"/>
      </g>
     </g>
    </g>
    <g id="ytick_6">
     <g id="line2d_35">
      <path clip-path="url(#pf806a7c25e)" d="M 54.978125 463.84375 
L 766.8 463.84375 
" style="fill:none;stroke:#000000;stroke-dasharray:0.8,1.32;stroke-dashoffset:0;stroke-opacity:0.25;stroke-width:0.8;"/>
     </g>
     <g id="line2d_36">
      <defs>
       <path d="M 0 0 
L -2 0 
" id="m8e4b501743" style="stroke:#000000;stroke-width:0.6;"/>
      </defs>
      <g>
       <use style="stroke:#000000;stroke-width:0.6;" x="54.978125" xlink:href="#m8e4b501743" y="463.84375"/>
      </g>
     </g>
    </g>
    <g id="ytick_7">
     <g id="line2d_37">
      <path clip-path="url(#pf806a7c25e)" d="M 54.978125 455.781612 
L 766.8 455.781612 
" style="fill:none;stroke:#000000;stroke-dasharray:0.8,1.32;stroke-dashoffset:0;stroke-opacity:0.25;stroke-width:0.8;"/>
     </g>
     <g id="line2d_38">
      <g>
       <use style="stroke:#000000;stroke-width:0.6;" x="54.978125" xlink:href="#m8e4b501743" y="455.781612"/>
      </g>
     </g>
     <g id="text_19">
      <!-- 0.06 -->
      <g transform="translate(34.125781 458.41827)scale(0.0694 -0.0694)">
       <defs>
        <path d="M 33.015625 40.375 
Q 26.375 40.375 22.484375 35.828125 
Q 18.609375 31.296875 18.609375 23.390625 
Q 18.609375 15.53125 22.484375 10.953125 
Q 26.375 6.390625 33.015625 6.390625 
Q 39.65625 6.390625 43.53125 10.953125 
Q 47.40625 15.53125 47.40625 23.390625 
Q 47.40625 31.296875 43.53125 35.828125 
Q 39.65625 40.375 33.015625 40.375 
z
M 52.59375 71.296875 
L 52.59375 62.3125 
Q 48.875 64.0625 45.09375 64.984375 
Q 41.3125 65.921875 37.59375 65.921875 
Q 27.828125 65.921875 22.671875 59.328125 
Q 17.53125 52.734375 16.796875 39.40625 
Q 19.671875 43.65625 24.015625 45.921875 
Q 28.375 48.1875 33.59375 48.1875 
Q 44.578125 48.1875 50.953125 41.515625 
Q 57.328125 34.859375 57.328125 23.390625 
Q 57.328125 12.15625 50.6875 5.359375 
Q 44.046875 -1.421875 33.015625 -1.421875 
Q 20.359375 -1.421875 13.671875 8.265625 
Q 6.984375 17.96875 6.984375 36.375 
Q 6.984375 53.65625 15.1875 63.9375 
Q 23.390625 74.21875 37.203125 74.21875 
Q 40.921875 74.21875 44.703125 73.484375 
Q 48.484375 72.75 52.59375 71.296875 
z
" id="DejaVuSans-54"/>
       </defs>
       <use xlink:href="#DejaVuSans-48"/>
       <use x="63.623047" xlink:href="#DejaVuSans-46"/>
       <use x="95.410156" xlink:href="#DejaVuSans-48"/>
       <use x="159.033203" xlink:href="#DejaVuSans-54"/>
      </g>
     </g>
    </g>
    <g id="ytick_8">
     <g id="line2d_39">
      <path clip-path="url(#pf806a7c25e)" d="M 54.978125 448.965172 
L 766.8 448.965172 
" style="fill:none;stroke:#000000;stroke-dasharray:0.8,1.32;stroke-dashoffset:0;stroke-opacity:0.25;stroke-width:0.8;"/>
     </g>
     <g id="line2d_40">
      <g>
       <use style="stroke:#000000;stroke-width:0.6;" x="54.978125" xlink:href="#m8e4b501743" y="448.965172"/>
      </g>
     </g>
    </g>
    <g id="ytick_9">
     <g id="line2d_41">
      <path clip-path="url(#pf806a7c25e)" d="M 54.978125 443.060502 
L 766.8 443.060502 
" style="fill:none;stroke:#000000;stroke-dasharray:0.8,1.32;stroke-dashoffset:0;stroke-opacity:0.25;stroke-width:0.8;"/>
     </g>
     <g id="line2d_42">
      <g>
       <use style="stroke:#000000;stroke-width:0.6;" x="54.978125" xlink:href="#m8e4b501743" y="443.060502"/>
      </g>
     </g>
     <g id="text_20">
      <!-- 0.08 -->
      <g transform="translate(34.125781 445.69716)scale(0.0694 -0.0694)">
       <defs>
        <path d="M 31.78125 34.625 
Q 24.75 34.625 20.71875 30.859375 
Q 16.703125 27.09375 16.703125 20.515625 
Q 16.703125 13.921875 20.71875 10.15625 
Q 24.75 6.390625 31.78125 6.390625 
Q 38.8125 6.390625 42.859375 10.171875 
Q 46.921875 13.96875 46.921875 20.515625 
Q 46.921875 27.09375 42.890625 30.859375 
Q 38.875 34.625 31.78125 34.625 
z
M 21.921875 38.8125 
Q 15.578125 40.375 12.03125 44.71875 
Q 8.5 49.078125 8.5 55.328125 
Q 8.5 64.0625 14.71875 69.140625 
Q 20.953125 74.21875 31.78125 74.21875 
Q 42.671875 74.21875 48.875 69.140625 
Q 55.078125 64.0625 55.078125 55.328125 
Q 55.078125 49.078125 51.53125 44.71875 
Q 48 40.375 41.703125 38.8125 
Q 48.828125 37.15625 52.796875 32.3125 
Q 56.78125 27.484375 56.78125 20.515625 
Q 56.78125 9.90625 50.3125 4.234375 
Q 43.84375 -1.421875 31.78125 -1.421875 
Q 19.734375 -1.421875 13.25 4.234375 
Q 6.78125 9.90625 6.78125 20.515625 
Q 6.78125 27.484375 10.78125 32.3125 
Q 14.796875 37.15625 21.921875 38.8125 
z
M 18.3125 54.390625 
Q 18.3125 48.734375 21.84375 45.5625 
Q 25.390625 42.390625 31.78125 42.390625 
Q 38.140625 42.390625 41.71875 45.5625 
Q 45.3125 48.734375 45.3125 54.390625 
Q 45.3125 60.0625 41.71875 63.234375 
Q 38.140625 66.40625 31.78125 66.40625 
Q 25.390625 66.40625 21.84375 63.234375 
Q 18.3125 60.0625 18.3125 54.390625 
z
" id="DejaVuSans-56"/>
       </defs>
       <use xlink:href="#DejaVuSans-48"/>
       <use x="63.623047" xlink:href="#DejaVuSans-46"/>
       <use x="95.410156" xlink:href="#DejaVuSans-48"/>
       <use x="159.033203" xlink:href="#DejaVuSans-56"/>
      </g>
     </g>
    </g>
    <g id="ytick_10">
     <g id="line2d_43">
      <path clip-path="url(#pf806a7c25e)" d="M 54.978125 437.852215 
L 766.8 437.852215 
" style="fill:none;stroke:#000000;stroke-dasharray:0.8,1.32;stroke-dashoffset:0;stroke-opacity:0.25;stroke-width:0.8;"/>
     </g>
     <g id="line2d_44">
      <g>
       <use style="stroke:#000000;stroke-width:0.6;" x="54.978125" xlink:href="#m8e4b501743" y="437.852215"/>
      </g>
     </g>
    </g>
    <g id="ytick_11">
     <g id="line2d_45">
      <path clip-path="url(#pf806a7c25e)" d="M 54.978125 402.542736 
L 766.8 402.542736 
" style="fill:none;stroke:#000000;stroke-dasharray:0.8,1.32;stroke-dashoffset:0;stroke-opacity:0.25;stroke-width:0.8;"/>
     </g>
     <g id="line2d_46">
      <g>
       <use style="stroke:#000000;stroke-width:0.6;" x="54.978125" xlink:href="#m8e4b501743" y="402.542736"/>
      </g>
     </g>
     <g id="text_21">
      <!-- 0.2 -->
      <g transform="translate(38.541356 405.179394)scale(0.0694 -0.0694)">
       <use xlink:href="#DejaVuSans-48"/>
       <use x="63.623047" xlink:href="#DejaVuSans-46"/>
       <use x="95.410156" xlink:href="#DejaVuSans-50"/>
      </g>
     </g>
    </g>
    <g id="ytick_12">
     <g id="line2d_47">
      <path clip-path="url(#pf806a7c25e)" d="M 54.978125 384.613339 
L 766.8 384.613339 
" style="fill:none;stroke:#000000;stroke-dasharray:0.8,1.32;stroke-dashoffset:0;stroke-opacity:0.25;stroke-width:0.8;"/>
     </g>
     <g id="line2d_48">
      <g>
       <use style="stroke:#000000;stroke-width:0.6;" x="54.978125" xlink:href="#m8e4b501743" y="384.613339"/>
      </g>
     </g>
    </g>
    <g id="ytick_13">
     <g id="line2d_49">
      <path clip-path="url(#pf806a7c25e)" d="M 54.978125 371.89223 
L 766.8 371.89223 
" style="fill:none;stroke:#000000;stroke-dasharray:0.8,1.32;stroke-dashoffset:0;stroke-opacity:0.25;stroke-width:0.8;"/>
     </g>
     <g id="line2d_50">
      <g>
       <use style="stroke:#000000;stroke-width:0.6;" x="54.978125" xlink:href="#m8e4b501743" y="371.89223"/>
      </g>
     </g>
     <g id="text_22">
      <!-- 0.4 -->
      <g transform="translate(38.541356 374.528888)scale(0.0694 -0.0694)">
       <defs>
        <path d="M 37.796875 64.3125 
L 12.890625 25.390625 
L 37.796875 25.390625 
z
M 35.203125 72.90625 
L 47.609375 72.90625 
L 47.609375 25.390625 
L 58.015625 25.390625 
L 58.015625 17.1875 
L 47.609375 17.1875 
L 47.609375 0 
L 37.796875 0 
L 37.796875 17.1875 
L 4.890625 17.1875 
L 4.890625 26.703125 
z
" id="DejaVuSans-52"/>
       </defs>
       <use xlink:href="#DejaVuSans-48"/>
       <use x="63.623047" xlink:href="#DejaVuSans-46"/>
       <use x="95.410156" xlink:href="#DejaVuSans-52"/>
      </g>
     </g>
    </g>
    <g id="ytick_14">
     <g id="line2d_51">
      <path clip-path="url(#pf806a7c25e)" d="M 54.978125 362.02497 
L 766.8 362.02497 
" style="fill:none;stroke:#000000;stroke-dasharray:0.8,1.32;stroke-dashoffset:0;stroke-opacity:0.25;stroke-width:0.8;"/>
     </g>
     <g id="line2d_52">
      <g>
       <use style="stroke:#000000;stroke-width:0.6;" x="54.978125" xlink:href="#m8e4b501743" y="362.02497"/>
      </g>
     </g>
    </g>
    <g id="ytick_15">
     <g id="line2d_53">
      <path clip-path="url(#pf806a7c25e)" d="M 54.978125 353.962833 
L 766.8 353.962833 
" style="fill:none;stroke:#000000;stroke-dasharray:0.8,1.32;stroke-dashoffset:0;stroke-opacity:0.25;stroke-width:0.8;"/>
     </g>
     <g id="line2d_54">
      <g>
       <use style="stroke:#000000;stroke-width:0.6;" x="54.978125" xlink:href="#m8e4b501743" y="353.962833"/>
      </g>
     </g>
     <g id="text_23">
      <!-- 0.6 -->
      <g transform="translate(38.541356 356.59949)scale(0.0694 -0.0694)">
       <use xlink:href="#DejaVuSans-48"/>
       <use x="63.623047" xlink:href="#DejaVuSans-46"/>
       <use x="95.410156" xlink:href="#DejaVuSans-54"/>
      </g>
     </g>
    </g>
    <g id="ytick_16">
     <g id="line2d_55">
      <path clip-path="url(#pf806a7c25e)" d="M 54.978125 347.146392 
L 766.8 347.146392 
" style="fill:none;stroke:#000000;stroke-dasharray:0.8,1.32;stroke-dashoffset:0;stroke-opacity:0.25;stroke-width:0.8;"/>
     </g>
     <g id="line2d_56">
      <g>
       <use style="stroke:#000000;stroke-width:0.6;" x="54.978125" xlink:href="#m8e4b501743" y="347.146392"/>
      </g>
     </g>
    </g>
    <g id="ytick_17">
     <g id="line2d_57">
      <path clip-path="url(#pf806a7c25e)" d="M 54.978125 341.241723 
L 766.8 341.241723 
" style="fill:none;stroke:#000000;stroke-dasharray:0.8,1.32;stroke-dashoffset:0;stroke-opacity:0.25;stroke-width:0.8;"/>
     </g>
     <g id="line2d_58">
      <g>
       <use style="stroke:#000000;stroke-width:0.6;" x="54.978125" xlink:href="#m8e4b501743" y="341.241723"/>
      </g>
     </g>
     <g id="text_24">
      <!-- 0.8 -->
      <g transform="translate(38.541356 343.878381)scale(0.0694 -0.0694)">
       <use xlink:href="#DejaVuSans-48"/>
       <use x="63.623047" xlink:href="#DejaVuSans-46"/>
       <use x="95.410156" xlink:href="#DejaVuSans-56"/>
      </g>
     </g>
    </g>
    <g id="ytick_18">
     <g id="line2d_59">
      <path clip-path="url(#pf806a7c25e)" d="M 54.978125 336.033436 
L 766.8 336.033436 
" style="fill:none;stroke:#000000;stroke-dasharray:0.8,1.32;stroke-dashoffset:0;stroke-opacity:0.25;stroke-width:0.8;"/>
     </g>
     <g id="line2d_60">
      <g>
       <use style="stroke:#000000;stroke-width:0.6;" x="54.978125" xlink:href="#m8e4b501743" y="336.033436"/>
      </g>
     </g>
    </g>
    <g id="ytick_19">
     <g id="line2d_61">
      <path clip-path="url(#pf806a7c25e)" d="M 54.978125 300.723957 
L 766.8 300.723957 
" style="fill:none;stroke:#000000;stroke-dasharray:0.8,1.32;stroke-dashoffset:0;stroke-opacity:0.25;stroke-width:0.8;"/>
     </g>
     <g id="line2d_62">
      <g>
       <use style="stroke:#000000;stroke-width:0.6;" x="54.978125" xlink:href="#m8e4b501743" y="300.723957"/>
      </g>
     </g>
     <g id="text_25">
      <!-- 2 -->
      <g transform="translate(45.16255 303.360615)scale(0.0694 -0.0694)">
       <use xlink:href="#DejaVuSans-50"/>
      </g>
     </g>
    </g>
    <g id="ytick_20">
     <g id="line2d_63">
      <path clip-path="url(#pf806a7c25e)" d="M 54.978125 282.79456 
L 766.8 282.79456 
" style="fill:none;stroke:#000000;stroke-dasharray:0.8,1.32;stroke-dashoffset:0;stroke-opacity:0.25;stroke-width:0.8;"/>
     </g>
     <g id="line2d_64">
      <g>
       <use style="stroke:#000000;stroke-width:0.6;" x="54.978125" xlink:href="#m8e4b501743" y="282.79456"/>
      </g>
     </g>
    </g>
    <g id="ytick_21">
     <g id="line2d_65">
      <path clip-path="url(#pf806a7c25e)" d="M 54.978125 270.07345 
L 766.8 270.07345 
" style="fill:none;stroke:#000000;stroke-dasharray:0.8,1.32;stroke-dashoffset:0;stroke-opacity:0.25;stroke-width:0.8;"/>
     </g>
     <g id="line2d_66">
      <g>
       <use style="stroke:#000000;stroke-width:0.6;" x="54.978125" xlink:href="#m8e4b501743" y="270.07345"/>
      </g>
     </g>
     <g id="text_26">
      <!-- 4 -->
      <g transform="translate(45.16255 272.710108)scale(0.0694 -0.0694)">
       <use xlink:href="#DejaVuSans-52"/>
      </g>
     </g>
    </g>
    <g id="ytick_22">
     <g id="line2d_67">
      <path clip-path="url(#pf806a7c25e)" d="M 54.978125 260.206191 
L 766.8 260.206191 
" style="fill:none;stroke:#000000;stroke-dasharray:0.8,1.32;stroke-dashoffset:0;stroke-opacity:0.25;stroke-width:0.8;"/>
     </g>
     <g id="line2d_68">
      <g>
       <use style="stroke:#000000;stroke-width:0.6;" x="54.978125" xlink:href="#m8e4b501743" y="260.206191"/>
      </g>
     </g>
    </g>
    <g id="ytick_23">
     <g id="line2d_69">
      <path clip-path="url(#pf806a7c25e)" d="M 54.978125 252.144053 
L 766.8 252.144053 
" style="fill:none;stroke:#000000;stroke-dasharray:0.8,1.32;stroke-dashoffset:0;stroke-opacity:0.25;stroke-width:0.8;"/>
     </g>
     <g id="line2d_70">
      <g>
       <use style="stroke:#000000;stroke-width:0.6;" x="54.978125" xlink:href="#m8e4b501743" y="252.144053"/>
      </g>
     </g>
     <g id="text_27">
      <!-- 6 -->
      <g transform="translate(45.16255 254.780711)scale(0.0694 -0.0694)">
       <use xlink:href="#DejaVuSans-54"/>
      </g>
     </g>
    </g>
    <g id="ytick_24">
     <g id="line2d_71">
      <path clip-path="url(#pf806a7c25e)" d="M 54.978125 245.327613 
L 766.8 245.327613 
" style="fill:none;stroke:#000000;stroke-dasharray:0.8,1.32;stroke-dashoffset:0;stroke-opacity:0.25;stroke-width:0.8;"/>
     </g>
     <g id="line2d_72">
      <g>
       <use style="stroke:#000000;stroke-width:0.6;" x="54.978125" xlink:href="#m8e4b501743" y="245.327613"/>
      </g>
     </g>
    </g>
    <g id="ytick_25">
     <g id="line2d_73">
      <path clip-path="url(#pf806a7c25e)" d="M 54.978125 239.422943 
L 766.8 239.422943 
" style="fill:none;stroke:#000000;stroke-dasharray:0.8,1.32;stroke-dashoffset:0;stroke-opacity:0.25;stroke-width:0.8;"/>
     </g>
     <g id="line2d_74">
      <g>
       <use style="stroke:#000000;stroke-width:0.6;" x="54.978125" xlink:href="#m8e4b501743" y="239.422943"/>
      </g>
     </g>
     <g id="text_28">
      <!-- 8 -->
      <g transform="translate(45.16255 242.059601)scale(0.0694 -0.0694)">
       <use xlink:href="#DejaVuSans-56"/>
      </g>
     </g>
    </g>
    <g id="ytick_26">
     <g id="line2d_75">
      <path clip-path="url(#pf806a7c25e)" d="M 54.978125 234.214656 
L 766.8 234.214656 
" style="fill:none;stroke:#000000;stroke-dasharray:0.8,1.32;stroke-dashoffset:0;stroke-opacity:0.25;stroke-width:0.8;"/>
     </g>
     <g id="line2d_76">
      <g>
       <use style="stroke:#000000;stroke-width:0.6;" x="54.978125" xlink:href="#m8e4b501743" y="234.214656"/>
      </g>
     </g>
    </g>
    <g id="ytick_27">
     <g id="line2d_77">
      <path clip-path="url(#pf806a7c25e)" d="M 54.978125 198.905177 
L 766.8 198.905177 
" style="fill:none;stroke:#000000;stroke-dasharray:0.8,1.32;stroke-dashoffset:0;stroke-opacity:0.25;stroke-width:0.8;"/>
     </g>
     <g id="line2d_78">
      <g>
       <use style="stroke:#000000;stroke-width:0.6;" x="54.978125" xlink:href="#m8e4b501743" y="198.905177"/>
      </g>
     </g>
     <g id="text_29">
      <!-- 20 -->
      <g transform="translate(40.746975 201.541835)scale(0.0694 -0.0694)">
       <use xlink:href="#DejaVuSans-50"/>
       <use x="63.623047" xlink:href="#DejaVuSans-48"/>
      </g>
     </g>
    </g>
    <g id="ytick_28">
     <g id="line2d_79">
      <path clip-path="url(#pf806a7c25e)" d="M 54.978125 180.97578 
L 766.8 180.97578 
" style="fill:none;stroke:#000000;stroke-dasharray:0.8,1.32;stroke-dashoffset:0;stroke-opacity:0.25;stroke-width:0.8;"/>
     </g>
     <g id="line2d_80">
      <g>
       <use style="stroke:#000000;stroke-width:0.6;" x="54.978125" xlink:href="#m8e4b501743" y="180.97578"/>
      </g>
     </g>
    </g>
    <g id="ytick_29">
     <g id="line2d_81">
      <path clip-path="url(#pf806a7c25e)" d="M 54.978125 168.254671 
L 766.8 168.254671 
" style="fill:none;stroke:#000000;stroke-dasharray:0.8,1.32;stroke-dashoffset:0;stroke-opacity:0.25;stroke-width:0.8;"/>
     </g>
     <g id="line2d_82">
      <g>
       <use style="stroke:#000000;stroke-width:0.6;" x="54.978125" xlink:href="#m8e4b501743" y="168.254671"/>
      </g>
     </g>
     <g id="text_30">
      <!-- 40 -->
      <g transform="translate(40.746975 170.891328)scale(0.0694 -0.0694)">
       <use xlink:href="#DejaVuSans-52"/>
       <use x="63.623047" xlink:href="#DejaVuSans-48"/>
      </g>
     </g>
    </g>
    <g id="ytick_30">
     <g id="line2d_83">
      <path clip-path="url(#pf806a7c25e)" d="M 54.978125 158.387411 
L 766.8 158.387411 
" style="fill:none;stroke:#000000;stroke-dasharray:0.8,1.32;stroke-dashoffset:0;stroke-opacity:0.25;stroke-width:0.8;"/>
     </g>
     <g id="line2d_84">
      <g>
       <use style="stroke:#000000;stroke-width:0.6;" x="54.978125" xlink:href="#m8e4b501743" y="158.387411"/>
      </g>
     </g>
    </g>
    <g id="ytick_31">
     <g id="line2d_85">
      <path clip-path="url(#pf806a7c25e)" d="M 54.978125 150.325273 
L 766.8 150.325273 
" style="fill:none;stroke:#000000;stroke-dasharray:0.8,1.32;stroke-dashoffset:0;stroke-opacity:0.25;stroke-width:0.8;"/>
     </g>
     <g id="line2d_86">
      <g>
       <use style="stroke:#000000;stroke-width:0.6;" x="54.978125" xlink:href="#m8e4b501743" y="150.325273"/>
      </g>
     </g>
     <g id="text_31">
      <!-- 60 -->
      <g transform="translate(40.746975 152.961931)scale(0.0694 -0.0694)">
       <use xlink:href="#DejaVuSans-54"/>
       <use x="63.623047" xlink:href="#DejaVuSans-48"/>
      </g>
     </g>
    </g>
    <g id="ytick_32">
     <g id="line2d_87">
      <path clip-path="url(#pf806a7c25e)" d="M 54.978125 143.508833 
L 766.8 143.508833 
" style="fill:none;stroke:#000000;stroke-dasharray:0.8,1.32;stroke-dashoffset:0;stroke-opacity:0.25;stroke-width:0.8;"/>
     </g>
     <g id="line2d_88">
      <g>
       <use style="stroke:#000000;stroke-width:0.6;" x="54.978125" xlink:href="#m8e4b501743" y="143.508833"/>
      </g>
     </g>
    </g>
    <g id="ytick_33">
     <g id="line2d_89">
      <path clip-path="url(#pf806a7c25e)" d="M 54.978125 137.604164 
L 766.8 137.604164 
" style="fill:none;stroke:#000000;stroke-dasharray:0.8,1.32;stroke-dashoffset:0;stroke-opacity:0.25;stroke-width:0.8;"/>
     </g>
     <g id="line2d_90">
      <g>
       <use style="stroke:#000000;stroke-width:0.6;" x="54.978125" xlink:href="#m8e4b501743" y="137.604164"/>
      </g>
     </g>
     <g id="text_32">
      <!-- 80 -->
      <g transform="translate(40.746975 140.240822)scale(0.0694 -0.0694)">
       <use xlink:href="#DejaVuSans-56"/>
       <use x="63.623047" xlink:href="#DejaVuSans-48"/>
      </g>
     </g>
    </g>
    <g id="ytick_34">
     <g id="line2d_91">
      <path clip-path="url(#pf806a7c25e)" d="M 54.978125 132.395876 
L 766.8 132.395876 
" style="fill:none;stroke:#000000;stroke-dasharray:0.8,1.32;stroke-dashoffset:0;stroke-opacity:0.25;stroke-width:0.8;"/>
     </g>
     <g id="line2d_92">
      <g>
       <use style="stroke:#000000;stroke-width:0.6;" x="54.978125" xlink:href="#m8e4b501743" y="132.395876"/>
      </g>
     </g>
    </g>
    <g id="ytick_35">
     <g id="line2d_93">
      <path clip-path="url(#pf806a7c25e)" d="M 54.978125 97.086398 
L 766.8 97.086398 
" style="fill:none;stroke:#000000;stroke-dasharray:0.8,1.32;stroke-dashoffset:0;stroke-opacity:0.25;stroke-width:0.8;"/>
     </g>
     <g id="line2d_94">
      <g>
       <use style="stroke:#000000;stroke-width:0.6;" x="54.978125" xlink:href="#m8e4b501743" y="97.086398"/>
      </g>
     </g>
     <g id="text_33">
      <!-- 200 -->
      <g transform="translate(36.3314 99.723056)scale(0.0694 -0.0694)">
       <use xlink:href="#DejaVuSans-50"/>
       <use x="63.623047" xlink:href="#DejaVuSans-48"/>
       <use x="127.246094" xlink:href="#DejaVuSans-48"/>
      </g>
     </g>
    </g>
    <g id="ytick_36">
     <g id="line2d_95">
      <path clip-path="url(#pf806a7c25e)" d="M 54.978125 79.157001 
L 766.8 79.157001 
" style="fill:none;stroke:#000000;stroke-dasharray:0.8,1.32;stroke-dashoffset:0;stroke-opacity:0.25;stroke-width:0.8;"/>
     </g>
     <g id="line2d_96">
      <g>
       <use style="stroke:#000000;stroke-width:0.6;" x="54.978125" xlink:href="#m8e4b501743" y="79.157001"/>
      </g>
     </g>
    </g>
    <g id="ytick_37">
     <g id="line2d_97">
      <path clip-path="url(#pf806a7c25e)" d="M 54.978125 66.435891 
L 766.8 66.435891 
" style="fill:none;stroke:#000000;stroke-dasharray:0.8,1.32;stroke-dashoffset:0;stroke-opacity:0.25;stroke-width:0.8;"/>
     </g>
     <g id="line2d_98">
      <g>
       <use style="stroke:#000000;stroke-width:0.6;" x="54.978125" xlink:href="#m8e4b501743" y="66.435891"/>
      </g>
     </g>
     <g id="text_34">
      <!-- 400 -->
      <g transform="translate(36.3314 69.072549)scale(0.0694 -0.0694)">
       <use xlink:href="#DejaVuSans-52"/>
       <use x="63.623047" xlink:href="#DejaVuSans-48"/>
       <use x="127.246094" xlink:href="#DejaVuSans-48"/>
      </g>
     </g>
    </g>
    <g id="ytick_38">
     <g id="line2d_99">
      <path clip-path="url(#pf806a7c25e)" d="M 54.978125 56.568632 
L 766.8 56.568632 
" style="fill:none;stroke:#000000;stroke-dasharray:0.8,1.32;stroke-dashoffset:0;stroke-opacity:0.25;stroke-width:0.8;"/>
     </g>
     <g id="line2d_100">
      <g>
       <use style="stroke:#000000;stroke-width:0.6;" x="54.978125" xlink:href="#m8e4b501743" y="56.568632"/>
      </g>
     </g>
    </g>
    <g id="ytick_39">
     <g id="line2d_101">
      <path clip-path="url(#pf806a7c25e)" d="M 54.978125 48.506494 
L 766.8 48.506494 
" style="fill:none;stroke:#000000;stroke-dasharray:0.8,1.32;stroke-dashoffset:0;stroke-opacity:0.25;stroke-width:0.8;"/>
     </g>
     <g id="line2d_102">
      <g>
       <use style="stroke:#000000;stroke-width:0.6;" x="54.978125" xlink:href="#m8e4b501743" y="48.506494"/>
      </g>
     </g>
     <g id="text_35">
      <!-- 600 -->
      <g transform="translate(36.3314 51.143152)scale(0.0694 -0.0694)">
       <use xlink:href="#DejaVuSans-54"/>
       <use x="63.623047" xlink:href="#DejaVuSans-48"/>
       <use x="127.246094" xlink:href="#DejaVuSans-48"/>
      </g>
     </g>
    </g>
    <g id="ytick_40">
     <g id="line2d_103">
      <path clip-path="url(#pf806a7c25e)" d="M 54.978125 41.690054 
L 766.8 41.690054 
" style="fill:none;stroke:#000000;stroke-dasharray:0.8,1.32;stroke-dashoffset:0;stroke-opacity:0.25;stroke-width:0.8;"/>
     </g>
     <g id="line2d_104">
      <g>
       <use style="stroke:#000000;stroke-width:0.6;" x="54.978125" xlink:href="#m8e4b501743" y="41.690054"/>
      </g>
     </g>
    </g>
    <g id="ytick_41">
     <g id="line2d_105">
      <path clip-path="url(#pf806a7c25e)" d="M 54.978125 35.785384 
L 766.8 35.785384 
" style="fill:none;stroke:#000000;stroke-dasharray:0.8,1.32;stroke-dashoffset:0;stroke-opacity:0.25;stroke-width:0.8;"/>
     </g>
     <g id="line2d_106">
      <g>
       <use style="stroke:#000000;stroke-width:0.6;" x="54.978125" xlink:href="#m8e4b501743" y="35.785384"/>
      </g>
     </g>
     <g id="text_36">
      <!-- 800 -->
      <g transform="translate(36.3314 38.422042)scale(0.0694 -0.0694)">
       <use xlink:href="#DejaVuSans-56"/>
       <use x="63.623047" xlink:href="#DejaVuSans-48"/>
       <use x="127.246094" xlink:href="#DejaVuSans-48"/>
      </g>
     </g>
    </g>
    <g id="ytick_42">
     <g id="line2d_107">
      <path clip-path="url(#pf806a7c25e)" d="M 54.978125 30.577097 
L 766.8 30.577097 
" style="fill:none;stroke:#000000;stroke-dasharray:0.8,1.32;stroke-dashoffset:0;stroke-opacity:0.25;stroke-width:0.8;"/>
     </g>
     <g id="line2d_108">
      <g>
       <use style="stroke:#000000;stroke-width:0.6;" x="54.978125" xlink:href="#m8e4b501743" y="30.577097"/>
      </g>
     </g>
    </g>
    <g id="text_37">
     <!-- Cases -->
     <g transform="translate(16.448437 259.722344)rotate(-90)scale(0.1 -0.1)">
      <defs>
       <path d="M 64.40625 67.28125 
L 64.40625 56.890625 
Q 59.421875 61.53125 53.78125 63.8125 
Q 48.140625 66.109375 41.796875 66.109375 
Q 29.296875 66.109375 22.65625 58.46875 
Q 16.015625 50.828125 16.015625 36.375 
Q 16.015625 21.96875 22.65625 14.328125 
Q 29.296875 6.6875 41.796875 6.6875 
Q 48.140625 6.6875 53.78125 8.984375 
Q 59.421875 11.28125 64.40625 15.921875 
L 64.40625 5.609375 
Q 59.234375 2.09375 53.4375 0.328125 
Q 47.65625 -1.421875 41.21875 -1.421875 
Q 24.65625 -1.421875 15.125 8.703125 
Q 5.609375 18.84375 5.609375 36.375 
Q 5.609375 53.953125 15.125 64.078125 
Q 24.65625 74.21875 41.21875 74.21875 
Q 47.75 74.21875 53.53125 72.484375 
Q 59.328125 70.75 64.40625 67.28125 
z
" id="DejaVuSans-67"/>
       <path d="M 34.28125 27.484375 
Q 23.390625 27.484375 19.1875 25 
Q 14.984375 22.515625 14.984375 16.5 
Q 14.984375 11.71875 18.140625 8.90625 
Q 21.296875 6.109375 26.703125 6.109375 
Q 34.1875 6.109375 38.703125 11.40625 
Q 43.21875 16.703125 43.21875 25.484375 
L 43.21875 27.484375 
z
M 52.203125 31.203125 
L 52.203125 0 
L 43.21875 0 
L 43.21875 8.296875 
Q 40.140625 3.328125 35.546875 0.953125 
Q 30.953125 -1.421875 24.3125 -1.421875 
Q 15.921875 -1.421875 10.953125 3.296875 
Q 6 8.015625 6 15.921875 
Q 6 25.140625 12.171875 29.828125 
Q 18.359375 34.515625 30.609375 34.515625 
L 43.21875 34.515625 
L 43.21875 35.40625 
Q 43.21875 41.609375 39.140625 45 
Q 35.0625 48.390625 27.6875 48.390625 
Q 23 48.390625 18.546875 47.265625 
Q 14.109375 46.140625 10.015625 43.890625 
L 10.015625 52.203125 
Q 14.9375 54.109375 19.578125 55.046875 
Q 24.21875 56 28.609375 56 
Q 40.484375 56 46.34375 49.84375 
Q 52.203125 43.703125 52.203125 31.203125 
z
" id="DejaVuSans-97"/>
       <path d="M 44.28125 53.078125 
L 44.28125 44.578125 
Q 40.484375 46.53125 36.375 47.5 
Q 32.28125 48.484375 27.875 48.484375 
Q 21.1875 48.484375 17.84375 46.4375 
Q 14.5 44.390625 14.5 40.28125 
Q 14.5 37.15625 16.890625 35.375 
Q 19.28125 33.59375 26.515625 31.984375 
L 29.59375 31.296875 
Q 39.15625 29.25 43.1875 25.515625 
Q 47.21875 21.78125 47.21875 15.09375 
Q 47.21875 7.46875 41.1875 3.015625 
Q 35.15625 -1.421875 24.609375 -1.421875 
Q 20.21875 -1.421875 15.453125 -0.5625 
Q 10.6875 0.296875 5.421875 2 
L 5.421875 11.28125 
Q 10.40625 8.6875 15.234375 7.390625 
Q 20.0625 6.109375 24.8125 6.109375 
Q 31.15625 6.109375 34.5625 8.28125 
Q 37.984375 10.453125 37.984375 14.40625 
Q 37.984375 18.0625 35.515625 20.015625 
Q 33.0625 21.96875 24.703125 23.78125 
L 21.578125 24.515625 
Q 13.234375 26.265625 9.515625 29.90625 
Q 5.8125 33.546875 5.8125 39.890625 
Q 5.8125 47.609375 11.28125 51.796875 
Q 16.75 56 26.8125 56 
Q 31.78125 56 36.171875 55.265625 
Q 40.578125 54.546875 44.28125 53.078125 
z
" id="DejaVuSans-115"/>
      </defs>
      <use xlink:href="#DejaVuSans-67"/>
      <use x="69.824219" xlink:href="#DejaVuSans-97"/>
      <use x="131.103516" xlink:href="#DejaVuSans-115"/>
      <use x="183.203125" xlink:href="#DejaVuSans-101"/>
      <use x="244.726562" xlink:href="#DejaVuSans-115"/>
     </g>
    </g>
   </g>
   <g id="line2d_109">
    <path clip-path="url(#pf806a7c25e)" d="M -1 254.301522 
L 0.521807 254.301522 
L 0.521807 247.64329 
L 4.411544 247.64329 
L 4.411544 243.127192 
L 8.301281 243.127192 
L 8.301281 239.422943 
L 12.191018 239.422943 
L 12.191018 230.837494 
L 16.080755 230.837494 
L 16.080755 226.800648 
L 19.970492 226.800648 
L 19.970492 223.651015 
L 23.860229 223.651015 
L 23.860229 219.185927 
L 27.749966 219.185927 
L 27.749966 215.819788 
L 31.639703 215.819788 
L 31.639703 210.176343 
L 35.52944 210.176343 
L 35.52944 205.721618 
L 39.419177 205.721618 
L 39.419177 200.186987 
L 43.308914 200.186987 
L 43.308914 194.547288 
L 47.198651 194.547288 
L 47.198651 187.061306 
L 51.088388 187.061306 
L 51.088388 181.186851 
L 54.978125 181.186851 
L 54.978125 175.627336 
L 58.867862 175.627336 
L 58.867862 170.772889 
L 62.757599 170.772889 
L 62.757599 166.779262 
L 66.647336 166.779262 
L 66.647336 161.393131 
L 70.537073 161.393131 
L 70.537073 158.072682 
L 74.42681 158.072682 
L 74.42681 153.038967 
L 78.316547 153.038967 
L 78.316547 145.304555 
L 82.206284 145.304555 
L 82.206284 140.669085 
L 86.096021 140.669085 
L 86.096021 136.014345 
L 89.985758 136.014345 
L 89.985758 131.837896 
L 93.875495 131.837896 
L 93.875495 123.926184 
L 97.765232 123.926184 
L 97.765232 118.250302 
L 101.654969 118.250302 
L 101.654969 115.820602 
L 105.544706 115.820602 
L 105.544706 111.524979 
L 109.434443 111.524979 
L 109.434443 108.520885 
L 113.32418 108.520885 
L 113.32418 104.198621 
L 117.213917 104.198621 
L 117.213917 98.678176 
L 121.103654 98.678176 
L 121.103654 96.897291 
L 124.993391 96.897291 
L 124.993391 92.857491 
L 128.883128 92.857491 
L 128.883128 90.564226 
L 132.772865 90.564226 
L 132.772865 88.267463 
L 136.662602 88.267463 
L 136.662602 84.381084 
L 140.552339 84.381084 
L 140.552339 81.792401 
L 144.442077 81.792401 
L 144.442077 80.211794 
L 148.331814 80.211794 
L 148.331814 79.750558 
L 152.221551 79.750558 
L 152.221551 78.157651 
L 156.111288 78.157651 
L 156.111288 74.932878 
L 160.001025 74.932878 
L 160.001025 73.892597 
L 163.890762 73.892597 
L 163.890762 73.372255 
L 167.780499 73.372255 
L 167.780499 70.415758 
L 171.670236 70.415758 
L 171.670236 68.97083 
L 175.559973 68.97083 
L 175.559973 67.677076 
L 179.44971 67.677076 
L 179.44971 65.606705 
L 183.339447 65.606705 
L 183.339447 64.914683 
L 187.229184 64.914683 
L 187.229184 64.436631 
L 191.118921 64.436631 
L 191.118921 62.581726 
L 195.008658 62.581726 
L 195.008658 62.078002 
L 198.898395 62.078002 
L 198.898395 61.129447 
L 202.788132 61.129447 
L 202.788132 60.283185 
L 206.677869 60.283185 
L 206.677869 60.517405 
L 210.567606 60.517405 
L 210.567606 61.792715 
L 214.457343 61.792715 
L 214.457343 62.056541 
L 218.34708 62.056541 
L 218.34708 61.164478 
L 222.236817 61.164478 
L 222.236817 63.836936 
L 226.126554 63.836936 
L 226.126554 65.25934 
L 230.016291 65.25934 
L 230.016291 65.777526 
L 233.906028 65.777526 
L 233.906028 68.438862 
L 237.795765 68.438862 
L 237.795765 69.155183 
L 241.685502 69.155183 
L 241.685502 70.745301 
L 245.575239 70.745301 
L 245.575239 75.124677 
L 249.464976 75.124677 
L 249.464976 77.22068 
L 253.354713 77.22068 
L 253.354713 79.825316 
L 257.24445 79.825316 
L 257.24445 82.947195 
L 261.134187 82.947195 
L 261.134187 84.965515 
L 265.023924 84.965515 
L 265.023924 87.447139 
L 268.913661 87.447139 
L 268.913661 89.727327 
L 272.803398 89.727327 
L 272.803398 93.319165 
L 276.693135 93.319165 
L 276.693135 95.488962 
L 280.582872 95.488962 
L 280.582872 99.471073 
L 284.472609 99.471073 
L 284.472609 103.135693 
L 288.362346 103.135693 
L 288.362346 106.093484 
L 292.252083 106.093484 
L 292.252083 110.039741 
L 296.14182 110.039741 
L 296.14182 113.448835 
L 300.031557 113.448835 
L 300.031557 116.305734 
L 303.921294 116.305734 
L 303.921294 119.360037 
L 307.811031 119.360037 
L 307.811031 121.915224 
L 311.700768 121.915224 
L 311.700768 124.83373 
L 315.590505 124.83373 
L 315.590505 129.181585 
L 319.480242 129.181585 
L 319.480242 131.561525 
L 323.36998 131.561525 
L 323.36998 135.07227 
L 327.259717 135.07227 
L 327.259717 137.84169 
L 331.149454 137.84169 
L 331.149454 140.415921 
L 335.039191 140.415921 
L 335.039191 143.508833 
L 338.928928 143.508833 
L 338.928928 146.06289 
L 342.818665 146.06289 
L 342.818665 149.387726 
L 346.708402 149.387726 
L 346.708402 151.552926 
L 350.598139 151.552926 
L 350.598139 152.871364 
L 354.487876 152.871364 
L 354.487876 155.513825 
L 358.377613 155.513825 
L 358.377613 160.855504 
L 362.26735 160.855504 
L 362.26735 162.906227 
L 366.157087 162.906227 
L 366.157087 166.626781 
L 370.046824 166.626781 
L 370.046824 170.522826 
L 373.936561 170.522826 
L 373.936561 172.825993 
L 377.826298 172.825993 
L 377.826298 174.612875 
L 381.716035 174.612875 
L 381.716035 180.038233 
L 385.605772 180.038233 
L 385.605772 183.913938 
L 389.495509 183.913938 
L 389.495509 187.061306 
L 393.385246 187.061306 
L 393.385246 189.931268 
L 397.274983 189.931268 
L 397.274983 193.277746 
L 401.16472 193.277746 
L 401.16472 196.898371 
L 405.054457 196.898371 
L 405.054457 201.674881 
L 408.944194 201.674881 
L 408.944194 207.220722 
L 412.833931 207.220722 
L 412.833931 209.368661 
L 416.723668 209.368661 
L 416.723668 218.197744 
L 420.613405 218.197744 
L 420.613405 220.970234 
L 424.503142 220.970234 
L 424.503142 221.757543 
L 428.392879 221.757543 
L 428.392879 222.559124 
L 432.282616 222.559124 
L 432.282616 226.504865 
L 436.172353 226.504865 
L 436.172353 229.240954 
L 440.06209 229.240954 
L 440.06209 229.87267 
L 443.951827 229.87267 
L 443.951827 230.837494 
L 447.841564 230.837494 
L 447.841564 230.191945 
L 451.731301 230.191945 
L 451.731301 231.492607 
L 455.621038 231.492607 
L 455.621038 228.618137 
L 459.510775 228.618137 
L 459.510775 228.003969 
L 463.400512 228.003969 
L 463.400512 229.555684 
L 467.290249 229.555684 
L 467.290249 232.157572 
L 471.179986 232.157572 
L 471.179986 233.174153 
L 475.069723 233.174153 
L 475.069723 236.005157 
L 478.95946 236.005157 
L 478.95946 239.02988 
L 482.849197 239.02988 
L 482.849197 241.031096 
L 486.738934 241.031096 
L 486.738934 247.170352 
L 490.628671 247.170352 
L 490.628671 248.121342 
L 494.518408 248.121342 
L 494.518408 250.086969 
L 498.408145 250.086969 
L 498.408145 254.857747 
L 502.297883 254.857747 
L 502.297883 260.206191 
L 506.18762 260.206191 
L 506.18762 263.483196 
L 510.077357 263.483196 
L 510.077357 274.20911 
L 513.967094 274.20911 
L 513.967094 284.952028 
L 517.856831 284.952028 
L 517.856831 288.399436 
L 521.746568 288.399436 
L 521.746568 293.458585 
L 529.526042 293.458585 
L 529.526042 294.819288 
L 533.415779 294.819288 
L 533.415779 297.673138 
L 537.305516 297.673138 
L 537.305516 302.33211 
L 545.08499 302.33211 
L 545.08499 307.540397 
L 548.974727 307.540397 
L 548.974727 317.87069 
L 552.864464 317.87069 
L 552.864464 320.261507 
L 556.754201 320.261507 
L 556.754201 334.651469 
L 560.643938 334.651469 
L 560.643938 368.841411 
L 572.313149 368.841411 
L 572.313149 386.770808 
L 576.202886 386.770808 
L 576.202886 417.421315 
L 580.092623 417.421315 
L 580.092623 505 
L 580.092623 505 
" style="fill:none;stroke:#808080;stroke-linecap:square;stroke-opacity:0.25;stroke-width:1.5;"/>
   </g>
   <g id="line2d_110">
    <path clip-path="url(#pf806a7c25e)" d="M -1 254.301522 
L 0.521807 254.301522 
L 0.521807 247.64329 
L 4.411544 247.64329 
L 4.411544 243.127192 
L 8.301281 243.127192 
L 8.301281 239.422943 
L 12.191018 239.422943 
L 12.191018 230.837494 
L 16.080755 230.837494 
L 16.080755 226.800648 
L 19.970492 226.800648 
L 19.970492 223.651015 
L 23.860229 223.651015 
L 23.860229 219.185927 
L 27.749966 219.185927 
L 27.749966 215.819788 
L 31.639703 215.819788 
L 31.639703 210.176343 
L 35.52944 210.176343 
L 35.52944 205.721618 
L 39.419177 205.721618 
L 39.419177 200.186987 
L 43.308914 200.186987 
L 43.308914 194.547288 
L 47.198651 194.547288 
L 47.198651 187.061306 
L 51.088388 187.061306 
L 51.088388 181.186851 
L 54.978125 181.186851 
L 54.978125 175.627336 
L 58.867862 175.627336 
L 58.867862 170.772889 
L 62.757599 170.772889 
L 62.757599 166.779262 
L 66.647336 166.779262 
L 66.647336 161.393131 
L 70.537073 161.393131 
L 70.537073 158.072682 
L 74.42681 158.072682 
L 74.42681 153.038967 
L 78.316547 153.038967 
L 78.316547 145.304555 
L 82.206284 145.304555 
L 82.206284 140.669085 
L 86.096021 140.669085 
L 86.096021 136.014345 
L 89.985758 136.014345 
L 89.985758 131.837896 
L 93.875495 131.837896 
L 93.875495 123.926184 
L 97.765232 123.926184 
L 97.765232 118.250302 
L 101.654969 118.250302 
L 101.654969 115.820602 
L 105.544706 115.820602 
L 105.544706 111.524979 
L 109.434443 111.524979 
L 109.434443 108.520885 
L 113.32418 108.520885 
L 113.32418 104.198621 
L 117.213917 104.198621 
L 117.213917 98.678176 
L 121.103654 98.678176 
L 121.103654 96.897291 
L 124.993391 96.897291 
L 124.993391 92.857491 
L 128.883128 92.857491 
L 128.883128 90.564226 
L 132.772865 90.564226 
L 132.772865 88.267463 
L 136.662602 88.267463 
L 136.662602 84.381084 
L 140.552339 84.381084 
L 140.552339 81.792401 
L 144.442077 81.792401 
L 144.442077 80.211794 
L 148.331814 80.211794 
L 148.331814 79.750558 
L 152.221551 79.750558 
L 152.221551 78.157651 
L 156.111288 78.157651 
L 156.111288 74.932878 
L 160.001025 74.932878 
L 160.001025 73.892597 
L 163.890762 73.892597 
L 163.890762 73.372255 
L 167.780499 73.372255 
L 167.780499 70.415758 
L 171.670236 70.415758 
L 171.670236 68.97083 
L 175.559973 68.97083 
L 175.559973 67.677076 
L 179.44971 67.677076 
L 179.44971 65.606705 
L 183.339447 65.606705 
L 183.339447 64.914683 
L 187.229184 64.914683 
L 187.229184 64.436631 
L 191.118921 64.436631 
L 191.118921 62.581726 
L 195.008658 62.581726 
L 195.008658 62.078002 
L 198.898395 62.078002 
L 198.898395 61.129447 
L 202.788132 61.129447 
L 202.788132 60.283185 
L 206.677869 60.283185 
L 206.677869 60.517405 
L 210.567606 60.517405 
L 210.567606 61.792715 
L 214.457343 61.792715 
L 214.457343 62.056541 
L 218.34708 62.056541 
L 218.34708 61.164478 
L 222.236817 61.164478 
L 222.236817 63.836936 
L 226.126554 63.836936 
L 226.126554 65.25934 
L 230.016291 65.25934 
L 230.016291 65.777526 
L 233.906028 65.777526 
L 233.906028 68.438862 
L 237.795765 68.438862 
L 237.795765 69.155183 
L 241.685502 69.155183 
L 241.685502 70.745301 
L 245.575239 70.745301 
L 245.575239 75.124677 
L 249.464976 75.124677 
L 249.464976 77.22068 
L 253.354713 77.22068 
L 253.354713 79.825316 
L 257.24445 79.825316 
L 257.24445 82.947195 
L 261.134187 82.947195 
L 261.134187 84.965515 
L 265.023924 84.965515 
L 265.023924 87.447139 
L 268.913661 87.447139 
L 268.913661 89.727327 
L 272.803398 89.727327 
L 272.803398 93.319165 
L 276.693135 93.319165 
L 276.693135 95.488962 
L 280.582872 95.488962 
L 280.582872 99.471073 
L 284.472609 99.471073 
L 284.472609 103.135693 
L 288.362346 103.135693 
L 288.362346 106.093484 
L 292.252083 106.093484 
L 292.252083 110.039741 
L 296.14182 110.039741 
L 296.14182 113.448835 
L 300.031557 113.448835 
L 300.031557 116.305734 
L 303.921294 116.305734 
L 303.921294 119.360037 
L 307.811031 119.360037 
L 307.811031 121.915224 
L 311.700768 121.915224 
L 311.700768 124.83373 
L 315.590505 124.83373 
L 315.590505 129.181585 
L 319.480242 129.181585 
L 319.480242 131.561525 
L 323.36998 131.561525 
L 323.36998 135.07227 
L 327.259717 135.07227 
L 327.259717 137.84169 
L 331.149454 137.84169 
L 331.149454 140.415921 
L 335.039191 140.415921 
L 335.039191 143.508833 
L 338.928928 143.508833 
L 338.928928 146.06289 
L 342.818665 146.06289 
L 342.818665 149.387726 
L 346.708402 149.387726 
L 346.708402 151.552926 
L 350.598139 151.552926 
L 350.598139 152.871364 
L 354.487876 152.871364 
L 354.487876 155.513825 
L 358.377613 155.513825 
L 358.377613 160.855504 
L 362.26735 160.855504 
L 362.26735 162.906227 
L 366.157087 162.906227 
L 366.157087 166.626781 
L 370.046824 166.626781 
L 370.046824 170.522826 
L 373.936561 170.522826 
L 373.936561 172.825993 
L 377.826298 172.825993 
L 377.826298 174.612875 
L 381.716035 174.612875 
L 381.716035 180.038233 
L 385.605772 180.038233 
L 385.605772 183.913938 
L 389.495509 183.913938 
L 389.495509 187.061306 
L 393.385246 187.061306 
L 393.385246 189.931268 
L 397.274983 189.931268 
L 397.274983 193.277746 
L 401.16472 193.277746 
L 401.16472 196.898371 
L 405.054457 196.898371 
L 405.054457 201.674881 
L 408.944194 201.674881 
L 408.944194 207.220722 
L 412.833931 207.220722 
L 412.833931 209.368661 
L 416.723668 209.368661 
L 416.723668 218.197744 
L 420.613405 218.197744 
L 420.613405 220.970234 
L 424.503142 220.970234 
L 424.503142 221.757543 
L 428.392879 221.757543 
L 428.392879 222.559124 
L 432.282616 222.559124 
L 432.282616 226.504865 
L 436.172353 226.504865 
L 436.172353 229.240954 
L 440.06209 229.240954 
L 440.06209 229.87267 
L 443.951827 229.87267 
L 443.951827 230.837494 
L 447.841564 230.837494 
L 447.841564 230.191945 
L 451.731301 230.191945 
L 451.731301 231.492607 
L 455.621038 231.492607 
L 455.621038 228.618137 
L 459.510775 228.618137 
L 459.510775 228.003969 
L 463.400512 228.003969 
L 463.400512 229.555684 
L 467.290249 229.555684 
L 467.290249 232.157572 
L 471.179986 232.157572 
L 471.179986 233.174153 
L 475.069723 233.174153 
L 475.069723 236.005157 
L 478.95946 236.005157 
L 478.95946 239.02988 
L 482.849197 239.02988 
L 482.849197 241.031096 
L 486.738934 241.031096 
L 486.738934 247.170352 
L 490.628671 247.170352 
L 490.628671 248.121342 
L 494.518408 248.121342 
L 494.518408 250.086969 
L 498.408145 250.086969 
L 498.408145 254.857747 
L 502.297883 254.857747 
L 502.297883 260.206191 
L 506.18762 260.206191 
L 506.18762 263.483196 
L 510.077357 263.483196 
L 510.077357 274.20911 
L 513.967094 274.20911 
L 513.967094 284.952028 
L 517.856831 284.952028 
L 517.856831 288.399436 
L 521.746568 288.399436 
L 521.746568 293.458585 
L 529.526042 293.458585 
L 529.526042 294.819288 
L 533.415779 294.819288 
L 533.415779 297.673138 
L 537.305516 297.673138 
L 537.305516 302.33211 
L 545.08499 302.33211 
L 545.08499 307.540397 
L 548.974727 307.540397 
L 548.974727 317.87069 
L 552.864464 317.87069 
L 552.864464 320.261507 
L 556.754201 320.261507 
L 556.754201 334.651469 
L 560.643938 334.651469 
L 560.643938 368.841411 
L 572.313149 368.841411 
L 572.313149 386.770808 
L 576.202886 386.770808 
L 576.202886 417.421315 
L 580.092623 417.421315 
L 580.092623 505 
L 580.092623 505 
" style="fill:none;stroke:#808080;stroke-linecap:square;stroke-width:1.5;"/>
   </g>
   <g id="line2d_111">
    <path clip-path="url(#pf806a7c25e)" d="M 401.16472 -1 
L 401.16472 158.387411 
L 517.856831 158.387411 
L 517.856831 260.206191 
L 618.989993 260.206191 
L 618.989993 448.071821 
L 673.446311 448.071821 
L 673.446311 505 
" style="fill:none;stroke:#000000;stroke-linecap:square;stroke-width:2;"/>
   </g>
   <g id="patch_3">
    <path d="M 54.978125 463.84375 
L 54.978125 25.918125 
" style="fill:none;stroke:#000000;stroke-linecap:square;stroke-linejoin:miter;stroke-width:0.8;"/>
   </g>
   <g id="patch_4">
    <path d="M 766.8 463.84375 
L 766.8 25.918125 
" style="fill:none;stroke:#000000;stroke-linecap:square;stroke-linejoin:miter;stroke-width:0.8;"/>
   </g>
   <g id="patch_5">
    <path d="M 54.978125 463.84375 
L 766.8 463.84375 
" style="fill:none;stroke:#000000;stroke-linecap:square;stroke-linejoin:miter;stroke-width:0.8;"/>
   </g>
   <g id="patch_6">
    <path d="M 54.978125 25.918125 
L 766.8 25.918125 
" style="fill:none;stroke:#000000;stroke-linecap:square;stroke-linejoin:miter;stroke-width:0.8;"/>
   </g>
   <g id="text_38">
    <!-- VIC 14 day average with Melbourne reopening targets -->
    <g transform="translate(248.191562 19.918125)scale(0.12 -0.12)">
     <defs>
      <path d="M 28.609375 0 
L 0.78125 72.90625 
L 11.078125 72.90625 
L 34.1875 11.53125 
L 57.328125 72.90625 
L 67.578125 72.90625 
L 39.796875 0 
z
" id="DejaVuSans-86"/>
      <path d="M 9.8125 72.90625 
L 19.671875 72.90625 
L 19.671875 0 
L 9.8125 0 
z
" id="DejaVuSans-73"/>
      <path id="DejaVuSans-32"/>
      <path d="M 45.40625 46.390625 
L 45.40625 75.984375 
L 54.390625 75.984375 
L 54.390625 0 
L 45.40625 0 
L 45.40625 8.203125 
Q 42.578125 3.328125 38.25 0.953125 
Q 33.9375 -1.421875 27.875 -1.421875 
Q 17.96875 -1.421875 11.734375 6.484375 
Q 5.515625 14.40625 5.515625 27.296875 
Q 5.515625 40.1875 11.734375 48.09375 
Q 17.96875 56 27.875 56 
Q 33.9375 56 38.25 53.625 
Q 42.578125 51.265625 45.40625 46.390625 
z
M 14.796875 27.296875 
Q 14.796875 17.390625 18.875 11.75 
Q 22.953125 6.109375 30.078125 6.109375 
Q 37.203125 6.109375 41.296875 11.75 
Q 45.40625 17.390625 45.40625 27.296875 
Q 45.40625 37.203125 41.296875 42.84375 
Q 37.203125 48.484375 30.078125 48.484375 
Q 22.953125 48.484375 18.875 42.84375 
Q 14.796875 37.203125 14.796875 27.296875 
z
" id="DejaVuSans-100"/>
      <path d="M 32.171875 -5.078125 
Q 28.375 -14.84375 24.75 -17.8125 
Q 21.140625 -20.796875 15.09375 -20.796875 
L 7.90625 -20.796875 
L 7.90625 -13.28125 
L 13.1875 -13.28125 
Q 16.890625 -13.28125 18.9375 -11.515625 
Q 21 -9.765625 23.484375 -3.21875 
L 25.09375 0.875 
L 2.984375 54.6875 
L 12.5 54.6875 
L 29.59375 11.921875 
L 46.6875 54.6875 
L 56.203125 54.6875 
z
" id="DejaVuSans-121"/>
      <path d="M 41.109375 46.296875 
Q 39.59375 47.171875 37.8125 47.578125 
Q 36.03125 48 33.890625 48 
Q 26.265625 48 22.1875 43.046875 
Q 18.109375 38.09375 18.109375 28.8125 
L 18.109375 0 
L 9.078125 0 
L 9.078125 54.6875 
L 18.109375 54.6875 
L 18.109375 46.1875 
Q 20.953125 51.171875 25.484375 53.578125 
Q 30.03125 56 36.53125 56 
Q 37.453125 56 38.578125 55.875 
Q 39.703125 55.765625 41.0625 55.515625 
z
" id="DejaVuSans-114"/>
      <path d="M 4.203125 54.6875 
L 13.1875 54.6875 
L 24.421875 12.015625 
L 35.59375 54.6875 
L 46.1875 54.6875 
L 57.421875 12.015625 
L 68.609375 54.6875 
L 77.59375 54.6875 
L 63.28125 0 
L 52.6875 0 
L 40.921875 44.828125 
L 29.109375 0 
L 18.5 0 
z
" id="DejaVuSans-119"/>
      <path d="M 9.421875 54.6875 
L 18.40625 54.6875 
L 18.40625 0 
L 9.421875 0 
z
M 9.421875 75.984375 
L 18.40625 75.984375 
L 18.40625 64.59375 
L 9.421875 64.59375 
z
" id="DejaVuSans-105"/>
      <path d="M 54.890625 33.015625 
L 54.890625 0 
L 45.90625 0 
L 45.90625 32.71875 
Q 45.90625 40.484375 42.875 44.328125 
Q 39.84375 48.1875 33.796875 48.1875 
Q 26.515625 48.1875 22.3125 43.546875 
Q 18.109375 38.921875 18.109375 30.90625 
L 18.109375 0 
L 9.078125 0 
L 9.078125 75.984375 
L 18.109375 75.984375 
L 18.109375 46.1875 
Q 21.34375 51.125 25.703125 53.5625 
Q 30.078125 56 35.796875 56 
Q 45.21875 56 50.046875 50.171875 
Q 54.890625 44.34375 54.890625 33.015625 
z
" id="DejaVuSans-104"/>
      <path d="M 9.8125 72.90625 
L 24.515625 72.90625 
L 43.109375 23.296875 
L 61.8125 72.90625 
L 76.515625 72.90625 
L 76.515625 0 
L 66.890625 0 
L 66.890625 64.015625 
L 48.09375 14.015625 
L 38.1875 14.015625 
L 19.390625 64.015625 
L 19.390625 0 
L 9.8125 0 
z
" id="DejaVuSans-77"/>
      <path d="M 48.6875 27.296875 
Q 48.6875 37.203125 44.609375 42.84375 
Q 40.53125 48.484375 33.40625 48.484375 
Q 26.265625 48.484375 22.1875 42.84375 
Q 18.109375 37.203125 18.109375 27.296875 
Q 18.109375 17.390625 22.1875 11.75 
Q 26.265625 6.109375 33.40625 6.109375 
Q 40.53125 6.109375 44.609375 11.75 
Q 48.6875 17.390625 48.6875 27.296875 
z
M 18.109375 46.390625 
Q 20.953125 51.265625 25.265625 53.625 
Q 29.59375 56 35.59375 56 
Q 45.5625 56 51.78125 48.09375 
Q 58.015625 40.1875 58.015625 27.296875 
Q 58.015625 14.40625 51.78125 6.484375 
Q 45.5625 -1.421875 35.59375 -1.421875 
Q 29.59375 -1.421875 25.265625 0.953125 
Q 20.953125 3.328125 18.109375 8.203125 
L 18.109375 0 
L 9.078125 0 
L 9.078125 75.984375 
L 18.109375 75.984375 
z
" id="DejaVuSans-98"/>
      <path d="M 54.890625 33.015625 
L 54.890625 0 
L 45.90625 0 
L 45.90625 32.71875 
Q 45.90625 40.484375 42.875 44.328125 
Q 39.84375 48.1875 33.796875 48.1875 
Q 26.515625 48.1875 22.3125 43.546875 
Q 18.109375 38.921875 18.109375 30.90625 
L 18.109375 0 
L 9.078125 0 
L 9.078125 54.6875 
L 18.109375 54.6875 
L 18.109375 46.1875 
Q 21.34375 51.125 25.703125 53.5625 
Q 30.078125 56 35.796875 56 
Q 45.21875 56 50.046875 50.171875 
Q 54.890625 44.34375 54.890625 33.015625 
z
" id="DejaVuSans-110"/>
     </defs>
     <use xlink:href="#DejaVuSans-86"/>
     <use x="68.408203" xlink:href="#DejaVuSans-73"/>
     <use x="97.900391" xlink:href="#DejaVuSans-67"/>
     <use x="167.724609" xlink:href="#DejaVuSans-32"/>
     <use x="199.511719" xlink:href="#DejaVuSans-49"/>
     <use x="263.134766" xlink:href="#DejaVuSans-52"/>
     <use x="326.757812" xlink:href="#DejaVuSans-32"/>
     <use x="358.544922" xlink:href="#DejaVuSans-100"/>
     <use x="422.021484" xlink:href="#DejaVuSans-97"/>
     <use x="483.300781" xlink:href="#DejaVuSans-121"/>
     <use x="542.480469" xlink:href="#DejaVuSans-32"/>
     <use x="574.267578" xlink:href="#DejaVuSans-97"/>
     <use x="635.546875" xlink:href="#DejaVuSans-118"/>
     <use x="694.726562" xlink:href="#DejaVuSans-101"/>
     <use x="756.25" xlink:href="#DejaVuSans-114"/>
     <use x="797.363281" xlink:href="#DejaVuSans-97"/>
     <use x="858.642578" xlink:href="#DejaVuSans-103"/>
     <use x="922.119141" xlink:href="#DejaVuSans-101"/>
     <use x="983.642578" xlink:href="#DejaVuSans-32"/>
     <use x="1015.429688" xlink:href="#DejaVuSans-119"/>
     <use x="1097.216797" xlink:href="#DejaVuSans-105"/>
     <use x="1125" xlink:href="#DejaVuSans-116"/>
     <use x="1164.208984" xlink:href="#DejaVuSans-104"/>
     <use x="1227.587891" xlink:href="#DejaVuSans-32"/>
     <use x="1259.375" xlink:href="#DejaVuSans-77"/>
     <use x="1345.654297" xlink:href="#DejaVuSans-101"/>
     <use x="1407.177734" xlink:href="#DejaVuSans-108"/>
     <use x="1434.960938" xlink:href="#DejaVuSans-98"/>
     <use x="1498.4375" xlink:href="#DejaVuSans-111"/>
     <use x="1559.619141" xlink:href="#DejaVuSans-117"/>
     <use x="1622.998047" xlink:href="#DejaVuSans-114"/>
     <use x="1662.361328" xlink:href="#DejaVuSans-110"/>
     <use x="1725.740234" xlink:href="#DejaVuSans-101"/>
     <use x="1787.263672" xlink:href="#DejaVuSans-32"/>
     <use x="1819.050781" xlink:href="#DejaVuSans-114"/>
     <use x="1857.914062" xlink:href="#DejaVuSans-101"/>
     <use x="1919.4375" xlink:href="#DejaVuSans-111"/>
     <use x="1980.619141" xlink:href="#DejaVuSans-112"/>
     <use x="2044.095703" xlink:href="#DejaVuSans-101"/>
     <use x="2105.619141" xlink:href="#DejaVuSans-110"/>
     <use x="2168.998047" xlink:href="#DejaVuSans-105"/>
     <use x="2196.78125" xlink:href="#DejaVuSans-110"/>
     <use x="2260.160156" xlink:href="#DejaVuSans-103"/>
     <use x="2323.636719" xlink:href="#DejaVuSans-32"/>
     <use x="2355.423828" xlink:href="#DejaVuSans-116"/>
     <use x="2394.632812" xlink:href="#DejaVuSans-97"/>
     <use x="2455.912109" xlink:href="#DejaVuSans-114"/>
     <use x="2495.275391" xlink:href="#DejaVuSans-103"/>
     <use x="2558.751953" xlink:href="#DejaVuSans-101"/>
     <use x="2620.275391" xlink:href="#DejaVuSans-116"/>
     <use x="2659.484375" xlink:href="#DejaVuSans-115"/>
    </g>
   </g>
   <g id="line2d_112">
    <path clip-path="url(#pf806a7c25e)" d="M 311.700768 97.086398 
L 315.590505 97.086398 
L 315.590505 98.433284 
L 319.480242 98.433284 
L 319.480242 126.002591 
L 335.039191 126.002591 
L 335.039191 130.472994 
L 338.928928 130.472994 
L 338.928928 135.976274 
L 342.818665 135.976274 
L 342.818665 136.512273 
L 346.708402 136.512273 
L 346.708402 135.446695 
L 350.598139 135.446695 
L 350.598139 141.653204 
L 354.487876 141.653204 
L 354.487876 147.471423 
L 358.377613 147.471423 
L 358.377613 156.653098 
L 362.26735 156.653098 
L 362.26735 161.1235 
L 366.157087 161.1235 
L 366.157087 163.046383 
L 370.046824 163.046383 
L 370.046824 167.16278 
L 373.936561 167.16278 
L 373.936561 171.702078 
L 377.826298 171.702078 
L 377.826298 175.441149 
L 381.716035 175.441149 
L 381.716035 179.525836 
L 393.385246 179.525836 
L 393.385246 185.634752 
L 397.274983 185.634752 
L 397.274983 196.747709 
L 401.16472 196.747709 
L 401.16472 201.173333 
L 405.054457 201.173333 
L 405.054457 214.677106 
L 408.944194 214.677106 
L 408.944194 225.341131 
L 412.833931 225.341131 
L 412.833931 217.954111 
L 424.503142 217.954111 
L 424.503142 221.493546 
L 428.392879 221.493546 
L 428.392879 214.677106 
L 432.282616 214.677106 
L 432.282616 221.493546 
L 436.172353 221.493546 
L 436.172353 229.555684 
L 443.951827 229.555684 
L 443.951827 225.341131 
L 447.841564 225.341131 
L 447.841564 217.954111 
L 451.731301 217.954111 
L 451.731301 214.677106 
L 455.621038 214.677106 
L 455.621038 211.626287 
L 459.510775 211.626287 
L 459.510775 206.091656 
L 467.290249 206.091656 
L 467.290249 211.626287 
L 475.069723 211.626287 
L 475.069723 217.954111 
L 478.95946 217.954111 
L 478.95946 229.555684 
L 494.518408 229.555684 
L 494.518408 234.214656 
L 498.408145 234.214656 
L 498.408145 245.327613 
L 502.297883 245.327613 
L 502.297883 252.144053 
L 506.18762 252.144053 
L 506.18762 282.79456 
L 510.077357 282.79456 
L 510.077357 270.07345 
L 513.967094 270.07345 
L 513.967094 300.723957 
L 521.746568 300.723957 
L 521.746568 331.374464 
L 529.526042 331.374464 
L 529.526042 300.723957 
L 556.754201 300.723957 
L 556.754201 331.374464 
L 583.98236 331.374464 
L 583.98236 505 
L 583.98236 505 
" style="fill:none;stroke:#0000ff;stroke-linecap:square;stroke-width:1.5;"/>
   </g>
   <g id="legend_1">
    <g id="patch_7">
     <path d="M 452.471875 92.630625 
L 759.8 92.630625 
Q 761.8 92.630625 761.8 90.630625 
L 761.8 32.918125 
Q 761.8 30.918125 759.8 30.918125 
L 452.471875 30.918125 
Q 450.471875 30.918125 450.471875 32.918125 
L 450.471875 90.630625 
Q 450.471875 92.630625 452.471875 92.630625 
z
" style="fill:#ffffff;opacity:0.8;stroke:#cccccc;stroke-linejoin:miter;"/>
    </g>
    <g id="line2d_113">
     <path d="M 454.471875 39.016563 
L 474.471875 39.016563 
" style="fill:none;stroke:#808080;stroke-linecap:square;stroke-width:1.5;"/>
    </g>
    <g id="line2d_114"/>
    <g id="text_39">
     <!-- 14d average daily cases -->
     <g transform="translate(482.471875 42.516563)scale(0.1 -0.1)">
      <use xlink:href="#DejaVuSans-49"/>
      <use x="63.623047" xlink:href="#DejaVuSans-52"/>
      <use x="127.246094" xlink:href="#DejaVuSans-100"/>
      <use x="190.722656" xlink:href="#DejaVuSans-32"/>
      <use x="222.509766" xlink:href="#DejaVuSans-97"/>
      <use x="283.789062" xlink:href="#DejaVuSans-118"/>
      <use x="342.96875" xlink:href="#DejaVuSans-101"/>
      <use x="404.492188" xlink:href="#DejaVuSans-114"/>
      <use x="445.605469" xlink:href="#DejaVuSans-97"/>
      <use x="506.884766" xlink:href="#DejaVuSans-103"/>
      <use x="570.361328" xlink:href="#DejaVuSans-101"/>
      <use x="631.884766" xlink:href="#DejaVuSans-32"/>
      <use x="663.671875" xlink:href="#DejaVuSans-100"/>
      <use x="727.148438" xlink:href="#DejaVuSans-97"/>
      <use x="788.427734" xlink:href="#DejaVuSans-105"/>
      <use x="816.210938" xlink:href="#DejaVuSans-108"/>
      <use x="843.994141" xlink:href="#DejaVuSans-121"/>
      <use x="903.173828" xlink:href="#DejaVuSans-32"/>
      <use x="934.960938" xlink:href="#DejaVuSans-99"/>
      <use x="989.941406" xlink:href="#DejaVuSans-97"/>
      <use x="1051.220703" xlink:href="#DejaVuSans-115"/>
      <use x="1103.320312" xlink:href="#DejaVuSans-101"/>
      <use x="1164.84375" xlink:href="#DejaVuSans-115"/>
     </g>
    </g>
    <g id="line2d_115">
     <path d="M 454.471875 53.694688 
L 474.471875 53.694688 
" style="fill:none;stroke:#000000;stroke-linecap:square;stroke-width:2;"/>
    </g>
    <g id="line2d_116"/>
    <g id="text_40">
     <!-- Required target -->
     <g transform="translate(482.471875 57.194688)scale(0.1 -0.1)">
      <defs>
       <path d="M 44.390625 34.1875 
Q 47.5625 33.109375 50.5625 29.59375 
Q 53.5625 26.078125 56.59375 19.921875 
L 66.609375 0 
L 56 0 
L 46.6875 18.703125 
Q 43.0625 26.03125 39.671875 28.421875 
Q 36.28125 30.8125 30.421875 30.8125 
L 19.671875 30.8125 
L 19.671875 0 
L 9.8125 0 
L 9.8125 72.90625 
L 32.078125 72.90625 
Q 44.578125 72.90625 50.734375 67.671875 
Q 56.890625 62.453125 56.890625 51.90625 
Q 56.890625 45.015625 53.6875 40.46875 
Q 50.484375 35.9375 44.390625 34.1875 
z
M 19.671875 64.796875 
L 19.671875 38.921875 
L 32.078125 38.921875 
Q 39.203125 38.921875 42.84375 42.21875 
Q 46.484375 45.515625 46.484375 51.90625 
Q 46.484375 58.296875 42.84375 61.546875 
Q 39.203125 64.796875 32.078125 64.796875 
z
" id="DejaVuSans-82"/>
       <path d="M 14.796875 27.296875 
Q 14.796875 17.390625 18.875 11.75 
Q 22.953125 6.109375 30.078125 6.109375 
Q 37.203125 6.109375 41.296875 11.75 
Q 45.40625 17.390625 45.40625 27.296875 
Q 45.40625 37.203125 41.296875 42.84375 
Q 37.203125 48.484375 30.078125 48.484375 
Q 22.953125 48.484375 18.875 42.84375 
Q 14.796875 37.203125 14.796875 27.296875 
z
M 45.40625 8.203125 
Q 42.578125 3.328125 38.25 0.953125 
Q 33.9375 -1.421875 27.875 -1.421875 
Q 17.96875 -1.421875 11.734375 6.484375 
Q 5.515625 14.40625 5.515625 27.296875 
Q 5.515625 40.1875 11.734375 48.09375 
Q 17.96875 56 27.875 56 
Q 33.9375 56 38.25 53.625 
Q 42.578125 51.265625 45.40625 46.390625 
L 45.40625 54.6875 
L 54.390625 54.6875 
L 54.390625 -20.796875 
L 45.40625 -20.796875 
z
" id="DejaVuSans-113"/>
      </defs>
      <use xlink:href="#DejaVuSans-82"/>
      <use x="64.982422" xlink:href="#DejaVuSans-101"/>
      <use x="126.505859" xlink:href="#DejaVuSans-113"/>
      <use x="189.982422" xlink:href="#DejaVuSans-117"/>
      <use x="253.361328" xlink:href="#DejaVuSans-105"/>
      <use x="281.144531" xlink:href="#DejaVuSans-114"/>
      <use x="320.007812" xlink:href="#DejaVuSans-101"/>
      <use x="381.53125" xlink:href="#DejaVuSans-100"/>
      <use x="445.007812" xlink:href="#DejaVuSans-32"/>
      <use x="476.794922" xlink:href="#DejaVuSans-116"/>
      <use x="516.003906" xlink:href="#DejaVuSans-97"/>
      <use x="577.283203" xlink:href="#DejaVuSans-114"/>
      <use x="616.646484" xlink:href="#DejaVuSans-103"/>
      <use x="680.123047" xlink:href="#DejaVuSans-101"/>
      <use x="741.646484" xlink:href="#DejaVuSans-116"/>
     </g>
    </g>
    <g id="line2d_117">
     <path d="M 454.471875 68.372813 
L 474.471875 68.372813 
" style="fill:none;stroke:#0000ff;stroke-linecap:square;stroke-width:1.5;"/>
    </g>
    <g id="line2d_118"/>
    <g id="text_41">
     <!-- 14d total mystery cases* (DHHS) -->
     <g transform="translate(482.471875 71.872813)scale(0.1 -0.1)">
      <defs>
       <path d="M 52 44.1875 
Q 55.375 50.25 60.0625 53.125 
Q 64.75 56 71.09375 56 
Q 79.640625 56 84.28125 50.015625 
Q 88.921875 44.046875 88.921875 33.015625 
L 88.921875 0 
L 79.890625 0 
L 79.890625 32.71875 
Q 79.890625 40.578125 77.09375 44.375 
Q 74.3125 48.1875 68.609375 48.1875 
Q 61.625 48.1875 57.5625 43.546875 
Q 53.515625 38.921875 53.515625 30.90625 
L 53.515625 0 
L 44.484375 0 
L 44.484375 32.71875 
Q 44.484375 40.625 41.703125 44.40625 
Q 38.921875 48.1875 33.109375 48.1875 
Q 26.21875 48.1875 22.15625 43.53125 
Q 18.109375 38.875 18.109375 30.90625 
L 18.109375 0 
L 9.078125 0 
L 9.078125 54.6875 
L 18.109375 54.6875 
L 18.109375 46.1875 
Q 21.1875 51.21875 25.484375 53.609375 
Q 29.78125 56 35.6875 56 
Q 41.65625 56 45.828125 52.96875 
Q 50 49.953125 52 44.1875 
z
" id="DejaVuSans-109"/>
       <path d="M 47.015625 60.890625 
L 29.5 51.421875 
L 47.015625 41.890625 
L 44.1875 37.109375 
L 27.78125 47.015625 
L 27.78125 28.609375 
L 22.21875 28.609375 
L 22.21875 47.015625 
L 5.8125 37.109375 
L 2.984375 41.890625 
L 20.515625 51.421875 
L 2.984375 60.890625 
L 5.8125 65.71875 
L 22.21875 55.8125 
L 22.21875 74.21875 
L 27.78125 74.21875 
L 27.78125 55.8125 
L 44.1875 65.71875 
z
" id="DejaVuSans-42"/>
       <path d="M 31 75.875 
Q 24.46875 64.65625 21.28125 53.65625 
Q 18.109375 42.671875 18.109375 31.390625 
Q 18.109375 20.125 21.3125 9.0625 
Q 24.515625 -2 31 -13.1875 
L 23.1875 -13.1875 
Q 15.875 -1.703125 12.234375 9.375 
Q 8.59375 20.453125 8.59375 31.390625 
Q 8.59375 42.28125 12.203125 53.3125 
Q 15.828125 64.359375 23.1875 75.875 
z
" id="DejaVuSans-40"/>
       <path d="M 9.8125 72.90625 
L 19.671875 72.90625 
L 19.671875 43.015625 
L 55.515625 43.015625 
L 55.515625 72.90625 
L 65.375 72.90625 
L 65.375 0 
L 55.515625 0 
L 55.515625 34.71875 
L 19.671875 34.71875 
L 19.671875 0 
L 9.8125 0 
z
" id="DejaVuSans-72"/>
       <path d="M 8.015625 75.875 
L 15.828125 75.875 
Q 23.140625 64.359375 26.78125 53.3125 
Q 30.421875 42.28125 30.421875 31.390625 
Q 30.421875 20.453125 26.78125 9.375 
Q 23.140625 -1.703125 15.828125 -13.1875 
L 8.015625 -13.1875 
Q 14.5 -2 17.703125 9.0625 
Q 20.90625 20.125 20.90625 31.390625 
Q 20.90625 42.671875 17.703125 53.65625 
Q 14.5 64.65625 8.015625 75.875 
z
" id="DejaVuSans-41"/>
      </defs>
      <use xlink:href="#DejaVuSans-49"/>
      <use x="63.623047" xlink:href="#DejaVuSans-52"/>
      <use x="127.246094" xlink:href="#DejaVuSans-100"/>
      <use x="190.722656" xlink:href="#DejaVuSans-32"/>
      <use x="222.509766" xlink:href="#DejaVuSans-116"/>
      <use x="261.71875" xlink:href="#DejaVuSans-111"/>
      <use x="322.900391" xlink:href="#DejaVuSans-116"/>
      <use x="362.109375" xlink:href="#DejaVuSans-97"/>
      <use x="423.388672" xlink:href="#DejaVuSans-108"/>
      <use x="451.171875" xlink:href="#DejaVuSans-32"/>
      <use x="482.958984" xlink:href="#DejaVuSans-109"/>
      <use x="580.371094" xlink:href="#DejaVuSans-121"/>
      <use x="639.550781" xlink:href="#DejaVuSans-115"/>
      <use x="691.650391" xlink:href="#DejaVuSans-116"/>
      <use x="730.859375" xlink:href="#DejaVuSans-101"/>
      <use x="792.382812" xlink:href="#DejaVuSans-114"/>
      <use x="833.496094" xlink:href="#DejaVuSans-121"/>
      <use x="892.675781" xlink:href="#DejaVuSans-32"/>
      <use x="924.462891" xlink:href="#DejaVuSans-99"/>
      <use x="979.443359" xlink:href="#DejaVuSans-97"/>
      <use x="1040.722656" xlink:href="#DejaVuSans-115"/>
      <use x="1092.822266" xlink:href="#DejaVuSans-101"/>
      <use x="1154.345703" xlink:href="#DejaVuSans-115"/>
      <use x="1206.445312" xlink:href="#DejaVuSans-42"/>
      <use x="1256.445312" xlink:href="#DejaVuSans-32"/>
      <use x="1288.232422" xlink:href="#DejaVuSans-40"/>
      <use x="1327.246094" xlink:href="#DejaVuSans-68"/>
      <use x="1404.248047" xlink:href="#DejaVuSans-72"/>
      <use x="1479.443359" xlink:href="#DejaVuSans-72"/>
      <use x="1554.638672" xlink:href="#DejaVuSans-83"/>
      <use x="1618.115234" xlink:href="#DejaVuSans-41"/>
     </g>
    </g>
    <g id="patch_8">
     <path d="M 454.471875 86.550938 
L 474.471875 86.550938 
L 474.471875 79.550938 
L 454.471875 79.550938 
z
" style="fill:#ff0000;opacity:0.5;"/>
    </g>
    <g id="text_42">
     <!-- First step -->
     <g transform="translate(482.471875 86.550938)scale(0.1 -0.1)">
      <defs>
       <path d="M 9.8125 72.90625 
L 51.703125 72.90625 
L 51.703125 64.59375 
L 19.671875 64.59375 
L 19.671875 43.109375 
L 48.578125 43.109375 
L 48.578125 34.8125 
L 19.671875 34.8125 
L 19.671875 0 
L 9.8125 0 
z
" id="DejaVuSans-70"/>
      </defs>
      <use xlink:href="#DejaVuSans-70"/>
      <use x="50.269531" xlink:href="#DejaVuSans-105"/>
      <use x="78.052734" xlink:href="#DejaVuSans-114"/>
      <use x="119.166016" xlink:href="#DejaVuSans-115"/>
      <use x="171.265625" xlink:href="#DejaVuSans-116"/>
      <use x="210.474609" xlink:href="#DejaVuSans-32"/>
      <use x="242.261719" xlink:href="#DejaVuSans-115"/>
      <use x="294.361328" xlink:href="#DejaVuSans-116"/>
      <use x="333.570312" xlink:href="#DejaVuSans-101"/>
      <use x="395.09375" xlink:href="#DejaVuSans-112"/>
     </g>
    </g>
    <g id="patch_9">
     <path d="M 668.185937 42.516563 
L 688.185937 42.516563 
L 688.185937 35.516563 
L 668.185937 35.516563 
z
" style="fill:#ffa500;opacity:0.5;"/>
    </g>
    <g id="text_43">
     <!-- Second step -->
     <g transform="translate(696.185937 42.516563)scale(0.1 -0.1)">
      <use xlink:href="#DejaVuSans-83"/>
      <use x="63.476562" xlink:href="#DejaVuSans-101"/>
      <use x="125" xlink:href="#DejaVuSans-99"/>
      <use x="179.980469" xlink:href="#DejaVuSans-111"/>
      <use x="241.162109" xlink:href="#DejaVuSans-110"/>
      <use x="304.541016" xlink:href="#DejaVuSans-100"/>
      <use x="368.017578" xlink:href="#DejaVuSans-32"/>
      <use x="399.804688" xlink:href="#DejaVuSans-115"/>
      <use x="451.904297" xlink:href="#DejaVuSans-116"/>
      <use x="491.113281" xlink:href="#DejaVuSans-101"/>
      <use x="552.636719" xlink:href="#DejaVuSans-112"/>
     </g>
    </g>
    <g id="patch_10">
     <path d="M 668.185937 57.194688 
L 688.185937 57.194688 
L 688.185937 50.194688 
L 668.185937 50.194688 
z
" style="fill:#ffd200;opacity:0.5;"/>
    </g>
    <g id="text_44">
     <!-- Step 2.5 -->
     <g transform="translate(696.185937 57.194688)scale(0.1 -0.1)">
      <use xlink:href="#DejaVuSans-83"/>
      <use x="63.476562" xlink:href="#DejaVuSans-116"/>
      <use x="102.685547" xlink:href="#DejaVuSans-101"/>
      <use x="164.208984" xlink:href="#DejaVuSans-112"/>
      <use x="227.685547" xlink:href="#DejaVuSans-32"/>
      <use x="259.472656" xlink:href="#DejaVuSans-50"/>
      <use x="323.095703" xlink:href="#DejaVuSans-46"/>
      <use x="354.882812" xlink:href="#DejaVuSans-53"/>
     </g>
    </g>
    <g id="patch_11">
     <path d="M 668.185937 71.872813 
L 688.185937 71.872813 
L 688.185937 64.872813 
L 668.185937 64.872813 
z
" style="fill:#ffff00;opacity:0.5;"/>
    </g>
    <g id="text_45">
     <!-- Third step -->
     <g transform="translate(696.185937 71.872813)scale(0.1 -0.1)">
      <defs>
       <path d="M -0.296875 72.90625 
L 61.375 72.90625 
L 61.375 64.59375 
L 35.5 64.59375 
L 35.5 0 
L 25.59375 0 
L 25.59375 64.59375 
L -0.296875 64.59375 
z
" id="DejaVuSans-84"/>
      </defs>
      <use xlink:href="#DejaVuSans-84"/>
      <use x="61.083984" xlink:href="#DejaVuSans-104"/>
      <use x="124.462891" xlink:href="#DejaVuSans-105"/>
      <use x="152.246094" xlink:href="#DejaVuSans-114"/>
      <use x="191.609375" xlink:href="#DejaVuSans-100"/>
      <use x="255.085938" xlink:href="#DejaVuSans-32"/>
      <use x="286.873047" xlink:href="#DejaVuSans-115"/>
      <use x="338.972656" xlink:href="#DejaVuSans-116"/>
      <use x="378.181641" xlink:href="#DejaVuSans-101"/>
      <use x="439.705078" xlink:href="#DejaVuSans-112"/>
     </g>
    </g>
    <g id="patch_12">
     <path d="M 668.185937 86.550938 
L 688.185937 86.550938 
L 688.185937 79.550938 
L 668.185937 79.550938 
z
" style="fill:#008000;opacity:0.5;"/>
    </g>
    <g id="text_46">
     <!-- Last step -->
     <g transform="translate(696.185937 86.550938)scale(0.1 -0.1)">
      <defs>
       <path d="M 9.8125 72.90625 
L 19.671875 72.90625 
L 19.671875 8.296875 
L 55.171875 8.296875 
L 55.171875 0 
L 9.8125 0 
z
" id="DejaVuSans-76"/>
      </defs>
      <use xlink:href="#DejaVuSans-76"/>
      <use x="55.712891" xlink:href="#DejaVuSans-97"/>
      <use x="116.992188" xlink:href="#DejaVuSans-115"/>
      <use x="169.091797" xlink:href="#DejaVuSans-116"/>
      <use x="208.300781" xlink:href="#DejaVuSans-32"/>
      <use x="240.087891" xlink:href="#DejaVuSans-115"/>
      <use x="292.1875" xlink:href="#DejaVuSans-116"/>
      <use x="331.396484" xlink:href="#DejaVuSans-101"/>
      <use x="392.919922" xlink:href="#DejaVuSans-112"/>
     </g>
    </g>
   </g>
  </g>
  <g id="text_47">
   <g id="patch_13">
    <path d="M 450.8708 111.308503 
L 665.726694 111.308503 
L 665.726694 96.541484 
L 450.8708 96.541484 
z
" style="fill:#ffffff;opacity:0.8;"/>
   </g>
   <!-- * 14d mystery cases must be below 5 to move to third step -->
   <g transform="translate(454.896 105.84)scale(0.0694 -0.0694)">
    <use xlink:href="#DejaVuSans-42"/>
    <use x="50" xlink:href="#DejaVuSans-32"/>
    <use x="81.787109" xlink:href="#DejaVuSans-49"/>
    <use x="145.410156" xlink:href="#DejaVuSans-52"/>
    <use x="209.033203" xlink:href="#DejaVuSans-100"/>
    <use x="272.509766" xlink:href="#DejaVuSans-32"/>
    <use x="304.296875" xlink:href="#DejaVuSans-109"/>
    <use x="401.708984" xlink:href="#DejaVuSans-121"/>
    <use x="460.888672" xlink:href="#DejaVuSans-115"/>
    <use x="512.988281" xlink:href="#DejaVuSans-116"/>
    <use x="552.197266" xlink:href="#DejaVuSans-101"/>
    <use x="613.720703" xlink:href="#DejaVuSans-114"/>
    <use x="654.833984" xlink:href="#DejaVuSans-121"/>
    <use x="714.013672" xlink:href="#DejaVuSans-32"/>
    <use x="745.800781" xlink:href="#DejaVuSans-99"/>
    <use x="800.78125" xlink:href="#DejaVuSans-97"/>
    <use x="862.060547" xlink:href="#DejaVuSans-115"/>
    <use x="914.160156" xlink:href="#DejaVuSans-101"/>
    <use x="975.683594" xlink:href="#DejaVuSans-115"/>
    <use x="1027.783203" xlink:href="#DejaVuSans-32"/>
    <use x="1059.570312" xlink:href="#DejaVuSans-109"/>
    <use x="1156.982422" xlink:href="#DejaVuSans-117"/>
    <use x="1220.361328" xlink:href="#DejaVuSans-115"/>
    <use x="1272.460938" xlink:href="#DejaVuSans-116"/>
    <use x="1311.669922" xlink:href="#DejaVuSans-32"/>
    <use x="1343.457031" xlink:href="#DejaVuSans-98"/>
    <use x="1406.933594" xlink:href="#DejaVuSans-101"/>
    <use x="1468.457031" xlink:href="#DejaVuSans-32"/>
    <use x="1500.244141" xlink:href="#DejaVuSans-98"/>
    <use x="1563.720703" xlink:href="#DejaVuSans-101"/>
    <use x="1625.244141" xlink:href="#DejaVuSans-108"/>
    <use x="1653.027344" xlink:href="#DejaVuSans-111"/>
    <use x="1714.208984" xlink:href="#DejaVuSans-119"/>
    <use x="1795.996094" xlink:href="#DejaVuSans-32"/>
    <use x="1827.783203" xlink:href="#DejaVuSans-53"/>
    <use x="1891.40625" xlink:href="#DejaVuSans-32"/>
    <use x="1923.193359" xlink:href="#DejaVuSans-116"/>
    <use x="1962.402344" xlink:href="#DejaVuSans-111"/>
    <use x="2023.583984" xlink:href="#DejaVuSans-32"/>
    <use x="2055.371094" xlink:href="#DejaVuSans-109"/>
    <use x="2152.783203" xlink:href="#DejaVuSans-111"/>
    <use x="2213.964844" xlink:href="#DejaVuSans-118"/>
    <use x="2273.144531" xlink:href="#DejaVuSans-101"/>
    <use x="2334.667969" xlink:href="#DejaVuSans-32"/>
    <use x="2366.455078" xlink:href="#DejaVuSans-116"/>
    <use x="2405.664062" xlink:href="#DejaVuSans-111"/>
    <use x="2466.845703" xlink:href="#DejaVuSans-32"/>
    <use x="2498.632812" xlink:href="#DejaVuSans-116"/>
    <use x="2537.841797" xlink:href="#DejaVuSans-104"/>
    <use x="2601.220703" xlink:href="#DejaVuSans-105"/>
    <use x="2629.003906" xlink:href="#DejaVuSans-114"/>
    <use x="2668.367188" xlink:href="#DejaVuSans-100"/>
    <use x="2731.84375" xlink:href="#DejaVuSans-32"/>
    <use x="2763.630859" xlink:href="#DejaVuSans-115"/>
    <use x="2815.730469" xlink:href="#DejaVuSans-116"/>
    <use x="2854.939453" xlink:href="#DejaVuSans-101"/>
    <use x="2916.462891" xlink:href="#DejaVuSans-112"/>
   </g>
  </g>
 </g>
 <defs>
  <clipPath id="pf806a7c25e">
   <rect height="437.925625" width="711.821875" x="54.978125" y="25.918125"/>
  </clipPath>
 </defs>
</svg>
